<svg id="Layer_1" data-name="Layer 1" xmlns="http://www.w3.org/2000/svg" viewBox="0 0 1000 1000"><defs><style>.cls-1{fill:#efefef;}.cls-2{fill:#37342f;}.cls-3{fill:#1a1916;}.cls-4{fill:#423f38;}.cls-5{fill:#615e53;}.cls-6{fill:#69665a;}.cls-7{fill:#3d3b34;}.cls-8{fill:#3b3832;}.cls-9{fill:#434039;}.cls-10{fill:#403e37;}.cls-11{fill:#403d37;}.cls-12{fill:#424039;}.cls-13{fill:#413f38;}.cls-14{fill:#413e38;}.cls-15{fill:#413e37;}.cls-16{fill:#3f3c35;}.cls-17{fill:#3f3c36;}.cls-18{fill:#403d36;}.cls-19{fill:#3f3d36;}.cls-20{fill:#3e3c35;}.cls-21{fill:#3e3b35;}.cls-22{fill:#48453d;}.cls-23{fill:#514e45;}.cls-24{fill:#49463f;}.cls-25{fill:#4b4840;}.cls-26{fill:#4c4941;}.cls-27{fill:#4d4a42;}.cls-28{fill:#4a473f;}.cls-29{fill:#4f4c44;}.cls-30{fill:#49463e;}.cls-31{fill:#47443d;}.cls-32{fill:#4b4841;}.cls-33{fill:#45423b;}.cls-34{fill:#48463e;}.cls-35{fill:#48453e;}.cls-36{fill:#46433c;}.cls-37{fill:#47443c;}.cls-38{fill:#535047;}.cls-39{fill:#524f46;}.cls-40{fill:#545148;}.cls-41{fill:#524f47;}.cls-42{fill:#504d44;}.cls-43{fill:#514e46;}</style></defs><rect class="cls-1" x="-1" width="1000" height="1000"/><path class="cls-2" d="M561.15,412.65h4.07c1,1.34,1.81,3.13,3.16,4q112.44,69.52,224.93,138.92a22.32,22.32,0,0,1,3.52,3.43,32,32,0,0,1-4.2,1.68q-37.12,9.24-74.26,18.4L501.44,632.65c-22.13,5.46-44.29,10.78-66.39,16.38-1.68.43-2.93,2.56-4.39,3.9l-7-.06c0-1.59.57-4.07-.19-4.6-4.71-3.26-9.73-6.08-14.64-9L195.19,507.28c1.68-1,3.24-2.49,5.05-2.93,27.3-6.73,54.63-13.31,81.95-19.93a16.88,16.88,0,0,1-1.73,2c-3,2.55-6,5-9,7.55,3,2.83,5.55,6.29,9,8.38,14.84,9.06,29.54,3.52,43.71-1.86,5.84-2.22,5.62-8.11-.18-10.61-9.06-3.9-18.71-6.44-28.11-9.56l40.81-9.51c-1.63,3.36-5.46,8.83-4.56,9.77,14.1,14.67,33.18,17.28,50.82,5.17h0l8.93-4.66c-1.85-2.53-3.17-5.95-5.65-7.41-6.26-3.69-13-6.5-19.61-9.67l31.3-8.14c-1.33,3.17-4.62,8.26-3.68,9.22,7.91,8.06,17.6,14,29.27,12.73,8.08-.87,16-4,23.75-6.73,2.43-.84,5.72-3.32,5.94-5.34s-2.29-5.37-4.47-6.71c-6.73-4.14-13.88-7.6-20.87-11.32L457.7,441c-4.17,6.92-2.73,11.6,5.45,13.58,11.28,5.72,23,7.34,35.37,4.07,1.35,0,3,.49,4-.13,4.18-2.69,8.15-5.7,12.19-8.6-2.4-3-4.22-7.06-7.32-8.62-6.21-3.11-13.13-4.81-19.75-7.1,23-5.86,46-11.67,69-17.7C558.32,416,559.64,414,561.15,412.65ZM679.48,514.3c2.19-.43,4.57-.47,6.53-1.4a72.83,72.83,0,0,0,8-5.07c-1.87-2.66-3.27-5.91-5.73-7.82-3.11-2.41-7.11-5.27-10.67-5.19-8,.16-16,2-24,3.17-2,0-4.9-.75-6,.28-2.94,2.89-8,8.13-7.15,9.62C645.83,517.36,669.76,520.77,679.48,514.3Zm-251.72,5.43c-1.58,0-3.46-.54-4.7.12-3.45,1.84-6.63,4.18-9.92,6.32,2.12,2.64,3.79,5.93,6.45,7.78,10.14,7,21.33,6.49,32.67,3.44,3.45-.95,7.63-1,10.11-3.11,2.29-1.91,4.72-7.11,3.69-8.93C461,516.37,436,513.14,427.76,519.73ZM540.7,480.34c3.83-1.43,7.72-2.73,11.41-4.44.42-.2.21-3-.48-4.13-6.34-10.31-30-14-39.51-6.38-2.26.08-5.07-.66-6.66.41-3.44,2.33-11.59,3.66-5.39,10.29C509.22,485.86,529.93,487.57,540.7,480.34Zm125.16,82.85c-3.79,1.37-7.6,2.69-11.28,4.31a10.64,10.64,0,0,0,1.49,4.49c7.89,10.54,27.55,13.62,38.37,6.15,2,0,5,.76,5.93-.27,2.84-3,7.7-8.63,6.8-10C700.17,557,676.29,554.79,665.86,563.19ZM478.11,609.38l-9.18,3.85c1.7,2.62,2.88,5.92,5.21,7.74,10.47,8.16,21.91,9.21,33.91,3.36a33.81,33.81,0,0,0,6.05-.17c6.85-1.39,10.79-7.36,7.54-11.13C512.49,602.42,489,600.45,478.11,609.38Zm-95.24-10.87c-3.22.65-6.51,1-9.63,2-4.83,1.49-8.11,4.32-3.35,9,10,10,30,11.65,41.56,3.9,3.18-1.17,6.52-2.05,9.42-3.71.66-.39.37-3.79-.48-5.2C414.74,595.11,391.55,591.49,382.87,598.51Zm227.22-21.73c-2,0-4.41-.65-6.06.16-3.83,1.87-7.31,4.45-10.94,6.75,2.37,2.63,4.31,5.95,7.19,7.76,12,7.53,32.66,6.72,43.56-1.69,1.35-1,2.11-5.21,1.19-6.36-2.16-2.7-5.36-6-8.4-6.27-8.78-.84-17.69-.33-26.54-.35Zm96.2-58.33c-7.69,2.15-14.89,3.5-21.55,6.2-7.33,3-6.08,7.07-.2,11.11,10.25,7.06,21.45,6.69,32.49,3.55,4.24-1.21,7.73-5.4,11.09-8.71.33-.32-2.23-5.06-4.26-6C718.24,522.07,712.2,520.45,706.29,518.45Zm-209.49,6.6c8.84-1.58,16.31-2.26,23.28-4.46,3.2-1,5.89-4.76,7.78-7.88.45-.74-3-4.39-5.11-6-9.93-7.46-36.69-6.26-45.44,2.25-1.05,1-.56,5.87.61,6.56C484.39,519.3,491.29,522.35,496.8,525.05ZM274.68,547.12c8.28-2.22,14.95-3.19,20.91-5.78,8.74-3.81,8.34-8,.69-13.78-10.85-8.22-35.3-2.84-43.56,3.3-.87.64.13,6.37,1.63,7.18C261.19,541.71,268.52,544.46,274.68,547.12ZM376,556.83c8.26-3.45,16.09-6.36,23.49-10.14,1.27-.64,1.92-6.19.75-7.34-8.37-8.21-35.3-9.17-43.91-1.41-1.61,1.46-1.66,7.94-.29,8.83C362,550.67,368.79,553.36,376,556.83Zm264.74,1.87c8-2.29,15-3.35,21.09-6.37,3.55-1.77,10.67-5.66,2.7-11.33-12.8-9.1-32.37-7-43.67.15-1.46.94-1.58,7.79-.39,8.45C627.14,553.33,634.41,556,640.72,558.7ZM452.26,604.46c9.92-2.08,16.77-2.92,23.14-5.13,3-1.05,5.91-4.37,7.32-7.38.55-1.17-2.79-4.71-4.92-6.49-8.78-7.35-37.68-6.41-45.79,1.71-1.31,1.32-1.36,6.5-.39,7.05C439,598.37,446.71,601.8,452.26,604.46ZM243.1,498.16c-8.37,1.78-17.28,3-25.67,5.75-4.69,1.54-8.07,5.24-1.59,10.29,10.89,8.49,28.67,10.33,39.5,2.83,3-2,4.94-5.53,7.37-8.35-2.75-2.19-5.26-4.81-8.3-6.45C251.15,500.48,247.39,499.65,243.1,498.16Zm226.17-20.9c-7.71.75-13.64.32-18.78,2.12C445.8,481,442,485,437.75,488c3.35,2.95,6.37,6.42,10.12,8.73,11,6.81,22.09,2.57,32.73-1.19,3.07-1.08,5-5.33,7.5-8.12-2.86-2.42-5.4-5.46-8.65-7.1C475.77,478.48,471.46,477.88,469.27,477.26Zm-51.2,103,1.23-1.66c5.71-1.6,11.8-2.43,17-5,8-3.9,7.5-7.12.11-12.36-9.23-6.55-33.75-5-41.28,2.26-1.3,1.25-.94,7,.17,7.56C402.68,574.61,410.44,577.29,418.07,580.25ZM548.51,446.06l.57-1.37c5.21-1,10.76-1.21,15.52-3.27,3.33-1.44,5.58-5.4,8.32-8.24-2.67-2.48-5-5.71-8.08-7.32-10.87-5.6-22.25-2.77-33.19-.27-3.7.85-6.62,5.12-9.89,7.82,3.1,2.57,5.85,6,9.4,7.52C536.65,443.31,542.7,444.41,548.51,446.06Zm51.74,88.29c8.56-2.3,15.53-3.34,21.76-6.05,8-3.47,7.69-8.76.3-13.53-10.26-6.63-21.22-3.82-31.87-2.18-4,.62-7.82,3.77-11.2,6.43-.85.67-.37,5.18.66,5.73C586.88,528.45,594.16,531.55,600.25,534.35ZM427.86,642.54c8.07-.9,13.58-.49,18.22-2.32s8.4-5.87,12.54-9c-3.71-2.87-7.25-7.9-11.16-8.2a149.83,149.83,0,0,0-32.65,1.07c-4.82.7-10.17,5.89-3.05,10.93C417.15,638.89,423.92,640.78,427.86,642.54Zm128.53-28c8.78-4,17.21-7.71,25.42-11.84.64-.32.51-4.3-.53-5.45-10-11-33-8.71-44.74-2.19-5.78,3.22-7.75,6.69-.52,10.29C542.23,608.4,548.67,611,556.39,614.49Zm14.79-104.31.93-2.45c1.95-.4,4-.48,5.82-1.3,2-.93,3.59-2.75,5.58-3.77,7.75-4,7.94-6.54.68-11.48-8.91-6.07-33.94-5.64-42.43.8-6.83,5.17-2.36,9.3,2.3,11C552.82,506.14,562.11,507.86,571.18,510.18Zm-94.52,55.17c9-3,16.91-5.18,24.32-8.54,1.65-.75,1.55-5.68,1.86-8.72.07-.65-1.48-1.58-2.41-2.21-10.3-7-35-6.39-44.63,1.67-1.44,1.21-1.41,7.31-.25,8C462.17,559.27,469.34,562.07,476.66,565.35Zm132.92-3.73c-3.82-3.22-6.51-6.46-10-8.24-15-7.7-29.54-3.31-43.72,2.69-1.37.58-2.61,5.73-1.81,6.45,3.72,3.37,7.82,6.93,12.45,8.59,12.57,4.51,24.55-.34,36.39-4.07C605.18,566.33,606.89,563.88,609.58,561.62ZM403.9,490.78c-9.69,2.56-17.76,4.11-25.39,6.88-7,2.54-6.05,6.63-.6,10.65,14.73,10.88,29.94,7.85,45,1.31,4.9-2.13,7.15-6.79,1.29-10.13C417.67,495.76,410.3,493.46,403.9,490.78Zm340.3,76.67c6.49-2.72,13.86-5.39,20.83-8.84,7.67-3.79,3.33-7.28-1-10.07-12.67-8.14-25.87-4.11-38.79-.92-2.45.6-5.27,4.19-5.75,6.8-.34,1.84,2.51,5.4,4.74,6.37C730.06,563.36,736.34,564.92,744.2,567.45ZM589.89,445.37c-8.43,2.28-16.38,4.23-24.16,6.69-2.08.66-4.49,2.6-5.16,4.52-.43,1.22,1.74,3.82,3.29,5.19,9.41,8.27,30.8,10,41.78,3.21,2.93-1.81,5.14-4.78,7.69-7.21-3-2.54-5.65-5.74-9.05-7.46C599.79,448.05,594.71,447,589.89,445.37Zm40.92,50,1.1-1.81c4.4-1.4,9-2.33,13.12-4.35,3.16-1.56,5.64-4.49,8.43-6.81-2.62-2.56-4.94-5.57-7.92-7.59-13.12-8.89-26.56-3.06-39.71,0-2.88.68-5.05,4.35-7.54,6.65,2.42,2.08,4.52,5,7.33,6.07C613.86,490.58,622.39,492.83,630.81,495.38ZM514.28,588.46c7.08-1.23,12.44-1.21,16.92-3.19s8.06-5.94,12-9c-4.14-3-8.12-8.23-12.47-8.56-10.33-.78-20.89.39-31.24,1.66-2.32.29-5.08,4-5.88,6.64-.43,1.43,2.43,4.81,4.54,5.86C503.83,584.65,509.86,586.69,514.28,588.46Zm31.3-63.9c-8.89,2.19-16.77,3.9-24.5,6.16-2.25.65-5.36,2.62-5.68,4.4s1.79,4.83,3.64,6.27c13,10,27,7.07,40.87,2.52,2.89-.95,5.06-4.12,7.56-6.27-2.25-2.61-4-6.11-6.85-7.62C555.88,527.5,550.46,526.25,545.58,524.56Zm-193.87,72c8.93-2.63,16.27-4.35,23.23-7,3-1.17,5.2-4.35,7.77-6.61-2.65-2.55-4.91-5.79-8-7.54-15.08-8.54-29.81-3.59-44.22,2.23-1.3.52-2.23,6.24-1.58,6.62C336.62,588.8,344.67,592.84,351.71,596.54Zm-38.33-24c9.08-2.69,16.08-4.16,22.51-6.94,2.93-1.26,6.5-5.08,6.54-7.78,0-2.31-4.33-5-7.18-6.93a28,28,0,0,0-8.05-3.21c-13-3.63-24.68,2.12-36.58,5.73-.77.24-1.26,6.09-.28,6.68C298.22,564.82,306.48,568.91,313.38,572.54Zm22-40.3c9.39-2.49,17-4.2,24.32-6.59,2.5-.81,6.32-3.44,6.22-5-.17-2.63-2.66-5.46-4.8-7.57-10.48-10.33-38.62-4.46-46.78,1.88-1.26,1-1.17,6.57-.1,7.16C321.28,526,328.76,529.16,335.38,532.24Z"/><path class="cls-3" d="M430.66,652.93c1.46-1.34,2.71-3.47,4.39-3.9,22.1-5.6,44.26-10.92,66.39-16.38L718.37,579q37.13-9.18,74.26-18.4a32,32,0,0,0,4.2-1.68,22.32,22.32,0,0,0-3.52-3.43Q680.86,486.05,568.38,416.61c-1.35-.83-2.12-2.62-3.16-4,8.55,4.2,17.5,7.74,25.59,12.7q106.66,65.43,213.07,131.32a45.12,45.12,0,0,1,4.12,3.21,50.37,50.37,0,0,1-5.23,1.9q-131.16,32.36-262.33,64.65-53.21,13.13-106.39,26.35A17.26,17.26,0,0,1,430.66,652.93Z"/><path class="cls-4" d="M457.7,441l-29.92,6.79-29.94,8.15L366.54,464l-29.93,6.8-40.81,9.51-13.61,4.08c-27.32,6.62-54.65,13.2-81.95,19.93-1.81.44-3.37,1.93-5.05,2.93l-7,.28L185,505.74c1.17-.77,2.24-1.95,3.52-2.26C222,495.26,255.55,487.23,289,479Q391.74,453.58,494.39,428q31.35-7.78,62.71-15.51a15.41,15.41,0,0,1,4,.13c-1.51,1.31-2.83,3.35-4.56,3.8-23,6-46,11.84-69,17.7Z"/><path class="cls-5" d="M188.23,507.56l7-.28,213.6,131.94,2.67,6.67q-66-40.64-132-81.28Q235,537.25,190.43,510A11.94,11.94,0,0,1,188.23,507.56Z"/><path class="cls-6" d="M411.46,645.89l-2.67-6.67c4.91,3,9.93,5.79,14.64,9,.76.53.16,3,.19,4.6Z"/><path class="cls-7" d="M282.19,484.42l13.61-4.08c9.4,3.12,19.05,5.66,28.11,9.56,5.8,2.5,6,8.39.18,10.61-14.17,5.38-28.87,10.92-43.71,1.86-3.42-2.09-6-5.55-9-8.38,3-2.51,6.06-5,9-7.55A16.88,16.88,0,0,0,282.19,484.42Zm16.18,19.84c5.64-1.11,10.63-1.57,15.2-3.2,2.33-.84,5.78-4.24,5.43-5.66-.65-2.58-3.53-6.11-5.89-6.47a116.61,116.61,0,0,0-24.46-1.34c-3.08.19-5.93,4.1-8.89,6.31,2.38,2.32,4.4,5.32,7.23,6.79C290.58,502.57,294.82,503.21,298.37,504.26Z"/><path class="cls-8" d="M397.84,455.89l29.94-8.15c7,3.72,14.14,7.18,20.87,11.32,2.18,1.34,4.7,4.6,4.47,6.71s-3.51,4.5-5.94,5.34c-7.78,2.69-15.67,5.86-23.75,6.73-11.67,1.28-21.36-4.67-29.27-12.73C393.22,464.15,396.51,459.06,397.84,455.89Zm22.92,17.79.43,1.41c7-1.92,14.43-2.94,20.86-6s5.07-8.54-1.13-10.37c-7.77-2.29-16.17-4.18-24.11-3.62-5.55.4-10.78,5.21-16.15,8,3.55,3.37,6.72,7.35,10.79,9.88C413.8,474.43,417.61,473.53,420.76,473.68Z"/><path class="cls-9" d="M706.29,518.45c5.91,2,12,3.62,17.57,6.17,2,.92,4.59,5.66,4.26,6-3.36,3.31-6.85,7.5-11.09,8.71-11,3.14-22.24,3.51-32.49-3.55-5.88-4-7.13-8.13.2-11.11C691.4,522,698.6,520.6,706.29,518.45Zm-4.44,5.07-12.36,7.37c5.24,1.84,10.47,5.07,15.72,5.1,4.27,0,8.56-3.81,12.84-5.92-4-1.94-8-3.89-12.06-5.8A33.37,33.37,0,0,0,701.85,523.52Z"/><path class="cls-8" d="M336.61,470.83l29.93-6.8c6.57,3.17,13.35,6,19.61,9.67,2.48,1.46,3.8,4.88,5.65,7.41l-8.93,4.66c.84-2.23,2.69-4.64,2.32-6.65-1.32-7.26-22-13.14-28.17-8.29l-10.89,2.71-8,4.71c1.59,2.53,2.62,6.1,4.92,7.36,3.94,2.17,8.74,4.19,13.06,4,9-.47,17.85-2.45,26.77-3.81-17.64,12.11-36.72,9.5-50.82-5.17C331.15,479.66,335,474.19,336.61,470.83Z"/><path class="cls-10" d="M496.8,525.05c-5.51-2.7-12.41-5.75-18.88-9.54-1.17-.69-1.66-5.54-.61-6.56,8.75-8.51,35.51-9.71,45.44-2.25,2.15,1.62,5.56,5.27,5.11,6-1.89,3.12-4.58,6.87-7.78,7.88C513.11,522.79,505.64,523.47,496.8,525.05Zm6.29-4.33c3.49-.84,7.39-1.24,10.77-2.79,2.26-1,3.76-3.68,5.6-5.6-2-1.63-3.92-4.41-6.12-4.67a114.08,114.08,0,0,0-21.69-.76c-2.55.19-4.86,3.66-7.28,5.63,2.42,2.08,4.54,4.89,7.35,6.05C495.13,520,499.11,520,503.09,520.72Z"/><path class="cls-4" d="M274.68,547.12c-6.16-2.66-13.49-5.41-20.33-9.08-1.5-.81-2.5-6.54-1.63-7.18,8.26-6.14,32.71-11.52,43.56-3.3,7.65,5.78,8.05,10-.69,13.78C289.63,543.93,283,544.9,274.68,547.12Zm-.16-5.25c4.83-.44,8.53,0,11.41-1.27s4.69-4.35,7-6.64c-2.16-1.76-4.16-4.75-6.49-5a87.89,87.89,0,0,0-19.72-.29c-2.17.22-4.71,3.5-5.64,5.93-.39,1,2.62,4.19,4.66,5.11C268.83,541.09,272.44,541.4,274.52,541.87Z"/><path class="cls-4" d="M376,556.83c-7.19-3.47-14-6.16-20-10.06-1.37-.89-1.32-7.37.29-8.83,8.61-7.76,35.54-6.8,43.91,1.41,1.17,1.15.52,6.7-.75,7.34C392.07,550.47,384.24,553.38,376,556.83Zm1-20.77c-3.29,0-4.64-.41-5.5.07-3.39,1.9-6.62,4.07-9.91,6.14,1.49,2,2.83,5.69,4.52,5.86a117.82,117.82,0,0,0,22.14.25c1.79-.15,3.25-4.16,4.86-6.39-2.32-1.53-4.46-3.66-7-4.45A50.3,50.3,0,0,0,377,536.06Z"/><path class="cls-4" d="M640.72,558.7c-6.31-2.71-13.58-5.37-20.27-9.1-1.19-.66-1.07-7.51.39-8.45,11.3-7.19,30.87-9.25,43.67-.15,8,5.67.85,9.56-2.7,11.33C655.77,555.35,648.75,556.41,640.72,558.7Zm.1-20.35c-2.65.49-5.69.31-7.75,1.64-2.55,1.66-4.28,4.58-6.36,7,2.92,1.8,5.66,4.56,8.81,5.15a32.44,32.44,0,0,0,13.84-.23c3.4-.88,6.17-4.11,9.23-6.29-3-1.91-5.91-4.2-9.16-5.6C646.83,538.87,643.77,538.86,640.82,538.35Z"/><path class="cls-11" d="M452.26,604.46c-5.55-2.66-13.3-6.09-20.64-10.24-1-.55-.92-5.73.39-7.05,8.11-8.12,37-9.06,45.79-1.71,2.13,1.78,5.47,5.32,4.92,6.49-1.41,3-4.28,6.33-7.32,7.38C469,601.54,462.18,602.38,452.26,604.46Zm5.4-21.2c-4.36,1.18-10.46,2.42-16.16,4.69-1.25.49-1.89,6.6-1.37,6.83,5,2.18,10.51,5.44,15.48,4.89,6.17-.69,12-4.7,17.92-7.28-3.79-2.83-7.55-5.71-11.41-8.45C461.47,583.48,460.37,583.65,457.66,583.26Z"/><path class="cls-12" d="M243.1,498.16c4.29,1.49,8.05,2.32,11.31,4.07,3,1.64,5.55,4.26,8.3,6.45-2.43,2.82-4.4,6.3-7.37,8.35-10.83,7.5-28.61,5.66-39.5-2.83-6.48-5.05-3.1-8.75,1.59-10.29C225.82,501.14,234.73,499.94,243.1,498.16Zm-6.37,18.74c2.7,0,5.82.85,8-.21,3.07-1.5,5.5-4.36,8-6.81.24-.24-.45-2-1.12-2.55-7.6-6.23-16.39-5-24.8-2.89-2.39.61-3.85,4.92-5.74,7.53,2.51,1.65,4.82,3.85,7.57,4.76C231.12,517.54,234,516.9,236.73,516.9Z"/><path class="cls-13" d="M469.27,477.26c2.19.62,6.5,1.22,10.18,3.07,3.25,1.64,5.79,4.68,8.65,7.1-2.47,2.79-4.43,7-7.5,8.12-10.64,3.76-21.73,8-32.73,1.19-3.75-2.31-6.77-5.78-10.12-8.73,4.21-3,8.05-7,12.74-8.63C455.63,477.58,461.56,478,469.27,477.26Zm-7.58,18.48c2.85-.18,5.46.36,7.25-.61,3.45-1.86,6.43-4.57,9.6-6.93-2.3-1.87-4.35-4.58-7-5.41-3.52-1.12-7.82-1.84-11.23-.85-4.75,1.39-9,4.52-13.46,6.9,4,2.16,8,4.38,12.13,6.43A7.81,7.81,0,0,0,461.69,495.74Z"/><path class="cls-9" d="M418.07,580.25c-7.63-3-15.39-5.64-22.74-9.19-1.11-.53-1.47-6.31-.17-7.56,7.53-7.21,32-8.81,41.28-2.26,7.39,5.24,7.86,8.46-.11,12.36-5.23,2.56-11.32,3.39-17,5Zm-2.35-3.41,15.34-8.53c-4.75-2.61-9.45-7.16-14.26-7.28s-9.76,4.19-14.64,6.55Z"/><path class="cls-14" d="M548.51,446.06c-5.81-1.65-11.86-2.75-17.35-5.13-3.55-1.54-6.3-4.95-9.4-7.52,3.27-2.7,6.19-7,9.89-7.82,10.94-2.5,22.32-5.33,33.19.27,3.12,1.61,5.41,4.84,8.08,7.32-2.74,2.84-5,6.8-8.32,8.24-4.76,2.06-10.31,2.27-15.52,3.27ZM546,443.23l1.36-2.29c2,0,4.44.7,6-.14,3.65-2,6.89-4.66,10.29-7.06-2.83-2.15-5.4-5-8.6-6.24-2.64-1-6-.24-9.07-.18-6,.12-14-.71-13.88,7.16C532.13,437.49,541.06,440.32,546,443.23Z"/><path class="cls-14" d="M600.25,534.35c-6.09-2.8-13.37-5.9-20.35-9.6-1-.55-1.51-5.06-.66-5.73,3.38-2.66,7.19-5.81,11.2-6.43,10.65-1.64,21.61-4.45,31.87,2.18,7.39,4.77,7.66,10.06-.3,13.53C615.78,531,608.81,532.05,600.25,534.35Zm-.4-20.51c-2,.63-5,1-7.34,2.45a15.42,15.42,0,0,0-5.76,6c-.35.73,2.93,4.59,4.74,4.75a119.16,119.16,0,0,0,21.78.14c2.13-.2,3.91-3.89,5.86-6-2.13-1.78-4-4.3-6.46-5.15C608.92,514.74,604.77,514.61,599.85,513.84Z"/><path class="cls-12" d="M427.86,642.54c-3.94-1.76-10.71-3.65-16.1-7.47-7.12-5-1.77-10.23,3.05-10.93a149.83,149.83,0,0,1,32.65-1.07c3.91.3,7.45,5.33,11.16,8.2-4.14,3.08-7.9,7.13-12.54,9S435.93,641.64,427.86,642.54Zm1.27-16.86c-1.57,0-3.36-.48-4.68.1a66.48,66.48,0,0,0-7.37,4.38c2,2.1,3.54,5.07,5.95,6.08,3.68,1.55,8.19,3,11.88,2.19,4.3-.88,8.18-4,12-6.6.41-.28-.69-4.42-1.44-4.54-5.39-.86-10.87-1.14-16.33-1.61Z"/><path class="cls-15" d="M556.39,614.49c-7.72-3.46-14.16-6.09-20.37-9.19-7.23-3.6-5.26-7.07.52-10.29,11.72-6.52,34.77-8.82,44.74,2.19,1,1.15,1.17,5.13.53,5.45C573.6,606.78,565.17,610.49,556.39,614.49Zm.9-21.6c-3.84.21-6.49-.39-8.25.6a43.51,43.51,0,0,0-8.68,7.1,10.65,10.65,0,0,0,3.39,4.28c7.5,4.09,15.54,5.57,23.52,1.87,2.79-1.29,4.67-4.53,7-6.89-2.62-1.81-5-4.2-7.91-5.3C563,593.31,559.32,593.23,557.29,592.89Z"/><path class="cls-14" d="M571.18,510.18c-9.07-2.32-18.36-4-27.12-7.21-4.66-1.69-9.13-5.82-2.3-11,8.49-6.44,33.52-6.87,42.43-.8,7.26,4.94,7.07,7.5-.68,11.48-2,1-3.57,2.84-5.58,3.77-1.77.82-3.87.9-5.82,1.3Zm-11.1-20.82c-2.15.73-4.85,1.63-7.53,2.56-5.14,1.79-7.77,5.11-2.72,9.09,6.93,5.47,15.16,6,23.07,1.94,2.72-1.39,4.63-4.37,6.91-6.63a112.15,112.15,0,0,0-10.33-5.07C566.79,490.24,563.78,490.07,560.08,489.36Z"/><path class="cls-10" d="M476.66,565.35c-7.32-3.28-14.49-6.08-21.11-9.84-1.16-.65-1.19-6.75.25-8,9.65-8.06,34.33-8.66,44.63-1.67.93.63,2.48,1.56,2.41,2.21-.31,3-.21,8-1.86,8.72C493.57,560.17,485.62,562.34,476.66,565.35Zm1.91-4c4.48-1.45,8.83-2.53,12.87-4.31,1.75-.78,4.12-3.15,4-4.53-.24-2-2.26-4.79-4-5.27-5.58-1.51-11.57-3.32-17.11-2.65-4.59.55-8.78,4.45-13.14,6.86a110.14,110.14,0,0,0,9.35,6.84C472.81,559.68,475.66,560.27,478.57,561.33Z"/><path class="cls-16" d="M609.58,561.62c-2.69,2.26-4.4,4.71-6.65,5.42-11.84,3.73-23.82,8.58-36.39,4.07-4.63-1.66-8.73-5.22-12.45-8.59-.8-.72.44-5.87,1.81-6.45,14.18-6,28.74-10.39,43.72-2.69C603.07,555.16,605.76,558.4,609.58,561.62ZM579.8,570c5.41-1.05,9.73-1.45,13.71-2.84,2.16-.76,5.1-3.09,5.23-4.88.15-2.06-1.93-5.18-3.92-6.33-9.72-5.59-19.89-3.9-29.48.19-4.65,2-6.39,6.65-.39,9.46C569.91,567.9,575.55,568.78,579.8,570Z"/><path class="cls-17" d="M403.9,490.78c6.4,2.68,13.77,5,20.32,8.71,5.86,3.34,3.61,8-1.29,10.13-15.08,6.54-30.29,9.57-45-1.31-5.45-4-6.41-8.11.6-10.65C386.14,494.89,394.21,493.34,403.9,490.78ZM388.32,498l-6.58,4.31c1.74,2.19,3.48,4.37,5.21,6.56,8.93.27,17.87.86,26.77.56,1.86-.07,4.84-3.33,5-5.34.16-1.67-2.89-5.08-4.74-5.25C405.48,498.09,396.88,498.2,388.32,498Z"/><path class="cls-4" d="M744.2,567.45c-7.86-2.53-14.14-4.09-20-6.66-2.23-1-5.08-4.53-4.74-6.37.48-2.61,3.3-6.2,5.75-6.8,12.92-3.19,26.12-7.22,38.79.92,4.35,2.79,8.69,6.28,1,10.07C758.06,562.06,750.69,564.73,744.2,567.45Zm-3.11-21.23a96.31,96.31,0,0,0-9.54,3.55c-4.26,2.09-7.47,6.31-1.48,8.52,6.85,2.52,14.78,2.78,22.21,2.67,2.37,0,4.66-4.44,7-6.84-2.15-1.68-4.07-3.91-6.5-4.91C749.31,547.8,745.47,547.29,741.09,546.22Z"/><path class="cls-11" d="M589.89,445.37c4.82,1.59,9.9,2.68,14.39,4.94,3.4,1.72,6.06,4.92,9.05,7.46-2.55,2.43-4.76,5.4-7.69,7.21-11,6.79-32.37,5.06-41.78-3.21-1.55-1.37-3.72-4-3.29-5.19.67-1.92,3.08-3.86,5.16-4.52C573.51,449.6,581.46,447.65,589.89,445.37Zm-4.55,21.05c5.65-1.22,10.8-1.45,15.09-3.49,4.62-2.2,6.24-6.42.36-9.55-9.27-4.93-19.14-3.69-28.43-.57-4.82,1.63-5,6.71-.39,9.32C576.06,464.44,581.07,465.12,585.34,466.42Z"/><path class="cls-17" d="M630.81,495.38c-8.42-2.55-16.95-4.8-25.19-7.82-2.81-1-4.91-4-7.33-6.07,2.49-2.3,4.66-6,7.54-6.65,13.15-3.08,26.59-8.91,39.71,0,3,2,5.3,5,7.92,7.59-2.79,2.32-5.27,5.25-8.43,6.81-4.09,2-8.72,2.95-13.12,4.35Zm-5.08-4.16c5.75-1.16,9.91-1.42,13.55-2.93,2.39-1,5-3.52,5.61-5.86.36-1.29-2.85-4-4.92-5.42-9.83-6.7-19.86-2.91-29.56.39-1.06.36-1.5,7.74-.46,8.25C615.38,488.31,621.39,489.8,625.73,491.22Z"/><path class="cls-4" d="M514.28,588.46c-4.42-1.77-10.45-3.81-16.1-6.63-2.11-1.05-5-4.43-4.54-5.86.8-2.66,3.56-6.35,5.88-6.64,10.35-1.27,20.91-2.44,31.24-1.66,4.35.33,8.33,5.56,12.47,8.56-4,3.1-7.56,7.07-12,9S521.36,587.23,514.28,588.46ZM516,568c-2.68.9-6.14,1.7-9.25,3.22-2,1-4.82,3-4.91,4.61-.09,1.83,2.24,5.14,4,5.48,6.14,1.19,12.63,2.44,18.67,1.56,3.39-.5,6.17-5.16,9.22-7.95-2.94-1.69-5.75-3.69-8.85-5C522.38,568.94,519.6,568.78,516,568Z"/><path class="cls-10" d="M545.58,524.56c4.88,1.69,10.3,2.94,15,5.46,2.84,1.51,4.6,5,6.85,7.62-2.5,2.15-4.67,5.32-7.56,6.27-13.86,4.55-27.91,7.52-40.87-2.52-1.85-1.44-4-4.42-3.64-6.27s3.43-3.75,5.68-4.4C528.81,528.46,536.69,526.75,545.58,524.56Zm-.78,21,.21-1.13c1.8-.11,4,.38,5.31-.45,3.06-1.87,5.72-4.4,8.54-6.66-2.33-2.16-4.52-6-7-6.18a154.08,154.08,0,0,0-24.11.18c-1.58.11-4.27,3-4.14,4.38.2,2,2.15,4.82,4,5.46C533.15,543.13,539,544.19,544.8,545.59Z"/><path class="cls-17" d="M351.71,596.54c-7-3.7-15.09-7.74-22.81-12.34-.65-.38.28-6.1,1.58-6.62,14.41-5.82,29.14-10.77,44.22-2.23,3.1,1.75,5.36,5,8,7.54-2.57,2.26-4.78,5.44-7.77,6.61C368,592.19,360.64,593.91,351.71,596.54ZM356,573c-6.35,1.58-11.57,2.16-16.11,4.24-3.74,1.7-6.67,5-1.75,9.31,6.54,5.72,27.34,6.51,33.45.43,1.43-1.42,1.33-7.23.23-7.81C366.61,576.38,360.83,574.74,356,573Z"/><path class="cls-17" d="M313.38,572.54c-6.9-3.63-15.16-7.72-23-12.45-1-.59-.49-6.44.28-6.68,11.9-3.61,23.57-9.36,36.58-5.73a28,28,0,0,1,8.05,3.21c2.85,1.9,7.21,4.62,7.18,6.93,0,2.7-3.61,6.52-6.54,7.78C329.46,568.38,322.46,569.85,313.38,572.54Zm4.42-23.64c-6.17,1.42-11.94,2.17-17.26,4.15-4.76,1.77-6.94,5.24-1.77,9.5,7.36,6.06,22.4,6.44,30.85,1.17,6.05-3.77,7.9-8.2-.64-11.43C325.28,550.89,321.39,550,317.8,548.9Z"/><path class="cls-18" d="M610.09,576.78c8.85,0,17.76-.49,26.54.35,3,.29,6.24,3.57,8.4,6.27.92,1.15.16,5.32-1.19,6.36-10.9,8.41-31.61,9.22-43.56,1.69-2.88-1.81-4.82-5.13-7.19-7.76,3.63-2.3,7.11-4.88,10.94-6.75,1.65-.81,4-.15,6.06-.16l-2.3,2.37-6.95,7.16c3.41,2.26,6.63,5.94,10.29,6.43,5.81.8,12,0,17.84-1.17,3.28-.65,6.17-3.32,9.23-5.09-2.92-2.77-5.43-7.06-8.84-8C623.22,576.86,616.54,577.25,610.09,576.78Z"/><path class="cls-17" d="M335.38,532.24c-6.62-3.08-14.1-6.22-21.14-10.15-1.07-.59-1.16-6.19.1-7.16,8.16-6.34,36.3-12.21,46.78-1.88,2.14,2.11,4.63,4.94,4.8,7.57.1,1.59-3.72,4.22-6.22,5C352.35,528,344.77,529.75,335.38,532.24Zm10.76-5.72h0c2.57-.6,5.82-.45,7.54-2,2.21-2,3.19-5.35,4.69-8.12-6.83-3.5-13-10.06-21.75-4.83l-14.73,5.51,5.2,8.07Z"/><path class="cls-19" d="M498.52,458.6c-12.33,3.27-24.09,1.65-35.37-4.07-3.36-5.21-3.17-9.64,3.26-12,2.81-1,6-1.1,9-1.6a23.19,23.19,0,0,1-2.33,2.32c-2.3,1.75-4.67,3.4-7,5.09,2.34,2.17,4.53,6,7,6.22a167.68,167.68,0,0,0,26,0c1.9-.13,5-3.48,5-5.32s-2.79-5.25-4.81-5.64c-7.41-1.42-15-1.88-22.53-2.71,8.44.14,17-.51,25.25.81,3.21.51,5.71,5.47,8.54,8.4-3,2-6.09,3.89-9.07,5.91A32.15,32.15,0,0,0,498.52,458.6Z"/><path class="cls-8" d="M498.52,458.6a32.15,32.15,0,0,1,3-2.54c3-2,6-3.95,9.07-5.91-2.83-2.93-5.33-7.89-8.54-8.4-8.25-1.32-16.81-.67-25.25-.81h-1.36c-3,.5-6.17.57-9,1.6-6.43,2.34-6.62,6.77-3.26,12-8.18-2-9.62-6.66-5.45-13.58l29.93-6.8c6.62,2.29,13.54,4,19.75,7.1,3.1,1.56,4.92,5.66,7.32,8.62-4,2.9-8,5.91-12.19,8.6C501.55,459.09,499.87,458.59,498.52,458.6Z"/><path class="cls-11" d="M411.45,613.46c-11.52,7.75-31.52,6.06-41.56-3.9-4.76-4.73-1.48-7.56,3.35-9,3.12-1,6.41-1.35,9.63-2h5.46l0,2.71h0c-1.35,0-2.89-.42-4,.08-3.08,1.33-6,3.05-9,4.62,2,2.22,3.7,6.07,5.91,6.36a109.43,109.43,0,0,0,23,.75c2.93-.23,5.61-3.68,8.41-5.66-2.77-2.32-5.22-5.41-8.41-6.76-3.59-1.52-7.85-1.47-11.82-2.11,8.82-3.84,16,.1,22,5.73C415.44,605.17,412.54,610.28,411.45,613.46Z"/><path class="cls-20" d="M478.11,609.38c10.91-8.93,34.38-7,43.53,3.65,3.25,3.77-.69,9.74-7.54,11.13a33.81,33.81,0,0,1-6.05.17V623l6.56-7.92c-2.88-1.89-5.64-5.14-8.66-5.41-8.31-.75-16.73-.25-25.11-.24Z"/><path class="cls-17" d="M665.86,563.19c10.43-8.4,34.31-6.18,41.31,4.65.9,1.4-4,7-6.8,10-1,1-3.89.23-5.93.27h0c8.47-10.85,8-13-5.57-15.38-7.42-1.26-15.31.21-23,.45Z"/><path class="cls-17" d="M540.7,480.34c-10.77,7.23-31.48,5.52-40.63-4.25-6.2-6.63,1.95-8,5.39-10.29,1.59-1.07,4.4-.33,6.66-.41h1.38l-7.36,8.79c3.88,2.44,7.75,6.87,11.66,6.91,8.07.08,16.17-2.18,24.26-3.48C541.61,478.53,541.15,479.43,540.7,480.34Z"/><path class="cls-20" d="M427.76,519.73c8.21-6.59,33.21-3.36,38.3,5.62,1,1.82-1.4,7-3.69,8.93-2.48,2.09-6.66,2.16-10.11,3.11l1.36-2.72,6.3-7.29c-2.94-2.16-5.66-5.64-8.88-6.21-7.16-1.25-14.58-1-21.9-1.44Z"/><path class="cls-7" d="M653.62,498c8-1.16,16-3,24-3.17,3.56-.08,7.56,2.78,10.67,5.19,2.46,1.91,3.86,5.16,5.73,7.82a72.83,72.83,0,0,1-8,5.07c-2,.93-4.34,1-6.53,1.4v-1.37l6.3-7.39c-3-2.12-5.75-5.54-9-6.11-7.13-1.25-14.5-1-21.77-1.43Z"/><path class="cls-21" d="M540.7,480.34c.45-.91.91-1.81,1.36-2.72,5.22-7-.84-9.68-5.33-10.57-7.56-1.5-15.47-1.2-23.23-1.65h-1.38c9.55-7.67,33.17-3.93,39.51,6.38.69,1.12.9,3.93.48,4.13C548.42,477.61,544.53,478.91,540.7,480.34Z"/><path class="cls-18" d="M508.05,623v1.37c-12,5.85-23.44,4.8-33.91-3.36-2.33-1.82-3.51-5.12-5.21-7.74l9.18-3.85h2.73c-1.14,2.59-3.88,6.72-3.13,7.51,2.55,2.66,6.18,5.35,9.69,5.81C494.17,623.6,501.15,623,508.05,623Z"/><path class="cls-17" d="M453.62,534.67c-.45.91-.9,1.81-1.36,2.72-11.34,3.05-22.53,3.6-32.67-3.44-2.66-1.85-4.33-5.14-6.45-7.78,3.29-2.14,6.47-4.48,9.92-6.32,1.24-.66,3.12-.12,4.7-.12h1.38a14.62,14.62,0,0,1-1.7,2c-2.42,2.08-4.9,4.08-7.36,6.1,2.45,2,4.74,5.56,7.38,5.85C436.11,534.66,444.89,534.44,453.62,534.67Z"/><path class="cls-18" d="M653.62,498H655c-.76.78-1.5,1.59-2.29,2.35-2.34,2.26-4.7,4.51-7.05,6.76,3.49,2.39,6.82,6.48,10.5,6.82,7.68.72,15.54-.55,23.32-1v1.37c-9.72,6.47-33.65,3.06-39-6.41-.83-1.49,4.21-6.73,7.15-9.62C648.72,497.24,651.58,498,653.62,498Z"/><path class="cls-17" d="M694.44,578.14c-10.82,7.47-30.48,4.39-38.37-6.15a10.64,10.64,0,0,1-1.49-4.49c3.68-1.62,7.49-2.94,11.28-4.31h0c-6.32,8.22-5.15,11.94,5.37,13.63,7.6,1.23,15.45.92,23.19,1.3Z"/><path class="cls-17" d="M388.33,598.52h-5.46c8.68-7,31.87-3.4,37.52,6,.85,1.41,1.14,4.81.48,5.2-2.9,1.66-6.24,2.54-9.42,3.71,1.09-3.18,4-8.29,3-9.22-6.08-5.63-13.22-9.57-22-5.73Z"/><path class="cls-22" d="M298.37,504.26c-3.55-1.05-7.79-1.69-11.38-3.57-2.83-1.47-4.85-4.47-7.23-6.79,3-2.21,5.81-6.12,8.89-6.31a116.61,116.61,0,0,1,24.46,1.34c2.36.36,5.24,3.89,5.89,6.47.35,1.42-3.1,4.82-5.43,5.66C309,502.69,304,503.15,298.37,504.26Zm.35-1.27,11.55-7.48c-3.63-2.08-7.22-5.7-10.91-5.81s-7.48,3.29-11.23,5.15C291.33,497.32,294.54,499.78,298.72,503Z"/><path class="cls-9" d="M420.76,473.68c-3.15-.15-7,.75-9.31-.7-4.07-2.53-7.24-6.51-10.79-9.88,5.37-2.83,10.6-7.64,16.15-8,7.94-.56,16.34,1.33,24.11,3.62,6.2,1.83,7.66,7.22,1.13,10.37s-13.87,4.12-20.86,6Zm.92-.81,1.2-2c1.57,0,3.43.54,4.67-.1,3.73-1.91,7.21-4.29,10.79-6.48-2.81-2.18-5.42-4.73-8.51-6.37a9.18,9.18,0,0,0-6.58-.51c-5.69,2-11.18,4.54-16.75,6.88Z"/><path class="cls-23" d="M701.85,523.52a33.37,33.37,0,0,1,4.14.75c4,1.91,8,3.86,12.06,5.8-4.28,2.11-8.57,5.93-12.84,5.92-5.25,0-10.48-3.26-15.72-5.1Z"/><path class="cls-14" d="M357,470.83c6.2-4.85,26.85,1,28.17,8.29.37,2-1.48,4.42-2.32,6.65h0c-8.92,1.36-17.8,3.34-26.77,3.81-4.32.22-9.12-1.8-13.06-4-2.3-1.26-3.33-4.83-4.92-7.36l8-4.71c-3.42,5.37-3.25,10.34,3.8,11.34,7.72,1.09,15.7.87,23.52.38,1.83-.12,5.13-4,4.78-5.48-.54-2.26-3.32-4.84-5.7-5.64C367.55,472.47,362.21,471.87,357,470.83Z"/><path class="cls-24" d="M357,470.83c5.19,1,10.53,1.64,15.51,3.31,2.38.8,5.16,3.38,5.7,5.64.35,1.45-3,5.36-4.78,5.48-7.82.49-15.8.71-23.52-.38-7.05-1-7.22-6-3.8-11.34Zm16,7.41c-5.65-2.06-9.32-4.66-12.62-4.26-3.84.48-7.36,3.58-11,5.55,4.47,2,8.8,5,13.46,5.63C365.3,485.48,368.31,481.6,373,478.24Z"/><path class="cls-25" d="M503.09,520.72c-4-.68-8-.72-11.37-2.14-2.81-1.16-4.93-4-7.35-6.05,2.42-2,4.73-5.44,7.28-5.63a114.08,114.08,0,0,1,21.69.76c2.2.26,4.09,3,6.12,4.67-1.84,1.92-3.34,4.58-5.6,5.6C510.48,519.48,506.58,519.88,503.09,520.72Zm-1.91-13.47-9.25,4.86c4.07,1.72,8,4,12.26,4.83,1.56.29,3.79-3.05,5.72-4.74Z"/><path class="cls-26" d="M274.52,541.87c-2.08-.47-5.69-.78-8.8-2.19-2-.92-5.05-4.08-4.66-5.11.93-2.43,3.47-5.71,5.64-5.93a87.89,87.89,0,0,1,19.72.29c2.33.28,4.33,3.27,6.49,5-2.29,2.29-4.22,5.39-7,6.64S279.35,541.43,274.52,541.87Zm1.55-12.82-8.61,4.73c2.92,1.65,5.84,4.63,8.75,4.61,3.15,0,6.27-2.83,9.41-4.43Z"/><path class="cls-27" d="M377,536.06a50.3,50.3,0,0,1,9.1,1.48c2.55.79,4.69,2.92,7,4.45-1.61,2.23-3.07,6.24-4.86,6.39a117.82,117.82,0,0,1-22.14-.25c-1.69-.17-3-3.82-4.52-5.86,3.29-2.07,6.52-4.24,9.91-6.14C372.39,535.65,373.74,536.06,377,536.06Zm.25,1c-3,2.52-5.4,4.53-7.79,6.55,2.35,1.49,5,4.46,7,4.11,3-.51,5.56-3.4,8.31-5.28Z"/><path class="cls-26" d="M640.82,538.35c2.95.51,6,.52,8.61,1.62,3.25,1.4,6.12,3.69,9.16,5.6-3.06,2.18-5.83,5.41-9.23,6.29a32.44,32.44,0,0,1-13.84.23c-3.15-.59-5.89-3.35-8.81-5.15,2.08-2.37,3.81-5.29,6.36-7C635.13,538.66,638.17,538.84,640.82,538.35Zm2.52,14,7.1-6.53c-3-1.45-5.87-3.94-8.88-4.07s-6.11,2.13-9.18,3.33Z"/><path class="cls-28" d="M457.66,583.26c2.71.39,3.81.22,4.46.68,3.86,2.74,7.62,5.62,11.41,8.45-6,2.58-11.75,6.59-17.92,7.28-5,.55-10.48-2.71-15.48-4.89-.52-.23.12-6.34,1.37-6.83C447.2,585.68,453.3,584.44,457.66,583.26Zm-2.48,2.39-9.46,5.65c4.18,1.88,8.24,4.7,12.59,5.26,2.17.28,4.88-3.54,7.34-5.51Z"/><path class="cls-26" d="M236.73,516.9c-2.7,0-5.61.64-8-.17-2.75-.91-5.06-3.11-7.57-4.76,1.89-2.61,3.35-6.92,5.74-7.53,8.41-2.14,17.2-3.34,24.8,2.89.67.55,1.36,2.31,1.12,2.55-2.54,2.45-5,5.31-8,6.81C242.55,517.75,239.43,516.9,236.73,516.9Zm-.1-12.69L228.27,511c3.19,1.2,6.46,3.48,9.57,3.28,2.56-.16,4.94-3.25,7.4-5Z"/><path class="cls-26" d="M461.69,495.74a7.81,7.81,0,0,1-2.7-.47c-4.09-2-8.09-4.27-12.13-6.43,4.46-2.38,8.71-5.51,13.46-6.9,3.41-1,7.71-.27,11.23.85,2.64.83,4.69,3.54,7,5.41-3.17,2.36-6.15,5.07-9.6,6.93C467.15,496.1,464.54,495.56,461.69,495.74Zm.57-13.17-8.39,6.36c3.1,1.57,6.22,4.4,9.3,4.35,2.63,0,5.21-3.39,7.82-5.27Z"/><path class="cls-29" d="M415.72,576.84l-13.56-9.26c4.88-2.36,9.81-6.67,14.64-6.55s9.51,4.67,14.26,7.28Z"/><path class="cls-25" d="M546,443.23c-4.89-2.91-13.82-5.74-13.89-8.75-.16-7.87,7.89-7,13.88-7.16,3-.06,6.43-.85,9.07.18,3.2,1.25,5.77,4.09,8.6,6.24-3.4,2.4-6.64,5.1-10.29,7.06-1.57.84-4,.14-6,.14Zm1-2.71,8.52-7.06c-2.56-1.5-5.18-4.29-7.67-4.18-3.27.16-6.43,2.6-9.64,4.05Z"/><path class="cls-26" d="M599.85,513.84c4.92.77,9.07.9,12.82,2.19,2.45.85,4.33,3.37,6.46,5.15-2,2.08-3.73,5.77-5.86,6a119.16,119.16,0,0,1-21.78-.14c-1.81-.16-5.09-4-4.74-4.75a15.42,15.42,0,0,1,5.76-6C594.87,514.87,597.83,514.47,599.85,513.84Zm1.59,1.69L594.29,522c2.9,1.49,5.83,4.14,8.71,4.1,2.31,0,4.57-3.35,6.85-5.21Z"/><path class="cls-26" d="M429.13,625.68c5.46.47,10.94.75,16.33,1.61.75.12,1.85,4.26,1.44,4.54-3.81,2.56-7.69,5.72-12,6.6-3.69.77-8.2-.64-11.88-2.19-2.41-1-4-4-5.95-6.08a66.48,66.48,0,0,1,7.37-4.38c1.32-.58,3.11-.1,4.68-.1-.48,3.23-11.73,5.42-1.3,9.39,3.49,1.33,8.28-.53,12.41-1.28.5-.09,1.11-3.29.8-3.45-3.19-1.73-6.55-3.17-9.9-4.6A5.58,5.58,0,0,0,429.13,625.68Z"/><path class="cls-25" d="M557.29,592.89c2,.34,5.75.42,9,1.66,2.89,1.1,5.29,3.49,7.91,5.3-2.29,2.36-4.17,5.6-7,6.89-8,3.7-16,2.22-23.52-1.87a10.65,10.65,0,0,1-3.39-4.28,43.51,43.51,0,0,1,8.68-7.1C550.8,592.5,553.45,593.1,557.29,592.89Zm-2,1.08-7.51,6c3.12,1.78,6.18,4.83,9.37,5,2.89.12,5.93-2.92,8.9-4.56Z"/><path class="cls-25" d="M560.08,489.36c3.7.71,6.71.88,9.4,1.89a112.15,112.15,0,0,1,10.33,5.07c-2.28,2.26-4.19,5.24-6.91,6.63-7.91,4-16.14,3.53-23.07-1.94-5.05-4-2.42-7.3,2.72-9.09C555.23,491,557.93,490.09,560.08,489.36Zm4.57,1.29-10.2,6.93c2.73,1.8,5.53,5.14,8.18,5,3.15-.14,6.18-3.24,9.26-5.06Z"/><path class="cls-28" d="M478.57,561.33c-2.91-1.06-5.76-1.65-8.12-3.06a110.14,110.14,0,0,1-9.35-6.84c4.36-2.41,8.55-6.31,13.14-6.86,5.54-.67,11.53,1.14,17.11,2.65,1.79.48,3.81,3.31,4,5.27.16,1.38-2.21,3.75-4,4.53C487.4,558.8,483.05,559.88,478.57,561.33Zm.44-16.66-10.12,7.67c2.74,1.78,5.61,5.17,8.2,5,3.92-.29,7.65-3.09,11.47-4.82Z"/><path class="cls-22" d="M579.8,570c-4.25-1.2-9.89-2.08-14.85-4.4-6-2.81-4.26-7.47.39-9.46,9.59-4.09,19.76-5.78,29.48-.19,2,1.15,4.07,4.27,3.92,6.33-.13,1.79-3.07,4.12-5.23,4.88C589.53,568.53,585.21,568.93,579.8,570Zm.36-1.77,10.58-6.41c-4.2-2.21-8.23-5.59-12.65-6.2-2.79-.39-6.15,3.35-9.26,5.24Z"/><path class="cls-30" d="M388.32,498c8.56.2,17.16.09,25.68.84,1.85.17,4.9,3.58,4.74,5.25-.18,2-3.16,5.27-5,5.34-8.9.3-17.84-.29-26.77-.56Q387.64,503.44,388.32,498Zm12.21,13.11L411,503.72c-3.28-1.87-6.64-5.37-9.8-5.2-4.19.22-8.22,3.33-12.31,5.2Z"/><path class="cls-31" d="M388.32,498q-.69,5.43-1.37,10.87c-1.73-2.19-3.47-4.37-5.21-6.56Z"/><path class="cls-25" d="M741.09,546.22c4.38,1.07,8.22,1.58,11.68,3,2.43,1,4.35,3.23,6.5,4.91-2.33,2.4-4.62,6.8-7,6.84-7.43.11-15.36-.15-22.21-2.67-6-2.21-2.78-6.43,1.48-8.52A96.31,96.31,0,0,1,741.09,546.22Zm1.21,2.22-7.92,6.39c2.94,1.85,5.89,5.13,8.84,5.14,2.7,0,5.42-3.53,8.12-5.5Z"/><path class="cls-24" d="M585.34,466.42c-4.27-1.3-9.28-2-13.37-4.29-4.63-2.61-4.43-7.69.39-9.32,9.29-3.12,19.16-4.36,28.43.57,5.88,3.13,4.26,7.35-.36,9.55C596.14,465,591,465.2,585.34,466.42Zm.67-3.89,1.81,2,8.39-7.89A101.93,101.93,0,0,0,586,453.38a9.42,9.42,0,0,0-5.26.9,34.62,34.62,0,0,0-5.16,3.3c1.68,1.65,3.11,3.73,5.1,4.81C582.07,463.14,584.21,462.53,586,462.53Z"/><path class="cls-22" d="M625.73,491.22c-4.34-1.42-10.35-2.91-15.78-5.57-1-.51-.6-7.89.46-8.25,9.7-3.3,19.73-7.09,29.56-.39,2.07,1.41,5.28,4.13,4.92,5.42-.65,2.34-3.22,4.87-5.61,5.86C635.64,489.8,631.48,490.06,625.73,491.22Zm-.73-2,11.71-6.92c-3.93-2-7.83-5.59-11.78-5.64-3.73,0-7.51,3.59-11.28,5.61Z"/><path class="cls-32" d="M516,568c3.64.75,6.42.91,8.85,1.93,3.1,1.3,5.91,3.3,8.85,5-3,2.79-5.83,7.45-9.22,7.95-6,.88-12.53-.37-18.67-1.56-1.73-.34-4.06-3.65-4-5.48.09-1.66,2.89-3.62,4.91-4.61C509.82,569.73,513.28,568.93,516,568Zm.87,1.73L509,577c3.13,1.68,6.22,4.55,9.4,4.65,2.34.08,4.79-3.47,7.19-5.41Z"/><path class="cls-28" d="M544.8,545.59c-5.77-1.4-11.65-2.46-17.23-4.4-1.84-.64-3.79-3.46-4-5.46-.13-1.38,2.56-4.27,4.14-4.38a154.08,154.08,0,0,1,24.11-.18c2.51.23,4.7,4,7,6.18-2.82,2.26-5.48,4.79-8.54,6.66-1.35.83-3.51.34-5.31.45Zm-3.13-3.36a69,69,0,0,0,7.76-4c.63-.41.46-3.52.25-3.57a87,87,0,0,0-10-1.66,12.77,12.77,0,0,0-4.65.34,30.65,30.65,0,0,0-4.61,2c1,1.61,1.69,3.82,3.16,4.68C535.53,541.23,538.12,541.36,541.67,542.23Z"/><path class="cls-31" d="M356,573c4.85,1.77,10.63,3.41,15.82,6.17,1.1.58,1.2,6.39-.23,7.81-6.11,6.08-26.91,5.29-33.45-.43-4.92-4.31-2-7.61,1.75-9.31C344.41,575.13,349.63,574.55,356,573Zm-.77,17.83,9.87-8c-3.31-2-6.8-5.84-9.87-5.53-4.38.45-8.45,3.94-12.66,6.14Z"/><path class="cls-31" d="M317.8,548.9c3.59,1.07,7.48,2,11.18,3.39,8.54,3.23,6.69,7.66.64,11.43-8.45,5.27-23.49,4.89-30.85-1.17-5.17-4.26-3-7.73,1.77-9.5C305.86,551.07,311.63,550.32,317.8,548.9Zm-4.8,2.19-9.55,7.82c3.2,1.44,6.37,3,9.61,4.29,1.44.58,3.38,1.49,4.5,1a44.67,44.67,0,0,0,8-5.21,2.81,2.81,0,0,0-.21-2.51C321.74,554.73,318.05,553.24,313,551.09Z"/><path class="cls-31" d="M610.09,576.78c6.45.47,13.13.08,19.27,1.73,3.41.91,5.92,5.2,8.84,8-3.06,1.77-6,4.44-9.23,5.09-5.84,1.15-12,2-17.84,1.17-3.66-.49-6.88-4.17-10.29-6.43l6.95-7.16,2.3-2.37Zm10.36,15.74,10.92-6.41c-4-2.21-7.88-6-12-6.16-3.83-.18-7.85,3.39-11.79,5.31Z"/><path class="cls-26" d="M327.09,525.16l-5.2-8.07,14.73-5.51c1.32.21,2.66.33,4,.64,14.28,3.37,14.28,3.37,5.55,14.3h0l-6.81-1.36a17,17,0,0,1,1.74-2c1.86-1.6,3.8-3.12,5.71-4.67-2.57-1.21-5.2-3.48-7.7-3.35-3.32.16-6.55,2.2-9.82,3.43l6,6.61Z"/><path class="cls-33" d="M346.14,526.52c8.73-10.93,8.73-10.93-5.55-14.3-1.31-.31-2.65-.43-4-.64,8.77-5.23,14.92,1.33,21.75,4.83-1.5,2.77-2.48,6.12-4.69,8.12C352,526.07,348.71,525.92,346.14,526.52Z"/><path class="cls-33" d="M339.33,525.16l6.81,1.36-19.05-1.36h12.24Z"/><path class="cls-22" d="M475.39,441h1.36c7.53.83,15.12,1.29,22.53,2.71,2,.39,4.79,3.67,4.81,5.64s-3.07,5.19-5,5.32a167.68,167.68,0,0,1-26,0c-2.51-.23-4.7-4.05-7-6.22,2.35-1.69,4.72-3.34,7-5.09A23.19,23.19,0,0,0,475.39,441ZM486,457.13l9.64-7.95c-3.88-1.84-7.73-5-11.67-5.12-3.4-.12-6.92,3.19-10.39,5Z"/><path class="cls-34" d="M388.33,598.52h4.07c4,.64,8.23.59,11.82,2.11,3.19,1.35,5.64,4.44,8.41,6.76-2.8,2-5.48,5.43-8.41,5.66a109.43,109.43,0,0,1-23-.75c-2.21-.29-3.95-4.14-5.91-6.36,3-1.57,5.91-3.29,9-4.62,1.14-.5,2.68-.08,4-.08-1.14,1-2.78,1.88-3.29,3.17-.66,1.68-.41,3.71-.55,5.59l19.57.21c-.06-1.66.31-4.59-.24-4.77-5.07-1.67-10.3-2.87-15.49-4.2Z"/><path class="cls-35" d="M508.05,623c-6.9,0-13.88.64-20.65-.25-3.51-.46-7.14-3.15-9.69-5.81-.75-.79,2-4.92,3.13-7.51,8.38,0,16.8-.51,25.11.24,3,.27,5.78,3.52,8.66,5.41Zm-9.41.37,7.21-7.83c-4.07-1.72-8.09-4.62-12.21-4.76-3.16-.11-6.43,3.28-9.65,5.11Z"/><path class="cls-36" d="M694.43,578.13c-7.74-.38-15.59-.07-23.19-1.3-10.52-1.69-11.69-5.41-5.37-13.63,7.68-.24,15.57-1.71,23-.45C702.47,565.08,702.9,567.28,694.43,578.13Zm-16.25-14.55-10.45,5.91c1.91,2,3.57,5.3,5.79,5.73a40.55,40.55,0,0,0,14.07,0c1.83-.3,4.85-4,4.45-5-.89-2.24-3.41-4.08-5.64-5.46C685,563.86,683,564.16,678.18,563.58Z"/><path class="cls-35" d="M513.5,465.4c7.76.45,15.67.15,23.23,1.65,4.49.89,10.55,3.57,5.33,10.57-8.09,1.3-16.19,3.56-24.26,3.48-3.91,0-7.78-4.47-11.66-6.91Zm10.66.5L513,474.2c3.93,1.59,7.87,4.48,11.77,4.41s7.52-3.18,11.28-4.95Z"/><path class="cls-37" d="M453.62,534.67c-8.73-.23-17.51,0-26.16-1-2.64-.29-4.93-3.81-7.38-5.85,2.46-2,4.94-4,7.36-6.1a14.62,14.62,0,0,0,1.7-2c7.32.39,14.74.19,21.9,1.44,3.22.57,5.94,4.05,8.88,6.21Zm-14.34.73,11.42-6.81c-3.78-2.05-7.55-5.69-11.34-5.69s-7.58,3.6-11.38,5.63Z"/><path class="cls-36" d="M679.47,512.93c-7.78.45-15.64,1.72-23.32,1-3.68-.34-7-4.43-10.5-6.82,2.35-2.25,4.71-4.5,7.05-6.76.79-.76,1.53-1.57,2.29-2.35,7.27.39,14.64.18,21.77,1.43,3.26.57,6,4,9,6.11Zm-13.68.64,11.74-6.79c-4.09-2-8.24-5.74-12.26-5.6-4.24.14-8.37,3.95-12.54,6.16Z"/><path class="cls-38" d="M298.72,503c-4.18-3.21-7.39-5.67-10.59-8.14,3.75-1.86,7.54-5.26,11.23-5.15s7.28,3.73,10.91,5.81Z"/><path class="cls-26" d="M421.68,472.87l-15.18-8.62c5.57-2.34,11.06-4.91,16.75-6.88a9.18,9.18,0,0,1,6.58.51c3.09,1.64,5.7,4.19,8.51,6.37-3.58,2.19-7.06,4.57-10.79,6.48-1.24.64-3.1.1-4.67.1Zm2.19-15-9.52,6.48c3,1.65,6,4.52,9,4.58,2.7,0,5.45-3,8.18-4.73Z"/><path class="cls-39" d="M373,478.24c-4.7,3.36-7.71,7.24-10.18,6.92-4.66-.6-9-3.62-13.46-5.63,3.66-2,7.18-5.07,11-5.55C363.69,473.58,367.36,476.18,373,478.24Z"/><path class="cls-40" d="M501.18,507.25l8.73,5c-1.93,1.69-4.16,5-5.72,4.74-4.24-.79-8.19-3.11-12.26-4.83Z"/><path class="cls-40" d="M276.07,529.05l9.55,4.91c-3.14,1.6-6.26,4.41-9.41,4.43-2.91,0-5.83-3-8.75-4.61Z"/><path class="cls-40" d="M377.28,537.1l7.51,5.38c-2.75,1.88-5.33,4.77-8.31,5.28-2,.35-4.64-2.62-7-4.11C371.88,541.63,374.28,539.62,377.28,537.1Z"/><path class="cls-40" d="M643.34,552.36l-11-7.27c3.07-1.2,6.17-3.45,9.18-3.33s5.92,2.62,8.88,4.07Z"/><path class="cls-40" d="M455.18,585.65l10.47,5.4c-2.46,2-5.17,5.79-7.34,5.51-4.35-.56-8.41-3.38-12.59-5.26Z"/><path class="cls-40" d="M236.63,504.21l8.61,5.05c-2.46,1.79-4.84,4.88-7.4,5-3.11.2-6.38-2.08-9.57-3.28Z"/><path class="cls-40" d="M462.26,482.57,471,488c-2.61,1.88-5.19,5.22-7.82,5.27-3.08.05-6.2-2.78-9.3-4.35Z"/><path class="cls-40" d="M547,440.52l-8.79-7.19c3.21-1.45,6.37-3.89,9.64-4.05,2.49-.11,5.11,2.68,7.67,4.18Z"/><path class="cls-40" d="M601.44,515.53l8.41,5.32c-2.28,1.86-4.54,5.17-6.85,5.21-2.88,0-5.81-2.61-8.71-4.1Z"/><path class="cls-40" d="M429.13,625.68a5.58,5.58,0,0,1,2,.06c3.35,1.43,6.71,2.87,9.9,4.6.31.16-.3,3.36-.8,3.45-4.13.75-8.92,2.61-12.41,1.28-10.43-4,.82-6.16,1.3-9.39Z"/><path class="cls-40" d="M555.27,594,566,600.35c-3,1.64-6,4.68-8.9,4.56-3.19-.13-6.25-3.18-9.37-5Z"/><path class="cls-40" d="M564.65,490.65l7.24,6.89c-3.08,1.82-6.11,4.92-9.26,5.06-2.65.12-5.45-3.22-8.18-5Z"/><path class="cls-38" d="M479,544.67l9.55,7.83c-3.82,1.73-7.55,4.53-11.47,4.82-2.59.19-5.46-3.2-8.2-5Z"/><path class="cls-38" d="M580.16,568.21l-11.33-7.37c3.11-1.89,6.47-5.63,9.26-5.24,4.42.61,8.45,4,12.65,6.2Z"/><path class="cls-39" d="M400.53,511.11l-11.69-7.39c4.09-1.87,8.12-5,12.31-5.2,3.16-.17,6.52,3.33,9.8,5.2Z"/><path class="cls-40" d="M742.3,548.44l9,6c-2.7,2-5.42,5.51-8.12,5.5-3,0-5.9-3.29-8.84-5.14Z"/><path class="cls-38" d="M586,462.53c-1.8,0-3.94.61-5.34-.14-2-1.08-3.42-3.16-5.1-4.81a34.62,34.62,0,0,1,5.16-3.3,9.42,9.42,0,0,1,5.26-.9,101.93,101.93,0,0,1,10.22,3.27l-8.39,7.89Z"/><path class="cls-41" d="M625,489.27l-11.35-6.95c3.77-2,7.55-5.66,11.28-5.61,4,.05,7.85,3.61,11.78,5.64Z"/><path class="cls-40" d="M516.83,569.76l8.78,6.45c-2.4,1.94-4.85,5.49-7.19,5.41-3.18-.1-6.27-3-9.4-4.65Z"/><path class="cls-40" d="M541.67,542.23c-3.55-.87-6.14-1-8.12-2.16-1.47-.86-2.13-3.07-3.16-4.68a30.65,30.65,0,0,1,4.61-2,12.77,12.77,0,0,1,4.65-.34,87,87,0,0,1,10,1.66c.21,0,.38,3.16-.25,3.57A69,69,0,0,1,541.67,542.23Z"/><path class="cls-39" d="M355.21,590.8l-12.66-7.43c4.21-2.2,8.28-5.69,12.66-6.14,3.07-.31,6.56,3.54,9.87,5.53Z"/><path class="cls-38" d="M313,551.09c5.05,2.15,8.74,3.64,12.31,5.36a2.81,2.81,0,0,1,.21,2.51,44.67,44.67,0,0,1-8,5.21c-1.12.52-3.06-.39-4.5-1-3.24-1.32-6.41-2.85-9.61-4.29Z"/><path class="cls-39" d="M620.45,592.52l-12.83-7.26c3.94-1.92,8-5.49,11.79-5.31,4.08.2,8,3.95,12,6.16Z"/><path class="cls-40" d="M339.33,525.16h-4.07l-6-6.61c3.27-1.23,6.5-3.27,9.82-3.43,2.5-.13,5.13,2.14,7.7,3.35-1.91,1.55-3.85,3.07-5.71,4.67A17,17,0,0,0,339.33,525.16Z"/><path class="cls-41" d="M486,457.13,473.61,449c3.47-1.79,7-5.1,10.39-5,3.94.14,7.79,3.28,11.67,5.12Z"/><path class="cls-38" d="M388.31,601.23c5.19,1.33,10.42,2.53,15.49,4.2.55.18.18,3.11.24,4.77L384.47,610c.14-1.88-.11-3.91.55-5.59.51-1.29,2.15-2.13,3.29-3.17Z"/><path class="cls-38" d="M498.64,623.33,484,615.85c3.22-1.83,6.49-5.22,9.65-5.11,4.12.14,8.14,3,12.21,4.76Z"/><path class="cls-42" d="M678.18,563.58c4.78.58,6.85.28,8.22,1.13,2.23,1.38,4.75,3.22,5.64,5.46.4,1-2.62,4.71-4.45,5a40.55,40.55,0,0,1-14.07,0c-2.22-.43-3.88-3.73-5.79-5.73Z"/><path class="cls-41" d="M524.16,465.9,536,473.66c-3.76,1.77-7.49,4.87-11.28,4.95s-7.84-2.82-11.77-4.41Z"/><path class="cls-39" d="M439.28,535.4,428,528.53c3.8-2,7.59-5.64,11.38-5.63s7.56,3.64,11.34,5.69Z"/><path class="cls-43" d="M665.79,513.57l-13.06-6.23c4.17-2.21,8.3-6,12.54-6.16,4-.14,8.17,3.57,12.26,5.6Z"/><path class="cls-40" d="M423.87,457.85l7.71,6.33c-2.73,1.7-5.48,4.78-8.18,4.73-3-.06-6-2.93-9-4.58Z"/></svg>