<svg id="Layer_1" data-name="Layer 1" xmlns="http://www.w3.org/2000/svg" viewBox="0 0 1000 1000"><defs><style>.cls-1{fill:#efefef;}.cls-2{fill:#333a3c;}.cls-3{fill:#394042;}.cls-4{fill:#010101;}.cls-5{fill:#353c3f;}.cls-6{fill:#373e40;}.cls-7{fill:#1c1f20;}.cls-8{fill:#181b1c;}.cls-9{fill:#070808;}.cls-10{fill:#0c0c0a;}.cls-11{fill:#202325;}.cls-12{fill:#11100f;}.cls-13{fill:#090a0a;}.cls-14{fill:#272c2e;}.cls-15{fill:#262b2c;}.cls-16{fill:#080909;}.cls-17{fill:#31373a;}.cls-18{fill:#3d4548;}.cls-19{fill:#3a4144;}.cls-20{fill:#2c3234;}.cls-21{fill:#1f2324;}.cls-22{fill:#303739;}</style></defs><rect class="cls-1" x="-1" width="1000" height="1000"/><path class="cls-2" d="M326.32,470.05c15.91-4.15,31.79-8.45,47.76-12.4,11.71-2.9,23.53-5.33,35.3-8,13.08-.29,26.19-.1,39.23-1,14.28-1,28.46-3.4,42.74-4.31s28.49-.69,42.74-1c3.94-.08,7.9,0,11.82-.31,7.81-.6,15.37-3.64,23.56-1.18,2.09.63,5.34-2.56,8-4-1.36-1.65-2.81-3.25-4.06-5a8.69,8.69,0,0,1-.84-2.52l28.57,17.68c2.47,7.26-3.15,6.34-7,6.67-14.93,1.3-29.88,2.4-44.82,3.57-13.75,1.08-27.47,2.6-41.24,3.09-10.71.38-21.49-.94-32.22-.72-8.95.19-17.87,1.84-26.83,2.25-15.89.72-31.9.09-47.67,1.79-8.84,1-18.5-1.2-26.67,5.27-9.86,7.81-20.37,14.83-30.61,22.16-11.61,8.3-22.83,17.22-35,24.68-12.91,7.95-28.1,9.85-42.74,12.52-5.65,1-9.1,3.13-10.81,8.37-5.22-2.88-10.63-5.48-15.63-8.7-8.54-5.49-16.83-11.37-25.22-17.09,3.66.61,7.62,2.42,10.92,1.58,7.83-2,15.39-7.56,23-7.43,11.9.21,21.14-5.53,31-9.66,10.8-4.5,20.92-10.66,31.17-16.4C316.19,477.05,321.17,473.41,326.32,470.05Z"/><path class="cls-3" d="M496.42,636.7l-58.59,15c-6.37-4.08-12.69-8.27-19.15-12.23-16.45-10.07-33-20-49.45-30.07-3.5-2.14-5.05-5.12-1-7.94,8.11-5.58,16.47-10.79,24.73-16.15,0,.46,0,.93,0,1.39q-11.11,7.59-22.23,15.18c-2.61,1.79-4.38,3.24-.23,5.64,11.21,6.49,22.24,13.27,33.34,19.94,4.87,3.25,9.6,6.75,14.7,9.58,1.49.82,4.25.23,6.06-.56,5.66-2.46,11-5.67,16.76-7.89,3.63-1.4,7.81-1.31,11.64-2.3,6.55-1.71,13.34-3.06,19.41-5.89,3.83-1.78,6.45-6.07,9.79-9,1.27-1.12,4.27-2.54,4.44-2.3,4,5.33,5.5-.33,7.24-1.88,3.18-2.82,5.57-6.51,8.66-9.45,1.28-1.22,4.86-2.34,5.09-2,3,4.48,3.07-.45,4.6-1,9.8-3.77,11-20,25.15-17.36.55.1,1.53-1,2-1.73,6.51-10.44,16.48-10.71,27.09-9.36a64,64,0,0,0,9.29.42c11.46-.23,22.92-.6,34.38-.88,3.73-.09,7.49.25,11.17-.16,7.74-.87,15.42-2.8,23.15-3,11.15-.29,22.33.78,33.49.85,4.35,0,8.69-1.46,13.06-1.6,5.37-.16,10.79.8,16.15.49,7-.41,14-2.14,21-2.29,12.84-.27,25.7.22,38.55.34,4.68.05,6.68-3.41,4.52-7.69l19.05,12-68,16.3c-1.8-1.06-3.64-3.09-5.4-3-9.06.34-18.09,1.54-27.15,1.76-5,.12-10.1-1.64-15.15-1.59-12.32.13-24.65.71-37,1.3-17.07.82-34.15,2.68-51.19,2.39-9.64-.16-16.08,2.69-23.71,8.51-13.57,10.34-28.38,19.13-42.22,29.29-3.69,2.71-6.42,10.06-14.33,6.35C504.89,625.38,499.77,632.92,496.42,636.7Z"/><path class="cls-4" d="M557.69,413c3.65.17,8.08-1,10.83.7Q628,449.6,687.16,486.18c36.66,22.65,73.17,45.56,109.75,68.34,3.12,1.94,6.33,3.74,10.09,6l-9.72,1.83c-16.12-10-32.69-19.27-48.22-30.06-17.16-11.93-35-18.23-56.35-16.45-24.52,2.05-49.22,2.05-73.84,2.93-16.48.44-33,1-49.46,1.3-28.27.56-56.55.8-84.81,1.65A26.74,26.74,0,0,0,471,526c-35.68,24.54-71.1,49.45-106.6,74.25-2.58,1.8-5.15,3.62-7.74,5.4-1,.68-2.09,1.88-3,1.79-3.27-.3-6.49-1.08-9.72-1.67l-1.29-1.27c-.33-2.24-1.39-6.2-.85-6.43,2.81-1.2,6-1.39,9.1-2.09a7.54,7.54,0,0,0,2.26-1.43q46.47-32.44,92.93-64.89c10.79-7.52,20.88-16.94,35.85-13.77.65.13,1.52-.78,2.28-1.2,7-.44,13.93-1.09,20.91-1.29,34.77-1,69.54-1.95,104.32-2.73,28.25-.63,56.51-1,84.77-1.45a10.42,10.42,0,0,0,3.37-.22,51,51,0,0,0,5.14-2.65c-1.16-1.29-2.11-2.93-3.52-3.82-13.67-8.63-27.43-17.1-41.14-25.67-22.57-14.09-45.18-28.14-67.67-42.37C579.34,427.5,568.57,420.16,557.69,413Z"/><path class="cls-5" d="M496.42,636.7c3.35-3.78,8.47-11.32,9.75-10.72,7.91,3.71,10.64-3.64,14.33-6.35,13.84-10.16,28.65-19,42.22-29.29,7.63-5.82,14.07-8.67,23.71-8.51,17,.29,34.12-1.57,51.19-2.39,12.31-.59,24.64-1.17,37-1.3,5,0,10.12,1.71,15.15,1.59,9.06-.22,18.09-1.42,27.15-1.76,1.76-.06,3.6,2,5.4,3q-41.25,10.31-82.5,20.6-50.55,12.58-101.11,25.09C524.62,630.15,510.51,633.37,496.42,636.7Z"/><path class="cls-5" d="M572.62,430.42a8.69,8.69,0,0,0,.84,2.52c1.25,1.73,2.7,3.33,4.06,5-2.71,1.44-6,4.63-8,4-8.19-2.46-15.75.58-23.56,1.18-3.92.3-7.88.23-11.82.31-14.25.29-28.53.08-42.74,1s-28.46,3.35-42.74,4.31c-13,.88-26.15.69-39.23,1,15.87-4.15,31.71-8.44,47.62-12.43,30.83-7.72,61.69-15.27,92.54-22.9Z"/><path class="cls-6" d="M326.32,470.05c-5.15,3.36-10.13,7-15.48,10-10.25,5.74-20.37,11.9-31.17,16.4-9.89,4.13-19.13,9.87-31,9.66-7.6-.13-15.16,5.44-23,7.43-3.3.84-7.26-1-10.92-1.58l-19.19-9.62c22.66-5.85,45.3-11.78,68-17.54,20-5.08,40.05-10,60.1-14.89A9.14,9.14,0,0,1,326.32,470.05Z"/><path class="cls-7" d="M364.39,600.22c35.5-24.8,70.92-49.71,106.6-74.25a26.74,26.74,0,0,1,13.61-4.3c28.26-.85,56.54-1.09,84.81-1.65,16.49-.32,33-.86,49.46-1.3,0,.88,0,1.76,0,2.64l-117,2.8c-10.55.55-21.21-2-31,5.75-12.48,9.87-26.19,18.17-39.21,27.37s-25.81,18.65-38.7,28c-8.26,5.36-16.62,10.57-24.73,16.15-4.09,2.82-2.54,5.8,1,7.94,16.46,10.06,33,20,49.45,30.07,6.46,4,12.78,8.15,19.15,12.23l-3.88.25-27.35-15c-2-1.43-3.88-3-6-4.27-11.3-6.86-22.69-13.57-34-20.48C359.6,607.85,359.15,605,364.39,600.22Z"/><path class="cls-8" d="M557.69,413c10.88,7.17,21.65,14.51,32.66,21.47,22.49,14.23,45.1,28.28,67.67,42.37,13.71,8.57,27.47,17,41.14,25.67,1.41.89,2.36,2.53,3.52,3.82a51,51,0,0,1-5.14,2.65,10.42,10.42,0,0,1-3.37.22c-28.26.48-56.52.82-84.77,1.45-34.78.78-69.55,1.75-104.32,2.73-7,.2-13.94.85-20.91,1.29a78.68,78.68,0,0,1-8.13-.06,27.23,27.23,0,0,0-21.17,6.29c-6.06,4.89-13.08,8.58-19.68,12.8l0-1.43c6.48-4.81,12.85-9.77,19.49-14.34,2.85-2,6.21-4.29,9.44-4.44,26.84-1.24,53.69-2.05,80.55-2.89,17.16-.54,34.33-.9,51.49-1.37l97.56-2.72c4.84-4.86-1.76-5.08-3.09-5.95-16.94-11.09-34.08-21.89-51.3-32.55C629,461.62,618.44,455.62,608,449.45L553.49,414Z"/><path class="cls-9" d="M435.19,533.69c6.6-4.22,13.62-7.91,19.68-12.8A27.23,27.23,0,0,1,476,514.6a78.68,78.68,0,0,0,8.13.06c-.76.42-1.63,1.33-2.28,1.2-15-3.17-25.06,6.25-35.85,13.77Q399.56,562,353.11,594.52a7.54,7.54,0,0,1-2.26,1.43c-3.06.7-6.29.89-9.1,2.09-.54.23.52,4.19.85,6.43l-9.48-5.57c-.25-1.27-.05-3.22-.8-3.7q-34.93-22.44-70-44.6c-24.84-15.61-49.79-31-74.69-46.55l4-1.39c17.19,10.77,34.31,21.64,51.57,32.29,29,17.9,58.23,35.42,87,53.61,12.67,8,16.12,8.22,28.31-.69,12-8.78,24.5-16.89,36.65-25.46C408.6,552.94,421.87,543.27,435.19,533.69Z"/><path class="cls-7" d="M435.19,533.69c-13.32,9.58-26.59,19.25-40,28.72-12.15,8.57-24.65,16.68-36.65,25.46-12.19,8.91-15.64,8.69-28.31.69-28.81-18.19-58.05-35.71-87-53.61-17.26-10.65-34.38-21.52-51.57-32.29l3.91-.32L214.73,512c8.39,5.72,16.68,11.6,25.22,17.09,5,3.22,10.41,5.82,15.63,8.7l5.41,2.74c1.78,2,3.22,4.54,5.4,5.87,14,8.58,28.17,16.9,42.28,25.3,11.32,7,22.59,14,34,20.77,1.12.66,3.57.26,4.77-.57,23.13-16.1,46.12-32.41,69.28-48.48,5.88-4.07,12.26-7.43,18.42-11.12Z"/><path class="cls-10" d="M187.59,504.05c24.9,15.51,49.85,30.94,74.69,46.55q35.14,22.1,70,44.6c.75.48.55,2.43.8,3.7L259.76,554q-37.93-23.22-75.87-46.49a11.19,11.19,0,0,1-1.77-1.93Z"/><path class="cls-11" d="M618.86,521.36c0-.88,0-1.76,0-2.64,24.62-.88,49.32-.88,73.84-2.93,21.33-1.78,39.19,4.52,56.35,16.45,15.53,10.79,32.1,20.1,48.22,30.06l-5.55,1.4c-.53-.71-.92-1.66-1.62-2.1q-33.3-21.11-66.7-42c-1.38-.86-3.47-.58-5.23-.83Z"/><path class="cls-12" d="M428.53,653.29c-3.33-.35-7.3.35-9.9-1.21-20.93-12.61-41.59-25.64-62.34-38.55,1.69-.61,3.94-2.23,5-1.66,5,2.8,9.47,6.44,14.4,9.31,9.31,5.42,18.8,10.52,28.22,15.76Z"/><path class="cls-13" d="M403.87,636.94c-9.42-5.24-18.91-10.34-28.22-15.76-4.93-2.87-9.43-6.51-14.4-9.31-1-.57-3.27,1-5,1.66l-12.4-7.79c3.23.59,6.45,1.37,9.72,1.67.95.09,2.05-1.11,3-1.79,2.59-1.78,5.16-3.6,7.74-5.4-5.24,4.74-4.79,7.63,2.28,12,11.27,6.91,22.66,13.62,34,20.48,2.09,1.26,4,2.84,6,4.27Z"/><path class="cls-14" d="M718.18,518.75c1.76.25,3.85,0,5.23.83q33.44,20.86,66.7,42c.7.44,1.09,1.39,1.62,2.1l-1.41,1-19.05-12-20.41-12.23Z"/><path class="cls-15" d="M553.49,414,608,449.45v1.36l-6.8-2.71-28.57-17.68-23.08-16.07Z"/><path class="cls-16" d="M403.87,636.94h2.73l27.35,15-5.42,1.38Z"/><path class="cls-17" d="M601.19,448.1l6.8,2.71,5.44,4.08c2,7.8-4.53,5.54-7.85,6-4.73.71-9.75-.36-14.42.52-10.93,2.08-21.63,5.55-32.61,7.18a327.51,327.51,0,0,1-36.65,3.06c-19.87.71-39.77.78-59.66,1.09-13.45.21-26.9.31-40.35.59-7,.15-14.42-.7-20.93,1.27-6.22,1.89-11.82,6.45-17.13,10.56-6,4.65-11.27,10.22-17.06,15.15-1.19,1-3.36.8-4.93,1.47-2.39,1-5.13,1.85-6.9,3.59-4.87,4.78-8.12,11.85-17.06,9.91-1.2-.26-3.33,1.5-4.31,2.84-9.49,13.13-24.7,15.56-38.48,20.58-2.09.76-5-.64-7,.2-8.92,3.72-17.64,8.07-27.09,1.56l-5.41-2.74c1.71-5.24,5.16-7.34,10.81-8.37,14.64-2.67,29.83-4.57,42.74-12.52,12.13-7.46,23.35-16.38,35-24.68,10.24-7.33,20.75-14.35,30.61-22.16,8.17-6.47,17.83-4.31,26.67-5.27,15.77-1.7,31.78-1.07,47.67-1.79,9-.41,17.88-2.06,26.83-2.25,10.73-.22,21.51,1.1,32.22.72,13.77-.49,27.49-2,41.24-3.09,14.94-1.17,29.89-2.27,44.82-3.57C598,454.44,603.66,455.36,601.19,448.1Z"/><path class="cls-18" d="M718.18,518.75l32.68,21.73c-.18,5.93-3.93,6.55-8.82,6.45-13.91-.27-27.82-.32-41.73-.26-11.94.05-23.88.43-35.81.53-2.2,0-4.44-1-6.61-.85-8.89.62-17.75,1.8-26.64,2.21-6.46.31-13-.59-19.43-.36-8.85.32-17.68,1.49-26.54,1.79-10.07.34-20.18-.07-30.26.21-7.25.21-14.51.78-21.72,1.63-6,.69-12.84.49-17.61,3.43-6.85,4.23-10.76,12-19.52,15.06-6.53,2.31-11.41,9.21-17.15,13.92-1.28,1-3.11,1.41-4.65,2.17-2.29,1.12-4.82,2-6.76,3.54-11.11,9-20.3,22.39-38.08,15.15a17.33,17.33,0,0,0-10.36-.28c-1.79.49-4,3.93-3.92,5.92.31,5.92-5.58,15.34-11.36,16.68-11.1-6.67-22.13-13.45-33.34-19.94-4.15-2.4-2.38-3.85.23-5.64q11.13-7.58,22.23-15.18c25.18-17.34,50.54-34.43,75.45-52.15,8.74-6.22,17.34-10.84,28.42-9.08,1.56.25,3.32-.82,5-1.27l117-2.8Z"/><path class="cls-19" d="M403.89,627.42c5.78-1.34,11.67-10.76,11.36-16.68-.1-2,2.13-5.43,3.92-5.92a17.33,17.33,0,0,1,10.36.28c17.78,7.24,27-6.12,38.08-15.15,1.94-1.57,4.47-2.42,6.76-3.54,1.54-.76,3.37-1.13,4.65-2.17,5.74-4.71,10.62-11.61,17.15-13.92,8.76-3.1,12.67-10.83,19.52-15.06,4.77-2.94,11.63-2.74,17.61-3.43,7.21-.85,14.47-1.42,21.72-1.63,10.08-.28,20.19.13,30.26-.21,8.86-.3,17.69-1.47,26.54-1.79,6.46-.23,13,.67,19.43.36,8.89-.41,17.75-1.59,26.64-2.21,2.17-.15,4.41.87,6.61.85,11.93-.1,23.87-.48,35.81-.53,13.91-.06,27.82,0,41.73.26,4.89.1,8.64-.52,8.82-6.45l20.41,12.23c2.16,4.28.16,7.74-4.52,7.69-12.85-.12-25.71-.61-38.55-.34-7,.15-14,1.88-21,2.29-5.36.31-10.78-.65-16.15-.49-4.37.14-8.71,1.63-13.06,1.6-11.16-.07-22.34-1.14-33.49-.85-7.73.2-15.41,2.13-23.15,3-3.68.41-7.44.07-11.17.16-11.46.28-22.92.65-34.38.88a64,64,0,0,1-9.29-.42c-10.61-1.35-20.58-1.08-27.09,9.36-.46.74-1.44,1.83-2,1.73-14.19-2.65-15.35,13.59-25.15,17.36-1.53.59-1.62,5.52-4.6,1-.23-.36-3.81.76-5.09,2-3.09,2.94-5.48,6.63-8.66,9.45-1.74,1.55-3.24,7.21-7.24,1.88-.17-.24-3.17,1.18-4.44,2.3-3.34,3-6,7.25-9.79,9-6.07,2.83-12.86,4.18-19.41,5.89-3.83,1-8,.9-11.64,2.3-5.75,2.22-11.1,5.43-16.76,7.89-1.81.79-4.57,1.38-6.06.56C413.49,634.17,408.76,630.67,403.89,627.42Z"/><path class="cls-19" d="M501.87,524.16c-1.67.45-3.43,1.52-5,1.27-11.08-1.76-19.68,2.86-28.42,9.08-24.91,17.72-50.27,34.81-75.45,52.15,0-.46,0-.93,0-1.39,12.89-9.34,25.7-18.8,38.7-28s26.73-17.5,39.21-27.37C480.66,522.19,491.32,524.71,501.87,524.16Z"/><path class="cls-20" d="M435.16,532.26c-6.16,3.69-12.54,7-18.42,11.12-23.16,16.07-46.15,32.38-69.28,48.48-1.2.83-3.65,1.23-4.77.57-11.43-6.77-22.7-13.81-34-20.77,3.41-2.2,6.83-4.38,10.23-6.6,2-1.31,3.87-2.82,5.94-4,3.67-2.08,7.53-3.85,11.16-6,2.07-1.24,3.67-3.28,5.77-4.48,4-2.27,8.28-4,12.22-6.3,6.58-3.88,13.36-7.57,19.35-12.24,6.15-4.8,11.17-11,17.21-16,8.09-6.67,16.66-12.76,25.07-19a8.21,8.21,0,0,1,3-1.39c8.1-1.8,15.77-5.14,24.55-4.21,7.78.82,15.75.2,23.61-.15,23.23-1,46.43-2.48,69.66-3.31,13.92-.5,27.88,0,41.81-.25,9.59-.19,19.15-1.2,28.73-1.37,15.1-.27,30.21,0,45.31-.34,1.58,0,3.1-2.53,4.65-3.89q17.85,11,35.65,22.11c.61.38.73,1.53,1.07,2.33l-97.56,2.72c-17.16.47-34.33.83-51.49,1.37-26.86.84-53.71,1.65-80.55,2.89-3.23.15-6.59,2.48-9.44,4.44C448,522.49,441.64,527.45,435.16,532.26Z"/><path class="cls-21" d="M693.69,506.5c-.34-.8-.46-1.95-1.07-2.33Q674.85,493,657,482.06q-21.76-13.59-43.54-27.17L608,450.81v-1.36c10.45,6.17,21,12.17,31.31,18.55,17.22,10.66,34.36,21.46,51.3,32.55C691.93,501.42,698.53,501.64,693.69,506.5Z"/><path class="cls-22" d="M613.43,454.89q21.78,13.58,43.54,27.17c-1.55,1.36-3.07,3.85-4.65,3.89-15.1.33-30.21.07-45.31.34-9.58.17-19.14,1.18-28.73,1.37-13.93.27-27.89-.25-41.81.25-23.23.83-46.43,2.27-69.66,3.31-7.86.35-15.83,1-23.61.15-8.78-.93-16.45,2.41-24.55,4.21a8.21,8.21,0,0,0-3,1.39c-8.41,6.28-17,12.37-25.07,19-6,5-11.06,11.21-17.21,16-6,4.67-12.77,8.36-19.35,12.24-3.94,2.32-8.24,4-12.22,6.3-2.1,1.2-3.7,3.24-5.77,4.48-3.63,2.17-7.49,3.94-11.16,6-2.07,1.18-3.95,2.69-5.94,4-3.4,2.22-6.82,4.4-10.23,6.6-14.11-8.4-28.28-16.72-42.28-25.3-2.18-1.33-3.62-3.88-5.4-5.87,9.45,6.51,18.17,2.16,27.09-1.56,2-.84,4.92.56,7-.2,13.78-5,29-7.45,38.48-20.58,1-1.34,3.11-3.1,4.31-2.84,8.94,1.94,12.19-5.13,17.06-9.91,1.77-1.74,4.51-2.57,6.9-3.59,1.57-.67,3.74-.45,4.93-1.47,5.79-4.93,11.06-10.5,17.06-15.15,5.31-4.11,10.91-8.67,17.13-10.56,6.51-2,13.91-1.12,20.93-1.27,13.45-.28,26.9-.38,40.35-.59,19.89-.31,39.79-.38,59.66-1.09a327.51,327.51,0,0,0,36.65-3.06c11-1.63,21.68-5.1,32.61-7.18,4.67-.88,9.69.19,14.42-.52C608.9,460.43,615.38,462.69,613.43,454.89Z"/></svg>