<svg id="Layer_1" data-name="Layer 1" xmlns="http://www.w3.org/2000/svg" viewBox="0 0 1000 1000"><defs><style>.cls-1,.cls-21{fill:#3d3d3d;}.cls-2{fill:#440804;}.cls-3{fill:#2a0302;}.cls-4{fill:#040000;}.cls-5{fill:#510d08;}.cls-6{fill:#9b1e14;}.cls-7{fill:#3e0704;}.cls-8{fill:#7e160e;}.cls-9{fill:#4a0c08;}.cls-10{fill:#74140c;}.cls-11{fill:#4d0a05;}.cls-12{fill:#140100;}.cls-13{fill:#3f0b07;}.cls-14{fill:#100100;}.cls-15{fill:#3b0704;}.cls-16{fill:#490e0a;}.cls-17{fill:#430c09;}.cls-18{fill:#7b160e;}.cls-19{fill:#c23d33;}.cls-20{fill:#b6352b;}.cls-21{opacity:0.2;}</style></defs><rect class="cls-1" width="1000" height="1000"/><path class="cls-2" d="M192.91,669.9q-1.26-3.49-2.5-7c1.28-2.26,3.66-4.5,3.68-6.77.25-37.71.21-75.43.23-113.14,1.19-1.41,3.32-2.76,3.4-4.23.46-8.63.41-17.29.58-25.94s.24-17.3.7-25.92c.58-10.89,1.36-21.77,2.45-32.61.17-1.64,2.32-3.39,4-4.37.48-.29,3.11,1.66,3.6,3,2.45,6.65,4.2,13.58,6.86,20.14,1.1,2.69,2.92,8,7.27,1.92.58-.81,3.58-.8,4.8-.07,6.65,4,16.29,4.83,16.78,15.65,0,1.1,2.65,2.12,4.12,3.11,3.25,2.19,6.7,4.14,9.75,6.58,2.78,2.21,4.61,3.52,6.27-1.1,1.89-5.28,4.47-3.2,6.22.13,2.16,4.1,3.52,8.65,5.86,12.62,2.09,3.54,4.73,6.41,8.35.62.84-1.35,6.1-1.94,7.07-.86,5.35,6,9.93,12.63,15,18.87.91,1.12,3,2.22,4.24,1.94,3.59-.81,19.56,3.9,21.35,6.84.45.75.53,1.72.94,2.51,1.72,3.28,2.85,7.33,5.51,9.49,1.66,1.35,7.66.74,8.28-.58,4-8.59,7.82-3.74,10.51.15,4.49,6.49,8,13.63,12.05,20.47a33.06,33.06,0,0,0,2.59,3.36,18.35,18.35,0,0,1,2.19-3.83c1.51-1.58,4.69-4.19,4.85-4,5.9,5.83,11.21,12.3,17.35,17.83,2.58,2.32,6.8,3.23,10.42,3.71,1,.13,2.33-3.8,3.74-5.69s3.21-3.72,4.84-5.56c1.06,1.86,2.9,3.65,3.07,5.58,1.14,13.11,1.77,26.26,3,39.35.19,2,2.52,3.88,3.86,5.81v2.71c-4.81,2.76-4.8,14,0,18.85l0,145.23q0,6.24,0,12.48a29.75,29.75,0,0,1-4.94-2Q349.74,761,278.35,716.75q-39.41-24.43-78.82-48.89C196.89,666.23,193.18,663,192.91,669.9Zm35.35-184.79c-1-1.29-1.73-2.41-1.89-2.34-.85.39-2,1-2.2,1.69s.72,1.69,1.14,2.55Z"/><path class="cls-3" d="M810.16,722.3c-10.63,3.13-21.17,6.65-31.91,9.33-48,12-96.14,23.74-144.21,35.61q-91.68,22.63-183.34,45.32c-5.68,1.41-11.33,3.12-17.1,3.87-2.39.31-5.06-1.55-7.6-2.42l2.84-.08c.44-.46.89-.91,1.33-1.36V807.2q0-63.36.07-126.74h1.25V815.24l5.42-6.7a60.58,60.58,0,0,0,7.28-.91q49.15-12,98.3-24.19c33-8.18,65.93-16.52,98.91-24.68q58.59-14.5,117.23-28.82c15-3.65,30-6.94,45-10.4Z"/><path class="cls-4" d="M430.17,807.2v5.37c-.44.45-.89.9-1.33,1.36L426,814c-19.83-12-39.72-24-59.47-36.14q-56.86-35-113.6-70.29c-20.06-12.47-40-25.12-60-37.68.27-6.89,4-3.67,6.62-2q39.47,24.36,78.82,48.89Q349.75,761,421.2,805.22a29.75,29.75,0,0,0,4.94,2Z"/><path class="cls-5" d="M807.78,308.39c.87,1.82,2.5,3.65,2.5,5.47q.09,101.1-.11,202.19h-6.52V447.31l-1.35-129.4c.83-1.2,2.42-3.41,2.38-3.45-4.58-3.45,1.09-3.15,1.65-4.64Z"/><path class="cls-6" d="M190.43,262.65c-1.46-5.42.37-8.06,6.12-9.46,52.64-12.84,105.2-26,157.81-39,37.83-9.33,75.7-18.46,113.54-27.76,31.7-7.79,63.38-15.7,95.08-23.53a18.56,18.56,0,0,1,3.35-.2l1.59,2.83-85.81,21.18q-121.32,29.91-242.62,59.88c-12.48,3.1-24.76,7.05-37.13,10.6a44,44,0,0,0-7-1.07c-.38,0-.81,2.45-1.21,3.77l0,2.74Z"/><path class="cls-7" d="M567.92,165.57l-1.59-2.83c4,1.16,8.55,1.5,12,3.6q89.49,54.81,178.73,110c16.52,10.2,32.88,20.65,49.3,31l1.46,1.06,0,0-1.45,1.44h-8c-2.27-2.25-4.2-5-6.85-6.67Q711.86,253.76,632.1,204.6C610.79,191.46,589.32,178.57,567.92,165.57Z"/><path class="cls-8" d="M190.43,262.65l3.78,0,1.53,2.54c-.48,3-1.39,6-1.4,9q-.15,128.32-.16,256.65l-3.75,0c-.07-37.64-.21-75.29-.21-112.93Q190.24,340.3,190.43,262.65Z"/><path class="cls-9" d="M803.65,516.05h6.52V633.32L803.65,636v-120Z"/><path class="cls-2" d="M803.65,636l6.51-2.69v89l-6.5-2.76Z"/><path class="cls-10" d="M190.43,530.88l3.75,0q.07,6.07.14,12.16c0,37.71,0,75.43-.23,113.14,0,2.27-2.4,4.51-3.68,6.77Q190.41,596.9,190.43,530.88Z"/><path class="cls-5" d="M807.81,308.42l-1.46-1.06Z"/><path class="cls-11" d="M194.32,543q-.07-6.07-.14-12.16.06-128.33.16-256.65c0-3,.92-6,1.4-9l7.41,4.53q64.1,39.61,128.23,79.22c30.57,18.78,61.31,37.27,92,55.89l2.1.94h.05l2.14.22c-.49,12.51-1.37,25-1.4,37.52-.17,61.46-.11,122.93-.13,184.39-1.34-1.93-3.67-3.77-3.86-5.81-1.21-13.09-1.84-26.24-3-39.35-.17-1.93-2-3.72-3.07-5.58-1.63,1.84-3.38,3.59-4.84,5.56s-2.77,5.82-3.74,5.69c-3.62-.48-7.84-1.39-10.42-3.71-6.14-5.53-11.45-12-17.35-17.83-.16-.16-3.34,2.45-4.85,4a18.35,18.35,0,0,0-2.19,3.83,33.06,33.06,0,0,1-2.59-3.36c-4-6.84-7.56-14-12.05-20.47-2.69-3.89-6.52-8.74-10.51-.15-.62,1.32-6.62,1.93-8.28.58-2.66-2.16-3.79-6.21-5.51-9.49-.41-.79-.49-1.76-.94-2.51-1.79-2.94-17.76-7.65-21.35-6.84-1.24.28-3.33-.82-4.24-1.94-5.05-6.24-9.63-12.9-15-18.87-1-1.08-6.23-.49-7.07.86-3.62,5.79-6.26,2.92-8.35-.62-2.34-4-3.7-8.52-5.86-12.62-1.75-3.33-4.33-5.41-6.22-.13-1.66,4.62-3.49,3.31-6.27,1.1-3.05-2.44-6.5-4.39-9.75-6.58-1.47-1-4.08-2-4.12-3.11C244.24,479.78,234.6,478.93,228,475c-1.22-.73-4.22-.74-4.8.07-4.35,6.07-6.17.77-7.27-1.92-2.66-6.56-4.41-13.49-6.86-20.14-.49-1.35-3.12-3.3-3.6-3-1.65,1-3.8,2.73-4,4.37-1.09,10.84-1.87,21.72-2.45,32.61-.46,8.62-.52,17.27-.7,25.92s-.12,17.31-.58,25.94C197.64,540.26,195.51,541.61,194.32,543Z"/><path class="cls-12" d="M426.12,627.92c0-61.46,0-122.93.13-184.39,0-12.5.91-25,1.4-37.52l.05-.29,2.58-.13c.42,0,.85,0,1.27,0v2.55c-.45,2.34-1.28,4.67-1.29,7q-.08,132.65,0,265.28,0,63.38-.07,126.74h-4q0-6.24,0-12.48l0-145.23V627.92Z"/><path class="cls-11" d="M426.12,630.63v18.85C421.32,644.67,421.31,633.39,426.12,630.63Z"/><path class="cls-11" d="M228.26,485.11l-2.95,1.9c-.42-.86-1.31-1.83-1.14-2.55s1.35-1.3,2.2-1.69C226.53,482.7,227.23,483.82,228.26,485.11Z"/><path class="cls-13" d="M803.65,636v83.53c-15,3.46-30.07,6.75-45,10.4Q700,744.22,641.4,758.76c-33,8.16-65.93,16.5-98.91,24.68q-49.14,12.18-98.3,24.19a60.58,60.58,0,0,1-7.28.91c0-8.24-.16-16.48,0-24.71.23-8.84.81-17.66,1.24-26.49l3.92-3.66-5.15-3.1c0-1.35,0-2.7,0-4.05,1.76-1.83,4.8-3.5,5-5.51,1-8.16,1.17-16.43,1.51-24.66.27-6.46.1-13,.63-19.39.15-1.84,1.73-4.58,3.21-5,1.91-.57,5.76.1,6.38,1.38,2.78,5.81,7,4.83,11.88,4,17.32-3.07,34.66-6.13,52.08-8.64,34.8-5,69.68-9.53,104.5-14.47,14.09-2,27.85-5.61,41.91,1.59,6.24,3.19,14.34,5.25,21.15,4.37q44-5.7,87.71-14c3.44-.65,5.74-8.1,8.21-12.6.62-1.12-.15-3-.28-4.55a49.87,49.87,0,0,1,5.62.34c1.7.29,3.34,1,8.06,2.22.93.08-.38-.4-1.74-.64-.28,0-.72.79-1.09,1.23a26.65,26.65,0,0,0,3.49,2.35c.25.12,1.1-1-.66-2.94-1.62-3.07-.18-5.41,1.26-7.75.76-1.25,2.41-3.36,2.18-3.6-4.6-4.6-2.54-8.27,1.17-12,.43-.43-.47-2-.47-3.07,0-2.62.1-5.24.29-7.84.16-2,1.36-4.36.64-5.87-2.35-4.93-.72-7.56,4-9.09Z"/><path class="cls-14" d="M438.2,757.34c-.43,8.83-1,17.65-1.24,26.49-.21,8.23,0,16.47,0,24.71l-5.42,6.7V680.46l.06-272.29v-2.55l4.08,2.6c.42,12.94,1.17,25.89,1.22,38.83.16,48.16.09,96.32.11,144.48v155c0,1.35,0,2.7,0,4.05Z"/><path class="cls-15" d="M431.55,408.17l-.06,272.29h-1.25q0-132.65,0-265.28C430.27,412.84,431.1,410.51,431.55,408.17Z"/><path class="cls-12" d="M428.84,813.93c.44-.46.89-.91,1.33-1.36C429.73,813,429.28,813.47,428.84,813.93Z"/><path class="cls-16" d="M437,591.53c0-48.16.05-96.32-.11-144.48-.05-12.94-.8-25.89-1.22-38.83Q498.42,393,561.2,377.78q69.93-17.11,139.8-34.46c33.79-8.39,67.54-16.94,101.3-25.41l1.35,129.4-5,5.16,5,4.27v2.7c-2,1.9-5.14,3.48-5.79,5.76-1.33,4.66-3.12,10.49-1.41,14.37,2.24,5.1,3,8.19-1.62,11.71-.4.3.7,2.61,1.14,4s1,2.93,1.49,4.39c-1.83.32-4,1.38-5.41.8-1.95-.78-3.28-3-5.08-4.3-1-.71-2.36-.84-3.56-1.23-.37,1.18-1.31,2.51-1,3.51,2.24,8.16-3.84,11-9.23,11.89-20.9,3.32-42,5.65-62.94,8.43-25,3.3-50,6.48-74.87,10.09-24.71,3.58-49.34,7.65-74,11.45-31.28,4.81-62.59,9.43-93.84,14.41-9.87,1.58-15.7-2.87-16.15-13-.06-1.37-2.16-2.65-3.32-4-1,1-2.68,1.86-2.75,2.87-.72,10.75-1.11,21.51-1.72,32.26-.26,4.74-.38,9.57-1.48,14.14C441.64,588.82,438.74,590,437,591.53Z"/><path class="cls-17" d="M437,591.53c1.78-1.49,4.68-2.71,5.11-4.52,1.1-4.57,1.22-9.4,1.48-14.14.61-10.75,1-21.51,1.72-32.26.07-1,1.79-1.91,2.75-2.87,1.16,1.33,3.26,2.61,3.32,4,.45,10.11,6.28,14.56,16.15,13,31.25-5,62.56-9.6,93.84-14.41,24.67-3.8,49.3-7.87,74-11.45,24.92-3.61,49.9-6.79,74.87-10.09,21-2.78,42-5.11,62.94-8.43,5.39-.85,11.47-3.73,9.23-11.89-.28-1,.66-2.33,1-3.51,1.2.39,2.59.52,3.56,1.23,1.8,1.31,3.13,3.52,5.08,4.3,1.46.58,3.58-.48,5.41-.8-.5-1.46-1-2.92-1.49-4.39s-1.54-3.68-1.14-4c4.64-3.52,3.86-6.61,1.62-11.71-1.71-3.88.08-9.71,1.41-14.37.65-2.28,3.78-3.86,5.79-5.76V602.32c-4.73,1.53-6.36,4.16-4,9.09.72,1.51-.48,3.88-.64,5.87-.19,2.6-.29,5.22-.29,7.84,0,1,.9,2.64.47,3.07-3.71,3.75-5.77,7.42-1.17,12,.23.24-1.42,2.35-2.18,3.6q-2.16,3.51-4.31,7a39.86,39.86,0,0,0-5-1.5,49.87,49.87,0,0,0-5.62-.34c.13,1.54.9,3.43.28,4.55-2.47,4.5-4.77,12-8.21,12.6q-43.63,8.24-87.71,14c-6.81.88-14.91-1.18-21.15-4.37-14.06-7.2-27.82-3.59-41.91-1.59-34.82,4.94-69.7,9.47-104.5,14.47-17.42,2.51-34.76,5.57-52.08,8.64-4.89.87-9.1,1.85-11.88-4-.62-1.28-4.47-2-6.38-1.38-1.48.44-3.06,3.18-3.21,5-.53,6.44-.36,12.93-.63,19.39-.34,8.23-.53,16.5-1.51,24.66-.24,2-3.28,3.68-5,5.51q0-65.37,0-130.74l4.93-4-4.93-4v-4.05l5.27-5.22L437,594.23Zm359.47-81.22c-.4-.15-.84-.49-1.1-.39s-.34.67-.49,1c.36.15.79.5,1.06.4S796.25,510.7,796.43,510.31Z"/><path class="cls-15" d="M802.3,317.91c-33.76,8.47-67.51,17-101.3,25.41q-69.87,17.34-139.8,34.46-62.75,15.35-125.57,30.44l-4.08-2.6c-.42,0-.85,0-1.27,0,.42-1.37.84-2.74,1.25-4.11h0c3.1-1.27,6.11-2.91,9.33-3.73,18-4.62,36-9.08,54-13.52q92.46-22.75,184.92-45.47Q739,324.23,798.31,309.84h8c-.56,1.49-6.23,1.19-1.65,4.64C804.72,314.5,803.13,316.71,802.3,317.91ZM437.4,402.14c-.59-.21-1.07-.56-1.35-.44a5.77,5.77,0,0,0-1.35,1.1c.35.14.77.49,1,.4A9,9,0,0,0,437.4,402.14Z"/><path class="cls-17" d="M803.65,456.74l-5-4.27,5-5.16Z"/><path class="cls-18" d="M798.31,309.84Q739,324.3,679.77,338.76q-92.47,22.68-184.92,45.47c-18,4.44-36,8.9-54,13.52-3.22.82-6.23,2.46-9.33,3.73l-9.16-5.83c-1.21-1.51-2.11-3.52-3.66-4.47q-36-22.06-72.07-43.89L343.87,345l-6.51-3.23-6.46-3.87-19.31-12.17-2.51-1.41L300.8,319l-2.47-1.38-5.46-2.9c-1.54-1.48-2.89-3.28-4.66-4.38q-42.87-26.62-85.85-53.11c12.37-3.55,24.65-7.5,37.13-10.6q121.27-30.09,242.62-59.88l85.81-21.18c21.4,13,42.87,25.89,64.18,39q79.76,49.16,159.36,98.57C794.11,304.81,796,307.59,798.31,309.84Z"/><path class="cls-19" d="M292.87,314.72l5.46,2.9-3,2.77,3.85,2.47L300.8,319l8.28,5.3,1.56,5.12c.32-1.24.63-2.48.95-3.71l19.31,12.17-1.83,1.59-2.62-.08-.69-.23.53.39,2.79-.06c2.52,1.63,3.23,9.91,8.28,2.25l6.51,3.24c.33,2,.66,4.07,1.4,8.69.83-3.81,1.1-5.1,1.38-6.38q36.06,21.9,72.07,43.89c1.55.95,2.45,3,3.66,4.48q.48,4.59,1,9.19c-30.67-18.62-61.41-37.11-92-55.89q-64.22-39.43-128.23-79.22l-7.41-4.53-1.53-2.54,0-2.74c16.43,9.68,32.92,19.27,49.27,29.09,15.23,9.15,30.28,18.59,45.53,27.7C289.64,317.12,291.54,315.43,292.87,314.72Zm61.89,42.2-.69-.24.53.39c.49.32,1,.65,1.49.94a3.81,3.81,0,0,0,.37-.46Zm17.53,10.78-.69-.24.53.4c.49.32,1,.65,1.49.94a4.58,4.58,0,0,0,.36-.47Zm17.51,10.79c-.48-.32-1-.64-1.46-.93a4.47,4.47,0,0,0-.35.46l1.66.64c.5.31,1,.63,1.5.92a4.35,4.35,0,0,0,.35-.48Zm10.79,6.74-.68-.24.54.38c.49.33,1,.65,1.48.94,0,0,.24-.3.36-.46Zm6.74,4c-.48-.31-1-.64-1.46-.92,0,0-.23.3-.36.46l1.67.64c.49.31,1,.63,1.5.91a5,5,0,0,0,.35-.47ZM418.11,396c-.48-.32-.95-.64-1.45-.93a4.47,4.47,0,0,0-.35.46l1.66.62c.5.32,1,.64,1.49.92a3.91,3.91,0,0,0,.35-.47ZM315.58,330l-2,1c.84.88,1.65,1.8,2.55,2.6a3.69,3.69,0,0,0,1.16-.87A31.62,31.62,0,0,0,315.58,330Zm44.14,30.55.57.21c.06-.17.21-.44.16-.49a1.87,1.87,0,0,0-.56-.22Z"/><path class="cls-20" d="M292.87,314.72c-1.33.71-3.23,2.4-3.89,2-15.25-9.11-30.3-18.55-45.53-27.7-16.35-9.82-32.84-19.41-49.27-29.09.4-1.32.83-3.78,1.21-3.77a44,44,0,0,1,7,1.07q42.94,26.53,85.85,53.11C290,311.44,291.33,313.24,292.87,314.72Z"/><path class="cls-5" d="M802.31,309.83h0Z"/><path class="cls-20" d="M423.36,404.85q-.5-4.61-1-9.19l9.16,5.82h0l-3.83,4.24-.05.29-2.14-.22,0-.58,0,.58Z"/><polygon class="cls-18" points="425.46 405.79 425.49 405.21 425.51 405.79 425.46 405.79"/><path class="cls-18" d="M427.7,405.72l3.83-4.24c-.41,1.37-.83,2.74-1.25,4.11Z"/><path class="cls-17" d="M438.2,757.34,437,750.58l5.15,3.1Z"/><path class="cls-17" d="M797.62,652.28c-1.29,1.23-2.14,2.34-2.39,2.22a26.65,26.65,0,0,1-3.49-2.35c.37-.44.81-1.28,1.09-1.23A45.92,45.92,0,0,1,797.62,652.28Z"/><path class="cls-16" d="M437,594.23l5.28,4.21L437,603.66Q437,598.93,437,594.23Z"/><path class="cls-16" d="M437,607.71l4.93,4-4.93,4Z"/><path class="cls-16" d="M796.43,510.31c-.18.39-.27.95-.53,1s-.7-.25-1.06-.4c.15-.36.23-.92.49-1S796,510.16,796.43,510.31Z"/><path class="cls-18" d="M437.4,402.14a9,9,0,0,1-1.68,1.06c-.25.09-.67-.26-1-.4a5.77,5.77,0,0,1,1.35-1.1C436.33,401.58,436.81,401.93,437.4,402.14Z"/><path class="cls-20" d="M329.07,339.47l1.83-1.59,6.46,3.87c-5.05,7.65-5.76-.63-8.28-2.26Z"/><path class="cls-20" d="M300.8,319l-1.62,3.86-3.85-2.47,3-2.77Z"/><path class="cls-20" d="M346.65,347.29c-.28,1.28-.55,2.57-1.38,6.38-.74-4.62-1.07-6.66-1.4-8.69Z"/><path class="cls-20" d="M311.59,325.71c-.32,1.23-.63,2.47-.95,3.71l-1.56-5.12Z"/><path class="cls-20" d="M315.58,330a31.62,31.62,0,0,1,1.7,2.74,3.69,3.69,0,0,1-1.16.87c-.9-.8-1.71-1.72-2.55-2.6Z"/><path class="cls-20" d="M418.11,396l1.7.6a3.91,3.91,0,0,1-.35.47c-.51-.28-1-.6-1.49-.92Z"/><path class="cls-20" d="M418,396.17l-1.66-.62a4.47,4.47,0,0,1,.35-.46c.5.29,1,.61,1.45.93Z"/><path class="cls-20" d="M407.33,389.27l1.7.62a5,5,0,0,1-.35.47c-.52-.28-1-.6-1.5-.91Z"/><path class="cls-20" d="M407.18,389.45l-1.67-.64c.13-.16.34-.47.36-.46.5.28,1,.61,1.46.92Z"/><path class="cls-20" d="M400.6,385.22l1.69.63c-.12.16-.33.48-.36.46-.51-.29-1-.61-1.48-.94Z"/><path class="cls-20" d="M389.8,378.49l1.7.61a4.35,4.35,0,0,1-.35.48c-.51-.29-1-.61-1.5-.92Z"/><path class="cls-20" d="M389.65,378.66,388,378a4.47,4.47,0,0,1,.35-.46c.5.29,1,.61,1.46.93Z"/><path class="cls-20" d="M372.29,367.7l1.69.63a4.58,4.58,0,0,1-.36.47c-.51-.29-1-.62-1.49-.94Z"/><path class="cls-20" d="M359.72,360.52l.17-.5a1.87,1.87,0,0,1,.56.22c.05.05-.1.32-.16.49Z"/><path class="cls-20" d="M354.76,356.91l1.7.64a3.81,3.81,0,0,1-.37.46c-.51-.29-1-.62-1.49-.94Z"/><path class="cls-20" d="M326.45,339.39l2.62.08v0l-2.79.06Z"/><path class="cls-20" d="M400.45,385.37l-.54-.38.68.23Z"/><path class="cls-20" d="M372.13,367.86l-.53-.4.69.24Z"/><path class="cls-20" d="M354.6,357.07l-.53-.39.69.23Z"/><path class="cls-20" d="M326.29,339.55l-.53-.39.69.23Z"/><rect class="cls-21" x="1" width="1000" height="1000"/></svg>