<svg id="Layer_1" data-name="Layer 1" xmlns="http://www.w3.org/2000/svg" viewBox="0 0 1000 1000"><defs><style>.cls-1,.cls-63{fill:#3d3d3d;}.cls-2{opacity:0.99;}.cls-3{opacity:0.38;}.cls-4{opacity:0.06;}.cls-5{opacity:0.72;}.cls-6{opacity:0.54;}.cls-7{opacity:0.97;}.cls-8{opacity:0.68;}.cls-9{opacity:0.09;}.cls-10{opacity:0.98;}.cls-11{opacity:0.86;}.cls-12{opacity:0.07;}.cls-13{opacity:0.7;}.cls-14{opacity:0.56;}.cls-15{opacity:0.74;}.cls-16{opacity:0.8;}.cls-17{opacity:0.78;}.cls-18{opacity:0.12;}.cls-19{opacity:0.32;}.cls-20{opacity:0.14;}.cls-21{opacity:0.93;}.cls-22{opacity:0.84;}.cls-23{opacity:0.62;}.cls-24{opacity:0.3;}.cls-25{opacity:0.01;}.cls-26{opacity:0.18;}.cls-27{opacity:0.88;}.cls-28{opacity:0.66;}.cls-29{opacity:0.36;}.cls-30{opacity:0.96;}.cls-31{opacity:0.4;}.cls-32{opacity:0.82;}.cls-33{opacity:0.16;}.cls-34{opacity:0.95;}.cls-35{opacity:0.89;}.cls-36{opacity:0.1;}.cls-37{opacity:0.5;}.cls-38{opacity:0.42;}.cls-39,.cls-63{opacity:0.2;}.cls-40{opacity:0.34;}.cls-41{opacity:0.64;}.cls-42{opacity:0.23;}.cls-43{opacity:0.26;}.cls-44{opacity:0.6;}.cls-45{opacity:0.03;}.cls-46{opacity:0.22;}.cls-47{opacity:0.94;}.cls-48{opacity:0.48;}.cls-49{opacity:0.24;}.cls-50{opacity:0.58;}.cls-51{opacity:0.52;}.cls-52{opacity:0.92;}.cls-53{opacity:0.91;}.cls-54{opacity:0.04;}.cls-55{opacity:0.28;}.cls-56{opacity:0.08;}.cls-57{opacity:0.9;}.cls-58{opacity:0.76;}.cls-59{opacity:0.05;}.cls-60{opacity:0.02;}.cls-61{opacity:0.46;}.cls-62{opacity:0.44;}</style></defs><rect class="cls-1" width="1000" height="1000"/><path d="M810.8,709c.55,11.2.57,11.25-10.3,14-36.44,9.25-72.87,18.56-109.35,27.67Q633.87,765,576.5,779q-71.44,17.52-142.93,34.85a8.76,8.76,0,0,1-6-1.1Q352.7,766.62,278,720.27q-42.19-26-84.64-51.66c-6.12-3.67-3.65-8.81-3.92-13.63,20.8-5,41.63-9.87,62.39-15C352.39,615.11,453,590.35,553.43,565c11.57-2.92,20.49-2,30.86,4.55,63.82,40.17,128.12,79.58,192.31,119.16C787.88,695.7,799.39,702.29,810.8,709Z"/><path class="cls-2" d="M810.8,709c-11.41-6.75-22.92-13.34-34.2-20.3-64.19-39.58-128.49-79-192.31-119.16-10.37-6.52-19.29-7.47-30.86-4.55C453,590.35,352.39,615.11,251.82,640c-20.76,5.14-41.59,10-62.39,15V638.75c2.87-.51,5.79-.86,8.62-1.56q46.57-11.4,93.12-22.92,133.43-33,266.79-66.22c8.91-2.24,15.84-1,23.43,3.72q94.54,58.9,189.41,117.31c13.19,8.14,26.66,15.84,40,23.74Q810.79,700.94,810.8,709Z"/><path class="cls-3" d="M189.43,409c0-2.7,0-5.4,0-8.1,2-.41,4-.75,6-1.24q103.31-25.47,206.61-51,80-19.77,160-39.73c5.69-1.43,10.49-.85,15.37,2.32,8.49,5.52,17.17,10.76,25.78,16.08q72.09,44.58,144.19,89.12c21.08,13,42.33,25.65,63.5,38.47v8.12c-2.87-1.22-5.94-2.09-8.56-3.7-21.11-12.94-42.13-26.05-63.2-39.07q-79.87-49.35-159.7-98.79c-6-3.76-11.59-4.86-18.45-3.15-52.46,13.05-105,25.82-157.46,38.8q-101.35,25-202.68,50.25C197.07,408.3,193.21,408.47,189.43,409Z"/><path class="cls-4" d="M189.28,303.57c0-2.71,0-5.42,0-8.13,2.66-.44,5.36-.72,8-1.36Q297.59,269.38,398,244.59q80.67-19.93,161.31-40c7.42-1.86,13.67-1.48,20.35,3.07,12.27,8.35,25.23,15.68,37.87,23.49q77.84,48.13,155.68,96.24C785.6,335,798.36,342.13,811,349.5q0,4.06,0,8.13a68.43,68.43,0,0,1-7.88-3.57q-30.8-18.88-61.47-37.94-80.69-49.86-161.31-99.82c-6.61-4.12-12.94-5.38-20.46-3.45-18.75,4.82-37.61,9.19-56.4,13.84q-151.44,37.5-302.87,75C196.87,302.6,193,303,189.28,303.57Z"/><path class="cls-5" d="M810.79,545.49c0,2.7,0,5.41,0,8.11a58.19,58.19,0,0,1-6.07-2.88Q693.26,481.9,581.94,412.86c-8-5-15.28-6.52-24.61-4.18-76,19.1-152.1,37.78-228.18,56.54q-69.84,17.22-139.72,34.32v-6.77q106.51-26.31,213-52.64c52.44-13,104.89-25.88,157.27-39.1,7.35-1.86,13.49-1.17,19.75,3.09,8.18,5.57,16.72,10.61,25.14,15.81Q695.34,476,786.12,532C794.1,536.86,802.56,541,810.79,545.49Z"/><path class="cls-6" d="M189.43,448.18v-6.77q36.07-8.88,72.17-17.76,148.89-36.87,297.73-73.89c7.61-1.9,13.79-1,20.4,3.14q71.34,44.52,142.95,88.61c29.3,18.08,58.74,35.95,88.12,53.91v6.81c-13.72-8.14-27.56-16.1-41.14-24.47C705.08,438,640.61,398,575.92,358.38a18.23,18.23,0,0,0-12.54-1.84Q477,377.31,390.82,398.8q-96.4,23.83-192.77,47.82C195.22,447.32,192.3,447.67,189.43,448.18Z"/><path class="cls-7" d="M189.43,615.78c2.87-.52,5.79-.86,8.62-1.56Q291.8,591,385.53,567.72c59-14.59,118-29.18,177.12-43.38a20.31,20.31,0,0,1,13.88,2c42.71,25.92,85.14,52.29,127.65,78.54Q755,636.31,805.87,667.69a37.48,37.48,0,0,0,4.93,2.15q0,3.38,0,6.75c-2.29-.83-4.81-1.31-6.86-2.56q-27.1-16.51-54.07-33.27-85.89-53.1-171.7-106.3a21.91,21.91,0,0,0-18-2.7c-54.67,13.45-109.41,26.62-164.08,40.09Q297,596.26,198.05,621c-2.83.7-5.74,1-8.62,1.56Z"/><path class="cls-8" d="M189.43,486v-8.11c4-.56,8.08-.8,12-1.75q54.15-13.23,108.25-26.68c77.62-19.17,155.4-37.75,232.75-58,19.32-5,34.23-3.53,51.47,7.56,63.42,40.8,128,79.8,192.22,119.34,8,4.92,16.45,9.06,24.69,13.56,0,2.68,0,5.36,0,8-18.87-11.42-37.82-22.69-56.6-34.27-59.2-36.5-118.28-73.19-177.62-109.47-3.72-2.27-9.51-2.86-13.92-2-13.47,2.56-26.76,6.13-40.09,9.43Q380.6,438.82,238.63,474C222.24,478,205.83,482,189.43,486Z"/><path class="cls-9" d="M810.93,368.4q0,3.39,0,6.78c-13.48-8.08-27-16-40.43-24.26Q674.27,291.58,578.17,232c-5.33-3.3-10.32-4.33-16.55-2.78Q445,258.33,328.31,287q-69.48,17.13-139,34.11c0-2.26,0-4.51,0-6.76,37.41-9.14,74.85-18.19,112.24-27.42q129.91-32.07,259.76-64.36a20,20,0,0,1,16.61,2.51Q655.4,273.17,733.08,321C759,336.88,785,352.59,810.93,368.4Z"/><path class="cls-10" d="M810.79,692.82c-13.33-7.9-26.8-15.6-40-23.74Q676,610.58,581.39,551.77c-7.59-4.73-14.52-6-23.43-3.72q-133.29,33.5-266.79,66.22-46.55,11.52-93.12,22.92c-2.83.7-5.75,1-8.62,1.56V632c41.79-10.13,83.61-20.13,125.37-30.41,82.65-20.34,165.24-40.91,247.94-61.05a20.69,20.69,0,0,1,13.75,2.06c14.1,8,27.7,16.82,41.48,25.34q75.56,46.65,151.13,93.28c13.78,8.47,27.79,16.57,41.69,24.85Z"/><path class="cls-11" d="M189.43,542.78V536c.85-.3,1.67-.68,2.54-.9q98.76-24.24,197.52-48.47,85.29-21,170.5-42.35c6.48-1.62,12.08-1.47,18,2.22Q646.16,489,714.6,531.18c32,19.73,64.13,39.26,96.2,58.88,0,1.81,0,3.62,0,5.44-3.62-1.72-7.44-3.13-10.84-5.21-24-14.71-47.85-29.57-71.79-44.35-49.4-30.49-98.9-60.82-148.13-91.58-6.92-4.32-13.29-5.47-21-3.44-19.8,5.21-39.69,10-59.56,15Q344.45,504.35,189.43,542.78Z"/><path class="cls-12" d="M189.28,303.57c3.76-.62,7.59-1,11.28-1.88q151.44-37.45,302.87-75c18.79-4.65,37.65-9,56.4-13.84,7.52-1.93,13.85-.67,20.46,3.45q80.52,50.12,161.31,99.82,30.72,19,61.47,37.94a68.43,68.43,0,0,0,7.88,3.57c0,2.24,0,4.49,0,6.73-2.65-1.19-5.49-2.1-7.94-3.62Q689.79,290.81,576.53,221a20.35,20.35,0,0,0-13.86-2.1c-29.62,6.82-59.11,14.27-88.62,21.57Q336,274.61,197.92,308.78c-2.83.7-5.75,1-8.63,1.52C189.29,308.06,189.28,305.81,189.28,303.57Z"/><path class="cls-13" d="M189.43,486c16.4-4,32.81-8,49.2-12q142-35.13,283.94-70.28c13.33-3.3,26.62-6.87,40.09-9.43,4.41-.84,10.2-.25,13.92,2,59.34,36.28,118.42,73,177.62,109.47C773,517.34,791.93,528.61,810.8,540v5.46c-8.23-4.49-16.69-8.63-24.67-13.54q-90.82-55.88-181.5-112c-8.42-5.2-17-10.24-25.14-15.81-6.26-4.26-12.4-4.95-19.75-3.09-52.38,13.22-104.83,26.13-157.27,39.1q-106.5,26.36-213,52.64Z"/><path class="cls-14" d="M189.43,448.18c2.87-.51,5.79-.86,8.62-1.56q96.39-23.89,192.77-47.82,86.24-21.33,172.56-42.26a18.23,18.23,0,0,1,12.54,1.84C640.61,398,705.08,438,769.66,477.76c13.58,8.37,27.42,16.33,41.14,24.47v6.7c-3.37-1.82-6.83-3.49-10.08-5.49Q689,434.43,577.14,365.58A22,22,0,0,0,562,363.34c-74,17.9-147.83,36.27-221.73,54.49q-75.42,18.6-150.86,37.1Z"/><path class="cls-15" d="M189.43,499.54q69.87-17.16,139.72-34.32c76.08-18.76,152.19-37.44,228.18-56.54,9.33-2.34,16.58-.81,24.61,4.18Q693.15,482.1,804.73,550.72a58.19,58.19,0,0,0,6.07,2.88c0,1.8,0,3.6,0,5.4-2.3-.83-4.8-1.32-6.86-2.56-11.94-7.2-23.8-14.56-35.66-21.9q-95-58.74-190-117.59c-5.83-3.62-11.36-4.17-17.92-2.53Q445.4,443,330.32,471.35q-70.45,17.41-140.89,34.9Z"/><path class="cls-16" d="M189.43,521.16v-6.75c2.66-.46,5.35-.77,8-1.41Q264,496.76,330.52,480.42,445.92,452,561.23,423.27c6.84-1.71,12.18-.54,17.75,3.08,8.3,5.4,16.78,10.52,25.2,15.72q81,50,162,100c14.73,9.06,29.77,17.62,44.66,26.4v6.75c-21.18-12.82-42.44-25.48-63.5-38.47-56.9-35.1-113.67-70.42-170.7-105.3-3.72-2.28-9.57-3-13.91-2.05-20.67,4.49-41.18,9.76-61.73,14.84q-141.66,35-283.3,70.13C208.27,516.7,198.84,518.9,189.43,521.16Z"/><path class="cls-17" d="M810.79,568.47c-14.89-8.78-29.93-17.34-44.66-26.4q-81.06-49.86-162-100c-8.42-5.2-16.9-10.32-25.2-15.72-5.57-3.62-10.91-4.79-17.75-3.08Q446,452.15,330.52,480.42,264,496.82,197.39,513c-2.61.64-5.3,1-8,1.41V509q86.25-21.25,172.51-42.51,99-24.51,198-49.27c6.89-1.73,12.73-1,18.64,2.66q70.89,43.94,141.86,87.73Q765.54,535.42,810.8,563C810.8,564.83,810.79,566.65,810.79,568.47Z"/><path class="cls-18" d="M810.9,379.24q0,3.38,0,6.76c-11.6-6.87-23.32-13.55-34.79-20.63-63.42-39.13-127-78-190-117.86-11.67-7.39-21.89-8.22-34.67-5-77.75,19.64-155.64,38.7-233.49,57.9Q253.67,316.27,189.34,332c0-2.26,0-4.52,0-6.77,3.1-.46,6.27-.65,9.31-1.39q84.6-20.75,169.16-41.6,95.38-23.58,190.7-47.38c7.33-1.83,13.73-1.67,20.54,2.57Q680.2,300.3,781.66,362.73C791.18,368.6,801.14,373.75,810.9,379.24Z"/><path class="cls-19" d="M810.81,438.7c0,1.81,0,3.61,0,5.42-3.62-1.72-7.43-3.14-10.85-5.21-15.58-9.47-31.06-19.12-46.57-28.71q-87.61-54.15-175.17-108.4c-5.71-3.55-11.08-3.9-17.33-2.36-48.31,12-96.68,23.7-145,35.65Q311.26,361,206.67,387c-5.66,1.4-11.49,2.06-17.25,3.07,0-1.8,0-3.61,0-5.41,3.1-.56,6.23-1,9.28-1.72q51.5-12.65,103-25.38c85.45-21.13,170.93-42.14,256.29-63.6,8.9-2.24,15.84-1,23.44,3.71Q675.94,356.57,770.8,415C784,423.12,797.47,430.8,810.81,438.7Z"/><path class="cls-20" d="M189.34,332Q253.65,316.19,318,300.42c77.85-19.2,155.74-38.26,233.49-57.9,12.78-3.23,23-2.4,34.67,5,63,39.84,126.56,78.73,190,117.86,11.47,7.08,23.19,13.76,34.79,20.63,0,1.8,0,3.6,0,5.4-2.86-1.24-5.91-2.17-8.54-3.77-16.52-10.07-33-20.29-49.41-30.46Q666,303.41,579,249.56c-6.27-3.9-12.25-4.65-19.22-2.9-29,7.3-58.12,14.34-87.18,21.53Q336,302,199.32,335.79c-3.25.8-6.64,1-10,1.55Z"/><path class="cls-21" d="M189.43,586v-6.76c3.11-.46,6.28-.67,9.32-1.42q92.52-22.71,185-45.55,87.57-21.64,175.1-43.49c7.4-1.85,13.75-1.36,20.52,2.85q99.24,61.68,198.79,122.86c10.69,6.58,21.74,12.56,32.62,18.82,0,2.23,0,4.47,0,6.71-14.82-9-29.7-17.88-44.45-27Q671.76,554.8,577.29,496.32a18.53,18.53,0,0,0-15.31-2.5Q375.73,540,189.43,586Z"/><path class="cls-22" d="M810.8,590.06c-32.07-19.62-64.2-39.15-96.2-58.88Q646.18,489,578,446.48c-5.9-3.69-11.5-3.84-18-2.22q-85.22,21.35-170.5,42.35Q290.76,511,192,535.08c-.87.22-1.69.6-2.54.9v-5.36q41.65-10.27,83.32-20.54,143.31-35.49,286.58-71.14c8.47-2.12,15.53-.49,22.44,3.78q93.94,58,187.87,116.14c13.58,8.37,27.43,16.32,41.15,24.47C810.8,585.57,810.8,587.82,810.8,590.06Z"/><path class="cls-23" d="M810.8,517.1c0,1.8,0,3.6,0,5.41a52.47,52.47,0,0,1-6.76-3q-56.88-35.07-113.69-70.25-56.55-35-113.08-69.95c-4.92-3.05-9.67-3.56-15.37-2.14-45,11.23-90.05,22.09-135.06,33.22q-104.88,25.93-209.72,52c-9.16,2.27-18.45,4-27.68,6V463c2.66-.46,5.35-.76,8-1.4q107.89-26.58,215.78-53.24c49.84-12.32,99.64-24.82,149.56-36.81,4.24-1,9.86,0,13.76,2.05,10.51,5.59,20.44,12.27,30.59,18.54q81,50,162,100.07C782.87,500.74,796.89,508.83,810.8,517.1Z"/><path class="cls-24" d="M810.81,438.7c-13.34-7.9-26.81-15.58-40-23.72Q676,356.48,581.38,297.66c-7.6-4.74-14.54-6-23.44-3.71-85.36,21.46-170.84,42.47-256.29,63.6q-51.48,12.72-103,25.38c-3.05.75-6.18,1.16-9.28,1.72v-5.41c2-.4,4-.74,6-1.22q86.91-21.37,173.83-42.78,96.07-23.76,192.1-47.76c5.84-1.46,10.8-1.12,16,2.13Q651.89,335.93,726.64,382c28,17.23,56.12,34.19,84.18,51.28Z"/><path class="cls-25" d="M189.22,276.52c3.55-.55,7.17-.83,10.64-1.69Q292,252,384.14,229.15c59.47-14.7,118.94-29.42,178.5-43.71a21.18,21.18,0,0,1,14.48,2.23c41.38,25.11,82.46,50.71,123.63,76.16q51.4,31.8,102.87,63.51c2.26,1.4,4.91,2.18,7.38,3.24,0,1.8,0,3.61,0,5.41-2.87-1.23-5.93-2.12-8.57-3.73-16.71-10.19-33.33-20.54-50-30.83Q666,248,579.64,194.47c-6.69-4.17-13-5-20.48-3.09C523.8,200.3,488.35,208.9,453,217.69q-107.19,26.58-214.37,53.18c-16.36,4-32.9,7.39-49.36,11.05Z"/><path class="cls-26" d="M810.85,400.86q0,3.36,0,6.72c-3.37-1.82-6.84-3.48-10.09-5.48Q689,333.08,577.32,263.94a18.58,18.58,0,0,0-15.37-2.3q-110.81,27.57-221.68,54.83-75.43,18.6-150.89,37.1c0-1.81,0-3.62,0-5.43,7.44-1.76,14.9-3.46,22.33-5.29q114.09-28.16,228.15-56.35c40.87-10.09,81.71-20.31,122.64-30.12,4-.95,9.38-.85,12.71,1.14,25.31,15.09,50.28,30.77,75.35,46.28q76.05,47.06,152.16,94.06C805.12,399.35,808.12,399.88,810.85,400.86Z"/><path class="cls-27" d="M189.43,550.9v-5.41c28-6.8,56-13.49,84-20.4,93.36-23.06,186.74-46,280-69.54,11.57-2.93,20.49-2,30.86,4.55,63.82,40.16,128.12,79.57,192.31,119.16,11.28,7,22.79,13.54,34.2,20.29V605a45.67,45.67,0,0,1-5.5-2.52Q691.57,532.12,577.92,461.67C572.81,458.5,568,457.46,562,459q-110.79,27.6-221.67,54.84Q264.89,532.39,189.43,550.9Z"/><path class="cls-28" d="M810.79,532c-8.24-4.5-16.7-8.64-24.69-13.56-64.22-39.54-128.8-78.54-192.22-119.34-17.24-11.09-32.15-12.61-51.47-7.56-77.35,20.21-155.13,38.79-232.75,58q-54.12,13.38-108.25,26.68c-3.9.95-8,1.19-12,1.75v-4.12c.85-.3,1.68-.67,2.55-.89q98.68-24.21,197.37-48.43,85.23-21,170.38-42.36c7.35-1.85,13.49-1.17,19.75,3.09,8.18,5.57,16.72,10.61,25.14,15.81q90.72,56.06,181.5,112c8,4.91,16.44,9,24.67,13.54Z"/><path class="cls-29" d="M810.8,454.93c-21.17-12.82-42.42-25.49-63.5-38.47Q675.14,372,603.11,327.34c-8.61-5.32-17.29-10.56-25.78-16.08-4.88-3.17-9.68-3.75-15.37-2.32Q482,329,402,348.67q-103.29,25.53-206.61,51c-2,.49-4,.83-6,1.24v-5.43c36.07-8.81,72.16-17.54,108.2-26.44,88.06-21.74,176.08-43.63,264.19-65.11,4.45-1.08,10.59-.35,14.44,2C650.3,351.26,724.11,397,798,442.56c3.92,2.41,8.49,3.76,12.76,5.61Z"/><path class="cls-30" d="M809.83,661.77c-14.1-8.33-28.32-16.44-42.26-25q-81-49.83-161.74-99.91c-10.51-6.5-20.92-13.16-31.37-19.74-4.63-.42-9.58-2.11-13.86-1.07q-118.46,28.86-236.78,58.31Q256.62,591,189.43,607.63v-5.37c2.66-.46,5.35-.76,8-1.4Q253.81,587,310.2,573,436.44,541.8,562.73,510.8c4.23-1,9.86,0,13.76,2.06,10.51,5.59,20.44,12.27,30.59,18.54q81,50,162,100.07c13.77,8.48,27.79,16.58,41.7,24.85Z"/><path class="cls-10" d="M810.79,686.06c-13.9-8.28-27.91-16.38-41.69-24.85Q693.47,614.67,618,567.93c-13.78-8.52-27.38-17.38-41.48-25.34a20.69,20.69,0,0,0-13.75-2.06C480,560.67,397.45,581.24,314.8,601.58,273,611.86,231.22,621.86,189.43,632v-5.4c2.44-.41,4.91-.66,7.3-1.25q73.46-18,146.89-36Q450.79,562.81,557.89,536c8.5-2.14,15.61-1.58,22.85,3.59,7.49,5.36,15.59,9.85,23.43,14.7q81,50,162,100c14.72,9.06,29.77,17.61,44.66,26.39Z"/><path class="cls-26" d="M810.85,400.86c-2.73-1-5.73-1.51-8.14-3q-76.14-46.94-152.16-94.06c-25.07-15.51-50-31.19-75.35-46.28-3.33-2-8.73-2.09-12.71-1.14-40.93,9.81-81.77,20-122.64,30.12Q325.77,314.69,211.7,342.85c-7.43,1.83-14.89,3.53-22.33,5.29,0-1.8,0-3.59,0-5.39,49-11.93,98.05-23.76,147-35.81,75.45-18.55,150.85-37.32,226.35-55.68A20.26,20.26,0,0,1,575.93,253c10.69,5.74,20.83,12.51,31.18,18.9q81,50.06,162,100.09c13.78,8.48,27.81,16.56,41.73,24.82Z"/><path class="cls-31" d="M189.43,409c3.78-.51,7.64-.68,11.32-1.59q101.36-25,202.68-50.25c52.47-13,105-25.75,157.46-38.8,6.86-1.71,12.41-.61,18.45,3.15Q659,371.14,739,420.28c21.07,13,42.09,26.13,63.2,39.07,2.62,1.61,5.69,2.48,8.56,3.7v5.39a59.16,59.16,0,0,1-7.3-3.26q-39.71-24.4-79.31-48.95c-47.88-29.6-95.82-59.1-143.57-88.9-6.82-4.25-13.3-5.53-21.09-3.59C522.38,333,485.14,341.87,448,351.06Q343.35,376.94,238.76,403c-16.38,4-32.88,7.62-49.33,11.41Z"/><path class="cls-32" d="M810.79,583.33c-13.72-8.15-27.57-16.1-41.15-24.47q-94-58-187.87-116.14c-6.91-4.27-14-5.9-22.44-3.78q-143.22,35.85-286.58,71.14-41.66,10.31-83.32,20.54v-5.41q81-19.94,162-39.9,104.26-25.8,208.48-51.88c6.88-1.73,12.73-1,18.63,2.66Q646,477.93,713.48,519.64q48.57,29.94,97.32,59.6C810.8,580.6,810.8,582,810.79,583.33Z"/><path class="cls-33" d="M810.87,396.81c-13.92-8.26-28-16.34-41.73-24.82q-81.07-50-162-100.09c-10.35-6.39-20.49-13.16-31.18-18.9a20.26,20.26,0,0,0-13.19-1.74c-75.5,18.36-150.9,37.13-226.35,55.68-49,12.05-98,23.88-147,35.81,0-1.8,0-3.61,0-5.41,3.33-.51,6.72-.75,10-1.55Q336,302,472.63,268.19c29.06-7.19,58.15-14.23,87.18-21.53,7-1.75,13-1,19.22,2.9q86.82,54,173.89,107.61c16.46,10.17,32.89,20.39,49.41,30.46,2.63,1.6,5.68,2.53,8.54,3.77Z"/><path class="cls-34" d="M810.8,656.32c-13.91-8.27-27.93-16.37-41.7-24.85Q688,581.53,607.08,531.4c-10.15-6.27-20.08-12.95-30.59-18.54-3.9-2.08-9.53-3.09-13.76-2.06Q436.39,541.56,310.2,573,253.8,587,197.39,600.86c-2.61.64-5.3.94-8,1.4v-5.41a71.2,71.2,0,0,0,8-1.05q62-15.09,124-30.34c73.46-18.19,146.85-36.62,220.34-54.68,34-8.36,23-9.9,51.72,7.74C657.8,558,721.88,597.82,786.1,637.36c8,4.92,16.45,9.06,24.69,13.55C810.79,652.72,810.79,654.52,810.8,656.32Z"/><path class="cls-35" d="M189.43,550.9q75.44-18.55,150.88-37.11Q451.18,486.46,562,459c6-1.49,10.83-.45,15.94,2.72q113.63,70.5,227.38,140.77a45.67,45.67,0,0,0,5.5,2.52c0,1.35,0,2.7,0,4a33.54,33.54,0,0,1-5.59-2.16q-22.77-13.89-45.44-28-90.22-55.71-180.38-111.54c-6.77-4.21-13.12-4.71-20.52-2.85C521.94,473.77,485,482.78,448,491.94q-104.6,25.95-209.2,51.91c-16.38,4-32.92,7.42-49.38,11.1Z"/><path class="cls-36" d="M810.9,379.24c-9.76-5.49-19.72-10.64-29.24-16.51Q680.23,300.24,579,237.38c-6.81-4.24-13.21-4.4-20.54-2.57q-95.31,23.83-190.7,47.38-84.55,20.91-169.16,41.6c-3,.74-6.21.93-9.31,1.39,0-1.35,0-2.7,0-4.05q69.51-17.06,139-34.11Q445,258.24,561.62,229.26c6.23-1.55,11.22-.52,16.55,2.78q96.08,59.58,192.31,118.88c13.38,8.24,26.95,16.18,40.43,24.26C810.91,376.53,810.9,377.88,810.9,379.24Z"/><path class="cls-37" d="M810.79,486c0,1.78,0,3.57,0,5.35C786,476.24,761.17,461.22,736.45,446q-72.13-44.46-144.12-89.17c-21.18-13.22-21-13.81-45.51-7.78q-178.73,44-357.39,88.31V432c3.32-.51,6.71-.78,10-1.58q52.16-12.76,104.25-25.68,128.81-31.84,257.58-63.87c6.83-1.71,12.11-.44,17.75,3.06Q673.6,402.62,768.39,461.1C782.34,469.7,796.65,477.72,810.79,486Z"/><path class="cls-38" d="M189.43,414.38c16.45-3.79,32.95-7.36,49.33-11.41Q343.39,377.11,448,351.06c37.17-9.19,74.41-18.06,111.56-27.32,7.79-1.94,14.27-.66,21.09,3.59,47.75,29.8,95.69,59.3,143.57,88.9q39.63,24.5,79.31,48.95a59.16,59.16,0,0,0,7.3,3.26v5.35c-28.42-17.38-56.89-34.69-85.24-52.17-48.1-29.65-96.24-59.25-144.09-89.3-7.74-4.85-14.78-6-23.47-3.81q-184.24,45.83-368.58,91.27C189.43,418,189.43,416.18,189.43,414.38Z"/><path class="cls-39" d="M189.38,353.57q75.44-18.56,150.89-37.1Q451.12,289.13,562,261.64a18.58,18.58,0,0,1,15.37,2.3Q689,333.12,800.77,402.1c3.25,2,6.72,3.66,10.09,5.48,0,1.36,0,2.72,0,4.08a50.68,50.68,0,0,1-6.78-3q-56.61-34.87-113.14-69.89c-37.89-23.42-75.7-47-113.81-70.06a21.27,21.27,0,0,0-14.47-2.22c-47.32,11.19-94.52,22.84-141.72,34.51q-104.57,25.86-209.09,51.88c-7.41,1.83-15,3.13-22.44,4.68Z"/><path class="cls-40" d="M810.8,448.17c-4.27-1.85-8.84-3.2-12.76-5.61C724.11,397,650.3,351.26,576.25,305.91c-3.85-2.36-10-3.09-14.44-2C473.7,325.38,385.68,347.27,297.62,369c-36,8.9-72.13,17.63-108.2,26.44v-5.39c5.76-1,11.59-1.67,17.25-3.07q104.63-25.87,209.21-51.9c48.32-11.95,96.69-23.68,145-35.65,6.25-1.54,11.62-1.19,17.33,2.36q87.46,54.39,175.17,108.4c15.51,9.59,31,19.24,46.57,28.71,3.42,2.07,7.23,3.49,10.85,5.21Z"/><path class="cls-41" d="M810.79,526.57c-8.23-4.5-16.69-8.63-24.67-13.54q-90.84-55.89-181.5-112c-8.42-5.2-17-10.24-25.14-15.81-6.26-4.26-12.4-4.94-19.75-3.09q-85.12,21.45-170.38,42.36Q290.69,448.79,192,472.9c-.87.22-1.7.59-2.55.89v-5.34c9.23-2,18.52-3.74,27.68-6q104.88-25.93,209.72-52c45-11.13,90.08-22,135.06-33.22,5.7-1.42,10.45-.91,15.37,2.14q56.49,35.06,113.08,69.95Q747.18,484.41,804,519.53a52.47,52.47,0,0,0,6.76,3Z"/><path class="cls-42" d="M189.39,367.07c0-1.8,0-3.59,0-5.39,3.33-.51,6.72-.78,10-1.57Q270.92,342.64,342.44,325c68-16.82,136.07-33.4,203.9-50.9,16-4.13,28.84-3.29,43.54,6.11,63.56,40.59,128,79.75,192.27,119.3,9.34,5.76,19.11,10.81,28.68,16.19,0,1.78,0,3.55,0,5.33C792,409.67,773,398.41,754.23,386.83c-59.22-36.5-118.3-73.2-177.65-109.48-3.72-2.28-9.51-2.86-13.91-2-13.48,2.56-26.77,6.13-40.1,9.43Q378,320.54,233.36,356.36C218.72,360,204.05,363.5,189.39,367.07Z"/><path class="cls-34" d="M810.79,650.91c-8.24-4.49-16.7-8.63-24.69-13.55C721.88,597.82,657.8,558,593.55,518.52c-28.68-17.64-17.69-16.1-51.72-7.74C468.34,528.84,395,547.27,321.49,565.46q-62,15.33-124,30.34a71.2,71.2,0,0,1-8,1.05V592.8c2.44-.41,4.91-.66,7.3-1.25q86.93-21.33,173.82-42.75Q464.65,525.54,558.69,502c7.86-2,14.77-2.45,21.41,3.33,3.69,3.2,8.31,5.34,12.53,7.94q87,53.79,174,107.53c14.54,8.95,29.41,17.37,44.12,26Z"/><path class="cls-43" d="M189.41,375.18c0-1.35,0-2.69,0-4,2-.41,4-.75,5.95-1.23Q288.17,347.07,381,324.18q90.18-22.29,180.3-44.82a19.89,19.89,0,0,1,16.61,2.5q74.28,46.15,148.75,92c28,17.23,56.12,34.2,84.19,51.28,0,1.36,0,2.73,0,4.09a98.37,98.37,0,0,1-9.05-4.42q-35.4-21.74-70.68-43.64-77-47.6-153.87-95.3c-4.79-3-9.07-3.84-14.56-2.46-38.43,9.68-76.94,19.07-115.41,28.61Q342.67,338,238.08,364C221.92,367.94,205.63,371.45,189.41,375.18Z"/><path class="cls-44" d="M810.8,517.1c-13.91-8.27-27.93-16.36-41.71-24.85q-81.06-49.94-162-100.07c-10.15-6.27-20.08-12.95-30.59-18.54-3.9-2.08-9.52-3.07-13.76-2.05-49.92,12-99.72,24.49-149.56,36.81q-107.88,26.67-215.78,53.24c-2.61.64-5.3.94-8,1.4V459q59.37-14.53,118.75-29.09C392.78,409,477.35,388,562,367.37c4.5-1.09,10.69-.44,14.56,1.91,50,30.42,99.66,61.37,149.5,92.05,28.16,17.34,56.48,34.45,84.73,51.67Z"/><path class="cls-45" d="M811,338.69c0,1.35,0,2.7,0,4.06-2.64-1.17-5.45-2.05-7.89-3.54q-39.4-24.21-78.71-48.58c-48-29.7-96.16-59.3-144.08-89.21-6.87-4.29-13.41-5.2-21.13-3.28C507.61,211,456,223.49,404.4,236.24q-102,25.23-203.87,50.59c-3.69.91-7.52,1.25-11.28,1.86,0-1.36,0-2.71,0-4.07,2.65-.44,5.35-.71,8-1.35q45.59-11.16,91.14-22.42,137.32-34,274.69-67.77A19.06,19.06,0,0,1,576.17,195c64.67,39.59,129.1,79.56,193.65,119.33C783.4,322.69,797.26,330.58,811,338.69Z"/><path class="cls-46" d="M810.83,415.74c-9.57-5.38-19.34-10.43-28.68-16.19C717.92,360,653.44,320.84,589.88,280.25c-14.7-9.4-27.53-10.24-43.54-6.11-67.83,17.5-135.9,34.08-203.9,50.9q-71.51,17.67-143.07,35.07c-3.26.79-6.65,1.06-10,1.57v-4.07c7.48-1.55,15-2.85,22.44-4.68q104.57-25.87,209.09-51.88c47.2-11.67,94.4-23.32,141.72-34.51a21.27,21.27,0,0,1,14.47,2.22c38.11,23.06,75.92,46.64,113.81,70.06q56.57,35,113.14,69.89a50.68,50.68,0,0,0,6.78,3C810.84,413,810.83,414.38,810.83,415.74Z"/><path class="cls-47" d="M810.79,646.86c-14.71-8.66-29.58-17.08-44.12-26q-87.1-53.62-174-107.53c-4.22-2.6-8.84-4.74-12.53-7.94-6.64-5.78-13.55-5.31-21.41-3.33q-94,23.6-188.14,46.77-86.88,21.47-173.82,42.75c-2.39.59-4.86.84-7.3,1.25v-4.06c7.91-1.77,15.85-3.4,23.71-5.34q113.81-28,227.57-56.18c40.88-10.1,81.73-20.34,122.68-30.11A19.2,19.2,0,0,1,575.93,499c10.66,5.8,20.82,12.53,31.16,18.91q81,50.05,162,100.07c13.77,8.49,27.79,16.58,41.7,24.85C810.8,644.15,810.79,645.51,810.79,646.86Z"/><path class="cls-48" d="M810.79,486c-14.14-8.29-28.45-16.31-42.4-24.91Q673.58,402.65,579,343.89c-5.64-3.5-10.92-4.77-17.75-3.06Q432.49,373,303.64,404.7q-52.11,12.89-104.25,25.68c-3.25.8-6.64,1.07-10,1.58V427.9c2.44-.41,4.91-.66,7.3-1.24q81.66-20,163.29-40.13Q459.35,362,558.6,337.16c7.89-2,14.71-2,21.56,3.3,6,4.65,13,8.11,19.46,12.14q87,53.76,174,107.52c12.23,7.53,24.78,14.57,37.18,21.83C810.8,483.3,810.8,484.66,810.79,486Z"/><path class="cls-49" d="M810.83,425.14c-28.07-17.08-56.21-34.05-84.19-51.28q-74.46-45.84-148.75-92a19.89,19.89,0,0,0-16.61-2.5Q471.19,302,381,324.18q-92.79,22.94-185.63,45.73c-2,.48-4,.82-5.95,1.23,0-1.36,0-2.72,0-4.07,14.66-3.57,29.33-7.09,44-10.71Q378,320.57,522.57,284.76c13.33-3.3,26.62-6.87,40.1-9.43,4.4-.84,10.19-.26,13.91,2,59.35,36.28,118.43,73,177.65,109.48C773,398.41,792,409.67,810.84,421.07,810.83,422.43,810.83,423.79,810.83,425.14Z"/><path class="cls-50" d="M810.8,513c-28.25-17.22-56.57-34.33-84.73-51.67-49.84-30.68-99.51-61.63-149.5-92.05-3.87-2.35-10.06-3-14.56-1.91C477.35,388,392.78,409,308.18,429.9Q248.83,444.56,189.43,459v-4.06q75.44-18.54,150.86-37.1C414.19,399.61,488,381.24,562,363.34a22,22,0,0,1,15.12,2.24q112,68.6,223.58,137.86c3.25,2,6.71,3.67,10.08,5.49Z"/><path class="cls-51" d="M189.43,437.35Q368.13,393.17,546.82,349c24.48-6,24.33-5.44,45.51,7.78Q664.2,401.7,736.45,446c24.72,15.23,49.56,30.25,74.35,45.37v4.06c-29.38-18-58.82-35.83-88.12-53.91Q651.1,397.35,579.73,352.9c-6.61-4.12-12.79-5-20.4-3.14q-148.8,37.17-297.73,73.89-36.08,8.94-72.17,17.76Z"/><path class="cls-52" d="M189.43,573.87v-4c36.09-8.82,72.19-17.56,108.26-26.47C385.79,521.6,473.86,499.7,562,478.21c4.49-1.1,10.68-.45,14.55,1.9,50,30.43,99.67,61.37,149.5,92.06,28.17,17.34,56.48,34.46,84.73,51.68,0,.91,0,1.82,0,2.73-2.3-.83-4.82-1.31-6.86-2.56q-45.45-27.87-90.79-55.93c-45.17-27.92-90.23-56-135.59-83.6-4.11-2.5-10.5-3.75-15.1-2.62Q375.85,527.51,189.43,573.87Z"/><path class="cls-7" d="M810.79,680.65c-14.89-8.78-29.94-17.33-44.66-26.39q-81.06-49.87-162-100c-7.84-4.85-15.94-9.34-23.43-14.7-7.24-5.17-14.35-5.73-22.85-3.59q-107.05,27-214.27,53.35-73.41,18.16-146.89,36c-2.39.59-4.86.84-7.3,1.25v-4.06c2.88-.51,5.79-.86,8.62-1.56q99-24.54,198.05-49.12c54.67-13.47,109.41-26.64,164.08-40.09a21.91,21.91,0,0,1,18,2.7q85.77,53.28,171.7,106.3,27,16.69,54.07,33.27c2.05,1.25,4.57,1.73,6.86,2.56Z"/><path class="cls-53" d="M810.8,623.85c-28.25-17.22-56.56-34.34-84.73-51.68-49.83-30.69-99.51-61.63-149.5-92.06-3.87-2.35-10.06-3-14.55-1.9-88.16,21.49-176.23,43.39-264.33,65.14-36.07,8.91-72.17,17.65-108.26,26.47v-4.06C240.18,553.4,291,541.15,341.68,528.63Q448.92,502.17,556,475.26c9.82-2.48,18.35-2.77,26.46,4.23,3.7,3.2,8.31,5.35,12.52,7.95Q685.8,543.51,776.6,599.53c11.28,7,22.79,13.54,34.2,20.3Z"/><path class="cls-11" d="M810.8,579.24q-48.67-29.79-97.32-59.6Q646,478,578.56,436.09c-5.9-3.67-11.75-4.39-18.63-2.66q-104.19,26.16-208.48,51.88-81,20.06-162,39.9v-4.05c9.41-2.26,18.84-4.46,28.23-6.79Q359.32,479.32,501,444.24c20.55-5.08,41.06-10.35,61.73-14.84,4.34-.94,10.19-.23,13.91,2.05,57,34.88,113.8,70.2,170.7,105.3,21.06,13,42.32,25.65,63.5,38.47Z"/><path class="cls-54" d="M189.25,288.69c3.76-.61,7.59-.95,11.28-1.86q102-25.24,203.87-50.59C456,223.49,507.61,211,559.17,198.14c7.72-1.92,14.26-1,21.13,3.28,47.92,29.91,96,59.51,144.08,89.21q39.33,24.31,78.71,48.58c2.44,1.49,5.25,2.37,7.89,3.54,0,1.35,0,2.69,0,4a64.42,64.42,0,0,1-6.66-3.15q-48.93-30-97.79-60.21-64.65-39.92-129.22-80a18.53,18.53,0,0,0-15.36-2.31q-94.1,23.43-188.28,46.51-87.9,21.73-175.78,43.57c-2.83.7-5.75,1-8.63,1.51Z"/><path class="cls-53" d="M810.8,619.83c-11.41-6.76-22.92-13.34-34.2-20.3q-90.84-56-181.58-112.09c-4.21-2.6-8.82-4.75-12.52-7.95-8.11-7-16.64-6.71-26.46-4.23q-107.1,27-214.36,53.37C291,541.15,240.18,553.4,189.43,565.76v-4c15.78-3.63,31.62-7,47.34-10.92,102.28-25.26,204.63-50.22,306.69-76.34,18.27-4.68,34.1-6.22,48.64,7.45a3.68,3.68,0,0,0,.58.34q90.45,55.86,180.94,111.69c12.24,7.53,24.78,14.57,37.17,21.84Z"/><path class="cls-55" d="M189.41,375.18c16.22-3.73,32.51-7.24,48.67-11.23Q342.69,338.09,447.25,312c38.47-9.54,77-18.93,115.41-28.61,5.49-1.38,9.77-.52,14.56,2.46q76.81,47.83,153.87,95.3,35.32,21.84,70.68,43.64a98.37,98.37,0,0,0,9.05,4.42v4c-28.06-17.09-56.2-34.05-84.18-51.28q-74.76-46-149.32-92.36c-5.23-3.25-10.19-3.59-16-2.13q-96,24-192.1,47.76Q282.29,356.72,195.36,378c-2,.48-4,.82-6,1.22Z"/><path class="cls-56" d="M189.29,310.3c2.88-.5,5.8-.82,8.63-1.52Q336,274.64,474.05,240.45c29.51-7.3,59-14.75,88.62-21.57a20.35,20.35,0,0,1,13.86,2.1Q689.93,290.58,803,360.74c2.45,1.52,5.29,2.43,7.94,3.62v4C785,352.59,759,336.88,733.08,321q-77.66-47.79-155.17-95.85a20,20,0,0,0-16.61-2.51Q431.46,254.93,301.54,287c-37.39,9.23-74.83,18.28-112.24,27.42C189.3,313,189.29,311.66,189.29,310.3Z"/><path class="cls-21" d="M810.79,633.35c-10.88-6.26-21.93-12.24-32.62-18.82q-99.49-61.26-198.79-122.86c-6.77-4.21-13.12-4.7-20.52-2.85q-87.51,21.9-175.1,43.49-92.49,22.86-185,45.55c-3,.75-6.21,1-9.32,1.42v-2.71c11.16-2.7,22.34-5.35,33.49-8.1q114.14-28.17,228.26-56.38c37.17-9.18,74.32-18.46,111.55-27.36,3.81-.91,9-.93,12.12,1,50,30.48,99.68,61.4,149.51,92.1C753.11,595.51,782,613,810.8,630.61,810.8,631.52,810.79,632.43,810.79,633.35Z"/><path class="cls-57" d="M189.43,555c16.46-3.68,33-7.06,49.38-11.1q104.64-25.8,209.2-51.91c36.95-9.16,73.93-18.17,110.85-27.45,7.4-1.86,13.75-1.36,20.52,2.85q90,56,180.38,111.54,22.69,14,45.44,28a33.54,33.54,0,0,0,5.59,2.16c0,1.34,0,2.67,0,4-3.36-1.83-6.82-3.5-10.07-5.51Q689,538.51,577.33,469.4A18.58,18.58,0,0,0,562,467.08Q451.17,494.65,340.3,521.9,264.88,540.5,189.43,559Z"/><path class="cls-57" d="M189.43,559q75.44-18.54,150.87-37.1Q451.15,494.57,562,467.08a18.58,18.58,0,0,1,15.37,2.32Q689,538.55,800.73,607.51c3.25,2,6.71,3.68,10.07,5.51,0,.92,0,1.83,0,2.75-12.39-7.27-24.93-14.31-37.17-21.84q-90.54-55.74-180.94-111.69a3.68,3.68,0,0,1-.58-.34c-14.54-13.67-30.37-12.13-48.64-7.45-102.06,26.12-204.41,51.08-306.69,76.34-15.72,3.88-31.56,7.29-47.34,10.92Z"/><path class="cls-27" d="M810.8,599.55c-11.41-6.75-22.92-13.34-34.2-20.29-64.19-39.59-128.49-79-192.31-119.16-10.37-6.53-19.29-7.48-30.86-4.55-93.24,23.53-186.62,46.48-280,69.54-28,6.91-56,13.6-84,20.4v-2.71q155-38.44,310-76.89c19.87-4.93,39.76-9.76,59.56-15,7.72-2,14.09-.88,21,3.44,49.23,30.76,98.73,61.09,148.13,91.58C752.1,560.72,776,575.58,800,590.29c3.4,2.08,7.22,3.49,10.84,5.21C810.79,596.85,810.79,598.2,810.8,599.55Z"/><path class="cls-47" d="M810.8,642.8c-13.91-8.27-27.93-16.36-41.7-24.85Q688,568,607.09,517.88c-10.34-6.38-20.5-13.11-31.16-18.91a19.2,19.2,0,0,0-12.54-1.86c-40.95,9.77-81.8,20-122.68,30.11q-113.77,28.1-227.57,56.18c-7.86,1.94-15.8,3.57-23.71,5.34V586Q375.72,540,562,493.82a18.53,18.53,0,0,1,15.31,2.5q94.43,58.56,189.06,116.77c14.75,9.09,29.63,18,44.45,27Z"/><path class="cls-52" d="M810.8,630.61C782,613,753.11,595.51,724.36,577.8c-49.83-30.7-99.54-61.62-149.51-92.1-3.12-1.9-8.31-1.88-12.12-1-37.23,8.9-74.38,18.18-111.55,27.36Q337,540.28,222.92,568.47c-11.15,2.75-22.33,5.4-33.49,8.1v-2.7q186.48-46.12,373-92c4.6-1.13,11,.12,15.1,2.62,45.36,27.6,90.42,55.68,135.59,83.6q45.35,28,90.79,55.93c2,1.25,4.56,1.73,6.86,2.56Z"/><path class="cls-58" d="M810.8,563q-45.19-27.69-90.38-55.41-71-43.77-141.86-87.73c-5.91-3.67-11.75-4.39-18.64-2.66q-98.92,24.87-198,49.27Q275.71,487.81,189.43,509v-2.74q70.44-17.46,140.89-34.9,115-28.44,230.07-56.93c6.56-1.64,12.09-1.09,17.92,2.53q94.89,58.94,190,117.59c11.86,7.34,23.72,14.7,35.66,21.9,2.06,1.24,4.56,1.73,6.86,2.56C810.79,560.34,810.8,561.68,810.8,563Z"/><path class="cls-59" d="M189.25,292.73c2.88-.49,5.8-.81,8.63-1.51q87.9-21.75,175.78-43.57,94.14-23.27,188.28-46.51a18.53,18.53,0,0,1,15.36,2.31q64.53,40.11,129.22,80,48.86,30.18,97.79,60.21a64.42,64.42,0,0,0,6.66,3.15v2.71c-12.61-7.37-25.37-14.49-37.8-22.15q-77.92-48-155.68-96.24c-12.64-7.81-25.6-15.14-37.87-23.49-6.68-4.55-12.93-4.93-20.35-3.07q-80.61,20.2-161.31,40Q297.6,269.39,197.23,294.08c-2.61.64-5.31.92-8,1.36C189.26,294.54,189.25,293.64,189.25,292.73Z"/><path class="cls-60" d="M811,338.69c-13.73-8.11-27.59-16-41.17-24.36-64.55-39.77-129-79.74-193.65-119.33A19.06,19.06,0,0,0,563,193.08q-137.41,33.58-274.69,67.77-45.55,11.26-91.14,22.42c-2.61.64-5.31.91-8,1.35,0-.9,0-1.8,0-2.7,16.46-3.66,33-7,49.36-11.05Q345.81,244.44,453,217.69c35.39-8.79,70.84-17.39,106.2-26.31,7.46-1.88,13.79-1.08,20.48,3.09q86.25,53.72,172.79,107c16.66,10.29,33.28,20.64,50,30.83,2.64,1.61,5.7,2.5,8.57,3.73Z"/><path class="cls-61" d="M810.8,482c-12.4-7.26-24.95-14.3-37.18-21.83q-87.06-53.65-174-107.52c-6.5-4-13.44-7.49-19.46-12.14-6.85-5.3-13.67-5.28-21.56-3.3Q459.36,362,360,386.53q-81.61,20.18-163.29,40.13c-2.39.58-4.86.83-7.3,1.24v-2.7c3.56-.46,7.2-.58,10.66-1.43q113.82-28,227.6-56.17c44.38-11,88.72-22.1,133.18-32.73,4.8-1.14,11.29-1,15.33,1.32,22.91,13.42,45.25,27.81,67.92,41.66,13.61,8.32,27.45,16.25,41.19,24.36,10.69,7,21.25,14.19,32.12,20.88,13.94,8.58,28.14,16.74,42.22,25.08,12.33,8,24.58,16.07,37,23.85,4.47,2.8,9.4,4.85,14.12,7.24C810.79,480.16,810.8,481.05,810.8,482Z"/><path class="cls-61" d="M685.31,402.21c-13.74-8.11-27.58-16-41.19-24.36-22.67-13.85-45-28.24-67.92-41.66-4-2.36-10.53-2.46-15.33-1.32-44.46,10.63-88.8,21.76-133.18,32.73q-113.79,28.11-227.6,56.17c-3.46.85-7.1,1-10.66,1.43v-1.36q72.82-17.89,145.65-35.8c75.66-18.65,151.28-37.45,227-55.82,4.49-1.09,10.65-.38,14.55,2,34.51,20.8,68.69,42.14,102.94,63.39A57,57,0,0,1,685.31,402.21Z"/><path class="cls-30" d="M809.83,661.77c-14.1-8.33-28.32-16.44-42.26-25q-81-49.83-161.74-99.91c-10.51-6.5-20.92-13.16-31.37-19.74-4.63-.42-9.58-2.11-13.86-1.07q-118.46,28.86-236.78,58.31Q256.62,591,189.43,607.63v8.15c2.87-.52,5.79-.86,8.62-1.56Q291.8,591,385.53,567.72c59-14.59,118-29.18,177.12-43.38a20.31,20.31,0,0,1,13.88,2c42.71,25.92,85.14,52.29,127.65,78.54Q755,636.31,805.87,667.69a37.48,37.48,0,0,0,4.93,2.15Q810.31,665.81,809.83,661.77Z"/><path class="cls-62" d="M725.56,421.62c-48.1-29.65-96.24-59.25-144.09-89.3-7.74-4.85-14.78-6-23.47-3.81q-184.24,45.83-368.58,91.27v4.06q72.82-17.89,145.65-35.8c75.66-18.65,151.28-37.45,227-55.82,4.49-1.09,10.65-.38,14.55,2,34.51,20.8,68.69,42.14,102.94,63.39a57,57,0,0,1,5.73,4.64c10.69,7,21.25,14.19,32.12,20.88,13.94,8.58,28.14,16.74,42.22,25.08,12.33,8,24.58,16.07,37,23.85,4.47,2.8,9.4,4.85,14.12,7.24,0-.46,0-.91,0-1.37v-4.1C782.38,456.41,753.91,439.1,725.56,421.62Z"/><rect class="cls-63" x="1" width="1000" height="1000"/></svg>