<svg id="Layer_1" data-name="Layer 1" xmlns="http://www.w3.org/2000/svg" viewBox="0 0 1000 1000"><defs><style>.cls-1,.cls-23{fill:#3d3d3d;}.cls-2{fill:#a1afa3;}.cls-3{fill:#aebcae;}.cls-4{fill:#abb6a8;}.cls-5{fill:#b5beb0;}.cls-6{fill:#a0aca1;}.cls-7{fill:#aab5a8;}.cls-8{fill:#99a59a;}.cls-9{fill:#a6b3a7;}.cls-10{fill:#a8b3a6;}.cls-11{fill:#c5d0c1;}.cls-12{fill:#bbc5b6;}.cls-13{fill:#9ca99f;}.cls-14{fill:#b0b9ab;}.cls-15{fill:#d1d2be;}.cls-16{fill:#e3e4ce;}.cls-17{fill:#b7c2b4;}.cls-18{fill:#deddc7;}.cls-19{fill:#b4bfb1;}.cls-20{fill:#c1c8b8;}.cls-21{fill:#acb7aa;}.cls-22{fill:#a8b6a9;}.cls-23{opacity:0.2;}</style></defs><rect class="cls-1" width="1000" height="1000"/><path class="cls-2" d="M492,428.48,531.5,419c4.08,5.62,11.21,9.6,9.83,18.21,0,.2,1.73,1.11,2.06.87,3.38-2.49,3.34-.17,2.73,2-.77,2.78-2.49,5.35-2.89,8.15-.21,1.44,1.58,4.58,2.37,4.54,10.1-.44,4.07,6.18,2.52,7.58-2.58,2.35-2.39,2.56.1,4.55,4.25,3.41,3.3,10.05-1.17,13.29-1.44,1.05-3.24,3.3-3,4.65.74,4,2.48,7.88,3.68,11.85.23.77-.28,1.74-.35,2.62-.29,3.82-.55,7.64-.82,11.46-.91,1.82-1.82,3.63-2.72,5.45-1.57.85-3.24,2.57-4.69,2.4-7.66-.92-5.09,2.07-2.43,5.55s1.58,6.76-2.37,8c-2.72.84-5.94,0-8.93.1a10.39,10.39,0,0,0-2.86,1c5.71,7.58-3.71,6.88-5.81,10.16-.23.37-3.9-.44-4.16-1.26-1.69-5.42-4.39-8.07-10.35-4.31,1.29-4.59,2.64-8.33,3.33-12.2.49-2.71-.22-4.76-3.68-2.29-1.2.85-3.44,1.6-4.46,1-2.41-1.31-4.32-17-2.76-19.48,4-6.43,16.24-11.05,23.42-9.1a4.3,4.3,0,0,0,3.69-1.13,54.2,54.2,0,0,0,4.05-6.74c-.7-.27-2-.83-2-.78-3.57,7.39-11.54,3.29-16.93,6.31-2.49,1.39-6.63-.17-10-.39,2.12-4.28-3.8-10,2.64-13.66,1.11-.62,1.45-2.63,2.14-4,2.5-9.13,5-18.27,7.47-27.42a2.62,2.62,0,0,0-.27-1.74,7.39,7.39,0,0,0-3.08.14c-4.78,1.72-9.52,3.57-16.17,6.1,3.36-5,7.13-8.12,7.33-11.48S493.77,432,492,428.48Zm21,83.13-1.93-2.12c-1.62,2.26-3.27,4.5-4.79,6.82-.07.1,1,.93,1.51,1.41Z"/><path class="cls-3" d="M543.85,514.22c.9-1.82,1.81-3.63,2.72-5.45,5.42,2.1,8.35,1.85,8.65-5.55.13-3.23,5-6.27,7.69-9.4a11.8,11.8,0,0,0,.68,1.77c8.95-2.1,8.66,4.69,10,10.12a44.08,44.08,0,0,0,2.59,6.33c0-2.24-.42-4.57.07-6.7a30.41,30.41,0,0,1,3.21-8c.19-.35,2.89.7,4.43,1.11-.86-1.67-2.17-3.25-2.47-5s.44-3.66.72-5.5c1.23.91,2.51,1.76,3.65,2.77s2,2.06,3,3.1l-1.3,19c-2.53,4.18-5.2,8.29-7.42,12.63-.35.68,1.1,3.19,2.11,3.47,2.08.57,4.42.2,6.66.22l.16,28.58c-.05,2.26-.11,4.51-.17,6.77-7.41,3.76-15,7-23.54,6.63-.18,0-.36.35-.55.36-1.86,0-3.92.57-5.55,0-4.54-1.68-8.35.73-8.2,5.45.12,3.75,0,7.51,0,12,1.26-1.42,2.51-2.72,3.63-4.13,8.27-10.42,10.83,4.23,17,4.18,1.1,0,2.33,5.39,3.26,8.37.13.42-1.35,1.17-1.69,2a14.93,14.93,0,0,0-.66,3.23l4.11,13.71-12.32,3.77c-.87-1.83-1.73-3.68-2.6-5.51l-6.15-12.8,2.3-1.11c.66,1.32,1,3.18,2.06,3.8a5.06,5.06,0,0,0,4.24-.2c.72-.39,1.28-2.93.84-3.33-3.31-3-4.54-10.06-11.55-6.47l-1.69-2.1-1,2.11a34,34,0,0,1-1.41,4.46,24.22,24.22,0,0,1-2.25,3.35,38,38,0,0,0-1.1-3.82c-.65-1.61-1.33-4.36-2.27-4.48a14.34,14.34,0,0,0-7.33,1.11c-1.49.65-2.36,2.71-3.5,4.14-.14-3.77,1.75-6.57,2.29-9.62.42-2.4-.78-5.11-1.45-7.64a5,5,0,0,0-2.78.4c-3.41,2.37-6.65,3.73-10.35.38-.27-.24-2.75,1.61-3.9,2.79-2.81,2.88-5.44,5.94-8.15,8.92l-2.73,1.35h-1.35V589c1.16-1.24,3.52-2.79,3.3-3.68-1.95-7.72-3-16.19-7.06-22.71-3.48-5.56-.88-6.66,2.39-9,4.56,2.27,11.42-2.67,14.45,4.56a2.66,2.66,0,0,0,1.66-.44c2.47-2.69,4.74-5.56,7.26-8.19,3.23-3.38,6.63-6.59,10-9.87l2.63,2.18c-1.8,2.3-3.94,4.42-5.32,7-1.5,2.76-4,6.6-3.06,8.75,2.53,6.06,7.28,5,12.14-.51,3.28-3.69,8.56-5.63,13-8.22.11-.06,1,1.64,1.8,2.26a14.89,14.89,0,0,0,2.74,1.45c.25-1.22,1.13-3.06.64-3.56-1.83-1.87-4.33-3.08-6.11-5-.73-.78-.8-3-.25-4,1.76-3.32,9.29-5.18,2.35-10.59-.18-.14,1.15-3.33,2.38-4,6.52-3.57,5.24-9.87,5.59-15.5,0-.48-3.93-2-4.2-1.61-3.09,4.09-5.83,8.44-8.66,12.72h0l-6.17,1.65C545.14,519.68,544.49,517,543.85,514.22Zm14,53.91,8.52-2.39c-1-1.6-1.91-3.21-2.87-4.82C561.88,563,560.3,565,557.82,568.13Zm8.36,44.36c.37.16.82.52,1.08.42a1.13,1.13,0,0,0,.45-1,1.08,1.08,0,0,0-1-.45C566.42,611.55,566.34,612.12,566.18,612.49Z"/><path class="cls-4" d="M309.56,579.55,279.67,560.6q1.38-20.48,2.77-41l-1.37-1.35h-1.34c0-5.17,2.36-10.74-2.73-15l7.56-.53c-4.27-2.12-8.23-2.77-9.12-4.78-2.09-4.73-2.71-10.1-3.93-15.21l13.63-3.76c-.28,5,3.27,10.74-3,14.51.62,1,1.63,2.83,1.81,2.75a138.65,138.65,0,0,0,13.69-6.41c2.45-1.39,4.38-3.71,6.55-5.61a47,47,0,0,0-.94,6.52c0,.73,1.25,1.48,1.93,2.22l4.36-6.31-5.36-2.43,0-9.33,19.06-5.35,1.34,3.81-1.38,2.72c-1.34,1.84-3.49,3.53-3.83,5.54-.53,3.12.1,6.45.37,9.67.17,2.05.57,4.09.86,6.13a66.74,66.74,0,0,0,4.9-5.49c2.27-3.14,4.28-6.46,6.4-9.71,1.74,2.59,3.53,5.15,5.2,7.78,1,1.51,1.44,3.44,2.67,4.62.75.72,2.53.36,3.85.49,6.84,3.16.16,6.35,0,9.52v1.36c-2.14-2.1-4.26-5.94-6.43-6-5.27-.06-10.57,1.63-15.84,2.76a7.38,7.38,0,0,0,.32,2.75c.87,2.26,1.84,4.49,2.93,6.65a43.13,43.13,0,0,0,2.6,4,22.54,22.54,0,0,1,1.08-4c1.52-3.23,3.22-6.37,4.85-9.54,2,1.77,4,3.44,5.88,5.35A14.71,14.71,0,0,1,341,511.5v5.43l-4.09,5.45c-5.08,2.21-7.18,6.06-7.74,11.61-.58,5.78-2.42,11.43-3.65,17.14-.27,1.27-.89,3.17-.31,3.74.92.91,3.38,1.76,4,1.23,4.7-3.93,5.74,1.42,8,3.13.77.6.31,2.79.41,4.25-.87-.7-1.64-1.74-2.63-2-1.36-.37-2.89,0-4.32-.21-2.33-.29-5.45,0-6.74-1.34-1.79-1.9-2.31-5.06-3.14-7.76a11,11,0,0,1,.07-3.37c-1.1.65-2.79,1.05-3.2,2-.93,2.18-1,4.74-1.92,6.92-.49,1.16-2.1,1.83-3.21,2.72l-11,3L312.41,570Zm6.6-58.1c-.36-.32-1.64-1.52-1.68-1.47-1.64,1.62-4,3.17-4.4,5.14-.29,1.28,2.17,3.18,3.4,4.81C314.3,527.32,315.13,524.71,316.16,521.45Zm5.69,9.75,2.67-.05c.33-2.52.66-5,1-7.55l-3.67-.18Zm-11.36-18.4-2.8-5c-.69,1.17-2,2.41-1.93,3.5.17,1.73,1.32,3.37,2.05,5Zm-.13-14.74,2.08-.06c-.3-1.56-.59-3.13-.94-4.69a3.8,3.8,0,0,0-1.09.2C310.34,495,310.36,496.55,310.36,498.06ZM307,533.74c-.51-.46-.93-1.13-1.33-1.11s-1.16.89-1.08,1.08a7,7,0,0,0,1.33,1.59Zm4,3.58a6.64,6.64,0,0,0,.84-1.73c0-.2-.68-.74-1-.69a4.69,4.69,0,0,0-1.43.78Z"/><path class="cls-5" d="M444.49,649c-6.76,1.53-13.25,7-20.49,1.35.15-7-2.28-14.27,3.38-20.49.88-1-.28-3.7-.3-5.62a6.2,6.2,0,0,1,.72-2.62c1.35-2.72,3.9-5.41,3.86-8.09,0-2.43,0-7.59-5.73-6.17-.22,0-1.24-3.07-1.89-4.72,1.22-3.4,2.49-6.78,3.65-10.2.88-2.59,1.53-5.25,2.44-7.83.42-1.18,2.06-2.78,1.75-3.23-4.62-6.69,1.44-9.89,4.41-14.09,1.06-.25,2.13-.44,3.16-.77,3.14-1,6.53-1.63,9.21-3.36.68-.43-.92-4.4-1.48-6.75l1.38-2.7c3.36,2.28,13.25-6.77,10.76,7a38.78,38.78,0,0,0,4.56-6.87c1.14-1.91,2.48-3.69,3.73-5.53,1.09,1.31,3.19,2.68,3.11,3.92-.43,6.71,2.88,10.47,9.14,9.66l-6.25,11.67c4.3.3,6.91-9,10.8-1.84s6.13,15.15,9.09,22.78c-1.23-.4-3-.41-3.6-1.25-5.39-7.38-8.81-7.43-14.6-.18-2.9,3.62-6,7-9.05,10.57l-1.56-.92c.77-2.48,1.54-5,2.66-8.62-10.67,5.57-4.61,17.47-11.26,23.56a14.71,14.71,0,0,0-4.17,5.88C449.22,631.88,446.93,640.45,444.49,649Z"/><path class="cls-6" d="M309.56,579.55l2.85-9.58q0-4.76.08-9.52c1.11-.89,2.72-1.56,3.21-2.72.94-2.18,1-4.74,1.92-6.92.41-1,2.1-1.36,3.2-2a11,11,0,0,0-.07,3.37c.83,2.7,1.35,5.86,3.14,7.76,1.29,1.36,4.41,1.05,6.74,1.34,1.43.18,3-.16,4.32.21,1,.26,1.76,1.3,2.63,2-.1-1.46.36-3.65-.41-4.25-2.22-1.71-3.26-7.06-8-3.13-.63.53-3.09-.32-4-1.23-.58-.57,0-2.47.31-3.74,1.23-5.71,3.07-11.36,3.65-17.14.56-5.55,2.66-9.4,7.74-11.61l0,6.8q-1.35,7-2.68,13.94l2.21.26,1.8-14.21,5.43-10.85c5.74-2.33,9.41-11.37,17.7-5.45,0,1.36,0,2.72,0,4.08.91,6,2.27,11.93,2.54,17.93.13,3-2,6-2.62,9.07a11.88,11.88,0,0,0,.13,6.13c3.29,9.14,7.43,18,3.41,28.12-1.15,2.89-1,6.77-5.75,3.23-.58-.43-2.75,1.26-4.19,2,.72.76,1.38,1.59,2.16,2.27,1.39,1.21,4.2,2.57,4.05,3.45-.52,3-2.67,8.31-3.16,8.19-7.3-1.65-5.46,4.88-7.47,7.8Zm42.67-1.94c-1.69-5.14-3.15-10-5-14.69-.32-.84-2.1-1.11-3.21-1.63-.23,1.14-.91,2.41-.62,3.4,1.32,4.39,2.84,8.72,4.45,13a11.78,11.78,0,0,0,2.13,2.78Zm-15.39-27-.72-1.72-1.43.74a10.6,10.6,0,0,0,1,1.53C335.76,551.27,336.33,550.9,336.84,550.65Zm16-34.84a1.55,1.55,0,0,0-.18-.55c-.05-.06-.31.07-.48.12a1.56,1.56,0,0,0,.19.55C352.45,516,352.72,515.85,352.88,515.81Z"/><path class="cls-5" d="M607.87,432.83l30,18.74c-.14,7.48-.27,14.95-.43,22.43-.12,5.88,2.54,9.05,8.63,8.94l-1.41,5.44c-5.13,7-2.71,14.76-1.71,22.16.49,3.63,2.9,7,4.44,10.48v2.72c0,1.58-.09,3.16,0,4.73.71,11.26,1.41,22.53,2.26,33.78.14,1.94.35,4.94,1.53,5.57,4.2,2.24,2.77,4.82,1.59,7.91a16.65,16.65,0,0,0-1.22,6.51c.19,5,.83,10,1.29,15l-5.44,1.43-.06-6.94c0-.89,0-1.79,0-2.69q-1.18-12.42-2.38-24.85c-.15-1.56-.32-3.13-.47-4.69-1.07,1.18-2.23,2.28-3.17,3.55-.67.89-.86,2.15-1.57,3-1.44,1.71-3.1,3.25-4.66,4.86.19-2.16.41-4.3.57-6.46.07-1,0-2.06,0-3.09a23.66,23.66,0,0,1-2.46,1.56c-1.76.85-4.25,2.78-5.25,2.2-13.06-7.59-20.85-22.78-6.47-34.56,2.26,6.55,5.81,13,6.46,19.68.83,8.56,6.6,6.84,11.12,6.54,1.55-.1,4.2-4.84,4-7.23-1.3-13.37-3.3-26.68-5.18-40-.16-1.13-1.23-2.14-1.87-3.2a27.9,27.9,0,0,0-3.15,3.09c-2.49,3.36-4.85,6.82-7.25,10.24l-2.74-1.38c3.83-7.26,11.48-12.69,9.38-22.75-1.6-7.68-1.63-15.68-2.63-23.5-.39-3.05-1.51-6-2.3-9-2.22,3.17-4.45,6.33-6.64,9.52a2.11,2.11,0,0,0-.37,1.28c.62,6.39-3.56,6.33-8.28,7.4-3.48.8-6.8,4.38-9,7.54-1,1.39,1,4.78,1.32,7.3.23,1.65.64,4.35-.16,4.88-4.79,3.18-5.79,7-3.07,11.91H597q1.37-24.47,2.74-48.94l4.06-1.37c6.28,4.5-.7,7-1.54,10.49a27.22,27.22,0,0,0-.38,3.63c.79-.19,2.13-.18,2.27-.58,2.61-7.63,12.09-12,10.25-21.69-.31-1.65-1.29-3.21-1.37-4.84a26.58,26.58,0,0,1,.79-5.39l-5.92,2.06c-3.07-1.81-5.74-3.45-1.81-7.32C607.36,437.61,607.3,434.9,607.87,432.83Zm8.68,24.64c.37.16.82.53,1.08.42s.35-.67.51-1c-.37-.16-.82-.53-1.08-.43S616.71,457.1,616.55,457.47Z"/><path class="cls-2" d="M647.33,523.74c0-.91,0-1.82,0-2.72l2.72-9.53c.62.24,1.74.38,1.81.74,2,9.64,3.84,19.32,5.8,29a22.42,22.42,0,0,0,1.52,3.81c1-1,2.54-1.78,3-3q5.17-12.39,9.88-24.94c.31-.81-.63-3-1.06-3-1.23-.05-3.14.3-3.64,1.16-2.94,5-3.8,1.19-5.11-1a56.18,56.18,0,0,1,6.4-4.33,54.85,54.85,0,0,1,7.22-2.48c.12,1.18-.18,2.71.45,3.47a70.18,70.18,0,0,0,8.5,8.9c.66.55,3.11-1,4.74-1.59l8.09.12a7,7,0,0,0-.34,2c.43,3.19,1,6.37,1.45,9.56a60.16,60.16,0,0,0,4.54-5.84c.76-1.25.83-2.93,1.2-4.42.92,1.08,2.31,2,2.66,3.27,1.08,3.87.88,8.38,2.81,11.68,3.17,5.43,3.28,8.93-4.29,11.46,10.46-1.52,10.35,5.8,11.66,11.62,1.73,7.68,3.17,15.41,4.74,23.12l-16.23,4c.64-6.7,1-13.45,2.08-20.07.43-2.58,2.62-4.87,4-7.3l-7.47,3.09a50.25,50.25,0,0,0-.22-5.76c-.16-1.13-.89-3.13-1.39-3.13-4-.08-3.38-7.62-8.67-5.24-.21-1.32-.35-2.65-.63-4-.42-1.93-.4-4.25-1.5-5.7-4-5.31-8.68-10.15-12.59-15.52-3.12-4.28-4.46-3.09-6.48.8-3,5.78-1,12.88-6.51,18.42-3.23,3.24-3,9.9-4.34,15a6.46,6.46,0,0,0,.08,1.85,9.46,9.46,0,0,0,3-.68c3.58-2.25,7.05-4.67,10.55-7l7,3.5-.11-6.2c1.21.11,3.22-.17,3.5.4a36.71,36.71,0,0,1,2,6.39l1.35,2.72c.4.54.79,1.08,1.19,1.61l3.67,4.92c0-2,0-4-.12-5.94,0-.65-.65-1.36-.49-1.9a40.09,40.09,0,0,1,1.65-4.25A14.67,14.67,0,0,1,697.7,554c1.49,3.92,2.75,7.92,4.1,11.88l-10.26,11.31.75,2.55c10.8-6.69,7.88,2.41,9.46,6.33l-25.81,5.75c-2.28-5.72-5.92-11.25-2.54-17.77a68.33,68.33,0,0,0,3.68-7.17c.51-1.4.07-3.16,0-4.75-1.36.92-3.29,1.53-4,2.81-1.48,2.82-2.12,6.3-6.34,2.83-.34-.28-1.57.52-2.38.8l-5.82,2c-.58-2.52-1.09-5-1.74-7.55s7.86-8.43-2.7-7.11c-.07-.83-.13-1.67-.22-2.5-.85-8.2-1.49-16.44-2.71-24.59C651,527,648.69,525.44,647.33,523.74Z"/><path class="cls-7" d="M562.91,493.82c-2.71,3.13-7.56,6.17-7.69,9.4-.3,7.4-3.23,7.65-8.65,5.55.27-3.82.53-7.64.82-11.46.07-.88.58-1.85.35-2.62-1.2-4-2.94-7.81-3.68-11.85-.25-1.35,1.55-3.6,3-4.65,4.47-3.24,5.42-9.88,1.17-13.29-2.49-2-2.68-2.2-.1-4.55,1.55-1.4,7.58-8-2.52-7.58-.79,0-2.58-3.1-2.37-4.54.4-2.8,2.12-5.37,2.89-8.15.61-2.21.65-4.53-2.73-2-.33.24-2.09-.67-2.06-.87,1.38-8.61-5.75-12.59-9.83-18.21l39.56-9.19c.69,3.21,1.53,6.39,2,9.62.68,4.42,2.8,9.61,1.26,13.16-2.61,6.05-2.39,11,.42,16.48.35.69-.79,3-1.68,3.31-3.41,1.21-13.88,12.25-13.52,15.45.88,7.8,2.21,15.55,3.35,23.32C562.92,492,562.91,492.92,562.91,493.82Zm-13.32,8.06c-.64,1-1.44,1.72-1.33,2.25a2.44,2.44,0,0,0,1.6,1.59c.45.08,1.57-1,1.52-1.43C551.3,503.6,550.47,503,549.59,501.88ZM569.2,435c-.36-.16-.81-.52-1.08-.42s-.34.68-.5,1c.37.16.82.52,1.08.42S569.05,435.39,569.2,435Z"/><path class="cls-7" d="M444.49,649c2.44-8.51,4.73-17.08,7.43-25.5a14.71,14.71,0,0,1,4.17-5.88c6.65-6.09.59-18,11.26-23.56-1.12,3.65-1.89,6.14-2.66,8.62l1.56.92c3-3.52,6.15-6.95,9.05-10.57,5.79-7.25,9.21-7.2,14.6.18.61.84,2.37.85,3.6,1.25,0,.46,0,.93,0,1.39l-2.28,9.63,4.95-2.82,2.74,4q2,4.1,4,8.2c-1.58.94-4.33,1.68-4.54,2.86-1.1,6.16-1.54,12.43-2.21,18.66Zm49.83-38.53c-.37-.16-.82-.52-1.08-.42s-.34.68-.5,1c.36.16.81.52,1.08.41S494.16,610.8,494.32,610.43Z"/><path class="cls-8" d="M741.32,515.73l16.25,9.55c1.84,2.27,4,4.35,5.43,6.86s3.73,7.78,3.11,8.21c-8.34,5.84,3.73,6.33,2.43,10l5.4-3.66c-.69,5.19.43,8.38,6.43,9.19,4,.54,7.06,3.75,5.9,8.77l-19.12,5.07c-4.89-5.25-9.73-10.54-14.73-15.68-.73-.75-2.2-.79-3.33-1.16.32,1.12.61,2.25.94,3.37l4.83,16.18-19,4.48c1.27-12.53-5.68-23.46-6.89-35.51.68-2.46,1.23-5,2.07-7.38,1.2-3.41,1.64-6.24-3.36-6.27-.77-2.29-2.88-5.35-2.08-6.71,2.47-4.19.38-5.27-2.66-7.44-3.85-2.75-4.17-6.36.69-9l16.08,9.56a94.52,94.52,0,0,0-5.05,9.46c-.31.75,1.4,2.34,2.19,3.54a18.38,18.38,0,0,0,1.84-3.09C739.66,521.32,740.45,518.51,741.32,515.73Z"/><path class="cls-9" d="M508.46,594.45c2.71-3,5.34-6,8.15-8.92,1.15-1.18,3.63-3,3.9-2.79,3.7,3.35,6.94,2,10.35-.38a5,5,0,0,1,2.78-.4c.67,2.53,1.87,5.24,1.45,7.64-.54,3-2.43,5.85-2.29,9.62,1.14-1.43,2-3.49,3.5-4.14a14.34,14.34,0,0,1,7.33-1.11c.94.12,1.62,2.87,2.27,4.48a38,38,0,0,1,1.1,3.82,24.22,24.22,0,0,0,2.25-3.35,34,34,0,0,0,1.41-4.46h2.73c7-3.59,8.24,3.44,11.55,6.47.44.4-.12,2.94-.84,3.33a5.06,5.06,0,0,1-4.24.2c-1.07-.62-1.4-2.48-2.06-3.8l-2.3,1.11,6.15,12.8c.87,1.83,1.73,3.68,2.6,5.51l-49,11.24c-.94-3.39-1.79-6.81-2.82-10.16-2.19-7.11-1.22-15.21-6.72-21.27,0-.89,0-1.79,0-2.69Z"/><path class="cls-10" d="M492,428.48c1.79,3.52,5.13,7.13,4.94,10.54s-4,6.52-7.33,11.48c6.65-2.53,11.39-4.38,16.17-6.1a7.39,7.39,0,0,1,3.08-.14,2.62,2.62,0,0,1,.27,1.74c-2.46,9.15-5,18.29-7.47,27.42l-4.09-2.72.36-6.24a27.68,27.68,0,0,1-4.73,2.77c-3,1-6.83,3.18-9.06,2.15-3.38-1.57-5.86-5.32-8.32-8.46-.58-.75.15-2.92.82-4.13.57-1,1.93-1.61,2.94-2.39-1.63-.82-3.4-2.49-4.86-2.26-3.06.48-6,2-9,3.06,2.1,3.19,4.17,7.48,7.3,10.76s3.65,2.9,0,6.12l-8.15,0q-2.11-6.69-4.21-13.37l-2.14.5c-.8,5.27,3.87,12.95-5.91,14.25h0c1.19-5.86,1.65-11.5-4.29-15.42a2.17,2.17,0,0,1-.83-1.69c.75-6,1.6-12,2.43-17.95Z"/><path class="cls-11" d="M641.92,600l-39.46,10.61-5.52-44.74c0-1.37,0-2.74,0-4.11,1.63,3.06,3.41,6.06,4.87,9.2s1,8,6.79,7.44c4.18-.41,8.41-.45,12.62-.5a14.3,14.3,0,0,1,3.42.82,24,24,0,0,1-.6-3.72,29.51,29.51,0,0,1,.46-4.06c2.16,3,4.65,5.93,6.39,9.21,1.07,2,1,4.68,1.46,7.06.52-1.82.63-3.92,1.65-5.39,1.57-2.28,3.76-4.15,5.68-6.18.3,1.86.51,3.75.93,5.58.81,3.51,1.74,7,2.61,10.47Z"/><path class="cls-9" d="M350.5,605.1c2-2.92.17-9.45,7.47-7.8.49.12,2.64-5.23,3.16-8.19.15-.88-2.66-2.24-4.05-3.45-.78-.68-1.44-1.51-2.16-2.27,1.44-.7,3.61-2.39,4.19-2,4.77,3.54,4.6-.34,5.75-3.23,4-10.07-.12-19-3.41-28.12a11.88,11.88,0,0,1-.13-6.13c.64-3.09,2.75-6.1,2.62-9.07-.27-6-1.63-12-2.54-17.93l5.94-10.48c.43,4.91.81,9.32,1.19,13.72l2.67-.28c-.51-4-1-8.11-1.55-12.15-.74-5.37.32-8.59,6.66-5.77q1.41,6.79,2.83,13.58c-.09.45-.17.89-.23,1.34-.5,3.32.1,7.49-1.7,9.81-6.86,8.9-1.75,18.8-2.9,28.1-.37,2.94,4,6.46,6.15,9.72,0,1.35,0,2.71.05,4.06l-.15,9.57c-1.81-.68-3.6-1.86-5.43-1.93-2.71-.1-8.61,10-8.19,12.81.15,1-1,2.23-1.75,3.23s-2.25,1.91-2.61,3.09c-1.43,4.69-2.53,9.46-3.76,14.21Z"/><path class="cls-8" d="M675.92,507.41a54.85,54.85,0,0,0-7.22,2.48,56.18,56.18,0,0,0-6.4,4.33c-4.07,2.14-8.55,5.31-7-3.67.13-.81-2.49-2.08-3.83-3.14v-2.69l1.34,0c3.3-1.7,6.65-3.39,1.36-6.8L661,465.49l20.5,13.19q-.75,8.25-1.48,16.5l-2.7,2.72Z"/><path class="cls-3" d="M562.92,491.11c-1.14-7.77-2.47-15.52-3.35-23.32-.36-3.2,10.11-14.24,13.52-15.45.89-.31,2-2.62,1.68-3.31-2.81-5.51-3-10.43-.42-16.48,1.54-3.55-.58-8.74-1.26-13.16-.5-3.23-1.34-6.41-2-9.62l24.75,16.08-.43-.07c-1.22.43-3.16.51-3.57,1.34-3.68,7.47-7.07,15.09-10.61,22.64-1,2.09-2.13,4.1-3.28,6.1s-2.31,3.83-3.46,5.73c1.86-.86,3.72-1.76,5.61-2.56.29-.12.78.25,2.78,1-3.9,4.37-7.43,8.27-10.87,12.24a3.72,3.72,0,0,0-.94,2.42C571.73,481.83,569.05,487.3,562.92,491.11ZM584.65,422,580,425.75c1.82,1.09,3.54,2.58,5.51,3.05.7.17,2.73-2.08,2.8-3.3C588.33,424.56,586.27,423.49,584.65,422Z"/><path class="cls-9" d="M271.51,482.82c1.22,5.11,1.84,10.48,3.93,15.21.89,2,4.85,2.66,9.12,4.78l-7.56.53c-.77-.15-2.08-.64-2.23-.41-3.06,4.9-6.59,9-13.58,7.81,10.11,4.55,10.19,5.45,1.53,12.46a1.55,1.55,0,0,0-.38.55c-1.79,3.74-3,2.33-4.3-.38a29.63,29.63,0,0,0-3.07-4.24,34.93,34.93,0,0,0-1.06,5,46.61,46.61,0,0,0,.27,5.4c.08,1.49.1,3,.15,4.45a31.18,31.18,0,0,1-4.49-2,18,18,0,0,1-2.83-2.82c0-.9,0-1.8,0-2.7,1.56-4.59,3.13-9.18,4.64-13.8.18-.55.14-1.71-.07-1.78-5.41-1.8-1.85-5.58-1.75-8.4.17-5.1.84-10.18,1.31-15.27Z"/><path class="cls-2" d="M343.69,495.18c-1.32-.13-3.1.23-3.85-.49-1.23-1.18-1.71-3.11-2.67-4.62-1.67-2.63-3.46-5.19-5.2-7.78-2.12,3.25-4.13,6.57-6.4,9.71a66.74,66.74,0,0,1-4.9,5.49c-.29-2-.69-4.08-.86-6.13-.27-3.22-.9-6.55-.37-9.67.34-2,2.49-3.7,3.83-5.54l2,6.23c1.29-1.88,3-3.64,3.6-5.71.18-.62-2.75-2.14-4.26-3.24l-1.34-3.81L362.75,460c-2.43,5.66,1.8,5.93,5.43,6.68,0,.9,0,1.8,0,2.71-1.66,1.39-3.2,3.74-5,4-3.48.46-7.13-.27-10.71-.52l1.23-6.85a57.76,57.76,0,0,1-5.61,3.07c-.66.29-1.78-.61-2.56-.43-.61.13-1,1.1-1.54,1.69,3.19,2.55,1,9.84,8.66,8.77,5.71-.81,5.86,2.63,3.07,6.67-.68,1-1.76,2.9-1.52,3.11,7.4,6.58-1.57,7.3-3.67,10.42-.92-2.9-1.71-5.86-2.8-8.7a15.36,15.36,0,0,0-2.37-3.24c-.75,1.3-1.81,2.53-2.14,3.93C342.93,492.46,343.5,493.86,343.69,495.18Z"/><path class="cls-12" d="M436.29,567.25c-3,4.2-9,7.4-4.41,14.09.31.45-1.33,2-1.75,3.23-.91,2.58-1.56,5.24-2.44,7.83-1.16,3.42-2.43,6.8-3.65,10.2-1.81,3.3-2.86,7.59-5.59,9.68-5.13,3.94-5.47,8.92-5.25,14.3.24,6,.88,12,1.35,18L409,640.82q-1.37-9.63-2.74-19.25l.09-6.73c1.81-1.08,4.93-1.93,5.16-3.28.59-3.42-.12-7.07-.31-10.62-1.63,1.35-3.18,2.81-4.93,4-.65.45-1.73.27-2.62.38q-1.35-4.77-2.71-9.52c6.6.89,7.19-3.21,6.78-8.14,7.94-.87,17.67-13.59,17.7-23.12l1.36-1.36h6.79l2.74,4.09Z"/><path class="cls-13" d="M358.62,609.58c1.23-4.75,2.33-9.52,3.76-14.21.36-1.18,1.81-2,2.61-3.09s1.9-2.25,1.75-3.23c-.42-2.85,5.48-12.91,8.19-12.81,1.83.07,3.62,1.25,5.43,1.93q2.13,9.47,4.27,18.92,0,14.4-.11,28.79Z"/><path class="cls-9" d="M647.33,523.74c1.36,1.7,3.64,3.27,3.92,5.13,1.22,8.15,1.86,16.39,2.71,24.59.09.83.15,1.67.22,2.5,10.56-1.32,2.06,4.65,2.7,7.11s1.16,5,1.74,7.55l5.82-2c.81-.28,2-1.08,2.38-.8,4.22,3.47,4.86,0,6.34-2.83.68-1.28,2.61-1.89,4-2.81,0,1.59.46,3.35,0,4.75a68.33,68.33,0,0,1-3.68,7.17c-3.38,6.52.26,12,2.54,17.77l-23.15,5.39c-.46-5-1.1-10-1.29-15a16.65,16.65,0,0,1,1.22-6.51c1.18-3.09,2.61-5.67-1.59-7.91-1.18-.63-1.39-3.63-1.53-5.57-.85-11.25-1.55-22.52-2.26-33.78C647.24,526.9,647.33,525.32,647.33,523.74Z"/><path class="cls-14" d="M247,529.17a18,18,0,0,0,2.83,2.82,31.18,31.18,0,0,0,4.49,2c-.05-1.48-.07-3-.15-4.45a46.61,46.61,0,0,1-.27-5.4,34.93,34.93,0,0,1,1.06-5,29.63,29.63,0,0,1,3.07,4.24c1.34,2.71,2.51,4.12,4.3.38a1.55,1.55,0,0,1,.38-.55c8.66-7,8.58-7.91-1.53-12.46,7,1.17,10.52-2.91,13.58-7.81.15-.23,1.46.26,2.23.41,5.09,4.23,2.78,9.8,2.73,15v9.16c-1.38-1.15-1.05-2.38-1.45-3.29a30.4,30.4,0,0,0-2.81-4.32c-.85,1.54-1.82,3-2.53,4.64a36.31,36.31,0,0,0-2.69,7c-.73,3.41-.93,6.94-1.35,10.41l7.51.78c-1.91,1.52-3,3.12-4,3-11.1-.94-3.55,4.35-2.59,7.45a12,12,0,0,1,.27,2l-24.49-15.06Z"/><path class="cls-15" d="M722.13,580.73c-1.57-7.71-3-15.44-4.74-23.12-1.31-5.82-1.2-13.14-11.66-11.62,7.57-2.53,7.46-6,4.29-11.46-1.93-3.3-1.73-7.81-2.81-11.68-.35-1.24-1.74-2.19-2.66-3.27,0-.87-.11-1.74-.16-2.61.08-1.37.17-2.74.26-4.11l-2.79-16.3c.14-1.48.27-3,.41-4.44l5,1.91,4.11,3.82-.07,0q1.38,4.8,2.77,9.6l-4,3.07,4.08.76,1.23,5.64c-4.2,3.19-3.69,5.44,1.35,6.78q2.73,6.81,5.44,13.62l1.44,5.48,6.75,35.39Zm-1.85-22.4,2.54-.47q-3-12.11-5.89-24.21l-2.58.64Q717.31,546.3,720.28,558.33Z"/><path class="cls-4" d="M786.27,564.67c1.16-5-1.92-8.23-5.9-8.77-6-.81-7.12-4-6.43-9.19l-5.4,3.66c1.3-3.69-10.77-4.18-2.43-10,.62-.43-1.62-5.58-3.11-8.21s-3.59-4.59-5.43-6.86c6.94,4.74,13.71,9.78,20.89,14.13,8.73,5.27,17.84,9.92,26.74,14.93,2.1,1.17,4,2.67,6.8,4.54Z"/><path class="cls-5" d="M409.1,449.05l20.35-5.32,6.84,13.37-2.69,1.37c-2.91,3-4.91,3.14-5.47-1.66-.25-2.2-.22-4.61-1.16-6.5-.51-1-2.8-1.15-4.29-1.68.19,1.32-.11,3.18.65,3.86,4.65,4.14,4.45,8.38,1,13.08-1.34,1.84-2.35,3.92-3.51,5.89-.94-2.12-1.86-4.26-2.87-6.35-.12-.25-.75-.25-1.54-.48-.16,1.36-.87,2.92-.38,3.86,3.52,6.92-2.62,8.73-6.34,11.27-.81.56-4-2.33-6.06-3.62Z"/><path class="cls-14" d="M414.55,644.55c-.47-6-1.11-12-1.35-18-.22-5.38.12-10.36,5.25-14.3,2.73-2.09,3.78-6.38,5.59-9.68.65,1.65,1.67,4.77,1.89,4.72,5.73-1.42,5.7,3.74,5.73,6.17,0,2.68-2.51,5.37-3.86,8.09a6.2,6.2,0,0,0-.72,2.62c0,1.92,1.18,4.65.3,5.62-5.66,6.22-3.23,13.53-3.38,20.49Z"/><path class="cls-10" d="M646,482.94c-6.09.11-8.75-3.06-8.63-8.94.16-7.48.29-14.95.43-22.43l20.53,12.26Z"/><path class="cls-16" d="M596.94,565.91l5.52,44.74-8.27,1.42q-.66-5.42-1.33-10.82-1.36-10.2-2.74-20.41l-1.35-16.31c.06-2.26.12-4.51.17-6.77,1.76,1.48,3.62,2.86,5.25,4.47A28.88,28.88,0,0,1,596.94,565.91Z"/><path class="cls-9" d="M270.12,555.22a12,12,0,0,0-.27-2c-1-3.1-8.51-8.39,2.59-7.45,1,.08,2.06-1.52,4-3L268.9,542c.42-3.47.62-7,1.35-10.41a36.31,36.31,0,0,1,2.69-7c.71-1.61,1.68-3.1,2.53-4.64a30.4,30.4,0,0,1,2.81,4.32c.4.91.07,2.14,1.45,3.29v-9.16h1.34l1.37,1.35q-1.38,20.48-2.77,41Z"/><path class="cls-17" d="M227.93,493.74l6.81-2.48c-.06,8,.81,16.14-.52,23.9-.77,4.51,2.29,13.09-7.65,12.69l-8.07-4.27c1.86-6.67,3.47-13.43,5.69-20C225.31,500.29,231,498.71,227.93,493.74Z"/><path class="cls-4" d="M380.56,455.86l12.16-2.62c0,8.48.13,16.95-.16,25.42,0,1.12-2.2,3-3.41,3-2.43.06-4.89-.93-7.33-1.49-.87-2.29-1.73-4.58-2.6-6.86Q379.9,464.61,380.56,455.86Z"/><path class="cls-15" d="M226.57,527.85c9.94.4,6.88-8.18,7.65-12.69,1.33-7.76.46-15.91.52-23.9l9.47-1.69q-1.28,11.65-2.54,23.32l-.06,2.69v2.73l-.08,6.79q-1.36,5.49-2.72,11Z"/><path class="cls-14" d="M381.82,480.22c2.44.56,4.9,1.55,7.33,1.49,1.21,0,3.37-1.93,3.41-3,.29-8.47.16-16.94.16-25.42l9.47-2.79q-2.07,14.16-4.12,28.31-2,6.84-4,13.66l-12.2-2.68-1.38-9.53Z"/><path class="cls-6" d="M646,482.94l12.33-19.11,2.61,1.66q-3.42,16.2-6.82,32.41-.69,3.41-1.36,6.8l-1.34,0c-5.2,1.38-5.81-1.6-5.82-5.73,0-3.53-.65-7.07-1-10.61Z"/><path class="cls-18" d="M380.45,480.21l1.38,9.53c-.42.91-.85,1.82-1.28,2.73l-5.62-2.7-6.74-20.42c0-.91,0-1.81,0-2.71l-.09-8,12.47-2.77q-.68,8.75-1.34,17.5Z"/><path class="cls-4" d="M714.1,507.48q-1.38-4.8-2.77-9.6l12.28,6.71c-4.86,2.67-4.54,6.28-.69,9,3,2.17,5.13,3.25,2.66,7.44-.8,1.36,1.31,4.42,2.08,6.71l-5.46,9.58q-2.72-6.81-5.44-13.62L715.41,517l-1.23-5.64C714.15,510,714.13,508.76,714.1,507.48Z"/><path class="cls-10" d="M702.27,492.12c-.14,1.48-.27,3-.41,4.44a61.5,61.5,0,0,1-1.28,8.28c-.42,1.47-1.89,2.63-2.88,3.94l-1.92-3.55c-6.81,3.92-3.63,0-3.7-3.68-.09-4.17-3-8.29-4.67-12.43l-6,6.08-1.4,0q.74-8.25,1.48-16.5Z"/><path class="cls-5" d="M304.25,475l0,9.33h0c-2.17,1.9-4.1,4.22-6.55,5.61A138.65,138.65,0,0,1,284,496.32c-.18.08-1.19-1.79-1.81-2.75,6.23-3.77,2.68-9.53,3-14.51Z"/><path class="cls-18" d="M595.81,425.85l5.28,2.65q-2,9.57-4,19.15l-.06,9.46c-.92,6.66-1.59,13.37-2.91,19.95-.43,2.13-2.57,3.93-3.92,5.87v-5.45l0-2.71c.23-7.27,0-14.6.81-21.8,1-9.11,2.92-18.13,4.44-27.19Z"/><path class="cls-14" d="M505.75,599.88c5.5,6.06,4.53,14.16,6.72,21.27,1,3.35,1.88,6.77,2.82,10.16l-9.59,2.39L503,614.87q-2-4.1-4-8.2c11.1,3.63,1.72-5.13,4.1-6.77Z"/><path class="cls-11" d="M203.49,514.08c-4.43-2.62-8.89-5.2-13.29-7.89a12.7,12.7,0,0,1-2.2-2.25,11.25,11.25,0,0,1,2.86-1.66c8.26-1.94,16.56-3.76,24.84-5.61C216.7,506,208.45,508.9,203.49,514.08Z"/><path class="cls-9" d="M384.52,625.88q.06-14.39.11-28.79l5.22,4.19,4.22,8.13,4.05,12.23-6.8,8.31Z"/><path class="cls-19" d="M592.86,601.25q.66,5.41,1.33,10.82l-17.62,4.23-4.11-13.71c4.58.83,9.19,1.81,11.64-3.89.12-.28,1.26-.12,1.93-.16Z"/><path class="cls-20" d="M436.29,457.1l-6.84-13.37L443,440.67c.81,2.33,2.19,4.63,2.3,7,.17,3.47-.9,7-.82,10.48a109.55,109.55,0,0,0,1.37,11.21h-4.11Z"/><path class="cls-4" d="M730.39,578.22l-6.75-35.39,5.31-1.41c1.21,12.05,8.16,23,6.89,35.51Z"/><path class="cls-20" d="M597,457.11l.06-9.46q2.67-8.88,5.35-17.77l5.47,2.95c-.57,2.07-.51,4.78-1.83,6.08-3.93,3.87-1.26,5.51,1.81,7.32q-2.05,8.16-4.1,16.32l-4.06,1.37Z"/><path class="cls-14" d="M701.75,586.09c-1.58-3.92,1.34-13-9.46-6.33l-.75-2.55L701.8,565.9c.91-1.81,1.81-3.62,2.72-5.44l7.47-3.09c-1.39,2.43-3.58,4.72-4,7.3-1.11,6.62-1.44,13.37-2.08,20.07Z"/><path class="cls-14" d="M241.61,515.58l.06-2.69c1.31-.89,3.66-1.65,3.77-2.67.8-7.19,1.14-14.42,1.63-21.64l4.08-1.36c-.47,5.09-1.14,10.17-1.31,15.27-.1,2.82-3.66,6.6,1.75,8.4.21.07.25,1.23.07,1.78-1.51,4.62-3.08,9.21-4.64,13.8l-5.48-1.37q0-3.4.08-6.79l2.08-1.06Z"/><path class="cls-14" d="M445.87,469.35a106.85,106.85,0,0,1-1.38-11.21c-.08-3.48,1-7,.82-10.48-.11-2.36-1.49-4.66-2.3-7l6.93-2.32c-.83,6-1.68,12-2.43,18a2.17,2.17,0,0,0,.83,1.69c5.94,3.92,5.48,9.56,4.29,15.42Z"/><path class="cls-11" d="M227.93,493.74c3.06,5-2.62,6.55-3.74,9.86-2.22,6.55-3.83,13.31-5.69,20l-2.81-2.52q2.07-12.87,4.15-25.75Z"/><path class="cls-15" d="M398.07,478.76q2.06-14.14,4.12-28.31l6.91-1.4-5.46,27.09c-.9,2.26-1.81,4.53-2.71,6.8Z"/><path class="cls-18" d="M219.84,495.31q-2.07,12.87-4.15,25.75l-12.2-7c5-5.18,13.21-8.07,12.21-17.41Z"/><path class="cls-6" d="M754.86,572.45,750,556.27c-.33-1.12-.62-2.25-.94-3.37,1.13.37,2.6.41,3.33,1.16,5,5.14,9.84,10.43,14.73,15.68Z"/><path class="cls-2" d="M503,614.87l2.73,18.83-9.48,2.69c.67-6.23,1.11-12.5,2.21-18.66C498.64,616.55,501.39,615.81,503,614.87Z"/><path class="cls-15" d="M406.24,621.57q1.36,9.61,2.74,19.25l-8.11-5.45-1.29-9.68Z"/><path class="cls-17" d="M247.07,488.58c-.49,7.22-.83,14.45-1.63,21.64-.11,1-2.46,1.78-3.77,2.67q1.26-11.67,2.54-23.32Z"/><path class="cls-17" d="M241.54,525.1l5.48,1.37c0,.9,0,1.8,0,2.7l-1.38,11-6.81-4.08Q240.19,530.59,241.54,525.1Z"/><path class="cls-19" d="M399.58,625.69l1.29,9.68L391.32,630l6.8-8.31C398.6,623,399.09,624.34,399.58,625.69Z"/><path class="cls-15" d="M602.4,429.88q-2.67,8.89-5.35,17.77,2-9.57,4-19.15Z"/><path class="cls-17" d="M741.32,515.73c-.87,2.78-1.66,5.59-2.65,8.33a18.38,18.38,0,0,1-1.84,3.09c-.79-1.2-2.5-2.79-2.19-3.54a94.52,94.52,0,0,1,5.05-9.46Z"/><path class="cls-12" d="M641.92,600l1.32-8.31h4l.06,6.94Z"/><path class="cls-21" d="M368.09,458.63l.09,8c-3.63-.75-7.86-1-5.43-6.68Z"/><path class="cls-20" d="M711.4,497.85,707.29,494Z"/><path class="cls-22" d="M497.55,470.7l4.09,2.72c-.69,1.38-1,3.39-2.14,4-6.44,3.61-.52,9.38-2.64,13.66,3.4.22,7.54,1.78,10,.39,5.39-3,13.36,1.08,16.93-6.31,0-.05,1.32.51,2,.78a54.2,54.2,0,0,1-4.05,6.74,4.3,4.3,0,0,1-3.69,1.13c-7.18-1.95-19.38,2.67-23.42,9.1-1.56,2.48.35,18.17,2.76,19.48,1,.55,3.26-.2,4.46-1,3.46-2.47,4.17-.42,3.68,2.29-.69,3.87-2,7.61-3.33,12.2,6-3.76,8.66-1.11,10.35,4.31.26.82,3.93,1.63,4.16,1.26,2.1-3.28,11.52-2.58,5.81-10.16a10.39,10.39,0,0,1,2.86-1c3-.09,6.21.74,8.93-.1,3.95-1.22,5.13-4.38,2.37-8s-5.23-6.47,2.43-5.55c1.45.17,3.12-1.55,4.69-2.4.64,2.73,1.29,5.46,2,8.45L552,521l3.06,3.38,1-3.63L552,521c2.83-4.28,5.57-8.63,8.66-12.72.27-.36,4.23,1.13,4.2,1.61-.35,5.63.93,11.93-5.59,15.5-1.23.68-2.56,3.87-2.38,4,6.94,5.41-.59,7.27-2.35,10.59-.55,1.06-.48,3.24.25,4,1.78,1.9,4.28,3.11,6.11,5,.49.5-.39,2.34-.64,3.56a14.89,14.89,0,0,1-2.74-1.45c-.76-.62-1.69-2.32-1.8-2.26-4.46,2.59-9.74,4.53-13,8.22-4.86,5.47-9.61,6.57-12.14.51-.9-2.15,1.56-6,3.06-8.75,1.38-2.53,3.52-4.65,5.32-7l-2.63-2.18c-3.32,3.28-6.72,6.49-10,9.87-2.52,2.63-4.79,5.5-7.26,8.19a2.66,2.66,0,0,1-1.66.44c-3-7.23-9.89-2.29-14.45-4.56-.05-1.11.17-3.11-.18-3.22-7.35-2.22-6.39-8.36-6.89-13.87,0-.17-2-.54-2.18-.26-3.13,5-3.64.84-5-1.26a71.78,71.78,0,0,0-4.77-5.86l-1.38-4.09c.55-3.48,1.09-7,1.67-10.43.4-2.41,1.37-4.86,1.18-7.22-.44-5.26-.4-9.73,6.68-9.55l2.11-1-2.1-1.67h0c.26-4.45,1.5-9.11.55-13.28C491.41,476.4,493.28,473.29,497.55,470.7Z"/><path class="cls-22" d="M513,511.61l-5.21,6.11c-.53-.48-1.58-1.31-1.51-1.41,1.52-2.32,3.17-4.56,4.79-6.82Z"/><path class="cls-17" d="M590.16,477.48v5.45q-.72,5.46-1.43,10.91c-1-1-1.9-2.16-3-3.1s-2.42-1.86-3.65-2.77c-.28,1.84-1,3.75-.72,5.5s1.61,3.34,2.47,5c-1.54-.41-4.24-1.46-4.43-1.11a30.41,30.41,0,0,0-3.21,8c-.49,2.13-.08,4.46-.07,6.7a44.08,44.08,0,0,1-2.59-6.33c-1.31-5.43-1-12.22-10-10.12a11.8,11.8,0,0,1-.68-1.77c0-.9,0-1.81,0-2.71,6.13-3.81,8.81-9.28,8.12-16.47a3.72,3.72,0,0,1,.94-2.42c3.44-4,7-7.87,10.87-12.24-2-.7-2.49-1.07-2.78-1-1.89.8-3.75,1.7-5.61,2.56,1.15-1.9,2.35-3.79,3.46-5.73s2.3-4,3.28-6.1c3.54-7.55,6.93-15.17,10.61-22.64.41-.83,2.35-.91,3.57-1.34-1.52,9.06-3.41,18.08-4.44,27.19-.82,7.2-.58,14.53-.81,21.8l-4-1.9-.21,6.25Z"/><path class="cls-12" d="M586,598.54c-.67,0-1.81-.12-1.93.16-2.45,5.7-7.06,4.72-11.64,3.89a14.93,14.93,0,0,1,.66-3.23c.34-.78,1.82-1.53,1.69-2-.93-3-2.16-8.37-3.26-8.37-6.14.05-8.7-14.6-17-4.18-1.12,1.41-2.37,2.71-3.63,4.13,0-4.54.1-8.3,0-12-.15-4.72,3.66-7.13,8.2-5.45,1.63.6,3.69.07,5.55,0,.19,0,.37-.37.55-.36,8.58.36,16.13-2.87,23.54-6.63l1.35,16.31a2.09,2.09,0,0,0-.67.09c-6,3.27-6.35,4.61-2.72,9.09.39.49,0,1.61-.05,2.43C586.49,594.48,586.25,596.51,586,598.54Z"/><path class="cls-15" d="M588.73,493.84q.72-5.44,1.43-10.91c1.35-1.94,3.49-3.74,3.92-5.87,1.32-6.58,2-13.29,2.91-19.95l2.7,6.81q-1.37,24.46-2.74,48.94l1.29,2.74v2.67c-4.92,1.81-2.34,3.65,0,5.48q1.39,4.74,2.78,9.48c-6,.21-4.79,5.27-4.91,8.45-.23,6.69.52,13.41.86,20.12,0,1.37,0,2.74,0,4.11a28.88,28.88,0,0,0-2.75-3.68c-1.63-1.61-3.49-3-5.25-4.47q-.08-14.29-.16-28.58l-1.35-16.32Q588.08,503.35,588.73,493.84Z"/><path class="cls-20" d="M503,599.9c-2.38,1.64,7,10.4-4.1,6.77l-2.74-4-2.67-6.81c0-.46,0-.93,0-1.39-3-7.63-5.19-15.66-9.09-22.78s-6.5,2.14-10.8,1.84l6.25-11.67q-2-6.12-4.07-12.25l8.16-4.07c1.81,1.65,5.45,4,5.13,4.83-3.78,10.15,5.7,16,8.36,23.78,1.56,4.56,6,9.16,6.94,14.91v6.79Z"/><path class="cls-19" d="M504.38,589c-.94-5.75-5.38-10.35-6.94-14.91-2.66-7.79-12.14-13.63-8.36-23.78.32-.86-3.32-3.18-5.13-4.83-.45-1.81-.91-3.63-1.36-5.44q.68-5.44,1.36-10.87a71.78,71.78,0,0,1,4.77,5.86c1.4,2.1,1.91,6.24,5,1.26.18-.28,2.16.09,2.18.26.5,5.51-.46,11.65,6.89,13.87.35.11.13,2.11.18,3.22-3.27,2.31-5.87,3.41-2.39,9,4.07,6.52,5.11,15,7.06,22.71C507.9,586.22,505.54,587.77,504.38,589Z"/><path class="cls-17" d="M587.43,512.86l1.35,16.32c-2.24,0-4.58.35-6.66-.22-1-.28-2.46-2.79-2.11-3.47C582.23,521.15,584.9,517,587.43,512.86Z"/><path class="cls-12" d="M557.82,568.13c2.48-3.15,4.06-5.18,5.65-7.21,1,1.61,1.91,3.22,2.87,4.82Z"/><path class="cls-19" d="M503,599.9l1.35-4.1h1.35l0,1.39c0,.9,0,1.8,0,2.69Z"/><path class="cls-12" d="M553.39,594.45h-2.73c.35-.7.69-1.4,1-2.11Z"/><path class="cls-14" d="M505.76,597.19l0-1.39,2.73-1.35Z"/><path class="cls-9" d="M566.18,612.48c.16-.36.24-.93.51-1a1.08,1.08,0,0,1,1,.45,1.13,1.13,0,0,1-.45,1C567,613,566.55,612.65,566.18,612.48Z"/><path class="cls-9" d="M361.39,512.87c-8.29-5.92-12,3.12-17.7,5.45l-2.7-1.39c0-1.81,0-3.62,0-5.43l2.73-5.44V504.7l8.17-1.36c2.23-.79,5.4-2.91,6.51-2.13C362.27,504,365.07,507.81,361.39,512.87Z"/><path class="cls-5" d="M343.71,506.06,341,511.5a14.71,14.71,0,0,0-1.88-3.43c-1.83-1.91-3.91-3.58-5.88-5.35-1.63,3.17-3.33,6.31-4.85,9.54a22.54,22.54,0,0,0-1.08,4,43.13,43.13,0,0,1-2.6-4c-1.09-2.16-2.06-4.39-2.93-6.65a7.38,7.38,0,0,1-.32-2.75c5.27-1.13,10.57-2.82,15.84-2.76C339.45,500.12,341.57,504,343.71,506.06Z"/><path class="cls-5" d="M351.88,503.34l-8.17,1.36c.14-3.17,6.82-6.36,0-9.52-.19-1.32-.76-2.72-.48-3.93.33-1.4,1.39-2.63,2.14-3.93a15.36,15.36,0,0,1,2.37,3.24c1.09,2.84,1.88,5.8,2.8,8.7C351,500.62,351.42,502,351.88,503.34Z"/><path class="cls-20" d="M312.49,560.45q0,4.77-.08,9.52l-10.92-6.54Z"/><path class="cls-5" d="M341,516.93l2.7,1.39-5.43,10.85h-1.33l0-6.8Z"/><path class="cls-5" d="M324.65,473.43c1.51,1.1,4.44,2.62,4.26,3.24-.6,2.07-2.31,3.83-3.6,5.71l-2-6.23Z"/><path class="cls-14" d="M316.16,521.45c-1,3.26-1.86,5.87-2.68,8.48-1.23-1.63-3.69-3.53-3.4-4.81.44-2,2.76-3.52,4.4-5.14C314.52,519.93,315.8,521.13,316.16,521.45Z"/><path class="cls-5" d="M304.22,484.3l5.36,2.43L305.22,493c-.68-.74-1.94-1.49-1.93-2.22a47,47,0,0,1,.94-6.52Z"/><path class="cls-5" d="M321.85,531.2v-7.78l3.67.18c-.34,2.52-.67,5-1,7.55Z"/><path class="cls-14" d="M310.49,512.8l-2.68,3.49c-.73-1.67-1.88-3.31-2.05-5-.11-1.09,1.24-2.33,1.93-3.5Z"/><path class="cls-5" d="M310.36,498.06c0-1.51,0-3,.05-4.55a3.8,3.8,0,0,1,1.09-.2c.35,1.56.64,3.13.94,4.69Z"/><path class="cls-14" d="M307,533.74l-1.08,1.56a7,7,0,0,1-1.33-1.59c-.08-.19.68-1.07,1.08-1.08S306.44,533.28,307,533.74Z"/><path class="cls-14" d="M310.91,537.32l-1.57-1.64a4.69,4.69,0,0,1,1.43-.78c.3,0,1,.49,1,.69A6.64,6.64,0,0,1,310.91,537.32Z"/><path class="cls-14" d="M282.44,519.65l-1.37-1.35Z"/><path class="cls-20" d="M448.56,553.67l-1.38,2.7c-1.83,2.6-3.45,6.74-6.31.7-1.42-3-3-5.9-4.58-8.85,3.81-2.62,8.47-24.72,6.62-28.7-1.62-3.48-2.28-7.42-3.26-11.19-.11-.43.46-1,.71-1.57.74.39,1.49.78,2.22,1.19l8.69,4.91c.12,1.34-.29,3.3.44,3.93,5.94,5.08,3.05,11.8,3.65,17.86-.56,1.45-.71,3.66-1.74,4.21C447.14,542.3,447.22,547.72,448.56,553.67Z"/><path class="cls-12" d="M448.56,553.67c-1.34-5.95-1.42-11.37,5.06-14.81,1-.55,1.18-2.76,1.74-4.21q2.06,7,4.12,14a10.12,10.12,0,0,0,1.11-6.13c-.25-3.28-1-6.54-.9-9.8,0-1.13,1.74-2.23,2.69-3.34l2.5,2.48c-2,5.93.51,11.1,2.73,16.33-1.25,1.84-2.59,3.62-3.73,5.53a38.78,38.78,0,0,1-4.56,6.87C461.81,546.9,451.92,556,448.56,553.67Z"/><path class="cls-17" d="M467.61,548.23c-2.22-5.23-4.74-10.4-2.73-16.33,1.6.59,4.11.75,4.62,1.85,2.4,5.13,4.25,10.52,6.29,15.81q2,6.13,4.07,12.25c-6.26.81-9.57-2.95-9.14-9.66C470.8,550.91,468.7,549.54,467.61,548.23Z"/><path class="cls-12" d="M436.29,548.22c1.54,2.95,3.16,5.85,4.58,8.85,2.86,6,4.48,1.9,6.31-.7.56,2.35,2.16,6.32,1.48,6.75-2.68,1.73-6.07,2.36-9.21,3.36-1,.33-2.1.52-3.16.77h0c-2.54-2.72,6.79-5.44,0-8.16l-4.07-5.44,1.35-6.8Z"/><path class="cls-21" d="M351.88,503.34c-.46-1.36-.91-2.72-1.36-4.08,2.1-3.12,11.07-3.84,3.67-10.42-.24-.21.84-2.13,1.52-3.11,2.79-4,2.64-7.48-3.07-6.67-7.63,1.07-5.47-6.22-8.66-8.77.5-.59.93-1.56,1.54-1.69.78-.18,1.9.72,2.56.43a57.76,57.76,0,0,0,5.61-3.07l-1.23,6.85c3.58.25,7.23,1,10.71.52,1.82-.24,3.36-2.59,5-4l6.74,20.42L376.31,502c-6.34-2.82-7.4.4-6.66,5.77.56,4,1,8.1,1.55,12.15l-2.67.28c-.38-4.4-.76-8.81-1.19-13.72L361.4,517c0-1.36,0-2.72,0-4.08,3.68-5.06.88-8.91-3-11.66C357.28,500.43,354.11,502.55,351.88,503.34Z"/><path class="cls-21" d="M352.23,577.61,350,580.48a11.78,11.78,0,0,1-2.13-2.78c-1.61-4.29-3.13-8.62-4.45-13-.29-1,.39-2.26.62-3.4,1.11.52,2.89.79,3.21,1.63C349.08,567.62,350.54,572.47,352.23,577.61Z"/><path class="cls-4" d="M336.93,529.18h1.33l-1.8,14.21-2.21-.26Q335.59,536.15,336.93,529.18Z"/><path class="cls-4" d="M336.84,550.65c-.51.25-1.08.62-1.15.55a10.6,10.6,0,0,1-1-1.53l1.43-.74Z"/><path class="cls-9" d="M352.88,515.81c-.16,0-.43.17-.47.12a1.56,1.56,0,0,1-.19-.55c.17,0,.43-.18.48-.12A1.55,1.55,0,0,1,352.88,515.81Z"/><path class="cls-14" d="M601,533.23q-1.39-4.74-2.78-9.48l2.8-1.38,6.82-8.15,2.45-2.32L609,510.83l-1.17,3.39-6.8,1.36v-2.72c-2.72-4.93-1.72-8.73,3.07-11.91.8-.53.39-3.23.16-4.88-.35-2.52-2.32-5.91-1.32-7.3,2.24-3.16,5.56-6.74,9-7.54,4.72-1.07,8.9-1,8.28-7.4a2.11,2.11,0,0,1,.37-1.28c2.19-3.19,4.42-6.35,6.64-9.52.79,3,1.91,6,2.3,9,1,7.82,1,15.82,2.63,23.5,2.1,10.06-5.55,15.49-9.38,22.75-3,4.88-5.23,10.46-9.1,14.46-6.22,6.42-8.11,13.68-4.71,22.53.66,1.73-.87,4.4-1.66,6.54-.18.5-1.44.62-2.2.92a49.54,49.54,0,0,0-.29-5.46C603.63,549.26,602.3,541.25,601,533.23Z"/><path class="cls-12" d="M601,533.23c1.29,8,2.62,16,3.85,24a49.54,49.54,0,0,1,.29,5.46c.76-.3,2-.42,2.2-.92.79-2.14,2.32-4.81,1.66-6.54-3.4-8.85-1.51-16.11,4.71-22.53,3.87-4,6.12-9.58,9.1-14.46l2.74,1.38q-2.05,5.43-4.1,10.87c-14.38,11.78-6.59,27,6.47,34.56,1,.58,3.49-1.35,5.25-2.2a23.66,23.66,0,0,0,2.46-1.56c0,1,.05,2.07,0,3.09-.16,2.16-.38,4.3-.57,6.46,1.56-1.61,3.22-3.15,4.66-4.86.71-.84.9-2.1,1.57-3,.94-1.27,2.1-2.37,3.17-3.55.15,1.56.32,3.13.47,4.69q1.2,12.42,2.38,24.85l-4.06,2.7h0c-.87-3.49-1.8-7-2.61-10.47-.42-1.83-.63-3.72-.93-5.58-1.92,2-4.11,3.9-5.68,6.18-1,1.47-1.13,3.57-1.65,5.39-.45-2.38-.39-5-1.46-7.06-1.74-3.28-4.23-6.16-6.39-9.21a29.51,29.51,0,0,0-.46,4.06,24,24,0,0,0,.6,3.72,14.3,14.3,0,0,0-3.42-.82c-4.21,0-8.44.09-12.62.5-5.82.56-5.29-4.22-6.79-7.44s-3.24-6.14-4.87-9.2c-.34-6.71-1.09-13.43-.86-20.12C596.22,538.5,595,533.44,601,533.23Z"/><path class="cls-21" d="M621.46,530.54q2-5.44,4.1-10.87c2.4-3.42,4.76-6.88,7.25-10.24a27.9,27.9,0,0,1,3.15-3.09c.64,1.06,1.71,2.07,1.87,3.2,1.88,13.31,3.88,26.62,5.18,40,.23,2.39-2.42,7.13-4,7.23-4.52.3-10.29,2-11.12-6.54C627.27,543.51,623.72,537.09,621.46,530.54Z"/><path class="cls-21" d="M603.75,462.55q2.06-8.16,4.1-16.32l5.92-2.06a26.58,26.58,0,0,0-.79,5.39c.08,1.63,1.06,3.19,1.37,4.84,1.84,9.65-7.64,14.06-10.25,21.69-.14.4-1.48.39-2.27.58a27.22,27.22,0,0,1,.38-3.63C603.05,469.58,610,467.05,603.75,462.55Z"/><path class="cls-9" d="M644.61,488.38c.36,3.54,1,7.08,1,10.61,0,4.13.62,7.11,5.82,5.73v2.69l-1.38,4.08L647.34,521c-1.54-3.49-4-6.85-4.44-10.48C641.9,503.14,639.48,495.4,644.61,488.38Z"/><path class="cls-11" d="M643.24,591.73l4.06-2.7c0,.9,0,1.8,0,2.69Z"/><path class="cls-12" d="M601,512.86c0,.91,0,1.81,0,2.72l-2.8,0L597,512.86Z"/><path class="cls-21" d="M616.55,457.47c.16-.37.25-.94.51-1.05s.71.27,1.08.43c-.16.37-.24.94-.51,1S616.92,457.63,616.55,457.47Z"/><path class="cls-13" d="M704.52,560.46c-.91,1.82-1.81,3.63-2.72,5.44-1.35-4-2.61-8-4.1-11.88a14.67,14.67,0,0,0-2.27-3.21,40.09,40.09,0,0,0-1.65,4.25c-.16.54.46,1.25.49,1.9.1,2,.09,4,.12,5.94L690.72,558c-.4-.53-.79-1.07-1.19-1.61l-1.35-2.72a36.71,36.71,0,0,0-2-6.39c-.28-.57-2.29-.29-3.5-.4-4.7-5.21-5.81-1.35-6.86,2.7-3.5,2.35-7,4.77-10.55,7a9.46,9.46,0,0,1-3,.68,6.46,6.46,0,0,1-.08-1.85c1.3-5.14,1.11-11.8,4.34-15,5.53-5.54,3.49-12.64,6.51-18.42,2-3.89,3.36-5.08,6.48-.8,3.91,5.37,8.58,10.21,12.59,15.52,1.1,1.45,1.08,3.77,1.5,5.7.28,1.31.42,2.64.63,4,5.29-2.38,4.67,5.16,8.67,5.24.5,0,1.23,2,1.39,3.13A50.25,50.25,0,0,1,704.52,560.46Z"/><path class="cls-13" d="M681.38,495.2l6-6.08c1.67,4.14,4.58,8.26,4.67,12.43.07,3.71-3.11,7.6,3.7,3.68l1.92,3.55q-4.05,4.7-8.09,9.41c-1.63.58-4.08,2.14-4.74,1.59a70.18,70.18,0,0,1-8.5-8.9c-.63-.76-.33-2.29-.45-3.47.45-3.17.91-6.34,1.36-9.51Z"/><path class="cls-13" d="M650.06,511.49l1.38-4.08c1.34,1.06,4,2.33,3.83,3.14-1.52,9,3,5.81,7,3.67,1.31,2.21,2.17,6,5.11,1,.5-.86,2.41-1.21,3.64-1.16.43,0,1.37,2.19,1.06,3q-4.73,12.55-9.88,24.94c-.5,1.21-2,2-3,3a22.42,22.42,0,0,1-1.52-3.81c-2-9.65-3.81-19.33-5.8-29C651.8,511.87,650.68,511.73,650.06,511.49Z"/><path class="cls-20" d="M689.61,518.19q4-4.71,8.09-9.41c1-1.31,2.46-2.47,2.88-3.94a61.5,61.5,0,0,0,1.28-8.28l2.79,16.3-2.85,4.08-4.1,1.37Z"/><path class="cls-8" d="M697.7,518.31l4.1-1.37,2.59,0c.05.87.11,1.74.16,2.61-.37,1.49-.44,3.17-1.2,4.42a60.16,60.16,0,0,1-4.54,5.84c-.49-3.19-1-6.37-1.45-9.56A7,7,0,0,1,697.7,518.31Z"/><path class="cls-14" d="M675.86,549.56c1-4,2.16-7.91,6.86-2.7,0,2.07.07,4.13.11,6.2Z"/><path class="cls-9" d="M688.18,553.65l1.35,2.72Z"/><path class="cls-3" d="M549.59,501.88c.88,1.11,1.71,1.72,1.79,2.41,0,.45-1.07,1.51-1.52,1.43a2.44,2.44,0,0,1-1.6-1.59C548.15,503.6,549,502.89,549.59,501.88Z"/><path class="cls-3" d="M569.21,435c-.16.37-.24.93-.51,1s-.71-.26-1.08-.42c.16-.36.24-.94.5-1S568.84,434.86,569.21,435Z"/><path class="cls-5" d="M493.52,595.81l2.67,6.81-4.95,2.82Z"/><path class="cls-5" d="M494.32,610.43c-.16.37-.24.94-.5,1s-.72-.25-1.08-.41c.16-.37.23-.94.5-1S494,610.27,494.32,610.43Z"/><path class="cls-20" d="M729,541.42l-5.31,1.41-1.44-5.48,5.46-9.58c5,0,4.56,2.86,3.36,6.27C730.18,536.45,729.63,539,729,541.42Z"/><path class="cls-17" d="M492.1,497.89c-7.08-.18-7.12,4.29-6.68,9.55.19,2.36-.78,4.81-1.18,7.22-.58,3.48-1.12,7-1.67,10.43-3.42-5.27-4.27,2.21-6.8,1.37l-1.35-4.09c.12-2.67-.45-5.62.5-8,2.15-5.23-.56-5.76-4.53-5.67l2.67-4c2.45-.87,6.19-1.08,7-2.76,1.3-2.53,1.23-8.67.62-8.82-6.51-1.64-13.25-2.39-19.92-3.39-4.1-2.49-6-1.75-6.37,2.3-.11,1.1-1.16,2.1-1.77,3.15h-1.37c-.57-3.3-.59-6.82-1.81-9.86-2.2-5.48-5.11-10.67-7.73-16h4.11l6.77,4.07h0c2.06,1.55,4.11,3.12,6.19,4.64,1.51,1.1,3.08,2.13,4.62,3.19-.34-1.67-1.14-3.41-.9-5s1.52-2.81,2.35-4.21l8.15,0c.45,2,.89,4.09,1.34,6.14l3.43-3c.75,1.86,1.89,5.81,2.37,5.74,7.81-1.28,5.31,4.73,4.91,7.66-.85,6.19.47,8.82,7,6.57h0C492.11,496.09,492.1,497,492.1,497.89Z"/><path class="cls-14" d="M492.11,495.19c-6.54,2.25-7.86-.38-7-6.57.4-2.93,2.9-8.94-4.91-7.66-.48.07-1.62-3.88-2.37-5.74l-3.43,3c-.45-2.05-.89-4.1-1.34-6.14,3.61-3.22,3.15-2.78,0-6.12s-5.2-7.57-7.3-10.76c3-1.09,5.93-2.58,9-3.06,1.46-.23,3.23,1.44,4.86,2.26-1,.78-2.37,1.36-2.94,2.39-.67,1.21-1.4,3.38-.82,4.13,2.46,3.14,4.94,6.89,8.32,8.46,2.23,1,6.06-1.11,9.06-2.15a27.68,27.68,0,0,0,4.73-2.77l-.36,6.24c-4.27,2.59-6.14,5.7-4.89,11.21C493.61,486.08,492.37,490.74,492.11,495.19Z"/><path class="cls-14" d="M464.9,472c-.83,1.4-2.13,2.73-2.35,4.21s.56,3.33.9,5c-1.54-1.06-3.11-2.09-4.62-3.19-2.08-1.52-4.13-3.09-6.19-4.64,9.78-1.3,5.11-9,5.91-14.25l2.14-.5Z"/><path class="cls-18" d="M398.07,478.76l2.86,4.18c-.48,3.17-.95,6.35-1.43,9.53,0,1.81,0,3.62,0,5.43l0,2.69a47.3,47.3,0,0,0-2.63,5.35c-1.91,5.43-3.65,10.93-5.45,16.4l-5.48,9.56-5.43-5.45c-.52-3.18-1.05-6.36-1.57-9.54.06-.45.14-.89.23-1.34,1.37,1.91,2.71,3.85,4.13,5.72a23.84,23.84,0,0,0,2,2.11c.24-.89.82-1.85.68-2.68-1.29-7.2-2.7-14.38-4.07-21.57,1.39,2.19,2.74,4.42,4.18,6.58a26.22,26.22,0,0,0,2,2.45c.68-.74,1.72-1.36,2-2.23,1.4-4.48,2.61-9,3.89-13.53S396.72,483.32,398.07,478.76Z"/><path class="cls-3" d="M378.91,516.91c.52,3.18,1,6.36,1.57,9.54.84,3.73-2.83,10,5.34,9.63,0,1.28,0,2.57,0,3.86-6.28.41-3.27,5.22-3.94,8.29,0,3.17,0,6.34-.05,9.51-.45,2.26-.91,4.53-1.36,6.8-2.18-3.26-6.52-6.78-6.15-9.72,1.15-9.3-4-19.2,2.9-28.1C379,524.4,378.41,520.23,378.91,516.91Z"/><path class="cls-16" d="M381.92,499.15c1.37,7.19,2.78,14.37,4.07,21.57.14.83-.44,1.79-.68,2.68a23.84,23.84,0,0,1-2-2.11c-1.42-1.87-2.76-3.81-4.13-5.72q-1.41-6.78-2.83-13.58l-1.38-12.22,5.62,2.7C381,494.7,381.46,496.92,381.92,499.15Z"/><path class="cls-20" d="M389.85,601.28l-5.22-4.19q-2.13-9.47-4.27-18.92l.15-9.57,2.73,1.38c.44,4.32,0,9,1.55,12.88,1.7,4.27,5.24,7.82,8,11.68C395,598.16,396.35,601.42,389.85,601.28Z"/><path class="cls-15" d="M383.24,570l-2.73-1.38c0-1.35,0-2.71-.05-4.06.45-2.27.91-4.54,1.36-6.8h1.37l.09,6.88C383.27,566.4,383.25,568.19,383.24,570Z"/><path class="cls-13" d="M652.78,504.7q.68-3.39,1.36-6.8C659.43,501.31,656.08,503,652.78,504.7Z"/><path class="cls-2" d="M681.38,495.2l-4.1,2.7,2.7-2.72Z"/><path class="cls-17" d="M584.65,422c1.62,1.47,3.68,2.54,3.63,3.48-.07,1.22-2.1,3.47-2.8,3.3-2-.47-3.69-2-5.51-3.05Z"/><path class="cls-14" d="M433.57,546.85l-1.35,6.8-5.46,9.52-1.36,1.36c-2.8.85-5.81,1.31-8.3,2.69-1.58.88-2.81,3-3.44,4.81-.9,2.58-1.11,5.39-1.62,8.11l-5.21-4.29c.32,4.33.6,8.06.87,11.8.41,4.93-.18,9-6.78,8.14,0-1.35,0-2.7,0-4q-.69-5.44-1.39-10.9l0-6.74L398.13,570c-.9-6.82-2.07-13.62-2.6-20.47-.23-3.09.79-6.27,1.24-9.42,1.5-1.76,3.64-5.28,4.38-5,6.23,2.29,3.15-2.62,3.83-4.53,4.38-1.67,10.64-2.09,12.75-5.26,4.88-7.31,7.88.63,11.62.16-.06.62.11,1.43-.21,1.85-3.76,4.87-3.67,8,1.68,10.64C435.5,540.29,436.19,542.78,433.57,546.85Z"/><path class="cls-15" d="M396.77,540.08c-.45,3.15-1.47,6.33-1.24,9.42.53,6.85,1.7,13.65,2.6,20.47.45,1.38.89,2.76,1.34,4.13,0,2.25,0,4.49,0,6.74-2.93,3-2.39,7.31,1.39,10.9,0,1.35,0,2.7,0,4q1.35,4.76,2.71,9.52c0,.91,0,1.82,0,2.74-.62-.2-1.63-.23-1.8-.62-2.81-6.69-4.71-4.63-6.43.58-.18.55-.87.94-1.32,1.4l-4.22-8.13c6.5.14,5.12-3.12,2.92-6.74q-2.07-17-4.13-34.09l0-2.74c5.88-1.75,4.56-5.55,2.71-9.5v-1.35c.48-2.29.95-4.57,1.42-6.86Z"/><path class="cls-19" d="M407.7,587.65c-.27-3.74-.55-7.47-.87-11.8l5.21,4.29c.51-2.72.72-5.53,1.62-8.11.63-1.82,1.86-3.93,3.44-4.81,2.49-1.38,5.5-1.84,8.3-2.69C425.37,574.06,415.64,586.78,407.7,587.65Z"/><path class="cls-16" d="M394.07,609.41c.45-.46,1.14-.85,1.32-1.4,1.72-5.21,3.62-7.27,6.43-.58.17.39,1.18.42,1.8.62l2.71,6.79-.09,6.73-6.66,4.12c-.49-1.35-1-2.7-1.46-4.05Z"/><path class="cls-11" d="M406.33,614.84l-2.71-6.79c0-.92,0-1.83,0-2.74.89-.11,2,.07,2.62-.38,1.75-1.18,3.3-2.64,4.93-4,.19,3.55.9,7.2.31,10.62C411.26,612.91,408.14,613.76,406.33,614.84Z"/><path class="cls-19" d="M426.76,563.17l5.46-9.52,4.07,5.44-2.74,4.07Z"/><path class="cls-20" d="M433.55,563.16l2.74-4.07c6.79,2.72-2.54,5.44,0,8.16Z"/><path class="cls-16" d="M720.28,558.33q-3-12-5.93-24l2.58-.64q2.94,12.11,5.89,24.21Z"/><path class="cls-20" d="M714.1,507.48c0,1.28,0,2.56.08,3.83l-4.08-.76Z"/><path class="cls-20" d="M715.41,517l1.35,6.78C711.72,522.39,711.21,520.14,715.41,517Z"/><path class="cls-2" d="M704.39,517l-2.59,0,2.85-4.08C704.56,514.23,704.47,515.6,704.39,517Z"/><path class="cls-12" d="M396.77,540.08l-4-.08-.06-1.3c0-1.34,0-2.68.08-4,1.31-1.62,3.55-3.12,3.78-4.88,1.23-9.7,2-19.47,2.88-29.21,0-.9,0-1.8,0-2.69,0-1.81,0-3.62,0-5.43.48-3.18.95-6.36,1.43-9.53.9-2.27,1.81-4.54,2.71-6.8,2.08,1.29,5.25,4.18,6.06,3.62,3.72-2.54,9.86-4.35,6.34-11.27-.49-.94.22-2.5.38-3.86.79.23,1.42.23,1.54.48,1,2.09,1.93,4.23,2.87,6.35,1.16-2,2.17-4,3.51-5.89,3.44-4.7,3.64-8.94-1-13.08-.76-.68-.46-2.54-.65-3.86,1.49.53,3.78.66,4.29,1.68.94,1.89.91,4.3,1.16,6.5.56,4.8,2.56,4.67,5.47,1.66l0,5.44c-6.3.91-3.06,5-2.74,8.14-.44,1.82-.89,3.64-1.33,5.47-1.39.54-3.33.68-4.08,1.69a106.54,106.54,0,0,0-7.22,11.34c-1.21,2.18-2.66,4.81-2.44,7.08.95,9.72.93,18.22-11.25,21.33-4.46,1.14-3.91,8.49.47,11.58-.68,1.91,2.4,6.82-3.83,4.53C400.41,534.8,398.27,538.32,396.77,540.08Z"/><path class="cls-21" d="M433.57,463.91l0-5.44,2.69-1.37,5.46,12.24c2.62,5.31,5.53,10.5,7.73,16,1.22,3,1.24,6.56,1.81,9.86-7.16,7.39-7.16,7.39-12.18-5l-6.3,14.54c-.31-4.16-.43-6.06-.61-8s-.42-3.95-.64-5.92a33.83,33.83,0,0,1-4.5,3.12c-1,.5-2.38.3-3.58.42.3-1,.56-2,.9-2.91q2.55-7,5.12-14c.44-1.83.89-3.65,1.33-5.47C438.41,471.57,431.33,466.18,433.57,463.91Z"/><path class="cls-11" d="M586,598.54c.22-2,.46-4.06.65-6.09.08-.82.44-1.94.05-2.43-3.63-4.48-3.27-5.82,2.72-9.09a2.09,2.09,0,0,1,.67-.09q1.36,10.2,2.74,20.41Z"/><path class="cls-20" d="M380.45,480.21l-1.23-6.85c.87,2.28,1.73,4.57,2.6,6.86Z"/><path class="cls-17" d="M241.61,515.58l2.09,1.67-2.08,1.06C241.62,517.4,241.61,516.49,241.61,515.58Z"/><path class="cls-20" d="M381.92,499.15c-.46-2.23-.91-4.45-1.37-6.68.43-.91.86-1.82,1.28-2.73l12.2,2.68c-1.28,4.52-2.49,9.05-3.89,13.53-.28.87-1.32,1.49-2,2.23a26.22,26.22,0,0,1-2-2.45C384.66,503.57,383.31,501.34,381.92,499.15Z"/><path class="cls-15" d="M590.16,477.48l-4.25,1.64.21-6.25,4,1.9Z"/><path class="cls-20" d="M475.77,526.46c2.53.84,3.38-6.64,6.8-1.37l1.38,4.09q-.69,5.43-1.36,10.87l-2.79,3.36a23,23,0,0,1-1.64-4C477.26,535.11,476.55,530.78,475.77,526.46Z"/><path class="cls-3" d="M552,521l4.05-.25-1,3.63L552,521Z"/><path class="cls-14" d="M492.1,497.89c0-.9,0-1.8,0-2.7l2.1,1.67Z"/><path class="cls-19" d="M598.24,515.6l2.8,0,6.8-1.36h0L601,522.37l-2.79-4.1Z"/><path class="cls-12" d="M598.24,518.27l2.79,4.1-2.8,1.38C595.9,521.92,593.32,520.08,598.24,518.27Z"/><path class="cls-11" d="M475.77,526.46c.78,4.32,1.49,8.65,2.39,12.94a23,23,0,0,0,1.64,4l2.79-3.36c.45,1.81.91,3.63,1.36,5.44l-8.16,4.07c-2-5.29-3.89-10.68-6.29-15.81-.51-1.1-3-1.26-4.62-1.85l-2.5-2.48c-.95,1.11-2.67,2.21-2.69,3.34-.06,3.26.65,6.52.9,9.8a10.12,10.12,0,0,1-1.11,6.13q-2.06-7-4.12-14c-.6-6.06,2.29-12.78-3.65-17.86-.73-.63-.32-2.59-.44-3.93h0c6.61,3.56,9.5.33,9.1-5.88-.18-2.76.14-8.7-6.35-6.38q-.69-2.72-1.36-5.41c.61-1.05,1.66-2.05,1.77-3.15.4-4.05,2.27-4.79,6.37-2.3.92,2.77,1.7,5.6,2.85,8.27.32.75,2,1.68,2.61,1.44,5.6-2.11,6.48-1.49,6.8,5.26l-2.67,4c-1.48,5.37-2.1,10.49,4,13.62Z"/><path class="cls-19" d="M452.66,495.19,454,500.6q-1.36,6.13-2.74,12.26h0L442.58,508c-.73-.41-1.48-.8-2.22-1.19-.25.53-.82,1.14-.71,1.57,1,3.77,1.64,7.71,3.26,11.19,1.85,4-2.81,26.08-6.62,28.7l-2.72-1.37c2.62-4.07,1.93-6.56-2.75-8.92-5.35-2.69-5.44-5.77-1.68-10.64.32-.42.15-1.23.21-1.85-3.74.47-6.74-7.47-11.62-.16-2.11,3.17-8.37,3.59-12.75,5.26-4.38-3.09-4.93-10.44-.47-11.58,12.18-3.11,12.2-11.61,11.25-21.33-.22-2.27,1.23-4.9,2.44-7.08a106.54,106.54,0,0,1,7.22-11.34c.75-1,2.69-1.15,4.08-1.69q-2.56,7-5.12,14c-.34.95-.6,1.94-.9,2.91,1.2-.12,2.56.08,3.58-.42a33.83,33.83,0,0,0,4.5-3.12c.22,2,.46,3.94.64,5.92s.3,3.79.61,8l6.3-14.54c5,12.39,5,12.39,12.18,5Z"/><path class="cls-19" d="M607.84,514.22l1.17-3.39,1.29,1.07-2.45,2.32Z"/><path class="cls-20" d="M473.06,504.71c-.32-6.75-1.2-7.37-6.8-5.26-.63.24-2.29-.69-2.61-1.44-1.15-2.67-1.93-5.5-2.85-8.27,6.67,1,13.41,1.75,19.92,3.39.61.15.68,6.29-.62,8.82C479.25,503.63,475.51,503.84,473.06,504.71Z"/><path class="cls-20" d="M474.42,522.37c-6.13-3.13-5.51-8.25-4-13.62,4-.09,6.68.44,4.53,5.67C474,516.75,474.54,519.7,474.42,522.37Z"/><path class="cls-15" d="M399.47,500.59c-.91,9.74-1.65,19.51-2.88,29.21-.23,1.76-2.47,3.26-3.78,4.88q-.71-6.18-1.42-12.34c1.8-5.47,3.54-11,5.45-16.4A47.3,47.3,0,0,1,399.47,500.59Z"/><path class="cls-16" d="M391.39,522.34q.71,6.17,1.42,12.34c0,1.34-.05,2.68-.08,4q-.68,4.08-1.36,8.16v1.35H385.9l-.09-8.27c0-1.29,0-2.58,0-3.87l.09-4.17Z"/><path class="cls-15" d="M385.91,531.9l-.09,4.17c-8.17.34-4.5-5.89-5.34-9.62Z"/><path class="cls-15" d="M399.5,492.47c0,1.81,0,3.62,0,5.43C399.49,496.09,399.5,494.28,399.5,492.47Z"/><path class="cls-18" d="M385.9,548.21h5.47c1.85,3.95,3.17,7.75-2.71,9.5q0-.66,0-1.32l-2.43-2.52-3,3.86h-1.37c0-3.17,0-6.34.05-9.51Z"/><path class="cls-15" d="M385.9,548.21l-4,0c.67-3.07-2.34-7.88,3.94-8.29Z"/><path class="cls-4" d="M388.64,560.45q2.07,17,4.13,34.09c-2.74-3.86-6.28-7.41-8-11.68-1.55-3.89-1.11-8.56-1.55-12.88,0-1.79,0-3.58,0-5.37Z"/><path class="cls-20" d="M388.64,560.45l-5.36,4.16-.09-6.88h0l5.44-1.34q0,.66,0,1.32C388.65,558.63,388.65,559.54,388.64,560.45Z"/><path class="cls-12" d="M400.88,591.74c-3.78-3.59-4.32-7.87-1.39-10.9Q400.18,586.29,400.88,591.74Z"/><path class="cls-12" d="M399.47,574.1c-.45-1.37-.89-2.75-1.34-4.13C398.58,571.35,399,572.73,399.47,574.1Z"/><path class="cls-18" d="M391.37,546.86q.69-4.08,1.36-8.16l.06,1.3C392.32,542.29,391.85,544.57,391.37,546.86Z"/><path class="cls-5" d="M433.57,463.91c-2.24,2.27,4.84,7.66-2.74,8.14C430.51,468.92,427.27,464.82,433.57,463.91Z"/><path class="cls-20" d="M451.27,512.86q1.38-6.14,2.74-12.26c6.5-2.32,6.18,3.62,6.36,6.38C460.77,513.19,457.88,516.42,451.27,512.86Z"/><path class="cls-15" d="M388.63,556.39l-5.44,1.34,3-3.86Z"/><rect class="cls-23" x="1" width="1000" height="1000"/></svg>