<svg id="Layer_1" data-name="Layer 1" xmlns="http://www.w3.org/2000/svg" viewBox="0 0 1000 1000"><defs><style>.cls-1{fill:#3d3d3d;}.cls-2{fill:#efefef;}.cls-3{fill:#3c6eaa;}.cls-3,.cls-4,.cls-5,.cls-6,.cls-7,.cls-8,.cls-9{opacity:0.6;}.cls-4{fill:#426084;}.cls-5{fill:#3273bf;}.cls-6{fill:#42669b;}.cls-7{fill:#446082;}.cls-8{fill:#3d5872;}.cls-9{fill:#2d73a8;}</style></defs><rect class="cls-1" width="1000" height="1000"/><rect class="cls-2" x="-1" width="1000" height="1000"/><path class="cls-3" d="M197.11,660.34c-.07-14.85-.2-29.7-.2-44.55q0-174.66,0-349.32c0-2.62.13-5.24.21-7.85,3.4,1.89,6.88,3.66,10.19,5.7Q278,307.91,348.64,351.6c27.4,17,54.63,34.26,81.94,51.4v78.78q0,60.39,0,120.8c0,.42,0,.85,0,1.27a46,46,0,0,0-5.16.67q-85.61,21.06-171.18,42.16C235.22,651.34,216.15,655.79,197.11,660.34Z"/><path class="cls-4" d="M796.91,309.66c1.29,2.11,3.71,4.22,3.71,6.34q.28,196.71,0,393.41c0,1.64-2.41,3.26-3.7,4.89-2-2.15-3.69-4.86-6.11-6.37Q734.73,673,678.48,638.35,622.82,604,567.09,569.72V368.87h0q111.07-27.5,222.12-55.08C792,313.12,794.36,311.07,796.91,309.66Z"/><path class="cls-5" d="M430.58,403c-27.31-17.14-54.54-34.41-81.94-51.4q-70.58-43.78-141.33-87.28c-3.31-2-6.79-3.81-10.19-5.7,22.44-5.71,44.86-11.5,67.34-17.1q101.18-25.19,202.38-50.27Q516,179,565.19,166.77a6.18,6.18,0,0,1,1.94.15q0,101,0,202h0l-15.8,3.95Z"/><path class="cls-6" d="M567.12,368.88q0-101,0-202c23.32,14.29,46.68,28.51,70,42.87q69.09,42.63,138.07,85.4c7.4,4.58,14.51,9.63,21.76,14.47-2.55,1.41-4.94,3.46-7.67,4.14Q678.21,341.48,567.12,368.88Z"/><path class="cls-7" d="M430.57,603.85q0,21.67,0,43.34l-.06,157.7q-31.09-19.07-62.19-38.14-69-42.57-137.94-85.25c-11.18-6.92-22.19-14.1-33.28-21.16,19-4.55,38.11-9,57.12-13.66q85.61-21,171.18-42.16A46,46,0,0,1,430.57,603.85Z"/><path class="cls-8" d="M790.82,707.93Q734.73,673,678.48,638.35,622.82,604,567.09,569.72C538,576.85,509,584,479.93,591.07c-16.42,4-32.89,7.68-49.34,11.51,0,.42,0,.85,0,1.27V645c0,52.05,0,107.91-.06,159.87.5.12,1.05.43,1.49.33,35.17-8.54,70.36-17,105.47-25.71,31.5-7.83,71.5-17.64,104.22-25.9a7.5,7.5,0,0,0,1.58-.19c28.07-7,56.14-13.89,84.16-21,23.2-5.9,46.33-12.06,69.49-18.1C794.91,712.15,793.24,709.44,790.82,707.93Z"/><path class="cls-9" d="M567.1,368.87l-15.8,3.95L430.58,403v51h0v27.78h0c0,39.21,0,88.84,0,120.8,16.45-3.82,32.92-7.52,49.34-11.48,29.07-7,58.11-14.2,87.16-21.32V556.61h0Q567.11,462.74,567.1,368.87Z"/></svg>