<svg id="Layer_1" data-name="Layer 1" xmlns="http://www.w3.org/2000/svg" viewBox="0 0 1000 1000"><defs><style>.cls-1{fill:#efefef;}.cls-2{fill:#696866;}.cls-3{fill:#868581;}.cls-4{fill:#a2a29f;}.cls-5{fill:#6b6a68;}.cls-6{fill:#585856;}.cls-7{fill:#646361;}.cls-8{fill:#6a6967;}.cls-9{fill:#bab9b5;}.cls-10{fill:#767573;}.cls-11{fill:#898884;}.cls-12{fill:#84827f;}.cls-13{fill:#949392;}.cls-14{fill:#6a6a68;}.cls-15{fill:#6d6c69;}.cls-16{fill:#62605d;}.cls-17{fill:#5f5e5c;}.cls-18{fill:#95938d;}.cls-19{fill:#605f5d;}.cls-20{fill:#444342;}.cls-21{fill:#fdfdf9;}.cls-22{fill:#9a9995;}.cls-23{fill:#656462;}.cls-24{fill:#a4a29c;}.cls-25{fill:#d7d5d1;}.cls-26{fill:#a6a5a4;}.cls-27{fill:#b9b7b1;}.cls-28{fill:#a3a19d;}.cls-29{fill:#a5a4a0;}.cls-30{fill:#93918b;}.cls-31{fill:#c6c5c4;}.cls-32{fill:#444340;}.cls-33{fill:#32312f;}.cls-34{fill:#b2b0ac;}.cls-35{fill:#bab9b4;}.cls-36{fill:#797877;}.cls-37{fill:#979795;}.cls-38{fill:#dfddd8;}.cls-39{fill:#d4d3cf;}.cls-40{fill:#e1e0dd;}.cls-41{fill:#504e4b;}.cls-42{fill:#bbbab9;}.cls-43{fill:#6c6b67;}.cls-44{fill:#a1a09f;}.cls-45{fill:#dddbd6;}.cls-46{fill:#32302d;}.cls-47{fill:#e3e1de;}.cls-48{fill:#8c8a85;}.cls-49{fill:#726f69;}.cls-50{fill:#73716c;}.cls-51{fill:#c1c0bd;}.cls-52{fill:#adacaa;}.cls-53{fill:#444341;}.cls-54{fill:#b5b4b1;}.cls-55{fill:#555452;}.cls-56{fill:#dcdbd9;}.cls-57{fill:#5e5d5a;}.cls-58{fill:#484745;}.cls-59{fill:#c3c2be;}.cls-60{fill:#7e7d7a;}.cls-61{fill:#92908d;}.cls-62{fill:#474644;}.cls-63{fill:#e5e3e0;}.cls-64{fill:#696864;}.cls-65{fill:#65645f;}.cls-66{fill:#6c6964;}.cls-67{fill:#898783;}.cls-68{fill:#62615f;}.cls-69{fill:#c3c2c0;}.cls-70{fill:#cfcfcd;}.cls-71{fill:#7f7d79;}.cls-72{fill:#56544f;}.cls-73{fill:#9a9893;}.cls-74{fill:#807e78;}.cls-75{fill:#a2a09c;}.cls-76{fill:#5e5c59;}.cls-77{fill:#a2a19d;}.cls-78{fill:#848380;}.cls-79{fill:#70706e;}.cls-80{fill:#8f8e8b;}.cls-81{fill:#cfcecc;}.cls-82{fill:#545351;}.cls-83{fill:#b9b8b6;}.cls-84{fill:#aaa9a7;}.cls-85{fill:#989794;}.cls-86{fill:#a09f9d;}.cls-87{fill:#4e4d4b;}.cls-88{fill:#a1a09e;}.cls-89{fill:#706f6c;}.cls-90{fill:#a5a4a1;}.cls-91{fill:#8b8b8a;}.cls-92{fill:#868684;}.cls-93{fill:#73716d;}.cls-94{fill:#949390;}.cls-95{fill:#4d3e19;}.cls-96{fill:#9e9c98;}.cls-97{fill:#e4dece;}.cls-98{fill:#937936;}.cls-99{fill:#cec9ba;}.cls-100{fill:#817e7a;}.cls-101{fill:#868480;}.cls-102{fill:#787672;}.cls-103{fill:#5d5c5a;}.cls-104{fill:#979592;}.cls-105{fill:#535250;}.cls-106{fill:#aeaca9;}.cls-107{fill:#483913;}.cls-108{fill:#6c6b69;}.cls-109{fill:#86847e;}.cls-110{fill:#77746e;}.cls-111{fill:#31260a;}.cls-112{fill:#8b8981;}.cls-113{fill:#aaa9a5;}.cls-114{fill:#a5a29c;}.cls-115{fill:#afadaa;}.cls-116{fill:#bab9b6;}.cls-117{fill:#b3b1ad;}.cls-118{fill:#5d4a1a;}.cls-119{fill:#645937;}.cls-120{fill:#abaaa6;}.cls-121{fill:#acaca9;}.cls-122{fill:#6f6e6b;}.cls-123{fill:#9c9b98;}.cls-124{fill:#8e8d8b;}.cls-125{fill:#9d9c99;}.cls-126{fill:#8a8a88;}.cls-127{fill:#acaaa7;}.cls-128{fill:#bfbebc;}.cls-129{fill:#c7c6c4;}.cls-130{fill:#c6c5c3;}.cls-131{fill:#b8b8b7;}.cls-132{fill:#b3b2b0;}.cls-133{fill:#765d1f;}.cls-134{fill:#c5c5c3;}.cls-135{fill:#84837f;}.cls-136{fill:#826621;}.cls-137{fill:#c5c4c3;}.cls-138{fill:#c1c1c0;}.cls-139{fill:#cac9c8;}.cls-140{fill:#bebdbc;}.cls-141{fill:#d3d2ce;}.cls-142{fill:#cbc9c5;}.cls-143{fill:#c1bfba;}.cls-144{fill:#d9d8d4;}.cls-145{fill:#775f24;}.cls-146{fill:#67511a;}.cls-147{fill:#9a7e33;}.cls-148{fill:#8e742f;}.cls-149{fill:#574619;}.cls-150{fill:#817041;}.cls-151{fill:#a1802d;}.cls-152{fill:#6f6036;}.cls-153{fill:#a48430;}.cls-154{fill:#a6a5a1;}.cls-155{fill:#afaeab;}.cls-156{fill:#b2b0aa;}.cls-157{fill:#ad8b32;}.cls-158{fill:#c4c3c0;}.cls-159{fill:#8f783a;}.cls-160{fill:#60522c;}.cls-161{fill:#aeaca8;}.cls-162{fill:#a5a4a2;}.cls-163{fill:#b9b8b4;}.cls-164{fill:#d9d8d7;}.cls-165{fill:#d5d4d3;}.cls-166{fill:#cdcdcb;}.cls-167{fill:#d2d1cf;}.cls-168{fill:#5b4818;}.cls-169{fill:#574414;}.cls-170{fill:#999690;}.cls-171{fill:#c3c1be;}.cls-172{fill:#b8b7b3;}.cls-173{fill:#b1afac;}.cls-174{fill:#bebdba;}.cls-175{fill:#b6b5b1;}.cls-176{fill:#b7b5b1;}.cls-177{fill:#adaca9;}.cls-178{fill:#b1afab;}.cls-179{fill:#bcbbb7;}.cls-180{fill:#c8c7c3;}.cls-181{fill:#c1c0bc;}.cls-182{fill:#b8b6b2;}.cls-183{fill:#c4c3bf;}.cls-184{fill:#dedddb;}.cls-185{fill:#d5d4d2;}.cls-186{fill:#e3e3e2;}.cls-187{fill:#e5e4e3;}.cls-188{fill:#6a541c;}.cls-189{fill:#cfcecb;}.cls-190{fill:#7a6a3d;}.cls-191{fill:#8e7a42;}.cls-192{fill:#ad934e;}.cls-193{fill:#b9b8b7;}.cls-194{fill:#bebdbb;}.cls-195{fill:#b7b6b3;}.cls-196{fill:#abaaa8;}.cls-197{fill:#bfbebb;}.cls-198{fill:#b3b1af;}.cls-199{fill:#70571a;}.cls-200{fill:#cecdcb;}.cls-201{fill:#d2d1d0;}.cls-202{fill:#d6d6d5;}.cls-203{fill:#957526;}.cls-204{fill:#cbcac9;}.cls-205{fill:#fcfbfb;}.cls-206{fill:#8a6d24;}.cls-207{fill:#f5f5f4;}.cls-208{fill:#8d6e23;}.cls-209{fill:#d9d8d6;}.cls-210{fill:#d4d3d0;}.cls-211{fill:#cbcac8;}.cls-212{fill:#b79439;}.cls-213{fill:#b48e32;}.cls-214{fill:#ab8931;}.cls-215{fill:#a6842e;}.cls-216{fill:#957629;}.cls-217{fill:#eeeeed;}.cls-218{fill:#aa8c3d;}.cls-219{fill:#a2802b;}.cls-220{fill:#bda254;}.cls-221{fill:#b99436;}.cls-222{fill:#876b25;}.cls-223{fill:#a98e45;}.cls-224{fill:#8e7129;}.cls-225{fill:#c2c1be;}.cls-226{fill:#b8b6b3;}.cls-227{fill:#d0cecb;}.cls-228{fill:#e2e2e1;}.cls-229{fill:#c7c6c2;}.cls-230{fill:#bdbcb9;}.cls-231{fill:#d7d7d4;}.cls-232{fill:#d0cfcc;}.cls-233{fill:#c7c5c2;}.cls-234{fill:#e9e8e7;}.cls-235{fill:#786022;}.cls-236{fill:#b8b7b4;}.cls-237{fill:#cdccca;}.cls-238{fill:#c0bfbc;}.cls-239{fill:#d3d2d1;}.cls-240{fill:#c8c7c5;}.cls-241{fill:#dbdada;}.cls-242{fill:#e9e9e9;}.cls-243{fill:#e0dfdf;}.cls-244{fill:#e5e5e4;}.cls-245{fill:#e4e3e3;}.cls-246{fill:#dededd;}.cls-247{fill:#997828;}.cls-248{fill:#a4832e;}.cls-249{fill:#eae9e8;}.cls-250{fill:#af892f;}.cls-251{fill:#bf9c3d;}.cls-252{fill:#95772a;}.cls-253{fill:#eaeae9;}.cls-254{fill:#dddcda;}.cls-255{fill:#f1f0ef;}.cls-256{fill:#d8d8d6;}.cls-257{fill:#ededec;}.cls-258{fill:#f2f1f1;}</style></defs><rect class="cls-1" x="-1" width="1000" height="1000"/><path class="cls-2" d="M190,268.55q.09-5.26.2-10.53,1.41,6,2.83,11.9c-.1,46.22-.28,92.45-.27,138.67q0,113.66.26,227.31l1.08,20.35.15,6.6c0,2.25-.05,4.51-.08,6.76-1.77-3.84-4.06-7.54-5.13-11.56-.82-3.09-.11-6.59-.08-9.9.83-.45,2.39-.89,2.39-1.33q.16-33.87,0-67.74c0-1.39-1.53-2.76-2.35-4.14V348.55c.82-2.27,2.34-4.54,2.36-6.82.18-22.07.16-44.14.06-66.21C191.37,273.2,190.47,270.87,190,268.55Z"/><path class="cls-3" d="M442.21,813.64,435,812,449,805.33l75.91-17.61c18.24-4.51,36.5-9,54.72-13.55,24.7-6.25,49.37-12.62,74-18.94,5.47-1.16,11-2.16,16.4-3.5q36.53-9,73-18.24l50.2-12.18c-1.44.9-2.77,2.21-4.34,2.63-30,7.92-59.94,15.85-90,23.53-30.25,7.73-60.58,15.12-90.84,22.81-22.36,5.69-44.67,11.61-67,17.43a23.52,23.52,0,0,0-4.69.19c-26,6.29-52.11,12.51-78.06,19.13C452.76,808.45,447.57,811.4,442.21,813.64Z"/><path class="cls-4" d="M571,161.35l4.06,1.48c1.14,1.48,2,3.46,3.47,4.36,12.73,7.73,25.58,15.27,38.39,22.86a21.68,21.68,0,0,0,3,2.64q31.24,19.37,62.55,38.62,35,21.47,70.15,42.79l11,8,35.69,25.09-11.64,2.28-3.78-1.28-2.89-2.87c-.21-1.85.27-4.73-.72-5.39-30.79-20.52-61.73-40.81-92.64-61.14-1-1.16-1.87-2.68-3.15-3.44-36-21.41-71.87-42.9-108.07-63.91C571.69,168.73,569.37,166.53,571,161.35Z"/><path class="cls-5" d="M809.52,306.46l2.46,5.59c-.82,3.65-2.38,7.31-2.34,10.95.19,22.06,1.17,44.12,1.11,66.17q-.43,154.21-1.38,308.42c0,3.39-1.68,6.78-2.58,10.17l-1.53-.07q.78-7.4,1.58-14.79c.42-2.15,1.2-4.29,1.2-6.43q.13-100.26.14-200.5,0-82.92,0-165.84C808.22,315.57,809.06,311,809.52,306.46Z"/><path class="cls-6" d="M806.79,707.76c.9-3.39,2.56-6.78,2.58-10.17q.87-154.22,1.38-308.42c.06-22.05-.92-44.11-1.11-66.17,0-3.64,1.52-7.3,2.34-10.95q.12,55.14.22,110.27.06,129.9,0,259.8c0,2.7-.17,5.39-.26,8.09-.21,14.76-4.72,27.47-17.34,36.3l-50.18,12.63c10.85-3.25,21.57-7,32.56-9.62C790.16,726.38,801.63,721.56,806.79,707.76Z"/><path class="cls-3" d="M809.52,306.46c-.46,4.55-1.3,9.11-1.31,13.67q-.12,82.92,0,165.84,0,100.24-.14,200.5c0,2.14-.78,4.28-1.2,6.42l-.12-115.26q0-127.41-.08-254.8l-2-10.28c-2,2.28-4,4.57-6,6.83a6.38,6.38,0,0,1-1,.8c-1.6-5.16-2.38-11.09-10-10.74l11.64-2.28-35.69-25.09c10.33,6.38,20.61,12.85,31.06,19,1.36.8,3.58.14,5.4.16Z"/><path class="cls-7" d="M806.79,707.76c-5.16,13.8-16.63,18.62-29.78,21.76-11,2.63-21.71,6.37-32.56,9.62Q665.75,758.7,587,778.22c-13.42,3.32-26.9,6.38-40.35,9.55l-5.59-.06c22.33-5.82,44.64-11.74,67-17.43,30.26-7.69,60.59-15.08,90.84-22.81,30-7.68,60-15.61,90-23.53,1.57-.42,2.9-1.73,4.34-2.63.89-1.37,1.78-2.73,2.66-4.1l9.36-9.52Z"/><path class="cls-8" d="M194.16,669.61c0-2.25.05-4.51.08-6.76l2.44,1.66c.07.42.12.85.16,1.28,2.33,1.63,4.61,3.33,7,4.87L327,749.77l-4.24.06q-33.3-20.19-66.61-40.39C239,699,221.89,688.55,204.88,677.92,201.07,675.54,197.72,672.4,194.16,669.61Z"/><path class="cls-9" d="M571,161.35c-1.59,5.18.73,7.38,5.35,10.06,36.2,21,72.11,42.5,108.07,63.91,1.28.76,2.11,2.28,3.15,3.44-13.73-8.08-27.37-16.31-41.2-24.21-20.09-11.47-40.31-22.71-60.48-34.05a90.19,90.19,0,0,0-8.77-4.94c-7-3-14.55-8.89-21.14-8-16.9,2.23-33.41,7.51-50.07,11.58l-21.67,5.36L472,185.94l21.81-6.54c18.39-4.37,36.8-8.65,55.15-13.16,6.87-1.69,13.61-3.91,20.42-5.88Z"/><path class="cls-10" d="M752.55,274.1q-35.09-21.39-70.15-42.79-31.33-19.22-62.55-38.62a21.68,21.68,0,0,1-3-2.64c3.83,1.74,7.8,3.24,11.47,5.27,11.28,6.22,22.44,12.64,33.65,19,15,9,30,17.87,45,26.93,4.07,2.47,7.86,5.4,11.78,8.11,2.56,2.06,5,4.25,7.7,6.17C735.11,261.76,743.84,267.91,752.55,274.1Z"/><path class="cls-11" d="M293.1,226.58q61.95-15,123.88-30a78.81,78.81,0,0,0,7.47-2.62l6.9,1.43c-16.4,4.09-32.79,8.24-49.21,12.27-20.18,5-40.39,9.81-60.59,14.71-2.07-.09-4.21-.57-6.2-.22C307.91,223.51,300.52,225.09,293.1,226.58Z"/><path class="cls-12" d="M293.1,226.58c7.42-1.49,14.81-3.07,22.25-4.39,2-.35,4.13.13,6.2.22-10,2.56-20,5.22-30,7.65Q251,239.9,210.34,249.58l-5.48-1.35Z"/><path class="cls-13" d="M433.89,809.83c-1.2.73-2.7,1.22-3.54,2.25s-1,2.59-1.48,3.92l-3.13-3.69c-.9-2.74-1.79-5.49-2.69-8.24-1.46-1.53-2.67-3.5-4.43-4.54-16-9.45-32.17-18.73-48.27-28.06l2.8-.1c12.19,6.54,24.3,13.22,36.62,19.51,2.8,1.42,6.29,1.49,9.47,2.18L422,793c1.72,2.8,3.33,5.68,5.21,8.36.68,1,2.25,2.3,3,2.08,4.53-1.39,8.93-3.19,13.38-4.84,0,.44,0,.89,0,1.33Q438.72,804.87,433.89,809.83Z"/><path class="cls-14" d="M752.55,274.1c-8.71-6.19-17.44-12.34-26.1-18.59-2.66-1.92-5.14-4.11-7.7-6.17,18.59,11.23,37.33,22.24,55.73,33.78,8.82,5.53,17,12.06,25.49,18.14-1.82,0-4,.64-5.4-.16-10.45-6.18-20.73-12.65-31.06-19Z"/><path class="cls-15" d="M662,214.3c-11.21-6.34-22.37-12.76-33.65-19-3.67-2-7.64-3.53-11.47-5.27-12.81-7.59-25.66-15.13-38.39-22.86-1.49-.9-2.33-2.88-3.47-4.36,10.83,5.62,22,10.7,32.43,17C625.87,190.93,643.84,202.77,662,214.3Z"/><path class="cls-16" d="M541.09,787.71l5.59.06L442.21,813.64c5.36-2.24,10.55-5.19,16.13-6.61,26-6.62,52-12.84,78.06-19.13A23.52,23.52,0,0,1,541.09,787.71Z"/><path class="cls-17" d="M423.05,804.07c.9,2.75,1.79,5.5,2.69,8.24q-31.85-19-63.67-38.09l4.24-.06c5.57,3.09,11.09,6.29,16.73,9.24C396.35,790.36,409.71,797.19,423.05,804.07Z"/><path class="cls-18" d="M431.35,195.43l-6.9-1.43,71.95-17.33-2.56,2.73L472,185.94Z"/><path class="cls-10" d="M493.84,179.4l2.56-2.73c17.92-4.68,35.78-9.58,53.78-13.92,6.24-1.51,12.81-1.64,19.23-2.39-6.81,2-13.55,4.19-20.42,5.88C530.64,170.75,512.23,175,493.84,179.4Z"/><path class="cls-19" d="M190,268.55c.48,2.32,1.38,4.65,1.39,7,.1,22.07.12,44.14-.06,66.21,0,2.28-1.54,4.55-2.36,6.82q-.12-38.26-.18-76.52C188.78,270.87,189.57,269.71,190,268.55Z"/><path class="cls-19" d="M189,574.94c.82,1.38,2.34,2.75,2.35,4.14q.24,33.85,0,67.74c0,.44-1.56.88-2.39,1.33Q189,611.55,189,574.94Z"/><path class="cls-20" d="M794.63,726.51c12.62-8.83,17.13-21.54,17.34-36.3.09,6.06.22,12.12.24,18.18C812.27,724.77,812,725,794.63,726.51Z"/><path class="cls-21" d="M193,269.92q-1.43-6-2.83-11.9,1.34-2.83,2.68-5.67a46,46,0,0,0,4.89,4.38c2.79,1.9,5.8,3.48,8.72,5.2l-2.72,1.31c-1.4.91-3.48,1.52-4.06,2.81-1.34,2.93-1.94,6.2-2.83,9.33Z"/><path class="cls-22" d="M206.48,261.93c-2.92-1.72-5.93-3.3-8.72-5.2a46,46,0,0,1-4.89-4.38l12-4.12,5.48,1.35-5.56,2.62c1.75,1.2,3.46,2.45,5.25,3.59,2.4,1.52,4.86,3,7.3,4.44Z"/><path class="cls-23" d="M366.31,774.16l-4.24.06-39.32-24.39,4.24-.06Z"/><path class="cls-24" d="M433.89,809.83l9.64-9.93c1.39,1.05,2.77,3,4.18,3,2.68,0,5.36-1,8.05-1.59l-6.81,4L435,812Z"/><path class="cls-25" d="M193,269.92l3.85,5.46c.12,3.56.31,7.12.34,10.69,0,2-.17,4.09-.32,6.14q-.67,9.19-1.38,18.41.68,8.81,1.36,17.61c-.9,2.57-2.58,5.14-2.58,7.7q-.24,76.33-.07,152.66c0,2.12.84,4.25,1.29,6.37,0,6.45.12,12.91.12,19.36,0,15.07-.29,30.14,0,45.19.12,5.61,1.66,11.18,2.55,16.77-.51,4-1.42,7.9-1.43,11.85,0,5.73.76,11.45.91,17.18a57,57,0,0,1-.88,7.86l6.57-3q.23,16.88.44,33.77c.83,2.32,1.65,4.65,2.48,7l-2.73,6.68c-2.72-3.61-6-6.94-8-10.9-1.63-3.2-1.78-7.16-2.58-10.78q-.13-113.65-.26-227.31C192.74,362.37,192.92,316.14,193,269.92Z"/><path class="cls-26" d="M196.68,664.51l-2.44-1.66-.15-6.6L206.35,663l24.38,16.27c13.47,9.22,26.86,18.56,40.45,27.61,14.89,9.91,30,19.55,45,29.3L286.26,720l-28.44-17.6c-.65-.89-1.11-2.07-2-2.65-17.42-11.69-34.83-23.39-52.42-34.82C201.78,663.87,199,664.61,196.68,664.51Z"/><path class="cls-27" d="M206.35,663l-12.26-6.78L193,635.9c.8,3.62,1,7.58,2.58,10.78,2,4,5.27,7.29,8,10.9l1.51,2.22Z"/><path class="cls-28" d="M805.26,707.69l-9.36,9.52-13.35,4.14L743,733.49q-36.51,9.13-73,18.24c-5.42,1.34-10.93,2.34-16.4,3.5v-1.39c37.93-10.46,75.9-20.76,113.75-31.51,9.28-2.64,18.13-6.78,27.17-10.23l-.19-2.86c2.83-2.62,7.74-5,8.14-7.9a319.83,319.83,0,0,0,2.75-37.89c.39-26.7.14-53.4.25-80.11,0-1.9.79-3.81,1.22-5.71l.12,115.26Q806,700.3,805.26,707.69Z"/><path class="cls-29" d="M653.63,753.84v1.39c-24.68,6.32-49.35,12.69-74,18.94-18.22,4.6-36.48,9-54.72,13.55l-69.1,13.57c-2.69.59-5.37,1.63-8.05,1.59-1.41,0-2.79-1.93-4.18-3,0-.45,0-.9,0-1.34l5.48-1.12c2,.37,4.22,1.43,6.08,1q66.76-14.72,133.47-29.71c2-.29,4-.43,5.93-.88Q624.07,760.9,653.63,753.84Z"/><path class="cls-30" d="M455.76,801.29l69.1-13.57L449,805.33Z"/><path class="cls-3" d="M743,733.49l39.51-12.14,13.35-4.14c-.88,1.37-1.77,2.73-2.66,4.1Z"/><path class="cls-31" d="M585.85,180.5c20.17,11.34,40.39,22.58,60.48,34.05,13.83,7.9,27.47,16.13,41.2,24.21,30.91,20.33,61.85,40.62,92.64,61.14,1,.66.51,3.54.72,5.39l-28.32-16.51-5.45-5.15c-8.19-6.14-16-12.92-24.66-18.32-37.72-23.52-75.69-46.64-113.57-69.9Z"/><path class="cls-32" d="M752.57,288.78l28.32,16.51,2.89,2.87c-3.25,5.72-5.94,11.12,4.92,10.07.5-.05,1.2,2.11,1.81,3.23L777,320.07c-.59-1.59-2.14-4.09-1.63-4.62,6.73-7-.65-9.27-4.24-12.31C765.15,298.09,758.77,293.54,752.57,288.78Z"/><path class="cls-33" d="M790.51,321.46c-.61-1.12-1.31-3.28-1.81-3.23-10.86,1-8.17-4.35-4.92-10.07l3.78,1.28c7.57-.35,8.35,5.58,10,10.74a6.13,6.13,0,0,1-.32,1.26l-5.32,2.74Z"/><path class="cls-34" d="M806.72,577.63c-.43,1.9-1.22,3.81-1.22,5.71-.11,26.71.14,53.41-.25,80.11a319.83,319.83,0,0,1-2.75,37.89c-.4,2.94-5.31,5.28-8.14,7.9l-1.08-.21c-.06-.4-.14-.8-.21-1.2q2-3.58,4-7.17.21-8,.43-16c1.27-2.2,3.56-4.37,3.66-6.63,1.15-26.29,2.55-52.58,2.74-78.89.41-55.06.13-110.13.14-165.19,0-8.93.13-17.86,0-26.78-.37-21.55-1.21-43.09-1.13-64.64,0-6.57,2.41-13.14,3.72-19.71Q806.67,450.23,806.72,577.63Z"/><path class="cls-35" d="M806.64,322.83c-1.31,6.57-3.7,13.14-3.72,19.71-.08,21.55.76,43.09,1.13,64.64.15,8.92,0,17.85,0,26.78-.45-1.44-1.28-2.87-1.29-4.31-.14-20.38.23-40.78-.44-61.14-.2-6.23-3.13-12.38-4.81-18.57q-.16-14.25-.34-28.5a6.13,6.13,0,0,0,.32-1.26,6.38,6.38,0,0,0,1-.8c2-2.26,4-4.55,6-6.83Z"/><path class="cls-36" d="M257.82,702.41,286.26,720l46.12,28.47,38,23c16.1,9.33,32.23,18.61,48.27,28.06,1.76,1,3,3,4.43,4.54-13.34-6.88-26.7-13.71-40-20.67-5.64-2.95-11.16-6.15-16.73-9.24L327,749.77,203.84,670.66c-2.39-1.54-4.67-3.24-7-4.87,5,2.52,10.27,4.69,15,7.63C227.28,682.93,242.52,692.73,257.82,702.41Z"/><path class="cls-37" d="M257.82,702.41c-15.3-9.68-30.54-19.48-45.95-29-4.76-2.94-10-5.11-15-7.63,0-.43-.09-.86-.16-1.28,2.28.1,5.1-.64,6.75.43,17.59,11.43,35,23.13,52.42,34.82C256.71,700.34,257.17,701.52,257.82,702.41Z"/><path class="cls-38" d="M217.33,260.23c-2.44-1.48-4.9-2.92-7.3-4.44-1.79-1.14-3.5-2.39-5.25-3.59l5.56-2.62q40.59-9.75,81.17-19.52c10-2.43,20-5.09,30-7.65,20.2-4.9,40.41-9.75,60.59-14.71,16.42-4,32.81-8.18,49.21-12.27L472,185.94l12.17-1.45-24.39,6.85a61,61,0,0,1-7.47,2.65c-17.88,4-35.86,7.49-53.66,11.79-21.53,5.21-42.85,11.28-64.36,16.56-25.32,6.22-50.77,11.94-76.1,18.12-1.52.38-2.49,3-3.71,4.61a36.92,36.92,0,0,1,5.17.68c2.15.58,4.22,1.5,6.33,2.28l-46.2,11.31Z"/><path class="cls-39" d="M585.85,180.5l23,14.91-6.9-1.32c-2.12-1.05-4.31-2-6.35-3.17-8.26-4.76-16.47-9.59-24.7-14.39L566.89,175l-6.86.23-36.55,9.07c-1.32-2.33-2.48-6.51-4-6.63-4.48-.36-9.08.86-13.64,1.47,16.66-4.07,33.17-9.35,50.07-11.58,6.59-.88,14.14,5,21.14,8A90.19,90.19,0,0,1,585.85,180.5Z"/><path class="cls-40" d="M505.87,179.13c4.56-.61,9.16-1.83,13.64-1.47,1.49.12,2.65,4.3,4,6.63l-47.37,11.23-16.3-4.18,24.39-6.85Z"/><path class="cls-41" d="M449,797.44l-5.48,1.12c-4.45,1.65-8.85,3.45-13.38,4.84-.74.22-2.31-1.11-3-2.08-1.88-2.68-3.49-5.56-5.21-8.36l-2.87-5.23c14.06,3.69,14.05-5.14,13.69-15-.38-10.28-.08-20.59-.08-30.89,1.37,13.61,1.39,27.23,1.36,40.85,0,8.21,2.64,13.79,12.18,11.69,9.09-2,18.08-4.53,27.11-6.82,1.76-.25,3.55-.36,5.28-.77q46.8-11.13,93.59-22.3L718.7,728.15l1.51,1.38c-.29.32-.53.86-.88,1q-66.69,16.44-133.4,32.84c-25.32,6.28-50.58,12.81-75.86,19.22Z"/><path class="cls-42" d="M316.15,736.21c-15-9.75-30.08-19.39-45-29.3-13.59-9-27-18.39-40.45-27.61l10.85,5.42c29.84,18.75,59.5,37.79,89.57,56.15,15.48,9.45,31.69,17.69,47.57,26.48l40.52,25.71c-3.18-.69-6.67-.76-9.47-2.18-12.32-6.29-24.43-13-36.62-19.51q-24.43-14.88-48.86-29.77Q320.21,738.92,316.15,736.21Z"/><path class="cls-43" d="M419.24,793.06l-40.52-25.71-1.68-2.5a7.14,7.14,0,0,1-.48-2.57,3.64,3.64,0,0,1,1.44-1.77c11.49,6.75,22.93,13.6,34.37,20.44l6.72,6.78L422,793Z"/><path class="cls-44" d="M324.29,741.6q24.42,14.89,48.86,29.77l-2.8.1-38-23Z"/><path class="cls-45" d="M195.51,310.62q.69-9.21,1.38-18.41c.15-2,.34-4.1.32-6.14,0-3.57-.22-7.13-.34-10.69.89-3.13,1.49-6.4,2.83-9.33.58-1.29,2.66-1.9,4.06-2.81q0,6.7.05,13.42v5.45q-.21,36.61-.41,73.25c-.82-2.41-2.31-4.8-2.36-7.22-.25-12.16-.06-24.34-.19-36.51,0-1.58-1-3.15-1.56-4.73Z"/><path class="cls-46" d="M203.81,276.66q0-6.71-.05-13.42l2.72-1.31,10.85-1.7,2.48-.89q.75,6.12,1.51,12.25a3.4,3.4,0,0,0-1.18-.53l-2.84-1.33c-1.65-.5-4-1.93-4.84-1.32C209.3,270.81,206.65,273.85,203.81,276.66Z"/><path class="cls-47" d="M195.51,310.62l3.79-3.72c.54,1.58,1.54,3.15,1.56,4.73.13,12.17-.06,24.35.19,36.51,0,2.42,1.54,4.81,2.36,7.22V573.6l-5.19,2.68c-.89-5.59-2.43-11.16-2.55-16.77-.33-15,0-30.12,0-45.19,0-6.45-.08-12.91-.12-19.36q.68-83.37,1.36-166.73Q196.2,319.43,195.51,310.62Z"/><path class="cls-48" d="M206.31,650.9c-.83-2.32-1.65-4.65-2.48-7,1.3-2.58,3.54-5.09,3.73-7.75.51-7.28.16-14.63.15-21.95q0-166.75,0-333.53a7.35,7.35,0,0,1,1.32.18V393.1c2.75-28.52,2.72-57.06,2.81-85.6,0-2.58.83-5.15,1.28-7.73q0,21.69,0,43.38l0,33.83c-.43,2.81-1.28,5.62-1.25,8.43q1.23,119.55,2.62,239.11c.09,8.57,0,8.55,4.84,12.65a2.56,2.56,0,0,1,.5,1.89c-.43,8.22,4.88,7,9.93,6,13-2.57,25.9-5.22,38.85-7.85-12.69,3.17-25.27,7-38.13,9.27-7.62,1.34-15.22,1.15-18.68,9.8q0-10.78,0-21.56,0-35.15,0-70.28c-2.78,23.88-2.63,47.73-2.9,71.59C208.85,641,207.21,645.94,206.31,650.9Z"/><path class="cls-49" d="M207.71,614.23c0,7.32.36,14.67-.15,21.95-.19,2.66-2.43,5.17-3.73,7.75q-.21-16.89-.44-33.77,0-18.28,0-36.56V355.36q.21-36.63.41-73.25l1.17,0q.67,161.85,1.43,323.69C206.43,608.63,207.26,611.43,207.71,614.23Z"/><path class="cls-45" d="M196.87,328.23Q196.2,411.6,195.51,495c-.45-2.12-1.28-4.25-1.29-6.37q-.1-76.32.07-152.66C194.29,333.37,196,330.8,196.87,328.23Z"/><path class="cls-50" d="M206.31,650.9c.9-5,2.54-9.91,2.6-14.88.27-23.86.12-47.71,2.9-71.59q0,35.15,0,70.28,0,10.77,0,21.56l-1.3,2.56-5.4,1-1.51-2.22Z"/><path class="cls-45" d="M203.41,573.6q0,18.27,0,36.56l-6.57,3a57,57,0,0,0,.88-7.86c-.15-5.73-.92-11.45-.91-17.18,0-4,.92-7.9,1.43-11.85Z"/><path class="cls-51" d="M205.09,659.8l5.4-1q1.88,2.85,3.74,5.7l7,4,19.06,13.67c.44.85.88,1.71,1.31,2.57l-10.85-5.42L206.35,663Z"/><path class="cls-37" d="M324.29,741.6l8.09,6.88L286.26,720l29.89,16.2Q320.22,738.91,324.29,741.6Z"/><path class="cls-52" d="M653.63,753.84q-29.57,7-59.13,14c-1.94.45-4,.59-5.93.88,0-.46,0-.91,0-1.36,39.77-10.39,79.57-20.65,119.28-31.26,9.17-2.45,18-6.09,27-9.19l59.69-14.84c-9,3.45-17.89,7.59-27.17,10.23C729.53,733.08,691.56,743.38,653.63,753.84Z"/><path class="cls-53" d="M794.55,712.1l-59.69,14.84-14.65,2.59-1.51-1.38L793.28,709l1.08.21C794.43,710.19,794.49,711.15,794.55,712.1Z"/><path class="cls-54" d="M588.56,767.39c0,.45,0,.9,0,1.36q-66.74,14.91-133.47,29.71c-1.86.41-4.05-.65-6.08-1l61.05-14.9c7.8-1.1,15.67-1.82,23.37-3.38C551.86,775.45,570.19,771.34,588.56,767.39Z"/><path class="cls-55" d="M570.94,176.53c8.23,4.8,16.44,9.63,24.7,14.39,2,1.18,4.23,2.12,6.35,3.17a8.35,8.35,0,0,0,1.7,2c30.75,19.06,61.46,38.17,92.32,57.06,16.91,10.35,34.07,20.31,51.11,30.44l5.45,5.15c6.2,4.76,12.58,9.31,18.54,14.36,3.59,3,11,5.29,4.24,12.31-.51.53,1,3,1.63,4.62l-19,6.62-4,.22-6.81-5.3,8.15-2.81c5-1.18,10.13-2.06,14.94-3.79,1-.35,1.85-4.48,1-5.76a24.06,24.06,0,0,0-7.11-7c-43.09-27.77-86.17-55.56-129.46-83-21-13.32-42.46-26-63.72-38.9C571,179.08,571,177.8,570.94,176.53Z"/><path class="cls-56" d="M747.12,283.63c-17-10.13-34.2-20.09-51.11-30.44-30.86-18.89-61.57-38-92.32-57.06a8.35,8.35,0,0,1-1.7-2l6.9,1.32c37.88,23.26,75.85,46.38,113.57,69.9C731.12,270.71,738.93,277.49,747.12,283.63Z"/><path class="cls-57" d="M758,326.68l19-6.61,13.53,1.39c.45.91.9,1.81,1.36,2.72q.63,2.73,1.28,5.48c-4.67-2.25-9.28-6.16-14-6.34C772.11,323.05,765,325.43,758,326.68Z"/><path class="cls-58" d="M793.15,329.66q-.64-2.75-1.28-5.48l5.32-2.74q.18,14.25.34,28.5l0,63.75-.42,24.25c-.38-4.63-.9-9.26-1.11-13.9-.51-11.14-.89-22.29-1.31-33.44Z"/><path class="cls-59" d="M797.5,413.69l0-63.75c1.68,6.19,4.61,12.34,4.81,18.57.67,20.36.3,40.76.44,61.14,0,1.44.84,2.87,1.29,4.31,0,55.06.27,110.13-.14,165.19-.19,26.31-1.59,52.6-2.74,78.89-.1,2.26-2.39,4.43-3.66,6.63l0-67.76c.83-1.12,2.31-2.21,2.38-3.39.63-10.16,1.39-20.34,1.41-30.51q.18-81.54-.12-163.07C801.16,417.85,798.78,415.77,797.5,413.69Z"/><path class="cls-60" d="M793.28,709,718.7,728.15,572.22,764.54c0-.86,0-1.72.08-2.57l12.17-4.14c1.8,0,3.7.42,5.39,0q55.62-14.09,111.2-28.35l36.6-9.48q21.89-4.74,43.76-9.51a27.12,27.12,0,0,0,3.71-1.36c-1.4-.47-2.81-.9-4.19-1.42-6.2-2.31-12.72-4-18.49-7.15-6.05-3.28-11.47-7.78-17-12-8.58-6.57-17-13.34-25.51-20,1.75,1,3.52,1.9,5.24,2.91q13.66,8,27.3,16.11C758,692,763,697.44,769.2,700.7c5.16,2.73,11.65,2.95,17.55,4.27l6.32,2.86C793.14,708.23,793.22,708.63,793.28,709Z"/><path class="cls-61" d="M793.07,707.83,786.75,705c-.14-.41-.25-.84-.35-1.27a8.71,8.71,0,0,0,.15-1.25l-.09-11c-2.47-2.56-4.49-6-7.48-7.51-10-5.09-20.29-9.5-30.48-14.17v-1.37c4.63,1.65,9.35,3.09,13.86,5,6.84,2.92,13.44,6.17,18.63-2.7.52-.89,3-.49,4.43-1s3.51-1.46,3.57-2.34c.7-10,1.06-20.06,1.5-30.09l.12-16.32c.71.45,2.07.93,2.06,1.37-.48,17.82-1.43,35.64-1.48,53.46,0,6.14,2.16,12.29,3.34,18.43q1.28,3.22,2.56,6.45Q795.08,704.24,793.07,707.83Z"/><path class="cls-62" d="M797.1,700.66q-1.29-3.23-2.56-6.45l.12-55.6a78.55,78.55,0,0,0,1.23-8.43c.49-12.51.81-25,1.19-37.55l.42,24.28,0,67.76Q797.32,692.67,797.1,700.66Z"/><path class="cls-63" d="M459.81,191.34l16.3,4.18-16.49,5.26c-5.38,1.12-10.79,2.08-16.12,3.37-19.53,4.7-39.06,9.37-58.53,14.3-24.8,6.27-49.54,12.78-74.31,19.18L266,248c-2.11-.78-4.18-1.7-6.33-2.28a36.92,36.92,0,0,0-5.17-.68c1.22-1.59,2.19-4.23,3.71-4.61,25.33-6.18,50.78-11.9,76.1-18.12,21.51-5.28,42.83-11.35,64.36-16.56,17.8-4.3,35.78-7.81,53.66-11.79A61,61,0,0,0,459.81,191.34Z"/><path class="cls-64" d="M266,248l44.65-10.4c-9.23,2.64-18.51,5.15-27.69,8-9.77,3-19.45,6.29-29.18,9.45-6.86,1.89-13.75,3.69-20.57,5.72a62.48,62.48,0,0,0-7,3l7.3,6.11,1.22.13c1,2.69,1.09,6.63,3,7.88,14.22,9.37,28.8,18.2,43.27,27.21l130.13,80.21c-.39,1.25-.78,2.5-1.16,3.74l-1.47.27c-1.42-1.57-2.57-3.58-4.3-4.65q-54.76-33.78-109.63-67.36c-12-7.56-23.93-15.29-36.09-22.6-8.09-4.87-16.54-9.14-24.83-13.68l-12.32-9.45q-.75-6.12-1.51-12.25Z"/><path class="cls-65" d="M459.62,200.78l16.49-5.26,47.37-11.23L560,175.22l-1.29,3.9L493.69,195.4Z"/><path class="cls-66" d="M570.94,176.53c0,1.27,0,2.55.07,3.82l-1.51,1.53-6.66,10.8-1.17,2.77-3-2.72c-.3-1.62-1.42-3.73-.78-4.78,2.72-4.49,6-8.67,9-13Z"/><path class="cls-67" d="M566.89,175c-3,4.29-6.27,8.47-9,13-.64,1.05.48,3.16.78,4.78-4-.3-11.14,1.68-4.63-6.36,0,0-1.34-1.17-2.06-1.79l6.75-5.46,1.29-3.9Z"/><path class="cls-22" d="M572.3,762c0,.85,0,1.71-.08,2.57q-46.8,11.16-93.59,22.3c-1.73.41-3.52.52-5.28.77-7.88,1.69-15.73,4.28-23.68,4.66-3.68.18-8.91-3.08-11-6.35s-1.74-8.66-1.81-13.12q-.9-56-1.5-112c-.18-18.2,0-36.41.07-54.61l5.43,2.52c-.91,9.34-2.71,18.7-2.58,28,.54,39.17,1.3,78.35,2.81,117.5.38,9.73,2.31,20.28,16.05,21.23,11.46.79,21.77,8.8,34.27,4.36,8.24-2.92,17.24-3.63,25.81-5.69,14.34-3.43,28.61-7.15,42.91-10.76Z"/><path class="cls-68" d="M435.43,606.15c0,18.2-.25,36.41-.07,54.61q.56,56,1.5,112c.07,4.46-.35,9.73,1.81,13.12s7.32,6.53,11,6.35c7.95-.38,15.8-3,23.68-4.66-9,2.29-18,4.81-27.11,6.82-9.54,2.1-12.2-3.48-12.18-11.69,0-13.62,0-27.24-1.36-40.85,0,10.3-.3,20.61.08,30.89.36,9.81.37,18.64-13.69,15L412.37,781c3,1.26,5.85,3.06,8.94,3.57,1.86.31,4.06-1.4,6.1-2.2q1-6.63,1.93-13.24h.8v13h1.18V747q0-67.71,0-135.43,0-4.15.08-8.31l4,1.46Z"/><path class="cls-69" d="M588.56,767.39c-18.37,4-36.7,8.06-55.12,11.77-7.7,1.56-15.57,2.28-23.37,3.38,25.28-6.41,50.54-12.94,75.86-19.22q66.68-16.53,133.4-32.84c.35-.09.59-.63.88-1l14.65-2.59c-9,3.1-17.85,6.74-27,9.19C668.13,746.74,628.33,757,588.56,767.39Z"/><path class="cls-70" d="M241.58,684.72c-.43-.86-.87-1.72-1.31-2.58,1.47.45,3.13.61,4.39,1.4,26.78,16.57,53.47,33.29,80.29,49.81,17.27,10.65,34.72,21,52.09,31.5l1.68,2.5c-15.88-8.79-32.09-17-47.57-26.48C301.08,722.51,271.42,703.47,241.58,684.72Z"/><path class="cls-71" d="M377,764.85C359.67,754.36,342.22,744,325,733.35c-26.82-16.52-53.51-33.24-80.29-49.81-1.26-.79-2.92-.95-4.39-1.4l-19.06-13.66L244.6,678c-7.77-5.55-13.34-9.24-18.49-13.45-1.07-.88-.56-3.69-.78-5.6l1.4,0c2.11,2.78,3.66,6.41,6.4,8.22,29.48,19.36,59,38.72,88.83,57.49,15.75,9.89,32.23,18.62,48.38,27.88l9.46,5.42,47.34,24.28.27.09c-2,.81-4.24,2.52-6.1,2.21-3.09-.51-6-2.31-8.94-3.57-11.44-6.84-22.88-13.69-34.37-20.44a3.64,3.64,0,0,0-1.44,1.77A7.14,7.14,0,0,0,377,764.85Z"/><path class="cls-72" d="M205,282.13l-1.17,0c0-1.82,0-3.64,0-5.45,2.84-2.81,5.49-5.85,8.65-8.25.81-.61,3.19.82,4.84,1.32q-4.12,5.58-8.26,11.15a7.35,7.35,0,0,0-1.32-.18Z"/><path class="cls-73" d="M221.32,271.59,233.64,281l2.54,3.79c2.62,2,5.33,3.95,7.79,6.15,1.05.94,1.59,2.46,2.36,3.71-1.37-.13-2.9.1-4.09-.44-22.31-10-22.3-10.05-22.34,15-1.16-2.64-2.37-5.25-3.44-7.92a15.7,15.7,0,0,1-.6-2.93c-.45,1-1.29,2-1.3,3-.1,10.77-.06,21.54-.06,32.31,0,3.16,0,6.31,0,9.47h-1.34q0-21.69,0-43.38c.22-5.36.36-10.73.75-16.09,0-.68,1.24-1.43,2.05-1.89,1.72-1,4.81-1.53,5-2.71.5-2.52-.46-5.33-.83-8A3.4,3.4,0,0,1,221.32,271.59Z"/><path class="cls-74" d="M220.14,271.06c.37,2.69,1.33,5.5.83,8-.23,1.18-3.32,1.73-5,2.71-.81.46-2,1.21-2.05,1.89-.39,5.36-.53,10.73-.75,16.09-.45,2.58-1.27,5.15-1.28,7.73-.09,28.54-.06,57.08-2.81,85.6V280.88q4.14-5.56,8.26-11.15Z"/><path class="cls-75" d="M268.6,637.2c-13,2.63-25.89,5.28-38.85,7.85-5.05,1-10.36,2.23-9.93-6a2.56,2.56,0,0,0-.5-1.89c-4.8-4.1-4.75-4.08-4.84-12.65Q213.16,505,211.86,385.41c0-2.81.82-5.62,1.25-8.43q0,10.89,0,21.78,0,55.08.05,110.16c0,2.58.82,5.15,1.26,7.73l0,23q0,17.61,0,35.23c0,5.37-.07,10.74,0,16.11a52.48,52.48,0,0,0,.7,5.82c.85-1.23,1.63-2.52,2.59-3.66.33-.39,1.11-.4,1.68-.58.13,1.1.32,2.2.38,3.3.47,8.82.91,17.65,1.37,26.47,0,2.93.38,5.93-.06,8.8-1.58,10.27,4.34,11.65,12,9.89q79.85-18.25,159.59-36.93c9-2.13,17.58-5.93,26.35-9l4,1.67a3,3,0,0,0,.24,1.19c-16.49,4.51-32.92,9.23-49.48,13.48-28.73,7.36-57.55,14.43-86.33,21.62Z"/><path class="cls-74" d="M205,282.13l2.73-1.43q0,166.77,0,333.53c-.45-2.8-1.28-5.6-1.29-8.41Q205.63,444,205,282.13Z"/><path class="cls-76" d="M268.6,637.2l19-4.07L285,637.26c-11.33,3.16-22.71,6.15-34,9.55-9.5,2.87-18.85,6.21-28.26,9.35-3.22,2.39-1.06,10.25-8.5,8.37q-1.86-2.85-3.74-5.7l1.3-2.56c3.46-8.65,11.06-8.46,18.68-9.8C243.33,644.19,255.91,640.37,268.6,637.2Z"/><path class="cls-77" d="M213.16,398.76q0-10.89,0-21.78l0-33.83h1.34q0,20.34,0,40.68,0,7.44,0,14.88Z"/><path class="cls-15" d="M214.23,664.53c7.44,1.88,5.28-6,8.5-8.37l2.6,2.8c.22,1.91-.29,4.72.78,5.6,5.15,4.21,10.72,7.9,18.49,13.45l-23.39-9.53Z"/><path class="cls-78" d="M794.66,638.61l-.12,55.6c-1.18-6.14-3.36-12.29-3.34-18.43,0-17.82,1-35.64,1.48-53.46,0-.44-1.35-.92-2.07-1.37.38-3.15.77-6.3,1.15-9.45q-.59-4-1.15-8.08c.87-2.47,2.49-4.95,2.49-7.43q.23-89.68.06-179.38c0-2.35-.83-4.7-1.28-7.05,0-1.81,0-3.61,0-5.42,0-3.86.15-7.72.13-11.58-.07-19.36.06-38.73-.52-58.08-.07-2.58-4-7.4-5.71-7.19-17.45,2.1-34.8,5-52.18,7.72l-29.85,6.76c-2.18.37-4.37.67-6.54,1.12q-23.15,4.85-46.29,9.74a16.39,16.39,0,0,1,3-1.37q26.29-6.81,52.63-13.52L754,326.91l4-.22c7.06-1.26,14.16-3.64,21.16-3.37,4.76.18,9.37,4.09,14,6.34q.75,30.46,1.51,60.94Z"/><path class="cls-79" d="M569.5,181.88l1.51-1.53c21.26,12.94,42.71,25.58,63.72,38.9,43.29,27.45,86.37,55.24,129.46,83a24.06,24.06,0,0,1,7.11,7c.81,1.28,0,5.41-1,5.76-4.81,1.73-9.93,2.61-14.94,3.79,3-1.1,6.18-1.91,8.91-3.49.82-.47.42-3.08.58-4.71,0-1.05.51-2.75.05-3.06-9.92-6.74-19.93-13.32-29.93-19.93l-6.66-4.18c-13.22-9.25-26-19.23-39.75-27.6-34.75-21.14-69.88-41.66-105-62.16-8.08-4.71-13.56-1.31-14,7.62a28.18,28.18,0,0,1-1.18,5.11c0-2.33-.07-4.66-.11-7Z"/><path class="cls-57" d="M754,326.91l-47.49,10.83-6-2.79,3.33-2.65,23-6.75,20.36-3.94Z"/><path class="cls-80" d="M747.17,321.61l-20.36,3.94c3.67-1.39,7.58-2.34,10.94-4.26,3.85-2.2,7.2-5.26,10.76-8l1.34,0,12.17-5.4,2.79,2.68c-.16,1.63.24,4.24-.58,4.71-2.73,1.58-5.91,2.39-8.91,3.49Z"/><path class="cls-81" d="M797.5,616.91l-.42-24.28V437.94l.42-24.25c1.28,2.08,3.66,4.16,3.67,6.25q.32,81.54.12,163.07c0,10.17-.78,20.35-1.41,30.51C799.81,614.7,798.33,615.79,797.5,616.91Z"/><path class="cls-82" d="M797.08,437.94V592.63c-.38,12.52-.7,25-1.19,37.55a78.55,78.55,0,0,1-1.23,8.43v-248c.42,11.15.8,22.3,1.31,33.44C796.18,428.68,796.7,433.31,797.08,437.94Z"/><path class="cls-83" d="M572.3,762l-12.17,1.38c-9.91,1.78-20.11,6-29.66,4.86-26.37-3.2-52.53-8.33-78.59-13.59-3.31-.67-7.39-6.38-7.95-10.21-1.82-12.56-2.17-25.33-3.09-38l2.7,4.08V720c2.17,7.26,2.3,19,6.84,21,25,11.46,52.07,16.26,79.6,16.76,18.16.33,36.34-.76,54.52-1.21l0,1.28Z"/><path class="cls-84" d="M584.47,757.83l0-1.28L636,744.33l33.88-9.48,8.6-1.28C701.57,730.22,714,713.37,726,696c7.53-11,6.57-13.73-5.92-19.39l-8.13-6.78c2.64,1.06,5.59,1.68,7.86,3.27,7.89,5.51,15.55,11.35,23.3,17.07-.62,3-.4,6.59-2,8.92-8.62,12.46-16,26.59-34,27.78-2.06.14-4,1.71-6,2.62q-55.59,14.21-111.2,28.35C588.17,758.25,586.27,757.85,584.47,757.83Z"/><path class="cls-85" d="M743.06,690.15c-7.75-5.72-15.41-11.56-23.3-17.07-2.27-1.59-5.22-2.21-7.86-3.27l-2.72-1.33-10.84-6.76-4-2.82c-8-5.87-15.55-12.33-23.93-17.5-27.64-17-55.57-33.58-83.38-50.32l2.8-2.66q40.59,24.8,81.2,49.58c13.11,8,26.27,15.87,39.41,23.81l9.48,6.72c8.5,6.69,16.93,13.46,25.51,20,5.51,4.21,10.93,8.71,17,12,5.77,3.12,12.29,4.84,18.49,7.15,1.38.52,2.79.95,4.19,1.42a27.12,27.12,0,0,1-3.71,1.36q-21.87,4.8-43.76,9.51c.89-.66,1.71-1.79,2.66-1.91,10.14-1.3,11.77-10.43,14-17.4C755,698.58,747.05,693.74,743.06,690.15Z"/><path class="cls-86" d="M743.06,690.15c4,3.59,11.92,8.43,11.25,10.53-2.22,7-3.85,16.1-14,17.4-1,.12-1.77,1.25-2.66,1.91l-36.6,9.48c2-.91,4-2.48,6-2.62,18-1.19,25.37-15.32,34-27.78C742.66,696.74,742.44,693.16,743.06,690.15Z"/><path class="cls-57" d="M720,668.53l-9.48-6.73c-5.57-4-11.2-7.87-16.68-11.95-4.89-3.64-9.62-7.48-14.41-11.24l14.86,8.2a44.47,44.47,0,0,0,4.08,3.32q23,14.6,46.09,29.09l8.08,8.33q-13.65-8.06-27.3-16.11C723.48,670.43,721.71,669.5,720,668.53Z"/><path class="cls-87" d="M752.5,687.55l-8.08-8.33,10.84,5.53,31.14,19c.1.43.21.86.35,1.27-5.9-1.32-12.39-1.54-17.55-4.27C763,697.44,758,692,752.5,687.55Z"/><path class="cls-88" d="M790.5,637.27c-.44,10-.8,20.07-1.5,30.09-.06.88-2.23,1.82-3.57,2.34s-3.91.16-4.43,1c-5.19,8.87-11.79,5.62-18.63,2.7-4.51-1.93-9.23-3.37-13.86-5q-10-5.5-19.92-11l-58.7-32.35-70.52-44.74,2.69-2.72c18.35,11.79,36.58,23.77,55.1,35.28,10.78,6.7,22,12.63,33.09,18.9l8.09,4.06,10.83,4.2,2.78,2.65c.88.92,1.76,1.84,2.63,2.77,1.84,1.79,3.39,4.17,5.58,5.28,9.34,4.75,18.87,9.13,28.34,13.64,11.29,7.83,14.93,7.36,22.53-3.25,3.12-4.36,5.69-9.12,9-13.33,1.22-1.55,3.84-2,5.75-3.06,1.18-.66,2.64-1.34,3.26-2.42C789.87,640.84,790,639,790.5,637.27Z"/><path class="cls-89" d="M755.26,684.75l-10.84-5.53q-23.05-14.54-46.09-29.09a44.47,44.47,0,0,1-4.08-3.32c2,.27,4.16.07,5.88.88,11.66,5.45,23.21,11.12,34.8,16.71l51.53,27.08.09,11C786.09,692.56,764.37,680.28,755.26,684.75Z"/><path class="cls-90" d="M790.5,637.27c-.46,1.7-.63,3.57-1.48,5.05-.62,1.08-2.08,1.76-3.26,2.42-1.91,1.07-4.53,1.51-5.75,3.06-3.29,4.21-5.86,9-9,13.33-7.6,10.61-11.24,11.08-22.53,3.25,3.89-1.06,9.6-.85,11.38-3.39,10.91-15.63,26.78-28.32,30.12-48.64.06-.37,1.15-.57,1.76-.85-.38,3.15-.77,6.3-1.15,9.45Q790.57,629.11,790.5,637.27Z"/><path class="cls-57" d="M755.26,684.75c9.11-4.47,30.83,7.81,31.29,17.69a8.68,8.68,0,0,1-.15,1.26Z"/><path class="cls-91" d="M669.89,625.06l58.7,32.35q10,5.49,19.92,11c0,.46,0,.91,0,1.37L734.94,663c-6.14-3.3-12.41-6.38-18.41-9.93C700.92,643.86,685.43,634.42,669.89,625.06Z"/><path class="cls-92" d="M734.94,663l13.56,6.77C758.69,674.47,769,678.88,779,684c3,1.53,5,4.95,7.48,7.51L734.93,664.4C734.94,663.94,734.94,663.49,734.94,663Z"/><path class="cls-93" d="M459.62,200.78l34.07-5.38-23,6.78c-21,5-42,9.71-62.88,14.94-41,10.24-81.87,20.75-122.8,31.14L253.79,255c9.73-3.16,19.41-6.45,29.18-9.45,9.18-2.81,18.46-5.32,27.69-8,24.77-6.4,49.51-12.91,74.31-19.18,19.47-4.93,39-9.6,58.53-14.3C448.83,202.86,454.24,201.9,459.62,200.78Z"/><path class="cls-94" d="M411.12,385.32,281,305.11c-1.14-1.76-1.9-4-3.46-5.19-7.34-5.63-14.89-11-22.37-16.43l28.4,16.43,25.75,16.28L331,329.69c2.21,1.53,4.36,3.17,6.64,4.59q38.7,24.09,77.45,48.14l-2.74,3A2,2,0,0,0,411.12,385.32Z"/><path class="cls-95" d="M411.12,385.32a2,2,0,0,1,1.25.07l20.4,9.19,5.13,1.75.18,2.63,8.3,4-2.86,2.41L436.81,415l-1.44,4c-.44,1.45-1.25,2.9-1.25,4.35q-.11,44.46,0,88.93c0,1.45.82,2.9,1.25,4.34l0,2.71v27.11h-1.34V522.3c-1.38,19.71-1.29,39.43-1.44,59.14-.05,6.43-.76,12.86-1.17,19.28q-.07-37.32-.14-74.65c0-37.65-.11-75.3.19-113,0-5.45-1.61-7.77-6.78-8l-1.38-2.36L410,389.06C410.34,387.82,410.73,386.57,411.12,385.32Z"/><path class="cls-96" d="M234.73,270l-1.22-.13c2.54-2.65,4.62-6.76,7.68-7.71,13.54-4.22,27.36-7.54,41.08-11.18q11.66-2.79,23.31-5.56L362.22,232l-14.91,5.44c-25.41,8.27-53.31,9.18-75.9,25.75-8.75,2.3-17.55,4.43-26.19,7.09-1.17.35-1.52,3.33-2.25,5.1Z"/><path class="cls-97" d="M294.56,317.32Q349.39,351,404.19,384.68c1.73,1.07,2.88,3.08,4.3,4.65l-.29-.21c-2.65-1.14-5.48-2-7.92-3.48-11.23-6.83-22.37-13.83-33.52-20.8q-36.83-23.05-73.63-46.13Z"/><path class="cls-98" d="M410,389.06l13.39,13.73-4.19,10.82c-1.72-12-12-12.26-20.47-14.95l1.59-2.61,7.92-6.93.29.21Z"/><path class="cls-99" d="M294.56,317.32l-1.43,1.39-2.76.07c-8.48-5.51-16.89-11.14-25.46-16.5-9.5-5.94-19.14-11.64-28.73-17.45L233.64,281c8.29,4.54,16.74,8.81,24.83,13.68C270.63,302,282.54,309.76,294.56,317.32Z"/><path class="cls-100" d="M282.27,251c-13.72,3.64-27.54,7-41.08,11.18-3.06.95-5.14,5.06-7.68,7.71l-7.3-6.11a62.48,62.48,0,0,1,7-3c6.82-2,13.71-3.83,20.57-5.72L285,248.26Z"/><path class="cls-101" d="M234.73,270l8.24,5.34,12.19,8.13c7.48,5.45,15,10.8,22.37,16.43,1.56,1.2,2.32,3.43,3.46,5.19-14.47-9-29.05-17.84-43.27-27.21C235.82,276.65,235.68,272.71,234.73,270Z"/><path class="cls-102" d="M470.65,202.18l23-6.78,65.05-16.28L552,184.58h0L510,195.4h0Z"/><path class="cls-103" d="M561.67,195.45l1.17-2.77c.45,13.6.79,27.21,1.46,40.79.11,2.26,1.67,4.44,2.57,6.65q0,55.11.08,110.22c0,2.57.85,5.14,1.3,7.71h0q.69,6.1,1.36,12.2l-5.54-2.73-1.42-.18c0-.43-.09-.86-.16-1.29q.16-63,.32-125.91Z"/><path class="cls-104" d="M561.67,195.45l1.14,44.68h-1.36c-.44-4.46-1.08-8.91-1.29-13.38-.42-8.76-.54-17.53-.91-26.3-.26-6.28-4.07-7.16-9.33-6-7.88,1.77-15.8,3.34-23.7,5l-43.38,5.42-39.3,6.78a15.23,15.23,0,0,1,2.93-1.37q31.72-7.49,63.48-14.9h0c8.83-1.39,17.77-2.3,26.44-4.35,5.4-1.27,10.41-4.26,15.59-6.47h0c.72.62,2.08,1.77,2.06,1.79-6.51,8,.64,6.06,4.63,6.36Z"/><path class="cls-105" d="M566.87,240.12c-.9-2.21-2.46-4.39-2.57-6.65-.67-13.58-1-27.19-1.46-40.79l6.66-10.8-1.29,17.53Q567.54,219.77,566.87,240.12Z"/><path class="cls-106" d="M440.84,706.4c.92,12.68,1.27,25.45,3.09,38,.56,3.83,4.64,9.54,7.95,10.21,26.06,5.26,52.22,10.39,78.59,13.59,9.55,1.16,19.75-3.08,29.66-4.86-14.3,3.61-28.57,7.33-42.91,10.76-8.57,2.06-17.57,2.77-25.81,5.69-12.5,4.44-22.81-3.57-34.27-4.36-13.74-1-15.67-11.5-16.05-21.23-1.51-39.15-2.27-78.33-2.81-117.5-.13-9.34,1.67-18.7,2.58-28l2.66.33q-1.33,14.82-2.68,29.63Z"/><path class="cls-107" d="M443.52,609l-2.66-.33-5.43-2.52c0-.47,0-.94,0-1.41l-1.35-58.29h1.34q.68,21,1.36,42,0,6.1,0,12.21c2.46,1.8,4.7,4.63,7.43,5.22,16.52,3.6,33.06,7.28,49.77,9.74,10.64,1.56,21.58,1.3,32.39,1.39,4.88,0,9.78-1.08,14.67-1.67l-37.88,7.24-13.56-1.36-10.88-1.35-13.51-2.71-17.49-5.75Z"/><path class="cls-108" d="M285,637.26l2.62-4.13c28.78-7.19,57.6-14.26,86.33-21.62,16.56-4.25,33-9,49.48-13.48l7.78,4.11c.08.38.15.76.22,1.14q0,4.15-.08,8.31l-4.06-5.45-88.16,20.2L314.86,632Z"/><path class="cls-109" d="M427.24,606.14l4.07,5.45q0,67.71,0,135.43-1-16.12-2-32.26a44.94,44.94,0,0,0-.65,8.57q-.58,18-1.24,36l-.24-6.89.06-42v-61q0-18.26,0-36.5Z"/><path class="cls-110" d="M427.4,759.33q.63-18,1.24-36a44.94,44.94,0,0,1,.65-8.57q1,16.14,2,32.26v35h-1.18v-13h-.8q-1,6.61-1.93,13.24l-.27-.09Q427.28,770.77,427.4,759.33Z"/><path class="cls-111" d="M431.39,603.28c-.07-.38-.14-.76-.22-1.14.1-.48.19-.95.29-1.42.41-6.42,1.12-12.85,1.17-19.28.15-19.71.06-39.43,1.44-59.14v24.15l1.35,58.29Z"/><path class="cls-96" d="M370.34,752.52c-16.15-9.26-32.63-18-48.38-27.88-29.86-18.77-59.35-38.13-88.83-57.49-2.74-1.81-4.29-5.44-6.4-8.22l14.88-6.72-1.53,3.44,3.67.16,7.32.43L241.61,659l-7.46,2.4c.58,1.13.87,2.69,1.79,3.32,17.19,11.72,34.46,23.32,51.71,34.95Q326.29,723.34,365,747l4,2.78Z"/><path class="cls-96" d="M427.4,759.33q-.13,11.45-.26,22.9L379.8,757.94c8.65,4.08,17.35,8,25.94,12.27,13.48,6.61,13.45,6.68,13.39-8.25,0-3.59,0-7.19.05-10.78l8,1.26Z"/><path class="cls-112" d="M241.61,652.21l-14.88,6.72-1.4,0-2.6-2.8c9.41-3.14,18.76-6.48,28.26-9.35,11.26-3.4,22.64-6.39,34-9.55l29.9-5.3c-.8.75-1.48,2-2.41,2.2Q277.05,643.28,241.61,652.21Z"/><path class="cls-113" d="M419.13,762c.06,14.93.09,14.86-13.39,8.25-8.59-4.22-17.29-8.19-25.94-12.27l-9.46-5.42L369,749.78c4.17,2.05,8.36,4,12.49,6.14C393.39,762,405.13,769,419.13,762Z"/><path class="cls-114" d="M236.18,284.83c9.59,5.81,19.23,11.51,28.73,17.45,8.57,5.36,17,11,25.46,16.5-.74.84-1.66,2.49-2.2,2.37a60.52,60.52,0,0,1-7.26-2.41C262.58,309.4,244.28,300,225.81,291c-.62-.3-4,2.78-4.34,4.6-1,5.39-1.1,10.95-1.55,16.44l0-2.76c0-25,0-25,22.34-15,1.19.54,2.72.31,4.09.44-.77-1.25-1.31-2.77-2.36-3.71C241.51,288.78,238.8,286.87,236.18,284.83Z"/><path class="cls-115" d="M214.5,383.82q0-20.34,0-40.68c0-3.16,0-6.31,0-9.47l5.4,8.1c0,1.82,0,3.64,0,5.46l0,36.55Z"/><path class="cls-77" d="M219.9,341.77l-5.4-8.1c0-10.77,0-21.54.06-32.31,0-1,.85-2,1.3-3a15.7,15.7,0,0,0,.6,2.93c1.07,2.67,2.28,5.28,3.44,7.92,0,.92,0,1.84,0,2.76Q219.91,326.89,219.9,341.77Z"/><path class="cls-116" d="M214.5,383.82l5.39,0,0,9.54L221.27,560c.14,8.28-2.71,18.37,1,24.51,11,18.19,16.94,41.35,41,48.67l-9.49,1.37c-7.62,1-12-2.15-15.59-9.2-4.68-9.17-11.21-17.4-16.94-26q-.69-13.55-1.37-27.1c0-8.08.47-16.2-.25-24.21-.26-2.91-3.35-5.56-5.15-8.33l0-23q0-59,0-117.95Q214.48,391.26,214.5,383.82Z"/><path class="cls-117" d="M253.8,634.56l9.49-1.37,27.1-6.75,13.55-2.72,51.51-12.2,62.44-17.66,1.29,1.31c-8.77,3-17.36,6.83-26.35,9Q313.12,623,233.24,641.06c-7.7,1.76-13.62.38-12-9.89.44-2.87.06-5.87.06-8.8q0-5.43,0-10.85c3.55,5.32,8.27,10.22,10.43,16.07C236.36,640.2,244.87,637.29,253.8,634.56Z"/><path class="cls-118" d="M419.18,595.17l-1.29-1.31q-4.08-3.43-8.18-6.85L397.53,574.8l-5.72-8-5.43-8.17-6.76-12.17-5.13-11c-.53-2.65-1.06-5.29-1.6-7.94a44.31,44.31,0,0,1,2.89,3.42c9.68,14.14,19,28.55,29.18,42.3,3,4,8.48,6.16,12.82,9.16l1.38-14.25,4,16.26c0,2.25.05,4.5.08,6.75l-.11,5.67Z"/><path class="cls-119" d="M423.15,596.84c0-1.89.07-3.78.11-5.67,1.11,2.25,2.23,4.49,3.94,7.94V583l0-55.52c0-.88.05-1.76.07-2.63l2-10.52c.64,3.82,1.32,7.81,2,11.79q.06,37.33.14,74.65c-.1.47-.19.94-.29,1.42L423.39,598A3,3,0,0,1,423.15,596.84Z"/><path class="cls-115" d="M214.5,539.68c1.8,2.77,4.89,5.42,5.15,8.33.72,8,.25,16.13.25,24.21l-5.39,2.69Q214.51,557.29,214.5,539.68Z"/><path class="cls-120" d="M214.51,574.91l5.39-2.69q.69,13.54,1.37,27.1,0,6.1,0,12.2,0,5.41,0,10.85c-.46-8.82-.9-17.65-1.37-26.47-.06-1.1-.25-2.2-.38-3.3-.57.18-1.35.19-1.68.58-1,1.14-1.74,2.43-2.59,3.66a52.48,52.48,0,0,1-.7-5.82C214.44,585.65,214.51,580.28,214.51,574.91Z"/><path class="cls-115" d="M214.48,398.7q0,59,0,118c-.44-2.58-1.26-5.15-1.26-7.73q-.12-55.08-.05-110.16Z"/><path class="cls-121" d="M791.76,611.5c-.61.28-1.7.48-1.76.85-3.34,20.32-19.21,33-30.12,48.64-1.78,2.54-7.49,2.33-11.38,3.39-9.47-4.51-19-8.89-28.34-13.64-2.19-1.11-3.74-3.49-5.58-5.29l2.74,0,5.41,2.71,1.36,1.35c13.4,9.24,16.88,9.77,26.83-2.07,22.15-26.37,41.8-54.17,38.27-91.47-.17-1.79,0-3.61,0-5.42l1.34-1.36q0,7.47,0,15l.06,39.31Z"/><path class="cls-122" d="M569.62,370.24q-.69-6.11-1.37-12.2c1.75,2.17,3.56,6.18,5.22,6.13,4.17-.15,8.27-2.14,12.4-3.39l25.8-6.75,27.08-6.74c3.73-.59,7.51-.94,11.17-1.82,18-4.31,35.9-8.76,53.85-13.17L700.44,335l6,2.79q-26.32,6.75-52.63,13.52a16.39,16.39,0,0,0-3,1.37L573.39,373Z"/><path class="cls-90" d="M790.55,564.11q0-7.47,0-15V471.92q0-30.23,0-60.44c0-8.05-2.2-12.53-7.08-15.39a6.71,6.71,0,0,1-2.17-2.53c-9.16-16.43-18-33.05-27.64-49.18-1.9-3.18-6.92-4.49-10.49-6.67,8.45-1.94,16.39-3.53,21.73,6.51,5.12,9.63,11.38,18.67,17.25,27.9.73,1.15,2.12,1.87,3.21,2.8.39-1,.86-1.9,1.16-2.89.46-1.54.8-3.12,1.19-4.68l2.9,4.27,1.36,32.52c0,1.81,0,3.61,0,5.42q0,73.41-.07,146.82C791.81,559,791,561.54,790.55,564.11Z"/><path class="cls-123" d="M790.51,371.62l-2.9-4.27c-.39,1.56-.73,3.14-1.19,4.68-.3,1-.77,1.93-1.16,2.89-1.09-.93-2.48-1.65-3.21-2.8-5.87-9.23-12.13-18.27-17.25-27.9-5.34-10-13.28-8.45-21.73-6.51l-33.87,4.1-5.46,0L733.59,335c6.45-.72,13-1,19.33-2.25,16.17-3.14,19.61-1.71,27.13,12.51a10.36,10.36,0,0,0,1.65,2.92,21.55,21.55,0,0,0,3.7,2.27c.35-1.22.76-2.43,1-3.67.34-1.61.56-3.24.82-4.86,1.08,1.85,3,3.66,3.1,5.56C790.69,355.52,790.5,363.57,790.51,371.62Z"/><path class="cls-61" d="M790.51,371.62c0-8.05.18-16.1-.17-24.13-.09-1.9-2-3.71-3.1-5.56-.26,1.62-.48,3.25-.82,4.86-.26,1.24-.67,2.45-1,3.67a21.55,21.55,0,0,1-3.7-2.27,10.36,10.36,0,0,1-1.65-2.92c-7.52-14.22-11-15.65-27.13-12.51C746.57,334,740,334.29,733.59,335c17.38-2.69,34.73-5.62,52.18-7.72,1.68-.21,5.64,4.61,5.71,7.19.58,19.35.45,38.72.52,58.08,0,3.86-.08,7.72-.13,11.58Z"/><path class="cls-29" d="M703.74,341.77l5.46,0-6.78,2.69c-13.14,2.8-26.35,5.25-39.38,8.49-12.28,3.06-24.36,6.95-36.53,10.47l-2.73,1.34-43.46,12.27L574,374.29l-.58-1.33,77.52-20.33q23.15-4.87,46.29-9.74C699.37,342.44,701.56,342.14,703.74,341.77Z"/><path class="cls-61" d="M790.55,564.11c.44-2.57,1.26-5.15,1.26-7.73q.12-73.41.07-146.82c.45,2.35,1.27,4.7,1.28,7.05q.11,89.68-.06,179.38c0,2.48-1.62,5-2.49,7.43Z"/><path class="cls-124" d="M585.87,360.78c-4.13,1.25-8.23,3.24-12.4,3.39-1.66.05-3.47-4-5.22-6.13h0q0-75.82.07-151.65a28.18,28.18,0,0,0,1.18-5.11c.44-8.93,5.92-12.33,14-7.62,35.14,20.5,70.27,41,105,62.16,13.76,8.37,26.53,18.35,39.74,27.6l-2.8.08-97.59-61c-15.66-8.63-31.19-17.52-47.13-25.61-2.22-1.13-9.23,1.5-9.29,2.64-.72,13-.52,26.1-.56,39.17-.4.78-1.14,1.57-1.14,2.36-.07,34.94.31,69.88-.29,104.81C569.24,358.39,572.87,364.08,585.87,360.78Z"/><path class="cls-122" d="M568.32,206.4q0,75.82-.07,151.65c-.45-2.57-1.29-5.14-1.3-7.71q-.13-55.11-.08-110.22.66-20.35,1.34-40.71C568.25,201.74,568.28,204.07,568.32,206.4Z"/><path class="cls-125" d="M725.46,283.51l2.8-.08,6.67,4.18L762,307.92l-12.17,5.4c4.52-5,4.65-9-2-12.34-4.49-2.28-8.6-5.31-12.89-8l-2.74-2.68Z"/><path class="cls-126" d="M762,307.92l-27.09-20.31c10,6.61,20,13.19,29.93,19.93.46.31,0,2-.05,3.06Z"/><path class="cls-125" d="M703.77,332.3c-17.95,4.41-35.88,8.86-53.85,13.17-3.66.88-7.44,1.23-11.17,1.82,0-.46,0-.92,0-1.38L667.17,339c16.1-4.26,32.25-8.34,48.25-13,2.39-.69,4-3.9,6-5.94L736.3,316l12.21-2.69c-3.56,2.69-6.91,5.75-10.76,8-3.36,1.92-7.27,2.87-10.94,4.26Z"/><path class="cls-127" d="M748.51,313.34,736.3,316,735,293c4.29,2.69,8.4,5.72,12.89,8,6.66,3.37,6.53,7.38,2,12.34Z"/><path class="cls-128" d="M698.34,661.72l10.84,6.76c-.9,5.43-.83,11.26-2.89,16.21-8.71,20.92-25.77,33.85-44.66,44.81L636,744.33l-51.5,12.22c-18.18.45-36.36,1.54-54.52,1.21-27.53-.5-54.58-5.3-79.6-16.76-4.54-2.08-4.67-13.78-6.84-21l1.36,1.35c2.42,3.72,4,9.28,7.39,10.89C488,749,525.64,753.25,564.73,750c34.22-2.86,66.57-11.21,95.68-29.56C681.83,706.93,699.36,690.1,698.34,661.72Z"/><path class="cls-129" d="M444.9,721.31,443.54,720v-9.48c0-2.27,0-4.53,0-6.8.87,10.78,8.21,15.78,17,20.17,34.43,17.16,70.9,20,108.46,16.6,33.16-3,63.91-12.66,90.56-33.11,15.74-12.07,29.57-33.14,21.16-55.17l6.77,4.08c1,5.24,3.7,10.77,2.81,15.65-4.58,24.9-22.31,39.7-43.16,50.38-53.82,27.58-110.39,31.78-168.27,15.63C466.94,734.58,456.2,727,444.9,721.31Z"/><path class="cls-130" d="M443.55,703.68c0,2.27,0,4.53,0,6.8l-2.7-4.08V638.63c.9-3,1.93-5.92,2.67-8.93,1.5-6.07,2.83-12.17,4.24-18.26l17.49,5.75c-3.28,2.54-7,4.67-9.72,7.7-3.93,4.4-9.81,9.27-10.17,14.27C443.81,660.6,444,682.16,443.55,703.68Z"/><path class="cls-131" d="M636,744.33l25.63-14.83c18.89-11,36-23.89,44.66-44.81,2.06-5,2-10.78,2.89-16.21l2.72,1.33,8.13,6.78c-5.85,10.6-10.16,22.57-18,31.44-9.12,10.35-21.32,18-32.18,26.82Z"/><path class="cls-132" d="M669.88,734.85c10.86-8.82,23.06-16.47,32.18-26.82,7.81-8.87,12.12-20.84,18-31.44C732.52,682.25,733.48,685,726,696c-11.93,17.39-24.38,34.24-47.47,37.59Z"/><path class="cls-133" d="M589.87,588.42l-2.8,2.66-1.25,1.38-2.61.28c-8,.1-16.91-2-24,.67-29.37,11-61.31,6.19-80.49-13.8-12-12.51-17.67-13.07-31.61-3.81-1.32.87-4.15-.52-6.28-.87q-2-23.73-4-47.46c1.83,5.68,3.34,11.51,5.69,17,.85,2,4.58,4.76,5.54,4.28,5.54-2.76,10.62-6.43,15.89-9.73,4.86-3,7.45-2.34,9.93,3.66,6.23,15.05,11.71,30.77,27.43,39.52,23,12.81,45.44,11,67.86-1.43a11.79,11.79,0,0,1,7-1c6.06.85,12,2.22,18.07,3.39-.08.42-.16.83-.25,1.25Z"/><path class="cls-134" d="M444.9,721.31c11.3,5.65,22,13.27,34,16.6,57.88,16.15,114.45,12,168.27-15.63C668,711.6,685.74,696.8,690.32,671.9c.89-4.88-1.78-10.41-2.81-15.65l6.87,2.65,4,2.82c1,28.38-16.51,45.21-37.93,58.7C631.3,738.77,599,747.12,564.73,750,525.64,753.25,488,749,452.29,732.2,448.88,730.59,447.32,725,444.9,721.31Z"/><path class="cls-89" d="M589.87,588.42l4-4.07c10.88,7,21.72,14.12,32.66,21,17.56,11.13,35.2,22.15,52.81,33.21,4.79,3.76,9.52,7.6,14.41,11.24,5.48,4.08,11.11,8,16.68,11.95-13.14-7.93-26.3-15.82-39.41-23.8Q630.45,613.25,589.87,588.42Z"/><path class="cls-131" d="M694.38,658.9l-6.87-2.65-6.77-4.08q-16.95-10.83-33.89-21.67L625.13,617c-2.79-1.86-5.54-3.79-8.39-5.55q-15.43-9.51-30.92-18.94l1.25-1.38c27.81,16.74,55.74,33.3,83.38,50.32C678.83,646.57,686.42,653,694.38,658.9Z"/><path class="cls-135" d="M679.39,638.61c-17.61-11.06-35.25-22.08-52.81-33.21-10.94-6.93-21.78-14-32.66-21,.09-.42.17-.83.25-1.25q2.6-1.4,5.2-2.78l70.52,44.74c15.54,9.36,31,18.8,46.64,28,6,3.55,12.27,6.63,18.41,9.93,0,.46,0,.91,0,1.37-11.59-5.59-23.14-11.26-34.8-16.71-1.72-.81-3.91-.61-5.88-.88Z"/><path class="cls-136" d="M599.37,580.32q-2.61,1.38-5.2,2.78c-6-1.17-12-2.54-18.07-3.39a11.79,11.79,0,0,0-7,1c-22.42,12.46-44.85,14.24-67.86,1.43-15.72-8.75-21.2-24.47-27.43-39.52-2.48-6-5.07-6.71-9.93-3.66-5.27,3.3-10.35,7-15.89,9.73-1,.48-4.69-2.31-5.54-4.28-2.35-5.46-3.86-11.29-5.69-17v-6.75c1.34,2.56,2.23,5.52,4.13,7.57s4.93,4.41,6.92,4c7.2-1.49,14.14-4.14,21.2-6.27,10.07-3,19.66,2.61,22.79,12.37,2.23,7,5,14.08,8.83,20.25,7.79,12.36,24.27,20.56,33.69,17.86l8-.28c3.71-.5,7.86-.12,11-1.68,10-4.89,19.72-10.52,29.54-15.87l13.62,4c10.73,3.35,15-6.57,22-10.76L617,557.15l-5.42,8.15-6.78,8.13q-1.34,2.09-2.69,4.17Z"/><path class="cls-137" d="M623.78,364.8l2.73-1.34c7.85-1.64,15.69-3.32,23.55-4.91q28.2-5.69,56.41-11.31c.76,1,1.45,2.11,2.27,3.09,12.68,15,28,28.48,37.57,45.25,28.6,50.22,37.58,104.74,24.87,161.37-8.13,36.23-22.2,69.72-62,83.09l-10.83-4.2c4.64-1.26,9.56-1.9,13.87-3.88,24-11,38.24-30.84,47.34-54.71C773.48,540.71,774.83,503,767,465.12c-7.9-38.29-22.27-73.9-52.46-100.58-6.94-6.14-12.5-18.15-25.7-11.91l-16.26,4.06L636,366.18l-21.68,5.43c-4.63,3.85-9.44,7.51-13.82,11.63-2.17,2-3.55,4.91-5.28,7.41l-10.86-9.51c3.61-2.19,7-4.95,10.87-6.45C604.63,371.08,614.25,368.06,623.78,364.8Z"/><path class="cls-138" d="M709.17,640c39.81-13.37,53.88-46.86,62-83.09,12.71-56.63,3.73-111.15-24.87-161.37-9.56-16.77-24.89-30.26-37.57-45.25-.82-1-1.51-2.06-2.27-3.09l1.37,0,9.49,1.36c2.64,3.32,5.4,6.56,7.91,10,8.5,11.58,18.07,22.56,25.13,35,23.56,41.4,31.94,86.43,29.29,133.71-1.76,31.3-8.68,61.33-27.45,86.93-9.89,13.51-19.35,29.69-40.26,28.54Z"/><path class="cls-139" d="M688.86,352.63c13.2-6.24,18.76,5.77,25.7,11.91,30.19,26.68,44.56,62.29,52.46,100.58,7.81,37.84,6.46,75.59-7.47,112.13-9.1,23.87-23.32,43.69-47.34,54.71-4.31,2-9.23,2.62-13.87,3.88l-8.09-4.06,0-2.64c5.38-.44,11.12.21,16.08-1.48,26.86-9.11,41.24-30.42,50.31-55.41,17.87-49.24,13.5-98.1-5.33-146.15C738.91,394.54,719.19,369,688.86,352.63Z"/><path class="cls-140" d="M712,642.69c20.91,1.15,30.37-15,40.26-28.54,18.77-25.6,25.69-55.63,27.45-86.93,2.65-47.28-5.73-92.31-29.29-133.71-7.06-12.4-16.63-23.38-25.13-35-2.51-3.42-5.27-6.66-7.91-10,19.59,16.57,33.27,37.33,43.29,60.76,25.08,58.7,30.67,118.59,8,179.05-9.36,25-22.18,48.91-51.34,57l-2.74,0Z"/><path class="cls-140" d="M690.22,629.14l0,2.64c-11-6.27-22.31-12.2-33.09-18.9-18.52-11.51-36.75-23.49-55.1-35.28q1.35-2.08,2.69-4.17c6.59,5,12.85,10.55,19.82,15C646.31,602.2,668.32,615.59,690.22,629.14Z"/><path class="cls-67" d="M510,195.4q-31.74,7.44-63.48,14.9a15.23,15.23,0,0,0-2.93,1.37c-1.72.45-3.43.92-5.16,1.35l-76.16,19-56.64,13.46q-11.65,2.76-23.31,5.56l2.7-2.74c40.93-10.39,81.83-20.9,122.8-31.14,20.9-5.23,41.92-10,62.88-14.94Z"/><path class="cls-141" d="M331,329.69,309.31,316.2c-2.26-2.11-4.39-4.42-6.83-6.29-4.89-3.75-8.46-5.25-4.19-14.15,8.84-18.43,21.63-32.23,38.62-41.92,12.13-6.91,25.86-11,38.87-16.41L397.45,232a38.92,38.92,0,0,0,6-.44c23.28-5.28,46.61-8.19,70.45-3.66,25.51,4.85,49.7,12.46,68.9,31,5.1,4.93,5.5.21,7.16-2.65.62-1.07,1.37-2,2.07-3.08a14.2,14.2,0,0,1,1.29,3.45c.54,5.79.91,11.59,1.33,17.39q-1.47-2.4-3-4.8c-1.19,1.51-2.1,3.62-3.65,4.35-1.19.56-4.08-.08-4.7-1.1-11.66-19.16-30.79-27.4-50.7-33.45a170.8,170.8,0,0,0-99.55-.35c-36.54,10.78-70.26,24.75-83.34,66.19-2.64,8.36.57,8.7,5,11.18l12.2,8.14,4.06,2.7Z"/><path class="cls-142" d="M375.78,237.43c-13,5.37-26.74,9.5-38.87,16.41-17,9.69-29.78,23.49-38.62,41.92-4.27,8.9-.7,10.4,4.19,14.15,2.44,1.87,4.57,4.18,6.83,6.29l-25.75-16.29c-3.27-5.12-13.8-6.14-4.51-17.25,9.49-11.35,18-22.68,31.67-29l13.55-4.05c2.63-.49,5.28-.87,7.87-1.5Q354,242.83,375.78,237.43Z"/><path class="cls-143" d="M310.72,253.68c-13.71,6.3-22.18,17.63-31.67,29-9.29,11.11,1.24,12.13,4.51,17.25l-28.4-16.42L243,275.36c.73-1.77,1.08-4.75,2.25-5.1,8.64-2.66,17.44-4.79,26.19-7.09,2.38-.42,4.8-.7,7.15-1.29C289.29,259.19,300,256.42,310.72,253.68Z"/><path class="cls-144" d="M331,329.69c0-.94,0-1.87,0-2.81l8.14,4.07c19.84,12.25,39.6,24.65,59.67,36.51,1.9,1.12,7.53,12.1,8.92-.95a2,2,0,0,1,1.55-1.1c9.17.72,18.33,1.53,27.49,2.32l-4.25,3.84-16.25,10.57-1.2.28q-38.73-24.06-77.45-48.14C335.38,332.86,333.23,331.22,331,329.69Z"/><path class="cls-145" d="M415.11,382.42l1.19-.28,16.27,8.59c.06,1.28.13,2.56.2,3.84l-20.4-9.18Z"/><path class="cls-146" d="M436.8,520.72v6.75q2,23.73,4,47.46c0,7.4,2.32,10.36,10.78,8.7,9-1.76,17.52-2.5,26.63,5.2,18,15.22,40,18.86,63.5,13.87,10.46-2.22,21.37-2.28,32.08-3.32l-4.3,3.87-5.42,2.63c-6.34.31-12.94-.43-19,1.13-23.9,6.16-46.62,4-68.6-7.34-3.4-1.75-7.68-1.7-11.3-3.14-9.23-3.68-22,5.2-28.48-8q-.67-21-1.36-42,0-13.55,0-27.11h1.32Z"/><path class="cls-147" d="M436.81,415l6.71-9.67,0,1.49c0,1.82,0,3.64,0,5.45-1.31,1.57-3.76,3.15-3.75,4.71.17,26,.65,52,1.06,78q1.35,6.78,2.71,13.55c1.7,1.16,4,3.68,5,3.24,6.74-2.89,14.05-5.4,19.52-10,5.82-4.9,10.77-6.37,17.67-3.39,12.56,5.42,25.29,10.45,37.94,15.64-.14.89-.28,1.78-.41,2.66-9.61-3.7-19.16-7.55-28.84-11.08-9.09-3.3-17.26-4-26.47,2.33-7.7,5.32-18,6.88-27.14,10.1q-2-6.09-4-12.19Q436.82,460.42,436.81,415Z"/><path class="cls-148" d="M443.55,406.84l0-1.49,2.86-2.41c22.31-5.33,44.57-10.89,67-15.93,20.15-4.54,40.42-8.5,60.64-12.72l6.35,2.78c.42.9.84,1.79,1.27,2.69l-39.1,6.75a41.49,41.49,0,0,1-4.45,1.25q-21.48,3.48-43,6.87Z"/><path class="cls-149" d="M574,374.29c-20.22,4.22-40.49,8.18-60.64,12.72-22.38,5-44.64,10.6-67,15.93l-8.3-4c3.09.18,6.34,1.08,9.22.4,15.51-3.61,30.93-7.62,46.38-11.5,22.43-5.46,44.88-10.87,67.27-16.51,1.28-.32,2.09-2.51,3.12-3.83l5.54,2.73,3.78,2.72C573.58,373.4,573.77,373.85,574,374.29Z"/><path class="cls-150" d="M431.32,526.07c-.68-4-1.36-8-2-11.79-.65,3.39-1.33,7-2,10.52q-.06-13.6-.11-27.22c0-25.48.17-51,0-76.44,0-2.68-1.71-5.34-2.63-8l.14-8c5.17.2,6.82,2.52,6.78,8C431.21,450.77,431.33,488.42,431.32,526.07Z"/><path class="cls-151" d="M424.73,405.15c-.05,2.66-.09,5.32-.14,8-.48,2.61-1.35,5.22-1.36,7.82-.08,23.76,0,47.52,0,71.27q0,12.21-.08,24.41-2-7.44-4-14.89,0-12.21,0-24.43,0-31.15,0-62.31l.05-1.39,4.19-10.82Z"/><path class="cls-152" d="M493.68,387.85c-15.45,3.88-30.87,7.89-46.38,11.5-2.88.68-6.13-.22-9.22-.4l-.18-2.62,1.39-.21c2.51.18,5.18,1,7.5.43,16.56-4.11,33.06-8.5,49.58-12.81Z"/><path class="cls-153" d="M439.29,396.12l-1.39.21-5.13-1.75c-.07-1.29-.14-2.57-.2-3.85L489.63,377l2.73,1.38c-15.66,4-31.37,7.92-46.94,12.29C443.06,391.36,441.32,394.26,439.29,396.12Z"/><path class="cls-133" d="M436.81,415q0,45.41,0,90.79l-.06,13.55h-1.32l0-2.71q0-48.81,0-97.62Z"/><path class="cls-146" d="M435.37,419q0,48.81,0,97.62c-.43-1.44-1.25-2.89-1.25-4.34q-.12-44.46,0-88.93C434.12,421.92,434.93,420.47,435.37,419Z"/><path class="cls-154" d="M362.22,232l76.16-19c1.73-.43,3.44-.9,5.16-1.35l39.3-6.78H503.2L491,209l-13.54,2.72c-5.05-.06-10.31-1.09-15.1,0-37,8.36-74,17.13-110.95,25.76h-4.07Z"/><path class="cls-155" d="M347.31,237.42h4.07l-27.11,12.21-13.55,4.05c-10.72,2.74-21.43,5.51-32.16,8.2-2.35.59-4.77.87-7.15,1.29C294,246.6,321.9,245.69,347.31,237.42Z"/><path class="cls-156" d="M280.91,318.74a60.52,60.52,0,0,0,7.26,2.41c.54.12,1.46-1.53,2.2-2.37l2.76-.07q36.83,23.07,73.63,46.13c11.15,7,22.29,14,33.52,20.8,2.44,1.49,5.27,2.34,7.92,3.48l-7.92,6.93-57-38c-2.66-2-5.13-4.31-8-5.95-19.43-11.2-38.95-22.25-58.44-33.35Z"/><path class="cls-157" d="M419.12,477.31q0,12.22,0,24.43h0c-6.12-1.82-13.09-2.35-18.2-5.7-19.26-12.63-28.86-30.6-26.59-54.1l2.52-9.34q2-4.08,4.07-8.17l5.79-10.75c1.34-2.23,2.67-4.47,4-6.7l6.78-8.13,1.16-.19c8.49,2.69,18.75,3,20.47,14.95,0,.46,0,.93-.05,1.39-5.4-1.59-12.27-6.14-16-4.3-26,12.93-20.18,45.85-2.76,60.87C404.92,475.47,412.79,475.5,419.12,477.31Z"/><path class="cls-158" d="M398.69,398.66l-1.16.19-15-11-33.89-21.68-9.47-5.43L329.69,354l0-1.37,13.54,5.43,57,38Z"/><path class="cls-67" d="M552,184.58c-5.18,2.21-10.19,5.2-15.59,6.47-8.67,2-17.61,3-26.44,4.35Z"/><path class="cls-159" d="M562.49,366c.07.43.12.86.16,1.3-6.73,1.48-13.48,2.88-20.19,4.46-14.91,3.5-29.8,7.08-44.7,10.64l4-5.37,54.42-12.29,2.52.17Z"/><path class="cls-67" d="M562.49,366,558.72,365c.91-5.27,2.59-10.53,2.62-15.8.23-36.34.11-72.68.11-109h1.36Q562.65,303.09,562.49,366Z"/><path class="cls-160" d="M497.76,382.44c14.9-3.56,29.79-7.14,44.7-10.64,6.71-1.58,13.46-3,20.19-4.46l1.42.17c-1,1.32-1.84,3.51-3.12,3.83-22.39,5.64-44.84,11.05-67.27,16.51l2.69-4.11Z"/><path class="cls-161" d="M561.45,240.13c0,36.34.12,72.68-.11,109,0,5.27-1.71,10.53-2.62,15.8l-2.52-.17-3-2.63c1.83-6.23,5.11-12.44,5.23-18.71.57-29,.26-58,.27-87-.91-18.62-1.75-37.25-2.84-55.86-.09-1.56-1.8-3-2.76-4.53-.84,1.4-1.39,3.18-2.59,4.12-2.27,1.8-5,4.54-7.39,4.35-5.71-.45-11.31-2.35-16.95-3.66v-1.35c7.9-1.66,15.82-3.23,23.7-5,5.26-1.18,9.07-.3,9.33,6,.37,8.77.49,17.54.91,26.3C560.37,231.22,561,235.67,561.45,240.13Z"/><path class="cls-162" d="M526.22,199.47v1.35l-23,4.08H482.84Z"/><path class="cls-163" d="M447.75,611.44c-1.41,6.09-2.74,12.19-4.24,18.26-.74,3-1.77,6-2.67,8.93q1.34-14.8,2.68-29.63Z"/><path class="cls-164" d="M503.19,622.61l37.88-7.24,4-1.2c2.43.43,4.9,1.41,7.27,1.21a139.49,139.49,0,0,1,68.29,11.26c17,7.41,31.2,18.81,32.6,38.74,1.19,17.06-10.44,28.35-23.56,37-27.68,18.15-58.48,23.79-91.29,21.94-21-1.19-41-5.11-59.28-15.79-14-8.17-25.28-19-24.51-36.69.76-17.4,13.2-27.37,26.35-36.14C488.07,630.89,495.75,626.93,503.19,622.61Zm44.58,94.89c.27-1,.54-2,.82-3,27.58,0,50-6.21,68.42-19,25.16-17.43,23.57-44.71-4-58a118.83,118.83,0,0,0-31.83-10.37c-31.38-5.15-61.6-.78-88.6,16.9-26.77,17.51-25.16,45.66,4,58.51C512.7,709.71,530.65,712.67,547.77,717.5Z"/><path class="cls-165" d="M503.19,622.61c-7.44,4.32-15.12,8.28-22.27,13-13.15,8.77-25.59,18.74-26.35,36.14-.77,17.7,10.55,28.52,24.51,36.69,18.24,10.68,38.26,14.6,59.28,15.79,32.81,1.85,63.61-3.79,91.29-21.94,13.12-8.6,24.75-19.89,23.56-37-1.4-19.93-15.63-31.33-32.6-38.74a139.49,139.49,0,0,0-68.29-11.26c-2.37.2-4.84-.78-7.27-1.21L556,609.94l5.33-1.19c5.36.47,10.72,1,16.09,1.4,24,1.79,46.75,7.68,66.18,22.36,13.2,10,21.89,23,17.95,40.7-4,17.93-17,28.81-32.18,37.09-28.76,15.69-59.69,21-92.34,19.35a162,162,0,0,1-65.87-17.38c-32.7-16.45-33-57.25-7.21-73.16,8.86-5.48,17.15-11.88,25.7-17.86Z"/><path class="cls-166" d="M646.85,630.5q16.93,10.85,33.89,21.67c8.41,22-5.42,43.1-21.16,55.17-26.65,20.45-57.4,30.09-90.56,33.11-37.56,3.42-74,.56-108.46-16.6-8.8-4.39-16.14-9.39-17-20.17.44-21.52.26-43.08,1.8-64.52.36-5,6.24-9.87,10.17-14.27,2.72-3,6.44-5.16,9.72-7.7l13.51,2.71c-3.39,2.53-6.54,5.5-10.21,7.51-16.14,8.86-27.14,20.23-23.84,40.74,1.24,7.69-.44,15.82.44,23.62.53,4.79,2.08,11,5.46,13.63a129,129,0,0,0,27.29,17c31.15,13.75,64.18,15.3,97.25,10.79,31.83-4.34,61.73-14.13,84.64-38.89,15.15-16.37,15.51-41.42,0-54.19C655.59,636.7,651.15,633.69,646.85,630.5Z"/><path class="cls-167" d="M646.85,630.5c4.3,3.19,8.74,6.2,12.88,9.59,15.56,12.77,15.2,37.82,0,54.19C636.87,719,607,728.83,575.14,733.17c-33.07,4.51-66.1,3-97.25-10.79a129,129,0,0,1-27.29-17c-3.38-2.66-4.93-8.84-5.46-13.63-.88-7.8.8-15.93-.44-23.62-3.3-20.51,7.7-31.88,23.84-40.74,3.67-2,6.82-5,10.21-7.51l10.88,1.35c-8.55,6-16.84,12.38-25.7,17.86-25.76,15.91-25.49,56.71,7.21,73.16A162,162,0,0,0,537,729.65c32.65,1.66,63.58-3.66,92.34-19.35,15.18-8.28,28.18-19.16,32.18-37.09,3.94-17.66-4.75-30.72-17.95-40.7-19.43-14.68-42.2-20.57-66.18-22.36-5.37-.39-10.73-.93-16.09-1.4l2.8-2.87,5.42-2.63,55.6,13.7Z"/><path class="cls-168" d="M564.11,605.88l-2.8,2.87L556,609.94c-4.14-.12-8.47-1.09-12.38-.21-19.35,4.38-38.46,4.81-57.72-.76a248.06,248.06,0,0,0-27.24-5.72c-7.21-1.23-14.55-1.73-21.83-2.56q0-6.11,0-12.21c6.47,13.25,19.25,4.37,28.48,8,3.62,1.44,7.9,1.39,11.3,3.14,22,11.31,44.7,13.5,68.6,7.34C551.17,605.45,557.77,606.19,564.11,605.88Z"/><path class="cls-169" d="M436.81,600.69c7.28.83,14.62,1.33,21.83,2.56A248.06,248.06,0,0,1,485.88,609c19.26,5.57,38.37,5.14,57.72.76,3.91-.88,8.24.09,12.38.21l-10.93,4.23-4,1.2c-4.89.59-9.79,1.71-14.67,1.67-10.81-.09-21.75.17-32.39-1.39-16.71-2.46-33.25-6.14-49.77-9.74C441.51,605.32,439.27,602.49,436.81,600.69Z"/><path class="cls-161" d="M241.61,652.21q35.43-9,70.84-18.05c.93-.24,1.61-1.45,2.41-2.2l24.24-5.62,6.87.11,0,1.32c-20.69,5.41-41.4,10.8-62.05,16.39-.42.11-.21,2.58-.3,4l-6.74,1.4-19,5.42-6.81,1.31-7.32-.43-3.67-.16Z"/><path class="cls-170" d="M346,626.45l-6.87-.11,88.15-20.2q0,3.42,0,6.82c-4.86-.72-10-2.87-14.54-1.92C390.34,615.72,368.18,621.23,346,626.45Z"/><path class="cls-171" d="M427.22,649.46v61a61.75,61.75,0,0,0-2.15,7.44c-.51,3-.53,6.06-.76,9.1l-5.14-7q0-9.51-.05-19,0-27.11,0-54.2l0-17.64c6.17-1.37,6.89,1.81,6.64,7C425.58,640.55,426.7,645,427.22,649.46Z"/><path class="cls-172" d="M427.22,649.46c-.52-4.44-1.64-8.91-1.42-13.32.25-5.2-.47-8.38-6.64-7-.07-14.82-.07-14.82-14.25-10.93a3.61,3.61,0,0,1-.67.08c-2.06-.58-4.29-2-6.16-1.62-17.41,3.53-34.77,7.36-52.14,11.11l0-1.32c22.21-5.22,44.37-10.73,66.7-15.41,4.51-.95,9.68,1.2,14.54,1.92Q427.23,631.21,427.22,649.46Z"/><path class="cls-173" d="M419.17,720l5.14,7c.23-3,.25-6.11.76-9.1a61.75,61.75,0,0,1,2.15-7.44l-.06,42-8-1.26c0-.48-.05-1-.07-1.44q0-6.09,0-12.18v-5.41c0-3.16,0-6.33,0-9.49Z"/><path class="cls-174" d="M419.12,737.56q0,6.09,0,12.18c-1.32.23-2.64.5-4,.67-14.87,1.89-29.92,7.61-44.27-2.27-1.51-1-3.92-.79-5.92-1.14q-38.65-23.67-77.3-47.35l-23-17.64-6.75-27.08,19-5.42c-4.72,16.48-3.3,33.78,9.44,44.24,17.67,14.51,38.71,24.9,58.31,37,8.59,3.61,17.07,9.9,25.8,10.26C386.56,741.72,402.87,738.92,419.12,737.56Z"/><path class="cls-175" d="M365,747c2,.35,4.41.09,5.92,1.14,14.35,9.88,29.4,4.16,44.27,2.27,1.33-.17,2.65-.44,4-.67,0,.48.05,1,.07,1.44,0,3.59,0,7.19-.05,10.78-14,7.07-25.74,0-37.65-6-4.13-2.1-8.32-4.09-12.49-6.14Z"/><path class="cls-176" d="M257.88,654.93,264.63,682c-9.57-5.79-21.13-9.57-23-23l9.46-2.74Z"/><path class="cls-177" d="M241.61,659c1.89,13.46,13.45,17.24,23,23l23,17.64C270.4,688,253.13,676.42,235.94,664.7c-.92-.63-1.21-2.19-1.79-3.32Z"/><path class="cls-178" d="M280.91,318.74h-4.08c-5.35-2.82-10.46-6.31-16.11-8.29-7.39-2.6-16.82-7.64-22.49-5.12-9.95,4.41-19,12.73-17.14,26.75.66,4.91-.72,10.09-1.17,15.14,0-1.82,0-3.64,0-5.46q0-14.89,0-29.78c.45-5.49.56-11.05,1.55-16.44.34-1.82,3.72-4.9,4.34-4.6C244.28,300,262.58,309.4,280.91,318.74Z"/><path class="cls-179" d="M219.92,347.23c.45-5.05,1.83-10.23,1.17-15.14-1.87-14,7.19-22.34,17.14-26.75,5.67-2.52,15.1,2.52,22.49,5.12,5.65,2,10.76,5.47,16.11,8.29,19.48,11.1,39,22.15,58.43,33.35,2.86,1.64,5.33,3.95,8,5.95l-13.54-5.43-23-13.54c-10.18-5.78-20.75-11-30.45-17.48-12.12-8.11-21.19-2.54-29.75,5.37-4.91,4.53-8.92,10-13.2,15.24-8.76,10.63-13.66,22.44-12.15,36.63.51,4.73-.74,9.65-1.19,14.48l0-9.54Z"/><path class="cls-180" d="M219.92,393.32c.45-4.83,1.7-9.75,1.19-14.48-1.51-14.19,3.39-26,12.15-36.63,4.28-5.19,8.29-10.71,13.2-15.24,8.56-7.91,17.63-13.48,29.75-5.37,9.7,6.5,20.27,11.7,30.45,17.48l-5.43-1.36c-15.57-10.78-26.91-9.65-40.74,3.4-28.72,27.1-43.3,59.66-39.22,99.61v56.93c.21,8.54-.93,17.36.86,25.55,7.81,35.91,25.63,66.23,52.7,91.24,7.49,6.92,15.22,10,25.05,6.56l14.91-2.7-10.85,5.41-13.55,2.72c-3.33.29-6.77,1.28-10,.74-5.89-1-13.36-1.13-17.07-4.77-8.71-8.56-16.23-18.55-23-28.77-7.11-10.71-12.78-22.38-19.08-33.63Z"/><path class="cls-181" d="M221.27,560c6.3,11.25,12,22.92,19.08,33.63,6.78,10.22,14.3,20.21,23,28.77,3.71,3.64,11.18,3.77,17.07,4.77,3.19.54,6.63-.45,10-.74l-27.1,6.75c-24.08-7.32-30.05-30.48-41-48.67C218.56,578.38,221.41,568.29,221.27,560Z"/><path class="cls-182" d="M221.28,611.52q0-6.1,0-12.2c5.73,8.64,12.26,16.87,16.94,26,3.6,7,8,10.21,15.59,9.2-8.93,2.73-17.44,5.64-22.09-7C229.55,621.74,224.83,616.84,221.28,611.52Z"/><path class="cls-183" d="M409.71,587q4.1,3.42,8.18,6.85l-62.44,17.66H350c9.43-2.71,19.21-4.58,28.19-8.35C389.06,598.62,399.24,592.47,409.71,587Z"/><path class="cls-181" d="M350,611.52h5.43l-51.51,12.2,10.85-5.41,6.77-1.39h1.35Z"/><path class="cls-184" d="M386.75,413.68,381,424.43c-8.47-10.57-16.17-21.89-25.57-31.56-23.58-24.3-62.29-20.14-81.62,7.71-16.3,23.49-21.64,49.59-20,77.6,2,33.28,12.06,63.27,36.84,86.63,18.49,17.44,47,23.63,68.3,4.43,7.58-6.82,13.83-15.13,20.69-22.76l6.76,12.17c-2,2-4.42,3.64-5.95,5.91-24.81,37-66.34,41.3-97.82,10-42.47-42.17-52.73-126.07-21.74-177.76,18.56-31,48.09-42.17,77.82-29.19C360.29,377.07,373.78,395.15,386.75,413.68Z"/><path class="cls-164" d="M386.75,413.68c-13-18.53-26.46-36.61-48.06-46-29.73-13-59.26-1.79-77.82,29.19-31,51.69-20.73,135.59,21.74,177.76,31.48,31.26,73,27,97.82-10,1.53-2.27,3.95-3.95,5.95-5.91l5.43,8.17c-4.52,5.56-8.84,11.28-13.58,16.63-15.43,17.42-34.35,26.91-58,22.78-25.58-4.48-43.44-20.52-57.26-41.44C238.05,527,230.6,485.16,236.58,440.93c3.86-28.46,14.43-54.25,36.32-74.23,13.71-12.52,38.44-22,57.53-9.06,2.49,1.68,5.82,2.11,8.77,3.12l9.47,5.43,19,13.55L390.75,407C389.42,409.21,388.09,411.45,386.75,413.68Z"/><path class="cls-185" d="M339.2,360.76c-2.95-1-6.28-1.44-8.77-3.12-19.09-12.93-43.82-3.46-57.53,9.06-21.89,20-32.46,45.77-36.32,74.23-6,44.23,1.47,86.08,26.41,123.86,13.82,20.92,31.68,37,57.26,41.44,23.63,4.13,42.55-5.36,58-22.78,4.74-5.35,9.06-11.07,13.58-16.63l5.72,8c-8.83,21.48-27.1,29.4-48,34-9,2-17.74,5.36-26.6,8.1h-1.35c-8-1.73-16.8-1.83-23.77-5.48-26.27-13.71-43-36.41-54.75-63-14.12-31.94-19.88-65.25-16.53-100.32,3.49-36.48,14.72-69.21,42.9-93.92,15.06-13.21,30.63-18.77,49.33-5.38,3.22,2.31,7.28,3.45,10.95,5.12Z"/><path class="cls-186" d="M379.62,546.48c-6.86,7.63-13.11,15.94-20.69,22.76-21.33,19.2-49.81,13-68.3-4.43-24.78-23.36-34.88-53.35-36.84-86.63-1.66-28,3.68-54.11,20-77.6,19.33-27.85,58-32,81.62-7.71,9.4,9.67,17.1,21,25.57,31.56q-2,4.08-4.07,8.17c-5.07-6.7-10.36-13.25-15.18-20.12-10.34-14.74-24.35-24-42.24-24.33-24-.41-37.87,15.11-47.94,34.77-18.14,35.4-11.17,94.31,15.24,124.46,14.17,16.18,30.77,26.93,54,19.63,16.49-5.18,24.66-18.7,33.71-31.54Z"/><path class="cls-187" d="M374.49,535.47c-9.05,12.84-17.22,26.36-33.71,31.54-23.24,7.3-39.84-3.45-54-19.63-26.41-30.15-33.38-89.06-15.24-124.46,10.07-19.66,24-35.18,47.94-34.77,17.89.3,31.9,9.59,42.24,24.33,4.82,6.87,10.11,13.42,15.18,20.12l-2.52,9.34-1.52,1.47c-4.76-7.83-9.08-16-14.35-23.43-18-25.49-52.57-34.17-74.88-2.69-14.69,20.74-18.51,44.4-15,69.49,3.43,24.51,11.5,46.32,31,63.09,13.57,11.66,38.28,15.86,51.46,2,7.36-7.72,13.84-16.28,20.72-24.46l1.05.1C373.43,530.18,374,532.82,374.49,535.47Z"/><path class="cls-188" d="M372.89,527.53l-1.05-.1-2.61-14.81c9.46,12.75,18.44,25.9,28.59,38.08,5.83,7,9.24,17.78,21.31,17.43l0,0-1.38,14.25c-4.34-3-9.84-5.14-12.82-9.16-10.2-13.75-19.5-28.16-29.18-42.3A44.31,44.31,0,0,0,372.89,527.53Z"/><path class="cls-189" d="M322.91,616.91c8.86-2.74,17.58-6.11,26.6-8.1,20.92-4.61,39.19-12.53,48-34L409.71,587c-10.47,5.46-20.65,11.61-31.5,16.16-9,3.77-18.76,5.64-28.19,8.35Z"/><path class="cls-188" d="M423.18,584.42l-4-16.26,0,0q0-14.89,0-29.81a17,17,0,0,1,.06-3.35c.36-1.73,1-3.4,1.52-5.1.38,1.62.87,3.22,1.12,4.86.52,3.45.9,6.92,1.34,10.38l.05,23Q423.22,576.28,423.18,584.42Z"/><path class="cls-190" d="M423.18,584.42q0-8.13.05-16.27,2,7.4,4,14.8v16.16c-1.71-3.45-2.83-5.69-3.94-7.94C423.23,588.92,423.21,586.67,423.18,584.42Z"/><path class="cls-191" d="M427.2,583q-2-7.41-4-14.8,0-11.52-.05-23,0-12.89.07-25.79l4,8.11Z"/><path class="cls-192" d="M427.24,527.43l-4-8.11c0-.89-.05-1.79-.08-2.69q0-12.21.08-24.4l3.95,5.35q.06,13.62.11,27.22C427.29,525.67,427.26,526.55,427.24,527.43Z"/><path class="cls-193" d="M790.5,471.92v77.24l-1.34,1.36c-3.09,8.6-5.7,17.41-9.37,25.75-7.48,17-14.12,34.54-23.8,50.2-6.9,11.15-14.73,24.53-31.9,23l-1.36-1.35c3.42-1,8-.83,10-3,10.38-11.36,21.86-22.27,29.67-35.3,15.94-26.61,21.59-57,26.31-87.22,1.54-9.84.41-20.33-1-30.32-1.27-9.33-4.95-18.3-6.71-27.59-7.2-37.95-20.8-73.13-45.29-103.36-6.6-8.15-12.43-19.54-26.62-15.43,0-.45,0-.9,0-1.35,4.2-.55,8.41-1.47,12.62-1.56,5.24-.1,13.23-1.61,15.31,1.1,19.24,25.1,35.26,52.13,44.11,82.88.57,2,2.49,3.54,3.69,5.37,1.46,2.24,3.86,4.46,4,6.84C789.83,450,790.05,461,790.5,471.92Z"/><path class="cls-194" d="M709.19,345.86c14.19-4.11,20,7.28,26.62,15.43,24.49,30.23,38.09,65.41,45.29,103.36,1.76,9.29,5.44,18.26,6.71,27.59,1.36,10,2.49,20.48,1,30.32-4.72,30.22-10.37,60.61-26.31,87.22-7.81,13-19.29,23.94-29.67,35.3-2,2.22-6.63,2.09-10,3l-5.41-2.71c29.16-8.13,42-32,51.34-57,22.63-60.46,17-120.35-8-179-10-23.43-23.7-44.19-43.29-60.76l-9.49-1.36Z"/><path class="cls-83" d="M724.09,649.48c17.17,1.52,25-11.86,31.9-23,9.68-15.66,16.32-33.24,23.8-50.2,3.67-8.34,6.28-17.15,9.37-25.75,0,1.81-.14,3.63,0,5.42,3.53,37.3-16.12,65.1-38.27,91.47C741,659.25,737.49,658.72,724.09,649.48Z"/><path class="cls-96" d="M585.87,360.78c-13,3.3-16.63-2.39-16.41-14.9.6-34.93.22-69.87.29-104.81,0-.79.74-1.58,1.14-2.36,0,2.74.05,5.49.08,8.23l1.32,108.41c6.74.69,13.49,2.08,20.2,1.87,6.42-.2,12.79-2.06,19.18-3.19Z"/><path class="cls-115" d="M611.67,354c-6.39,1.13-12.76,3-19.18,3.19-6.71.21-13.46-1.18-20.19-1.87l8.14-4.1,9.48,1.37c6.12-.3,12.31-.12,18.34-1,10.22-1.54,20.34-3.76,30.5-5.69,0,.46,0,.92,0,1.38Z"/><path class="cls-52" d="M790.5,471.92c-.45-10.93-.67-21.88-1.53-32.78-.18-2.38-2.58-4.6-4-6.84-1.2-1.83-3.12-3.39-3.69-5.37-8.85-30.75-24.87-57.78-44.11-82.88-2.08-2.71-10.07-1.2-15.31-1.1-4.21.09-8.42,1-12.62,1.56h-6.78l6.78-2.69,33.87-4.1c3.57,2.18,8.59,3.49,10.49,6.67,9.65,16.13,18.48,32.75,27.64,49.18a6.71,6.71,0,0,0,2.17,2.53c4.88,2.86,7.07,7.34,7.08,15.39Q790.53,441.71,790.5,471.92Z"/><path class="cls-195" d="M702.42,344.5h6.78c0,.45,0,.9,0,1.35l-1.35,1.35-1.37,0q-28.2,5.65-56.41,11.31c-7.86,1.59-15.7,3.27-23.55,4.91,12.17-3.52,24.25-7.41,36.53-10.47C676.07,349.75,689.28,347.3,702.42,344.5Z"/><path class="cls-195" d="M581.59,379.76c-.43-.9-.85-1.79-1.27-2.69l43.46-12.27c-9.53,3.26-19.15,6.28-28.55,9.89-3.87,1.5-7.26,4.26-10.87,6.45Z"/><path class="cls-28" d="M571,246.94c0-2.74-.05-5.49-.08-8.23,0-13.07-.16-26.14.56-39.17.06-1.14,7.07-3.77,9.29-2.64,15.94,8.09,31.47,17,47.13,25.61h-4c-9.41-5.15-18.75-10.45-28.27-15.41a12.22,12.22,0,0,0-17.86,10.77c-.1,3.36-.73,6.71-1.12,10.06-.52-3.37-1-6.74-1.57-10.1-.27-1.62-.68-3.2-1-4.8-.55,1.76-1.49,3.5-1.6,5.28C571.79,227.84,571.42,237.4,571,246.94Z"/><path class="cls-196" d="M623.82,222.5h4l97.59,61,6.75,6.79L711.9,278.1l-29.81-19-58.28-35.25C623.82,223.41,623.82,223,623.82,222.5Z"/><path class="cls-54" d="M711.9,278.1l20.31,12.2L735,293l1.35,23-14.85,4.1-1.44-.05c.9-2.2,3-4.72,2.5-6.54C719.28,301.64,715.5,289.89,711.9,278.1Z"/><path class="cls-197" d="M638.76,345.91c-10.16,1.93-20.28,4.15-30.5,5.69-6,.9-12.22.72-18.34,1l24.41-6.76,61-14.93,9.47-1.36c-2,1.47-3.75,3.24-5.9,4.33-3.79,1.93-7.8,3.45-11.71,5.14Z"/><path class="cls-198" d="M667.17,339c3.91-1.69,7.92-3.21,11.71-5.14,2.15-1.09,3.94-2.86,5.9-4.33l4.08-1.35,14.9-4.07L720,320.08l1.44.05c-2,2.05-3.64,5.26-6,5.95C699.42,330.7,683.27,334.78,667.17,339Z"/><path class="cls-199" d="M573.83,599.38c-10.71,1-21.62,1.1-32.08,3.32-23.49,5-45.46,1.35-63.5-13.87-9.11-7.7-17.59-7-26.63-5.2-8.46,1.66-10.81-1.3-10.78-8.7,2.13.35,5,1.74,6.28.87,13.94-9.26,19.61-8.7,31.61,3.81,19.18,20,51.12,24.83,80.49,13.8,7.08-2.66,15.95-.57,24-.67Z"/><path class="cls-200" d="M573.83,599.38l9.38-6.64,2.61-.28q15.46,9.46,30.92,18.94c2.85,1.76,5.6,3.69,8.39,5.55l-55.6-13.7Z"/><path class="cls-201" d="M636,366.18l36.6-9.49c3.91.84,8.08,1.09,11.7,2.62,26.41,11.15,43.83,31.57,56.36,56.48C759.48,453.18,766,493,760.45,534.32c-3.71,27.4-12.26,53.36-33.85,72.38-13.53,11.91-29.66,21.84-47.83,12.13-25.48-13.6-53.34-25.05-67.24-53.53l5.42-8.15c5.83,8.51,11.12,17.48,17.6,25.46,28.61,35.21,74,40.18,100.38-1.38C758.55,544,759.2,503,749.2,461.47c-8.39-34.83-23.31-66.07-55.42-85.43-16.88-10.17-34.65-10.32-52.68-1.16-14.56,7.41-22.31,20.49-30.61,33.33q-2.87-4-5.72-8C612.85,386.71,619,371.45,636,366.18Z"/><path class="cls-202" d="M610.49,408.21c8.3-12.84,16-25.92,30.61-33.33,18-9.16,35.8-9,52.68,1.16,32.11,19.36,47,50.6,55.42,85.43,10,41.54,9.35,82.51-14.27,119.76-26.36,41.56-71.77,36.59-100.38,1.38-6.48-8-11.77-17-17.6-25.46l1.62-5.24,1.41-1.34c9.12,11.22,17.19,23.54,27.56,33.45,28.65,27.39,67.53,19.88,85.92-15.45,13.55-26.05,17.14-53.52,13.77-82.42-4.06-34.72-15.43-66.12-41-90.89-19.89-19.28-49.73-25.68-71.66-3.81-7.34,7.32-12.7,16.63-19,25Q613.06,412.34,610.49,408.21Z"/><path class="cls-203" d="M610.49,408.21q2.57,4.14,5.12,8.27,2,3.34,4,6.69l3.09,5.32,3.71,6.88q1.38,4.75,2.77,9.53l3,9.35,1.32,58.35-2.72,9.5q-1.35,4.06-2.71,8.13l-1.65,6.61c-.92,2.28-1.85,4.56-2.77,6.85l-3.7,6.88-1.41,1.34c-7.05,4.19-11.3,14.11-22,10.76,9.17-14.58,9.83-30.85,9.49-47.33,1-6.88,5.19-15.81,2.36-20.22-7.15-11.14-4.12-21.09-.95-31.49,4.19-13.72,7.92-27.38,1.38-41.27-9.27-19.69-24-32.89-46.12-36-6.6-.93-13.47,0-20.21.12l39.1-6.75,2.77,1.38,10.86,9.51,4.12,4.13,5.43,5.4Q607.64,404.2,610.49,408.21Z"/><path class="cls-204" d="M611.53,565.3c13.9,28.48,41.76,39.93,67.24,53.53,18.17,9.71,34.3-.22,47.83-12.13,21.59-19,30.14-45,33.85-72.38,5.59-41.37-1-81.14-19.79-118.53-12.53-24.91-29.95-45.33-56.36-56.48-3.62-1.53-7.79-1.78-11.7-2.62l16.26-4.06c30.33,16.4,50,41.91,62.42,73.47,18.83,48,23.2,96.91,5.33,146.15-9.07,25-23.45,46.3-50.31,55.41-5,1.69-10.7,1-16.08,1.48-21.9-13.55-43.91-26.94-65.65-40.74-7-4.42-13.23-9.95-19.82-15Z"/><path class="cls-205" d="M606,515.34c.34,16.48-.32,32.75-9.49,47.33l-13.62-4q-1.35-8.8-2.71-17.62V509.87c.55-3.88.18-8.23,1.86-11.52,2.23-4.35,6.07-7.87,9.22-11.75,4,5.17,8.73,10,11.89,15.63C605.27,506,605.16,510.93,606,515.34Z"/><path class="cls-206" d="M436.74,519.36l.06-13.55q2,6.09,4,12.19c2.15,2.3,4.71,6.81,6.37,6.5,7-1.29,13.71-3.85,20.42-6.27,14.62-5.29,38.26,4.53,45,18.41,1.8,3.68,5.21,6.58,7.89,9.83l2.78,12.25,11,17.78c-9.42,2.7-25.9-5.5-33.69-17.86-3.88-6.17-6.6-13.25-8.83-20.25-3.13-9.76-12.72-15.4-22.79-12.37-7.06,2.13-14,4.78-21.2,6.27-2,.41-5.14-2.08-6.92-4s-2.79-5-4.13-7.57Z"/><path class="cls-207" d="M534.36,576.5l-11-17.78c2.2-5.26,4-10.72,6.67-15.74,5.66-10.71,11.75-21.18,17.67-31.75q1.57,21,3.16,42l-8.52,23Z"/><path class="cls-208" d="M542.33,576.22l8.52-23,29.36-12.2q1.35,8.81,2.71,17.62c-9.82,5.35-19.5,11-29.54,15.87C550.19,576.1,546,575.72,542.33,576.22Z"/><path class="cls-204" d="M604.77,400.18l-5.43-5.4q7.49-11.59,15-23.17L636,366.18C619,371.45,612.85,386.71,604.77,400.18Z"/><path class="cls-139" d="M614.32,371.61q-7.49,11.58-15,23.17l-4.12-4.13c1.73-2.5,3.11-5.37,5.28-7.41C604.88,379.12,609.69,375.46,614.32,371.61Z"/><path class="cls-209" d="M339.18,331,331,326.88l-4.06-2.7c-.74-24.33,8-44.71,28.81-57.39,50.65-30.9,103.44-35.78,156.88-7.42,27.78,14.75,33,45.69,12.49,69-7.77,8.82-17.31,16.09-26,24.06l-19,1.37c6.9-5,14.08-9.6,20.66-15,13.79-11.24,24.51-24.68,22.51-43.7-1.89-17.94-14.85-27.37-30-34.19-37-16.61-74.1-14.69-110.54,1C348.77,276.56,334.6,300.12,339.18,331Z"/><path class="cls-210" d="M314.78,316c-4.43-2.48-7.64-2.82-5-11.18,13.08-41.44,46.8-55.41,83.34-66.19a170.8,170.8,0,0,1,99.55.35c19.91,6,39,14.29,50.7,33.45.62,1,3.51,1.66,4.7,1.1,1.55-.73,2.46-2.84,3.65-4.35q1.49,2.4,3,4.8c.4,8.27,1.31,16.55,1.06,24.8-.33,11.13-1.43,22.24-2.54,33.32-.13,1.31-2.16,2.73-3.62,3.54-2.5,1.4-5.69,1.82-7.79,3.6-5.47,4.65-10.5,9.81-15.71,14.77L510,352.4q9.09-9.3,18.17-18.61c19.59-20.1,18.88-52.35-1.21-69.27-20.71-17.45-45.37-25-71.49-26.82-35.22-2.46-69,4.12-100,22.08Q322.53,278.86,314.78,316Z"/><path class="cls-211" d="M526.08,354.05c5.21-5,10.24-10.12,15.71-14.77,2.1-1.78,5.29-2.2,7.79-3.6,1.46-.81,3.49-2.23,3.62-3.54,1.11-11.08,2.21-22.19,2.54-33.32.25-8.25-.66-16.53-1.06-24.8-.42-5.8-.79-11.6-1.33-17.39a14.2,14.2,0,0,0-1.29-3.45c-.7,1-1.45,2-2.07,3.08-1.66,2.86-2.06,7.58-7.16,2.65-19.2-18.56-43.39-26.17-68.9-31-23.84-4.53-47.17-1.62-70.45,3.66a38.92,38.92,0,0,1-6,.44l67.78-16.26c5.39.22,10.9-.23,16.14.77,21.52,4.08,42.48,9.77,60.86,22.55,1.49,1,5.16-.17,7.32-1.3,1.33-.7,1.71-3.22,2.52-4.92,1.14,2.11,2.73,4.11,3.27,6.37.48,2-.33,4.35-.31,6.53.3,30.77,1.33,61.54.5,92.27-.2,7.32,4.12,19.91-10.47,21.49Z"/><path class="cls-144" d="M314.78,316q7.77-37.21,40.65-56.26c31-18,64.77-24.54,100-22.08,26.12,1.83,50.78,9.37,71.49,26.82,20.09,16.92,20.8,49.17,1.21,69.27Q519,343.11,510,352.4H499.11c8.74-8,18.28-15.24,26-24.06,20.51-23.29,15.29-54.23-12.49-69-53.44-28.36-106.23-23.48-156.88,7.42C335,279.47,326.24,299.85,327,324.18Z"/><path class="cls-195" d="M465.23,215.73,397.45,232l-21.67,5.44q-21.81,5.37-43.64,10.7c-2.59.63-5.24,1-7.87,1.5l27.11-12.21c37-8.63,73.91-17.4,111-25.76,4.79-1.08,10.05,0,15.1,0Z"/><path class="cls-40" d="M339.18,331c-4.58-30.83,9.59-54.39,43.56-69,36.44-15.69,73.56-17.61,110.54-1,15.17,6.82,28.13,16.25,30,34.19,2,19-8.72,32.46-22.51,43.7-6.58,5.36-13.76,10-20.66,15l-2.61.42-40.71,13.53c-9.16-.79-18.32-1.6-27.49-2.32a2,2,0,0,0-1.55,1.1c-1.39,13.05-7,2.07-8.92.95C378.78,355.6,359,343.2,339.18,331ZM440.13,268.9c-20.26,2-37.8,7.25-53.17,19.77-15.95,13-15.22,34.16,2.05,45.24,12.87,8.25,27.27,10.57,42.09,9.11,22.59-2.23,43.07-9.17,56.2-29.57,6.69-10.4,2.11-28.9-9.2-33.24C465.81,275.5,452.82,272.59,440.13,268.9Z"/><path class="cls-212" d="M489.63,377l-57.06,13.7-16.27-8.59,16.26-10.57c18.43-10,37.15-10.31,56-1.3,2.09,1,3.45,3.56,5.15,5.39Z"/><path class="cls-153" d="M493.68,375.66c-1.7-1.83-3.06-4.39-5.15-5.39-18.82-9-37.54-8.68-56,1.3l4.25-3.84,40.71-13.53c12.94,3.59,25.9,7.12,38.81,10.85,1.75.51,3.21,2,4.8,3.1-1.56.78-3,1.89-4.69,2.3C508.88,372.29,501.27,373.94,493.68,375.66Z"/><path class="cls-213" d="M440.85,495c-.41-26-.89-52-1.06-78,0-1.56,2.44-3.14,3.75-4.71l12.19-2.73c-.81,1.69-2.75,4.34-2.26,4.92,4.9,5.78,9.29,13.53,15.66,16,5.35,2.11,13.26-1.6,19.84-3.43,18.37-5.09,16.74-14.17,10.15-28.37L510,396l5.42,2.71c3.15,3.33,6.33,6.63,9.44,10,7.67,8.31,16.41,15.9,22.64,25.18,5.92,8.83,1.8,22.47-6.39,30.69-8.4,8.45-17.7,7.19-26.56,1.93a155,155,0,0,1-23.26-17c-4.76-4.22-8.29-4.56-13.61-1.45-11.38,6.64-19.3,14.84-16.47,29.29-.55,4.17.08,9.06-1.92,12.34-3,4.95-7.86,8.79-11.92,13.1Z"/><path class="cls-214" d="M440.85,495l6.48,7.81c4.06-4.31,8.91-8.15,11.92-13.1,2-3.28,1.37-8.17,1.92-12.34,5-6.56,9.77-13.28,15-19.63,3.24-3.91,5.5-2.87,9.47.91a471.19,471.19,0,0,0,37.68,31.83c2.75,2.11,8.55,2.12,12.21.9C563.39,482,573.28,457,561.1,430.2c-9.09-20-28-24.68-45.72-31.48L510,396l-5.42-1.37c3.25-.45,6.53-.72,9.73-1.39,10.38-2.19,18.12-.66,28,6.42,20,14.38,28.5,32.74,31.82,55.83,1,7,6.73,13.35,10.42,19.93,2.14,3.8,4.52,7.45,6.8,11.17-3.15,3.88-7,7.4-9.22,11.75-1.68,3.29-1.31,7.64-1.86,11.52a59.55,59.55,0,0,1-4.68-5.79c-11.09-18-14.5-20.73-30.73-8.35-2.13,1.63-4.35,3.14-6.53,4.71l-9.18,1.35c-11.45-7.31-22.79-14.79-34.38-21.88C478,469.72,478,469.84,469.26,488.24c-5.8,12.29-17.09,21.19-25.7,20.27Q442.19,501.75,440.85,495Z"/><path class="cls-215" d="M443.56,508.51c8.61.92,19.9-8,25.7-20.27,8.69-18.4,8.76-18.52,25.45-8.33,11.59,7.09,22.93,14.57,34.38,21.88L523.7,514c-12.65-5.19-25.38-10.22-37.94-15.64-6.9-3-11.85-1.51-17.67,3.39-5.47,4.61-12.78,7.12-19.52,10C447.55,512.19,445.26,509.67,443.56,508.51Z"/><path class="cls-216" d="M520.57,546.47c-2.68-3.25-6.09-6.15-7.89-9.83-6.79-13.88-30.43-23.7-45-18.41-6.71,2.42-13.46,5-20.42,6.27-1.66.31-4.22-4.2-6.37-6.5,9.15-3.22,19.44-4.78,27.14-10.1,9.21-6.37,17.38-5.63,26.47-2.33,9.68,3.53,19.23,7.38,28.84,11.08Q521.92,531.56,520.57,546.47Z"/><path class="cls-217" d="M520.57,546.47q1.36-14.91,2.72-29.82c.13-.88.27-1.77.41-2.66l5.39-12.2,9.18-1.35,9.5,9.48a1.66,1.66,0,0,1-.08,1.31c-5.92,10.57-12,21-17.67,31.75-2.65,5-4.47,10.48-6.67,15.74Z"/><path class="cls-218" d="M504.54,394.64,510,396l-10.84,2.71c-2.88.33-5.85.3-8.62,1-11.62,3.14-23.19,6.51-34.77,9.79l-12.19,2.73c0-1.81,0-3.63,0-5.45l51.51-12.21Z"/><path class="cls-219" d="M504.54,394.64h-9.48q21.49-3.42,43-6.87a41.49,41.49,0,0,0,4.45-1.25c6.74-.1,13.61-1.05,20.21-.12,22.12,3.08,36.85,16.28,46.12,36,6.54,13.89,2.81,27.55-1.38,41.27-3.17,10.4-6.2,20.35.95,31.49,2.83,4.41-1.37,13.34-2.36,20.22-.87-4.41-.76-9.38-2.85-13.11-3.16-5.66-7.85-10.46-11.89-15.63-2.28-3.72-4.66-7.37-6.8-11.17-3.69-6.58-9.42-12.93-10.42-19.93-3.32-23.09-11.78-41.45-31.82-55.83-9.86-7.08-17.6-8.61-28-6.42C511.07,393.92,507.79,394.19,504.54,394.64Z"/><path class="cls-220" d="M427.2,497.58l-3.95-5.35c0-23.76-.1-47.52,0-71.28,0-2.6.88-5.21,1.36-7.82.92,2.67,2.61,5.33,2.63,8C427.37,446.62,427.24,472.1,427.2,497.58Z"/><path class="cls-221" d="M419.12,477.31c-6.33-1.81-14.2-1.84-18.73-5.74-17.42-15-23.24-47.94,2.76-60.87,3.69-1.84,10.56,2.71,16,4.3Q419.11,446.16,419.12,477.31Z"/><path class="cls-222" d="M423.17,516.63c0,.9.05,1.8.08,2.69q0,12.9-.07,25.79c-.44-3.46-.82-6.93-1.34-10.38-.25-1.64-.74-3.24-1.12-4.86-.52,1.7-1.16,3.37-1.52,5.1a17,17,0,0,0-.06,3.35c-8.43-3.22-18.06-4.83-25-10-9.94-7.46-17.91-17.54-26.73-26.5L366.52,472a12.75,12.75,0,0,1,1.07,3.09c1.65,21.88,17.17,41.38,38.5,48.29,13.08,4.24,13.08,4.24,13-9.45l0-12.18h0Q421.17,509.18,423.17,516.63Z"/><path class="cls-223" d="M497.76,382.44l-1.39,1.3c-16.52,4.31-33,8.7-49.58,12.81-2.32.58-5-.25-7.5-.43,2-1.86,3.77-4.76,6.13-5.42,15.57-4.37,31.28-8.25,46.94-12.29l9.42-1.34Z"/><path class="cls-224" d="M501.78,377.07l-9.42,1.34L489.63,377l4.05-1.37c7.59-1.72,15.2-3.37,22.76-5.21,1.65-.41,3.13-1.52,4.69-2.3-1.59-1.06-3-2.59-4.8-3.1-12.91-3.73-25.87-7.26-38.81-10.85l2.61-.42,19-1.37H510l16.13,1.65,19,5.44,8.19,2.66,3,2.63Z"/><path class="cls-225" d="M553.25,362.15l-8.19-2.66c14.59-1.58,10.27-14.17,10.47-21.49.83-30.73-.2-61.5-.5-92.27,0-2.18.79-4.5.31-6.53-.54-2.26-2.13-4.26-3.27-6.37-.81,1.7-1.19,4.22-2.52,4.92-2.16,1.13-5.83,2.34-7.32,1.3-18.38-12.78-39.34-18.47-60.86-22.55-5.24-1-10.75-.55-16.14-.77l12.2-4.06L491,209c5.08-.19,10.5-1.58,15.19-.32,12.25,3.32,24.11,8.06,36.32,11.57,2.23.64,5.71-1.41,7.95-3.1,1.24-.94,1.11-3.69,1.59-5.63,1.11,2.38,2.93,4.69,3.2,7.16,1.4,12.57,2.39,25.18,3.53,37.77,0,29,.3,58-.27,87C558.36,349.71,555.08,355.92,553.25,362.15Z"/><path class="cls-226" d="M558.75,256.4c-1.14-12.59-2.13-25.2-3.53-37.77-.27-2.47-2.09-4.78-3.2-7.16-.48,1.94-.35,4.69-1.59,5.63-2.24,1.69-5.72,3.74-7.95,3.1-12.21-3.51-24.07-8.25-36.32-11.57-4.69-1.26-10.11.13-15.19.32l12.23-4,23-4.08c5.64,1.31,11.24,3.21,16.95,3.66,2.36.19,5.12-2.55,7.39-4.35,1.2-.94,1.75-2.72,2.59-4.12,1,1.51,2.67,3,2.76,4.53C557,219.15,557.84,237.78,558.75,256.4Z"/><path class="cls-151" d="M419.16,501.74l0,12.18c-26.5-.08-49.83-25.34-50.19-54.36q2-8.07,3.91-16.15l1.52-1.47c-2.27,23.5,7.33,41.47,26.59,54.1C406.07,499.39,413,499.92,419.16,501.74Z"/><path class="cls-185" d="M390.75,407l-23.11-27.24,14.92,8.13,15,11Z"/><path class="cls-227" d="M329.69,354c-3.67-1.67-7.73-2.81-10.95-5.12-18.7-13.39-34.27-7.83-49.33,5.38C241.23,379,230,411.69,226.51,448.17c-3.35,35.07,2.41,68.38,16.53,100.32,11.72,26.54,28.48,49.24,54.75,63,7,3.65,15.8,3.75,23.77,5.48l-6.77,1.39L299.88,621a59.71,59.71,0,0,1-7.08-3.5c-37.37-24.92-58.31-60.54-67.55-103.8-1.15-5.39-2.65-10.7-4-16.05V440.73a10.24,10.24,0,0,0,1.28-3c2-26.12,9.7-50.45,25.86-71.07,13.17-16.81,26-36.11,52.82-29l5.43,1.36,23,13.54C329.7,353.08,329.69,353.54,329.69,354Z"/><path class="cls-227" d="M382.56,387.87l-14.92-8.13-19-13.55Z"/><path class="cls-228" d="M547.77,717.5c-17.12-4.83-35.07-7.79-51.18-14.9-29.15-12.85-30.76-41-4-58.51,27-17.68,57.22-22.05,88.6-16.9A118.83,118.83,0,0,1,613,637.56c27.55,13.3,29.14,40.58,4,58-18.41,12.75-40.84,19-68.42,19C548.31,715.52,548,716.51,547.77,717.5Zm8.15-75.84c-11.67,4.35-26.14,8.27-39.13,15-12,6.26-12.63,24.82-1.81,30.31,24.23,12.31,49.07,13,73.43.3,7.86-4.08,14.89-10,13.66-20.51-1.16-9.87-8.53-14.56-16.7-17.44C577,646.39,568.23,644.79,555.92,641.66Z"/><path class="cls-229" d="M344.6,730.8c-19.6-12.15-40.64-22.54-58.31-37-12.74-10.46-14.16-27.76-9.44-44.24l6.74-1.4,14.92-2.72c-6.77,16.86-5.92,33.19,5.3,47.71,18.7,24.21,44.66,35.27,74.42,35.91,13.59.29,27.27-4.09,40.91-6.35,0,3.16,0,6.33,0,9.49C394.17,737.5,369.31,738.28,344.6,730.8Z"/><path class="cls-230" d="M298.51,645.39l-14.92,2.72c.09-1.37-.12-3.84.3-4,20.65-5.59,41.36-11,62.05-16.39,17.37-3.75,34.73-7.58,52.14-11.11,1.87-.38,4.1,1,6.16,1.62l-36.61,9.49-32.52,8.13Z"/><path class="cls-231" d="M335.11,635.9l32.52-8.13c19.16.94,36.95,5.57,51.5,19q0,27.11,0,54.2c-1.72,1.72-3.14,4.19-5.21,5-27.8,11.49-54.72,10.82-79.83-7.1-15.1-10.77-21.7-29.38-14.62-44.19C322.88,647.59,329.78,642.13,335.11,635.9Zm37.53,8.15c-.4.91-.81,1.81-1.22,2.72a58.6,58.6,0,0,0-6.76,0c-10.81,1.26-19.67,5.91-23.39,16.61-3.28,9.43,1,17.73,8,23.55,12.66,10.6,27.9,13.53,43,7.22,6.84-2.85,14.7-9.77,16.45-16.34,1.58-5.89-2.67-16.21-7.78-20.35C393,651.12,382.21,648.35,372.64,644.05Z"/><path class="cls-232" d="M335.11,635.9c-5.33,6.23-12.23,11.69-15.65,18.83-7.08,14.81-.48,33.42,14.62,44.19,25.11,17.92,52,18.59,79.83,7.1,2.07-.86,3.49-3.33,5.21-5q0,9.51.05,19l0,2.68c-13.64,2.26-27.32,6.64-40.91,6.35-29.76-.64-55.72-11.7-74.42-35.91-11.22-14.52-12.07-30.85-5.3-47.71Z"/><path class="cls-189" d="M419.13,646.77c-14.55-13.43-32.34-18.06-51.5-19l36.61-9.49a3.61,3.61,0,0,0,.67-.08c14.18-3.89,14.18-3.89,14.25,10.93Z"/><path class="cls-233" d="M344.6,730.8c24.71,7.48,49.57,6.7,74.52,1.35v5.41c-16.25,1.36-32.56,4.16-48.72,3.5C361.67,740.7,353.19,734.41,344.6,730.8Z"/><path class="cls-189" d="M221.27,497.66c1.33,5.35,2.83,10.66,4,16.05,9.24,43.26,30.18,78.88,67.55,103.8a59.71,59.71,0,0,0,7.08,3.5c-9.83,3.42-17.56.36-25.05-6.56-27.07-25-44.89-55.33-52.7-91.24C220.34,515,221.48,506.2,221.27,497.66Z"/><path class="cls-189" d="M301.23,337.72c-26.77-7.14-39.65,12.16-52.82,29-16.16,20.62-23.89,44.95-25.86,71.07a10.24,10.24,0,0,1-1.28,3c-4.08-40,10.5-72.51,39.22-99.61C274.32,328.07,285.66,326.94,301.23,337.72Z"/><path class="cls-234" d="M372.85,443.41q-2,8.08-3.91,16.15-1.2,6.21-2.42,12.43.45,14.89.89,29.79.91,5.43,1.82,10.84l2.61,14.81c-6.88,8.18-13.36,16.74-20.72,24.46-13.18,13.84-37.89,9.64-51.46-2-19.53-16.77-27.6-38.58-31-63.09-3.52-25.09.3-48.75,15-69.49,22.31-31.48,56.88-22.8,74.88,2.69C363.77,427.45,368.09,435.58,372.85,443.41Zm-88.18,31.33L281.74,476c4.75,13.22,8.95,26.68,14.4,39.61,5.8,13.75,16.54,21.38,32,20.38,12.47-.81,20.6-8.44,25.79-19.1,13.47-27.7,11.08-54.86-6.14-79.78-10.15-14.68-30.2-22.8-47-6.4C288.07,443.15,285.38,458.41,284.67,474.74Z"/><path class="cls-235" d="M369.23,512.62q-.92-5.42-1.82-10.84c8.82,9,16.79,19,26.73,26.5,6.94,5.21,16.57,6.82,25,10q0,14.91,0,29.81c-12.07.35-15.48-10.44-21.31-17.43C387.67,538.52,378.69,525.37,369.23,512.62Z"/><path class="cls-236" d="M623.82,222.5c0,.45,0,.91,0,1.36-6.89.48-13.95.15-20.63,1.59C577.54,231,577,230.5,577.73,252.34c0,2.25,0,4.51,0,6.76-.9-1.3-1.87-2.56-2.68-3.92a32,32,0,0,1-1.49-3.19c-.41,1.15-1.19,2.31-1.18,3.46.38,27.91.79,55.82,1.47,83.73,0,1.35,2.53,2.64,3.89,4q1.35,4.07,2.71,8.11l-8.14,4.1q-.67-54.21-1.33-108.41c.45-9.54.82-19.1,1.41-28.64.11-1.78,1-3.52,1.6-5.28.34,1.6.75,3.18,1,4.8.56,3.36,1,6.73,1.57,10.1.39-3.35,1-6.7,1.12-10.06a12.22,12.22,0,0,1,17.86-10.77C605.07,212.05,614.41,217.35,623.82,222.5Z"/><path class="cls-237" d="M580.44,351.25q-1.37-4-2.71-8.11V275.38c3.77-5.06,6.57-11.48,11.47-14.94,28.21-19.88,72.34-9.79,93.07,20.76,9.88,14.55,15.69,29.77,6.59,47l-4.08,1.35-9.47,1.36c7.65-15.55,6.06-30.26-4.12-44.13-13-17.78-30.6-24.91-52.51-23.77-23.85,1.23-41.24,25.32-34.28,48.18,4.9,16.11,15.41,27,29.93,34.65l-24.41,6.76Z"/><path class="cls-197" d="M577.73,252.34c-.7-21.84-.19-21.35,25.45-26.89,6.68-1.44,13.74-1.11,20.63-1.59l58.28,35.25h-2.72c-13.1-6.55-25.57-15.53-39.44-19.09C618.07,234.4,595.79,234.86,577.73,252.34Z"/><path class="cls-238" d="M679.37,259.11h2.72l29.81,19c3.6,11.79,7.38,23.54,10.61,35.44.49,1.82-1.6,4.34-2.5,6.54l-16.25,4.07c.69-5.86,2.54-11.86,1.84-17.54C703.21,287.45,691.73,273,679.37,259.11Z"/><path class="cls-239" d="M614.33,345.86c-14.52-7.63-25-18.54-29.93-34.65-7-22.86,10.43-46.95,34.28-48.18,21.91-1.14,39.48,6,52.51,23.77,10.18,13.87,11.77,28.58,4.12,44.13Zm21.08-12.21c14.29.32,26-9.72,26.33-22.66.43-15.23-16.87-31.4-33.76-31.53-13.76-.11-25.59,10.16-25.86,22.45C601.77,318,617.73,333.26,635.41,333.65Z"/><path class="cls-240" d="M679.37,259.11c12.36,13.85,23.84,28.34,26.23,47.5.7,5.68-1.15,11.68-1.84,17.54l-14.9,4.07c9.1-17.25,3.29-32.47-6.59-47-20.73-30.55-64.86-40.64-93.07-20.76-4.9,3.46-7.7,9.88-11.47,14.94q0-8.14,0-16.28c0-2.25,0-4.51,0-6.76,18.06-17.48,40.34-17.94,62.2-12.32C653.8,243.58,666.27,252.56,679.37,259.11Z"/><path class="cls-241" d="M619.61,423.17q-2-3.35-4-6.69c6.27-8.4,11.63-17.71,19-25,21.93-21.87,51.77-15.47,71.66,3.81,25.56,24.77,36.93,56.17,41,90.89,3.37,28.9-.22,56.37-13.77,82.42-18.39,35.33-57.27,42.84-85.92,15.45-10.37-9.91-18.44-22.23-27.56-33.45l3.7-6.88c6.39,8.65,12.27,17.75,19.27,25.87,22.25,25.78,57.85,33.05,81.62-1.08,16.16-23.21,19.61-49.55,17.22-77.19-3-35.22-14-66.56-41.06-91-17.7-16-41.06-18.29-59.45-3.21C632.7,404.13,626.75,414.38,619.61,423.17Z"/><path class="cls-242" d="M633.53,512.6l-1.32-58.35a75.15,75.15,0,0,0,4.18-7.47c15.53-36.39,43.48-36.41,62.51-14.91,26,29.3,30.22,64.5,18,101.27C710,554,693,564.53,674.52,559.64c-14.92-3.95-24.54-15.22-31.65-28.53C639.62,525,636.63,518.77,633.53,512.6Zm6.38-28.48c.53,16,4.19,33.29,15.34,47.47C671.18,551.83,694,553,707,529.05c13.31-24.6,6.71-65-11.92-85.9C681.48,427.92,667,428.24,655.29,439,643.05,450.32,640.31,466.12,639.91,484.12Z"/><path class="cls-243" d="M626.41,435.37l-3.71-6.88a51,51,0,0,0,3.52-4.81c6.66-11.72,14.35-22.51,27.57-27.49,19.9-7.5,42.54,1.4,57.87,22.39,16.22,22.22,24.55,47,26.35,74.53,1.72,26.15-2,50.68-17.55,72.28C703.74,588.67,673.24,592,653,571.78c-10.26-10.25-17.81-23.21-26.58-34.94l1.65-6.61c5.88,8.72,11.14,17.92,17.73,26.06,20.91,25.84,53.48,30.86,73.83-1.23,14.76-23.26,16.37-49.15,12.06-75.49-4-24.19-12.7-46.44-30.76-64-19.94-19.37-43.41-19-62.07,1.49C634,422.48,630.53,429.23,626.41,435.37Z"/><path class="cls-244" d="M633.53,512.6c3.1,6.17,6.09,12.41,9.34,18.51,7.11,13.31,16.73,24.58,31.65,28.53C693,564.53,710,554,716.9,533.14c12.22-36.77,8-72-18-101.27-19-21.5-47-21.48-62.51,14.91a75.15,75.15,0,0,1-4.18,7.47l-3-9.35c2.12-4.23,4.12-8.53,6.38-12.69,14.75-27.18,43-32,63.92-9.72,27.38,29.08,33.64,64.36,26.44,102.59-3,15.73-9.91,29.83-23.6,38.83-17.72,11.64-42.14,4.89-55.38-14.77-5.85-8.7-10.78-18-16.13-27Z"/><path class="cls-245" d="M630.81,522.1c5.35,9,10.28,18.34,16.13,27,13.24,19.66,37.66,26.41,55.38,14.77,13.69-9,20.63-23.1,23.6-38.83,7.2-38.23.94-73.51-26.44-102.59-20.94-22.24-49.17-17.46-63.92,9.72-2.26,4.16-4.26,8.46-6.38,12.69q-1.39-4.77-2.77-9.53c4.12-6.14,7.56-12.89,12.48-18.3,18.66-20.46,42.13-20.86,62.07-1.49,18.06,17.55,26.8,39.8,30.76,64,4.31,26.34,2.7,52.23-12.06,75.49-20.35,32.09-52.92,27.07-73.83,1.23C639.24,548.15,634,539,628.1,530.23Q629.46,526.17,630.81,522.1Z"/><path class="cls-246" d="M626.45,536.84c8.77,11.73,16.32,24.69,26.58,34.94,20.21,20.2,50.71,16.89,67.43-6.39,15.52-21.6,19.27-46.13,17.55-72.28-1.8-27.5-10.13-52.31-26.35-74.53-15.33-21-38-29.89-57.87-22.39-13.22,5-20.91,15.77-27.57,27.49a51,51,0,0,1-3.52,4.81l-3.09-5.32c7.14-8.79,13.09-19,21.67-26.07,18.39-15.08,41.75-12.78,59.45,3.21,27,24.42,38,55.76,41.06,91,2.39,27.64-1.06,54-17.22,77.19-23.77,34.13-59.37,26.86-81.62,1.08-7-8.12-12.88-17.22-19.27-25.87C624.6,541.4,625.53,539.12,626.45,536.84Z"/><path class="cls-247" d="M547.69,511.23a1.66,1.66,0,0,0,.08-1.31c7.77-3.7,14-5.15,18.49,5.51,1.48,3.54,9.13,4.5,14,6.64v19l-29.36,12.2Q549.26,532.24,547.69,511.23Z"/><path class="cls-248" d="M580.21,522.07c-4.82-2.14-12.47-3.1-14-6.64-4.47-10.66-10.72-9.21-18.49-5.51l-9.5-9.48c2.18-1.57,4.4-3.08,6.53-4.71,16.23-12.38,19.64-9.61,30.73,8.35a59.55,59.55,0,0,0,4.68,5.79Z"/><path class="cls-249" d="M440.13,268.9c12.69,3.69,25.68,6.6,38,11.31,11.31,4.34,15.89,22.84,9.2,33.24-13.13,20.4-33.61,27.34-56.2,29.57-14.82,1.46-29.22-.86-42.09-9.11-17.27-11.08-18-32.26-2.05-45.24C402.33,276.15,419.87,270.9,440.13,268.9Z"/><path class="cls-250" d="M515.38,398.72c17.76,6.8,36.63,11.49,45.72,31.48,12.18,26.82,2.29,51.78-25.55,61.14-3.66,1.22-9.46,1.21-12.21-.9a471.19,471.19,0,0,1-37.68-31.83c-4-3.78-6.23-4.82-9.47-.91-5.25,6.35-10,13.07-15,19.63-2.83-14.45,5.09-22.65,16.47-29.29,5.32-3.11,8.85-2.77,13.61,1.45a155,155,0,0,0,23.26,17c8.86,5.26,18.16,6.52,26.56-1.93,8.19-8.22,12.31-21.86,6.39-30.69-6.23-9.28-15-16.87-22.64-25.18C521.71,405.35,518.53,402.05,515.38,398.72Z"/><path class="cls-251" d="M455.73,409.56c11.58-3.28,23.15-6.65,34.77-9.79,2.77-.75,5.74-.72,8.62-1,6.59,14.2,8.22,23.28-10.15,28.37-6.58,1.83-14.49,5.54-19.84,3.43-6.37-2.51-10.76-10.26-15.66-16C453,413.9,454.92,411.25,455.73,409.56Z"/><path class="cls-252" d="M366.52,472q1.22-6.21,2.42-12.43c.36,29,23.69,54.28,50.19,54.36,0,13.69,0,13.69-13,9.45-21.33-6.91-36.85-26.41-38.5-48.29A12.75,12.75,0,0,0,366.52,472Z"/><path class="cls-253" d="M555.92,641.66c12.31,3.13,21.12,4.73,29.45,7.68,8.17,2.88,15.54,7.57,16.7,17.44,1.23,10.54-5.8,16.43-13.66,20.51-24.36,12.67-49.2,12-73.43-.3-10.82-5.49-10.23-24,1.81-30.31C529.78,649.93,544.25,646,555.92,641.66Z"/><path class="cls-254" d="M372.64,644.05c9.57,4.3,20.38,7.07,28.27,13.45,5.11,4.14,9.36,14.46,7.78,20.35-1.75,6.57-9.61,13.49-16.45,16.34-15.11,6.31-30.35,3.38-43-7.22-7-5.82-11.24-14.12-8-23.55,3.72-10.7,12.58-15.35,23.39-16.61a58.6,58.6,0,0,1,6.76,0C371.83,645.86,372.24,645,372.64,644.05Z"/><path class="cls-255" d="M284.67,474.74c.71-16.33,3.4-31.59,16.11-44,16.77-16.4,36.82-8.28,47,6.4C365,462,367.36,489.2,353.89,516.9c-5.19,10.66-13.32,18.29-25.79,19.1-15.42,1-26.16-6.63-32-20.38-5.45-12.93-9.65-26.39-14.4-39.61Z"/><path class="cls-197" d="M577.72,259.1q0,8.14,0,16.28v67.76c-1.36-1.32-3.86-2.61-3.89-4-.68-27.91-1.09-55.82-1.47-83.73,0-1.15.77-2.31,1.18-3.46a32,32,0,0,0,1.49,3.19C575.85,256.54,576.82,257.8,577.72,259.1Z"/><path class="cls-256" d="M635.41,333.65c-17.68-.39-33.64-15.61-33.29-31.74.27-12.29,12.1-22.56,25.86-22.45,16.89.13,34.19,16.3,33.76,31.53C661.37,323.93,649.7,334,635.41,333.65Z"/><path class="cls-257" d="M639.91,484.12c.4-18,3.14-33.8,15.38-45.11,11.66-10.77,26.19-11.09,39.77,4.14,18.63,20.89,25.23,61.3,11.92,85.9-12.94,23.91-35.8,22.78-51.73,2.54C644.1,517.41,640.44,500.15,639.91,484.12Zm11.7-2.09c1,6.73.63,10.73,2.2,13.73,5.1,9.75,10,19.83,16.9,28.26,2.4,3,10.83,3.3,15.41,1.7,10.22-3.58,13.56-13.14,14.89-23.12,2-15.14-2-28.4-9.67-41.9-7.14-12.6-25.4-12.63-30.79-2.16C656.33,466.75,653.89,475.88,651.61,482Z"/><path class="cls-258" d="M651.61,482c2.28-6.15,4.72-15.28,8.94-23.49,5.39-10.47,23.65-10.44,30.79,2.16C699,474.2,703,487.46,701,502.6c-1.33,10-4.67,19.54-14.89,23.12-4.58,1.6-13,1.25-15.41-1.7-6.86-8.43-11.8-18.51-16.9-28.26C652.24,492.76,652.6,488.76,651.61,482Z"/></svg>