<svg id="Layer_1" data-name="Layer 1" xmlns="http://www.w3.org/2000/svg" viewBox="0 0 601 228"><defs><style>.cls-1{fill:#fff;}</style></defs><path class="cls-1" d="M331.27,97.39c-1,3,0,10.77,0,13.91,0,33.17,54,58,123.65,58V145.56C385.27,145.56,331.27,124,331.27,97.39Z"/><path class="cls-1" d="M573,97.39A20.24,20.24,0,0,1,569.85,108c0-27.92-60.27-38.7-114.93-38.7V52C521.46,52,573,72.31,573,97.39Z"/><path class="cls-1" d="M578.57,97.39c0,18.37-25.74,34.33-64.59,42.45v22.83c38.85-9.54,64.59-28.47,64.59-51.37C578.57,108.16,579.54,100.4,578.57,97.39Z"/><path class="cls-1" d="M395.86,57.93c-35.64,7.82-59.06,22.56-59.06,39.46A20.33,20.33,0,0,0,340,108c0-17.7,24.23-28.5,55.87-34Z"/><polyline class="cls-1" points="454.48 119.28 498.59 155.87 454.48 192.46"/><polyline class="cls-1" points="455.2 33.37 422.5 60.49 455.2 87.61"/></svg>