<svg id="Layer_1" data-name="Layer 1" xmlns="http://www.w3.org/2000/svg" viewBox="0 0 601 228"><defs><style>.cls-1{fill:#fff;}</style></defs><path class="cls-1" d="M122.68,62c-2.16-.65-2.28-6,0-8.24l30.48-37.27a.59.59,0,0,1,.83,0l30.48,37.27c2.28,2.28,2.21,7.59,0,8.24Z"/><path class="cls-1" d="M184.48,166c2.16.65,2.28,6,0,8.24L154,211.51a.59.59,0,0,1-.82,0l-30.5-37.27c-2.27-2.28-2.21-7.59,0-8.24Z"/><path class="cls-1" d="M206.09,83.17c.65-2.15,6-2.26,8.24,0l37.23,30.54a.59.59,0,0,1,0,.82L214.24,145c-2.28,2.28-7.59,2.2-8.24,0Z"/><path class="cls-1" d="M102.93,145c-.66,2.16-6,2.27-8.24,0L57.45,114.46a.59.59,0,0,1,0-.83L94.76,83.19c2.28-2.27,7.59-2.2,8.24,0Z"/><circle class="cls-1" cx="153.72" cy="114.05" r="21.74"/></svg>