<svg id="Layer_1" data-name="Layer 1" xmlns="http://www.w3.org/2000/svg" viewBox="0 0 1000 1000"><defs><style>.cls-1{fill:#efefef;}.cls-2{fill:#400804;}.cls-3{fill:#961d14;}.cls-4{fill:#cc4034;}.cls-5{fill:#460905;}.cls-6{fill:#c93e33;}.cls-7{fill:#bd281c;}.cls-8{fill:#68110a;}.cls-9{fill:#77170f;}.cls-10{fill:#77160f;}.cls-11{fill:#76160e;}.cls-12{fill:#550e09;}.cls-13{fill:#d24236;}.cls-14{fill:#7b170f;}.cls-15{fill:#af271d;}.cls-16{fill:#d95043;}</style></defs><rect class="cls-1" x="-1" width="1000" height="1000"/><path class="cls-2" d="M795.78,564.32c-32.35,8.26-64.66,16.68-97.06,24.74Q577.1,619.33,455.4,649.29c-8.86,2.19-17.85,3.82-26.77,5.71,0-.84-.05-1.67-.08-2.51l2.28-4.49c7.78.92,10.91-3,11.36-10.35a107.38,107.38,0,0,1,2.06-13.26c6.08-31.92,11.62-64,18.66-95.68,2.39-10.81,5.82-24.94,13.69-30.17,12.74-8.47,29.39-11.42,44.68-15.61,16.81-4.61,34-7.88,51-11.94,14.45-3.46,28.81-7.37,43.27-10.8,23.12-5.48,46.56-9.78,69.35-16.37,18-5.22,29.37-4.11,40.35,10.86,24.18,32.94,47.64,66.42,71,99.93C797.7,556.72,796,561,795.78,564.32Z"/><path class="cls-3" d="M294.73,376.25c38.38-9.74,76.73-19.62,115.15-29.18,40.38-10.06,81.23-18.5,121-30.39,14.27-4.26,20,5.47,29.14,9.4,9.62,4.13,18.06,11,27,16.68,2.88,2.32,5.54,5,8.66,6.93C623.83,367,652.15,384,680,401.64c5.62,3.58,20.15,5.84,6.94,17.71-.4.37-.15,1.45-.2,2.2-6.4,1.28-12.83,2.39-19.18,3.87-17,3.94-34,8-50.95,12.08-1.46-1.41-3.29-4.28-4.34-4Q555.06,447.55,498,462.39c-1.76.46-2.63,4.31-3.91,6.57l-43,6.8-8.6-2.24c-5.4-3.83-10.61-8-16.23-11.44-19.22-11.82-38.7-23.22-57.87-35.13-23.14-14.39-46.06-29.13-69.08-43.72C297.8,380.91,296.27,378.58,294.73,376.25Z"/><path class="cls-4" d="M352,609.89,326.06,593.2l-49.24-31.41-27.72-20c5.55,2.23,11.43,3.86,16.59,6.78,27.61,15.63,54.9,31.85,82.62,47.29,11.93,6.65,24.63,11.9,37,17.78a140.84,140.84,0,0,0-18.57-23.45q-37.53-39.13-75.32-78c-6.36-6.52-13.66-12.15-19.94-18.75-4-4.25-8.18-9.07-10.18-14.42-2.55-6.82-3.37-9.24-10.08-2.9-12.12,11.44-17.53,10.41-28.38-2.52-1-1.24-3.29-1.47-5-2.17q13.59-17,27.17-34c12.73,6.88,22.52-1.43,30.72-8.17,11.9-9.78,20-10.06,28.94,2.51,2.36,3.33,5.52,6.13,8.52,9,29.4,27.67,58.43,55.76,88.51,82.68,10.09,9,14.84,19.06,15.48,31.85.21,4.12-.15,8.3.31,12.39.16,1.46,2,2.73,3,4.1a27.35,27.35,0,0,1,2-4.23c5.72-8.16,2.11-21.63,14.72-25.86-3.67,28-7.07,56-11.17,83.95-1.24,8.41-4.44,16.53-6.74,24.78l-17.65-11.35Z"/><path class="cls-5" d="M419.31,650.42c2.3-8.25,5.5-16.37,6.74-24.78,4.1-27.93,7.5-56,11.18-83.95-.94-2.26-3-4.71-2.64-6.75,3.21-18.78,6.83-37.5,10.33-56.23a10.83,10.83,0,0,0,1.85-.61l2.39-2.09a5.65,5.65,0,0,0,2-.25l43-6.8c9.08-2.18,18.2-4.22,27.24-6.57Q569,450,616.59,437.5c17-4,33.95-8.14,50.95-12.08,6.35-1.48,12.78-2.59,19.18-3.87l18.47-6.78q23.73,33.33,47.47,66.66,25.07,35.31,50,70.71c2.09,3,3.9,6.1,5.84,9.17l-12.75,3c.22-3.29,1.92-7.6.44-9.71-23.38-33.51-46.84-67-71-99.93-11-15-22.33-16.08-40.35-10.86-22.79,6.59-46.23,10.89-69.35,16.37-14.46,3.43-28.82,7.34-43.27,10.8-17,4.06-34.14,7.33-51,11.94-15.29,4.19-31.94,7.14-44.68,15.61-7.87,5.23-11.3,19.36-13.69,30.17-7,31.71-12.58,63.76-18.66,95.68a107.38,107.38,0,0,0-2.06,13.26c-.45,7.34-3.58,11.27-11.36,10.35q10.47-78.4,20.84-156.81c.29-2.16-.68-4.48-1.07-6.73-1.31,1.86-3.44,3.57-3.79,5.6-1.14,6.62-1.53,13.36-2.41,20-4.38,33.15-9.13,66.25-13.11,99.44-1.71,14.22-1.87,28.63-2.74,43,0,.84.05,1.67.08,2.51Z"/><path class="cls-6" d="M217.84,471.44c1.69.7,3.94.93,5,2.17,10.85,12.93,16.26,14,28.38,2.52,6.71-6.34,7.53-3.92,10.08,2.9,2,5.35,6.14,10.17,10.18,14.42,6.28,6.6,13.58,12.23,19.94,18.75q37.83,38.84,75.32,78a140.84,140.84,0,0,1,18.57,23.45c-12.35-5.88-25.05-11.13-37-17.78-27.72-15.44-55-31.66-82.62-47.29-5.16-2.92-11-4.55-16.59-6.78l-21.74-8.91-34.53-22.64c1.77-5.05,2.57-10.79,5.53-15C204.22,486.87,211.28,479.33,217.84,471.44Z"/><path class="cls-7" d="M217.84,471.44c-6.56,7.89-13.62,15.43-19.48,23.81-3,4.22-3.76,10-5.53,15-4.39-2.34-9.91-2.32-3.21-10.25,24-28.47,46.76-58,69.93-87.22,7.57-9.54,14.59-19.54,22.61-28.68,3.12-3.55,8.32-5.29,12.57-7.86,1.54,2.33,3.07,4.66,4.61,7-4.42.6-10.82-.47-12.95,2.06-14.3,17-27.69,34.69-41.38,52.17Q231.42,454.46,217.84,471.44Z"/><path class="cls-8" d="M705.19,414.77l-18.47,6.78c0-.75-.2-1.83.2-2.2,13.21-11.87-1.32-14.13-6.94-17.71C652.15,384,623.83,367,595.75,349.69c-3.12-1.93-5.78-4.61-8.66-6.93,12,6.67,24.18,13,35.91,20.08,26.85,16.23,53.47,32.84,80.14,49.36C704,412.74,704.52,413.89,705.19,414.77Z"/><path class="cls-9" d="M227.36,532.9l21.74,8.91,27.72,20c0,.67-.06,1.35-.06,2Z"/><path class="cls-10" d="M352,609.89l49.69,29.18c-10-5.38-20.12-10.54-29.94-16.22C364.92,618.91,358.54,614.23,352,609.89Z"/><path class="cls-11" d="M276.76,563.83c0-.68,0-1.36.06-2q24.63,15.69,49.24,31.4Z"/><path class="cls-12" d="M428.55,652.49c.87-14.33,1-28.74,2.74-43,4-33.19,8.73-66.29,13.11-99.44.88-6.67,1.27-13.41,2.41-20,.35-2,2.48-3.74,3.79-5.6.39,2.25,1.36,4.57,1.07,6.73Q441.38,569.61,430.83,648Z"/><path class="cls-13" d="M245,437.46c13.69-17.48,27.08-35.21,41.38-52.17,2.13-2.53,8.53-1.46,12.95-2.06,23,14.59,45.94,29.33,69.08,43.72,19.17,11.91,38.65,23.31,57.87,35.13,5.62,3.47,10.83,7.61,16.23,11.44l2.4,5.19c-3.5,18.73-7.12,37.45-10.33,56.23-.35,2,1.7,4.49,2.64,6.75-12.62,4.23-9,17.7-14.73,25.86a27.35,27.35,0,0,0-2,4.23c-1.05-1.37-2.85-2.64-3-4.1-.46-4.09-.1-8.27-.31-12.39-.64-12.79-5.39-22.82-15.48-31.85-30.08-26.92-59.11-55-88.51-82.68-3-2.83-6.16-5.63-8.52-9-8.89-12.57-17-12.29-28.94-2.51C267.53,436,257.74,444.34,245,437.46Z"/><path class="cls-14" d="M616.59,437.5Q569,450,521.37,462.39c-9,2.35-18.16,4.39-27.24,6.57,1.28-2.26,2.15-6.11,3.91-6.57q57-14.89,114.21-28.91C613.3,433.22,615.13,436.09,616.59,437.5Z"/><path class="cls-15" d="M444.92,478.71l-2.4-5.19,8.6,2.24a5.65,5.65,0,0,1-2,.25l-2.39,2.09A10.83,10.83,0,0,1,444.92,478.71Z"/><path class="cls-16" d="M446.77,478.1l2.39-2.09Z"/></svg>