<svg id="Layer_1" data-name="Layer 1" xmlns="http://www.w3.org/2000/svg" viewBox="0 0 484 651"><defs><style>.cls-1{fill:#fff;}</style></defs><path class="cls-1" d="M17.19,155.28H466.66c-1,10.43-2,20.63-3.05,30.81Q457.34,247,451,307.86q-7.36,71.33-14.71,142.65c-4.74,46.06-10.62,92-13.8,138.21-2.29,33.15-28.63,60.37-66.32,60-54-.48-108-.08-161.95-.14-25,0-50,.68-74.95-.68C92.35,646.46,74,631.51,64.83,606.31,62.21,599.13,62,591,61.2,583.24Q50.16,477.13,39.32,371q-8.74-85.24-17.44-170.5C20.36,185.61,18.79,170.72,17.19,155.28ZM261.77,391q0-81.25,0-162.5a44.94,44.94,0,0,0-.53-8,19.57,19.57,0,0,0-38.4-.52,42.52,42.52,0,0,0-.62,8.44q0,162.51,0,325c0,1.66-.06,3.34.08,5,1.17,13.29,14,21.77,26.31,17.41,8.42-3,13.19-10.43,13.19-20.87Q261.79,473,261.77,391ZM173,559c-2.21-33.56-4.21-64.31-6.26-95.05Q160.36,369,154,274c-1.13-16.95-2.06-33.92-3.4-50.85-.91-11.6-10.27-19.54-21.22-18.59a19.68,19.68,0,0,0-18.1,21.21q3,45.36,6,90.73Q123.69,411.74,130,507c1.17,17.45,2.1,34.92,3.63,52.33a19.36,19.36,0,0,0,21,17.66C165.24,576.12,173.23,567,173,559ZM311,558.52c0,5.19,2.86,11.15,9,15.24a19.47,19.47,0,0,0,30.24-14.61c1.4-15.08,2.08-30.24,3.09-45.36q5.31-79.27,10.63-158.54c2.86-42.7,5.62-85.42,8.57-128.12.83-12.07-6.64-21.67-18.15-22.57-11.12-.87-20.37,7.4-21.17,19.25q-4.26,63.32-8.35,126.64-3.74,56.08-7.55,112.17C315.24,493.86,313.2,525.11,311,558.52Z"/><path class="cls-1" d="M42,82H442a40,40,0,0,1,40,40v17a0,0,0,0,1,0,0H2a0,0,0,0,1,0,0V122A40,40,0,0,1,42,82Z"/><path class="cls-1" d="M325,2H158a40,40,0,0,0-40,40V82h32V49a20,20,0,0,1,20-20H316a20,20,0,0,1,20,20V82h29V42A40,40,0,0,0,325,2Z"/></svg>