<svg id="Layer_1" data-name="Layer 1" xmlns="http://www.w3.org/2000/svg" viewBox="0 0 1000 1000"><defs><style>.cls-1{fill:#efefef;}.cls-2{fill:#504d44;}.cls-3{fill:#2c2a26;}.cls-4{fill:#2d2b27;}.cls-5{fill:#35332d;}.cls-6{fill:#1c1b17;}.cls-7{fill:#191916;}.cls-8{fill:#605c52;}.cls-9{fill:#282622;}.cls-10{fill:#312f2a;}.cls-11{fill:#7c786d;}.cls-12{fill:#0e0d0c;}.cls-13{fill:#898479;}.cls-14{fill:#847f71;}.cls-15{fill:#1e1e1c;}.cls-16{fill:#32302b;}.cls-17{fill:#908a7b;}</style></defs><rect class="cls-1" x="-1" width="1000" height="1000"/><path class="cls-2" d="M565.93,163s.48.2.48.21c1.89,2.32,3.35,5.32,5.75,6.82q62.18,38.75,124.57,77.16,49.75,30.72,99.56,61.36l1.38,1.32h0c0,.43-.08.87-.11,1.3a52.05,52.05,0,0,0-5.3.78Q701.65,334.25,611,356.61c-48.24,11.9-96.51,23.71-144.71,35.78-12.52,3.13-24.84,7.08-37.25,10.65l-8.79-7-20.87-13.39-2.55-1.42-5.17-1.46-1.5-1.12-.09-.15-2.77-2.66-5.49-4-2.53-1.4-8.18-5.24c-9.07-5.82-18.08-11.73-27.21-17.42C325,335.93,306,324.24,287,312.5c-14.66-9.06-29.26-18.24-44-27.16-14.36-8.69-28.88-17.12-43.34-25.67,3.43-1.69,6.69-4.06,10.32-5,59.45-14.77,119-29.3,178.44-44q85.65-21.15,171.24-42.55c2-.51,3.84-1.93,5.76-2.92C565.58,164.5,565.76,163.75,565.93,163Z"/><path class="cls-3" d="M808.23,686.52q0,18.9,0,37.81c-4.25-.74-8.85-2.91-12.71-2-40.25,9.58-80.4,19.62-120.56,29.6q-95.73,23.79-191.47,47.59c-16.27,4-32.67,7.47-49,11.18l.06-128.26,5.27-3.7-5.27-4.38,1.2-4c1.37-1.78,3.95-3.71,3.77-5.31s-3.2-2.79-5-4.17v-2.71c2.15-2.26,5.17-4.19,6.21-6.88,1.09-2.85.25-6.44.35-9.7.2-6.26.17-12.56.87-18.78.29-2.61,2.18-5,3.35-7.56,2.2,1.9,6,3.52,6.35,5.74,1.88,10.65,2.77,11.18,16.17,9.65,13.95-1.59,27.9-3.29,41.86-4.85,13.74-1.53,27.51-2.85,41.26-4.41,22.37-2.52,44.73-5.21,67.11-7.74,17.73-2,35.48-3.83,53.21-5.8q27.93-3.12,55.83-6.36c15.28-1.76,30.55-3.65,45.84-5.24,4-.42,3.87-2,4.15-5.57.34-4.18,3.13-8.36,5.64-12,.47-.68,4.6,1.53,7.09,1.73a8.61,8.61,0,0,0,5.12-1.58c.41-.28-.17-3.4-1.11-4-3.29-2.28-3.06-3.8.07-6,1.23-.86,2.67-3.43,2.22-4.31-2.21-4.36,0-7.74.72-11.78.83-4.87-.88-10.3,2-15.22.27-.47-.51-1.64-.93-2.41-2.42-4.41-.41-6.63,3.79-7.8V701.74h2.7c0-2.52-.5-5.17.13-7.52C805.25,691.52,807,689.08,808.23,686.52Z"/><path class="cls-4" d="M190.06,671.77q-1.23-3.42-2.48-6.82c1.29-2.27,3.68-4.54,3.7-6.82.26-33.73.21-67.47.23-101.2q1.26-4.83,2.53-9.67c0-.31,0-.61,0-.91.34-4,.78-7.92,1-11.88.55-11.26.91-22.53,1.5-33.79q1.16-22.29,2.62-44.56c.09-1.43,1.17-2.8,1.79-4.2,1.25.71,3.27,1.16,3.62,2.18,1.74,5,3.63,10.09,4.34,15.29,1.39,10.18,7.47,17.12,14.68,23.47.38.34,1.55-.2,2.35-.34-.61-3.29,5-7.25-1.19-10.1-1-.44-1.08-2.7-1.59-4.12,1.37.13,3.31-.26,4,.5a103.55,103.55,0,0,1,10.36,12.31c2.73,4,4.47,8.71,6.82,13a5,5,0,0,0,2.79,2.41c.61.12,2.07-1.41,2.3-2.4,1.08-4.6,3.29-3.76,6.35-1.88,1.77,1.08,4.26,1,6,2.12A24.51,24.51,0,0,1,268.3,510c2.74,3.69,4.42,8.22,7.44,11.6,1.83,2.05,5.6,2.22,8,3.92,2.78,2,4.59,3.4,5.81-1.29.37-1.4,2.48-3.64,3.06-3.44a8.76,8.76,0,0,1,4.39,3.54c2.54,4.39,4.52,9.1,7,13.54a86.89,86.89,0,0,0,5.05,7.39c.87-2.89,1.41-5.95,2.74-8.61.74-1.49,2.79-2.32,4.25-3.45,4.49,5.83,9.11,11.57,13.41,17.54,1.67,2.31,2.46,5.24,3.94,7.72,1.59,2.67,3.35,5.17,6.46,1.09.42-.55,3.56.1,4.6,1.08,2.63,2.5,4.6,6.12,8.09.87.37-.56,3.34-.38,4,.4,3.49,4.2,6.58,8.72,9.91,13.06,1.27,1.66,2.82,3.1,4.25,4.65,1-2,2.05-4,3.06-6,.67-1.31,1.31-2.64,2-4,.73.37,1.74.55,2.16,1.14,4.31,6.14,8.6,12.28,12.72,18.55,2.07,3.14,3.58,6.64,5.73,9.71.47.67,2.57.21,3.91.27-.23-5.15,2.76-7.15,7.26-8.69,1.69-.58,2.4-4,3.59-6.05.83-1.45,1.73-2.86,2.6-4.29,1.08,1.61,2.89,3.12,3.11,4.83.74,5.9,1,11.86,1.3,17.81.57,11.74.71,23.52,1.7,35.22.41,4.92,2.52,9.69,3.86,14.53l0,144.09q0,6.25,0,12.5c-5.59-3.23-11.28-6.31-16.77-9.7Q325.54,749.52,244.26,699.3c-16-9.91-32-19.93-48-29.83C193.39,667.71,190.22,665.9,190.06,671.77ZM409.93,592.9c-.92,1-1.88,1.58-1.82,2a2.8,2.8,0,0,0,1.47,1.8c.31.14,1.51-.74,1.58-1.26S410.57,594.13,409.93,592.9Z"/><path class="cls-5" d="M801.71,532.63v-5.4q0-68.48,0-136.94a35.37,35.37,0,0,0-.74-5.17c-.79.15-2.13.09-2.28.49a26.89,26.89,0,0,0-1.72,6.13c-.35,2.71-.28,5.47-.42,8.21-.08,1.65-.2,3.3-.34,4.95a62.21,62.21,0,0,1-.74,7.74c-1.23,5.82,2.88,12.47-2.76,17.58.47.46,1.19.85,1.37,1.41.56,1.67.91,3.41,1.34,5.12-1.89.39-3.85,1.31-5.66,1.07-2.63-.36-5.21-4.7-7.65.39-1.42,3-4.9,6.25-4.31,8.6,1.9,7.56-3.47,8.08-7.69,8.59-11.53,1.39-23.14,2-34.72,3-16.92,1.4-33.85,2.74-50.76,4.25-18.45,1.65-36.89,3.5-55.34,5.18-16.24,1.48-32.49,2.75-48.73,4.29-22,2.09-44,4.45-66,6.48-16.91,1.57-33.89,2.39-50.74,4.4-6.08.73-10.67,2.12-11-6.28-.05-1.37-2.41-2.52-3.14-4a20.45,20.45,0,0,1-1.5-5.72c-.24-1.57.22-3.3-.27-4.74-.17-.5-3-.85-3.4-.34a11.1,11.1,0,0,0-1.64,4.68c-.4,2.52-.45,5.08-.72,7.62-.64,6.06-1.67,12.1-1.91,18.17-.4,10.43-.18,20.88-.62,31.31-.06,1.25-2.58,2.4-4,3.6-.4-6.67-1.11-13.34-1.13-20-.13-31.13-.07-62.27-.08-93.4l4.1-5.37L452,405.75c.35,1.12.71,2.23,1.06,3.34.54-1.12,1.09-2.24,1.64-3.37l9.45-2.67c.42,1.12.84,2.25,1.25,3.37.36-.19,1-.46,1-.55-.25-1-.6-1.9-.93-2.84l23-5.4,1.26,2.05.79-.79-2-1.26,10.8-2.7,2.36,2.43c.57-1.26,1.14-2.51,1.7-3.77l8.1-2.69c.79.8,1.58,1.6,2.36,2.41.57-1.26,1.13-2.51,1.7-3.76l8.09-1.34,1.83,3.49c.3-1.62.59-3.24.88-4.85l9.44-1.36,1.69,2-.33-3.38c14.56-3.44,29.14-6.76,43.67-10.33q99.54-24.49,199.07-49.09c6.07-1.5,12.42-2.31,18.13-4.68,2.35-1,3.34-5.21,4.95-8l-5.34-.9.12-1.3,6.67-1.1c1.37,2,3.92,4,3.92,6q.21,96.79,0,193.6-5.33,2.69,0,5.38v5.41c-1.06,2.67-2,5.4-3.22,8A61.71,61.71,0,0,1,801.71,532.63Zm.62-156.46-2.07-3.51c-.84,1.07-2.31,2.12-2.34,3.21s1.28,2.41,2,3.62Zm-.59-12.55c-.46-.76-.78-1.27-1.1-1.78-.45.36-1.21.67-1.28,1.09s.45,1.08.71,1.63Z"/><path class="cls-6" d="M434.46,810.71c16.34-3.71,32.74-7.16,49-11.18q95.78-23.64,191.47-47.59c40.16-10,80.31-20,120.56-29.6,3.86-.92,8.46,1.25,12.71,2-8.76,2.69-17.42,5.79-26.31,8C732,744.74,682,756.91,632.05,769.23Q545.42,790.59,458.81,812c-10.32,2.54-20.75,4.62-31.12,6.91v-2.85c0-1.78,0-3.56,0-5.35l.09-23,.61,0,.61,0c0,7.19-.06,14.38.12,21.56.05,2.07.83,4.13,1.27,6.19Q432.43,813.08,434.46,810.71Z"/><path class="cls-7" d="M427.7,810.72c0,1.79,0,3.57,0,5.35l-2.66,1.4q-39.28-24.12-78.55-48.24-56.78-35-113.44-70.18c-14.41-8.95-28.65-18.18-43-27.28.16-5.87,3.33-4.06,6.18-2.3,16,9.9,32,19.92,48,29.83q81.28,50.21,162.64,100.35c5.49,3.39,11.18,6.47,16.77,9.7Z"/><path class="cls-8" d="M565.41,165.25c-1.92,1-3.73,2.41-5.76,2.92Q474,189.55,388.41,210.72c-59.48,14.69-119,29.22-178.44,44-3.63.9-6.89,3.27-10.32,5q-3.48-2-7-4,48-12,95.92-24.05Q376.82,209.76,465.1,188q47.79-11.85,95.57-23.81A16.26,16.26,0,0,1,564,164Z"/><path class="cls-9" d="M804.36,308.78l-6.67,1.1h0l-1.38-1.32q-49.77-30.68-99.56-61.36Q634.39,208.7,572.16,170c-2.4-1.5-3.86-4.5-5.75-6.82,7.43,3.93,15.1,7.47,22.23,11.87,47,29,93.85,58.29,140.82,87.37,23.65,14.63,47.45,29,71.16,43.56C801.94,306.82,803.12,307.85,804.36,308.78Z"/><path class="cls-10" d="M801.71,532.63a61.71,61.71,0,0,0,3.3-5.51c1.22-2.59,2.16-5.32,3.22-8V686.52c-1.27,2.56-3,5-3.69,7.71-.63,2.35-.13,5-.13,7.52h-2.7Z"/><path class="cls-2" d="M191.51,556.93c0,33.73,0,67.47-.23,101.2,0,2.28-2.41,4.55-3.7,6.82q-.08-110.43-.15-220.85c0-17.28.12-34.56.19-51.84l3.74-.07Z"/><path class="cls-11" d="M192.67,255.71q3.5,2,7,4c14.46,8.54,29,17,43.34,25.66,14.76,8.92,29.36,18.1,44,27.16,19,11.74,38,23.43,56.92,35.23,9.13,5.69,18.14,11.6,27.21,17.42-.45,1.34-.9,2.67-1.34,4l-.21.25-28.27-17.66.29-.56-.29.55c-8.17-4.82-16.42-9.52-24.51-14.48q-31.29-19.18-62.48-38.56c-14.37-8.93-28.57-18.14-43-26.92-6.42-3.9-13.29-7.06-20-10.55l-1.29-5.15Z"/><path class="cls-8" d="M190.06,256.08l1.29,5.15c.54,1.72,1.07,3.43,1.61,5.14-.5,2.77-1.44,5.54-1.45,8.3q-.18,58.75-.15,117.52l-3.74.07q-.1-66.11-.09-132.23C187.53,258.71,189.18,257.4,190.06,256.08Z"/><path class="cls-10" d="M808.23,513.72q-5.33-2.69,0-5.38Z"/><path class="cls-12" d="M425,817.47l2.66-1.4c0,.95,0,1.9,0,2.85Z"/><path class="cls-9" d="M565.41,165.25,564,164l1.9-1C565.76,163.75,565.58,164.5,565.41,165.25Z"/><path class="cls-9" d="M452,405.75l-13.48,2.71-5.38,1.32-5.32-2.6c.41-1.38.82-2.76,1.24-4.14h0c12.41-3.57,24.73-7.52,37.25-10.65,48.2-12.07,96.47-23.88,144.71-35.78Q701.66,334.26,792.28,312a52.05,52.05,0,0,1,5.3-.78l5.33.9c-1.61,2.76-2.6,7-4.95,8-5.71,2.37-12.06,3.18-18.13,4.68q-99.54,24.54-199.07,49.09c-14.53,3.57-29.11,6.89-43.67,10.33l-1.36,1.34-9.44,1.36-2.71,1.36-8.09,1.34-4.06,1.35-8.1,2.69h-2.7l-1.36,1.34h0l-10.8,2.7h0l-23,5.4-1.34,0-9.45,2.67ZM432.67,405a16.07,16.07,0,0,0,1.77-.85c.08-.05-.15-.6-.23-.92a13,13,0,0,0-1.8.58A4.87,4.87,0,0,0,432.67,405Z"/><path class="cls-13" d="M193,266.37c-.54-1.71-1.07-3.42-1.61-5.14,6.66,3.49,13.53,6.65,20,10.55,14.46,8.78,28.66,18,43,26.92q31.18,19.37,62.48,38.56c8.09,5,16.34,9.66,24.51,14.48h0l28.27,17.66c.5.31,1,.63,1.51.91,0,0,.25-.3.37-.46l-1.67-.7c.44-1.34.89-2.67,1.34-4l8.18,5.25L378,375.28l3.88-3.49,5.49,4,2.77,2.66.09.15c-.1.49-.19,1-.29,1.46l-1.78.52.34.52,1.46-1,1.78-.37,5.16,1.47c-1.09,2.19-4.71,4.85,1.08,5.75.5.31,1,.63,1.5.91,0,0,.25-.3.38-.46l-1.69-.68c.43-1.37.85-2.74,1.28-4.11L420.29,396l-4.64,1.52c-.49-.32-1-.64-1.49-.93a3.81,3.81,0,0,0-.37.46l1.67.69,5.76,7.64c-10-5.47-20.22-10.52-29.9-16.48Q292,327.81,193,266.37ZM404.68,391l.7.48-.49-.69c-.5-.32-1-.66-1.53-.94,0,0-.25.29-.39.46Z"/><path class="cls-14" d="M421.22,405.4l-5.76-7.64.19-.22,4.64-1.52,8.79,7h0l-4.14,3.79Z"/><path class="cls-14" d="M381.85,371.79,378,375.28l1.35-4.88Z"/><path class="cls-14" d="M398,387c-5.79-.9-2.17-3.56-1.08-5.75l2.55,1.42c-.43,1.36-.85,2.73-1.28,4.1Z"/><path class="cls-14" d="M390.11,378.47l-2.77-2.66Z"/><path class="cls-14" d="M389.91,380.08c.1-.49.19-1,.29-1.46l1.5,1.12-1.77.36Z"/><path class="cls-5" d="M796.29,308.55l1.38,1.32Z"/><path class="cls-10" d="M435.65,527.25c1.38-1.2,3.9-2.35,4-3.6.44-10.43.22-20.88.62-31.31.24-6.07,1.27-12.11,1.91-18.17.27-2.54.32-5.1.72-7.62a11.1,11.1,0,0,1,1.64-4.68c.37-.51,3.23-.16,3.4.34.49,1.44,0,3.17.27,4.74a20.45,20.45,0,0,0,1.5,5.72c.73,1.52,3.09,2.67,3.14,4,.34,8.4,4.93,7,11,6.28,16.85-2,33.83-2.83,50.74-4.4,22-2,44-4.39,66-6.48,16.24-1.54,32.49-2.81,48.73-4.29,18.45-1.68,36.89-3.53,55.34-5.18,16.91-1.51,33.84-2.85,50.76-4.25,11.58-1,23.19-1.6,34.72-3,4.22-.51,9.59-1,7.69-8.59-.59-2.35,2.89-5.64,4.31-8.6,2.44-5.09,5-.75,7.65-.39,1.81.24,3.77-.68,5.66-1.07-.43-1.71-.78-3.45-1.34-5.12-.18-.56-.9-.95-1.37-1.41,5.64-5.11,1.53-11.76,2.76-17.58a62.21,62.21,0,0,0,.74-7.74c.14-1.65.26-3.3.34-4.95.14-2.74.07-5.5.42-8.21a26.89,26.89,0,0,1,1.72-6.13c.15-.4,1.49-.34,2.28-.49a35.37,35.37,0,0,1,.74,5.17q.06,68.47,0,136.94c-4.2,1.17-6.21,3.39-3.79,7.8.42.77,1.2,1.94.93,2.41-2.9,4.92-1.19,10.35-2,15.22-.68,4-2.93,7.42-.72,11.78.45.88-1,3.45-2.22,4.31-3.13,2.21-3.36,3.73-.07,6,.94.65,1.52,3.77,1.11,4a8.61,8.61,0,0,1-5.12,1.58c-2.49-.2-6.62-2.41-7.09-1.73-2.51,3.64-5.3,7.82-5.64,12-.28,3.58-.13,5.15-4.15,5.57-15.29,1.59-30.56,3.48-45.84,5.24q-27.92,3.19-55.83,6.36c-17.73,2-35.48,3.8-53.21,5.8-22.38,2.53-44.74,5.22-67.11,7.74-13.75,1.56-27.52,2.88-41.26,4.41-14,1.56-27.91,3.26-41.86,4.85-13.4,1.53-14.29,1-16.17-9.65-.39-2.22-4.15-3.84-6.35-5.74-1.17,2.51-3.06,5-3.35,7.56-.7,6.22-.67,12.52-.87,18.78-.1,3.26.74,6.85-.35,9.7-1,2.69-4.06,4.62-6.21,6.88q0-61.86,0-123.72C434.51,532.05,435.25,529.65,435.65,527.25Z"/><path class="cls-15" d="M435.65,527.25c-.4,2.4-1.14,4.8-1.15,7.19q-.08,61.86,0,123.72v2.71q.62,4.74,1.21,9.48l-1.2,4v8.08l-.06,128.26q-2,2.37-4.06,4.75c-.44-2.06-1.22-4.12-1.27-6.19-.18-7.18-.1-14.37-.12-21.56q0-185.84,0-371.67c0-2.11-.84-4.23-1.29-6.34,0-.4,0-.81,0-1.21a5.23,5.23,0,0,1,.1-1.31l5.32,2.6c.43,1.36.85,2.71,1.28,4.06,0,31.13-.05,62.27.08,93.4C434.54,513.91,435.25,520.58,435.65,527.25Z"/><path class="cls-10" d="M435.72,670.35q-.6-4.74-1.21-9.48c1.78,1.38,4.8,2.61,5,4.17S437.09,668.57,435.72,670.35Z"/><path class="cls-10" d="M434.52,682.45v-8.08l5.27,4.38Z"/><path class="cls-16" d="M421.22,405.4l3.72,1.42c0,.6.07,1.21.1,1.82-.44,11.19-1.24,22.39-1.26,33.58q-.21,105.27-.13,210.54c-1.34-4.84-3.45-9.61-3.86-14.53-1-11.7-1.13-23.48-1.7-35.22-.29-6-.56-11.91-1.3-17.81-.22-1.71-2-3.22-3.11-4.83-.87,1.43-1.77,2.84-2.6,4.29-1.19,2.08-1.9,5.47-3.59,6.05-4.5,1.54-7.49,3.54-7.26,8.69-1.34-.06-3.44.4-3.91-.27-2.15-3.07-3.66-6.57-5.73-9.71-4.12-6.27-8.41-12.41-12.72-18.55-.42-.59-1.43-.77-2.16-1.14-.66,1.32-1.3,2.65-2,4-1,2-2,4-3.06,6-1.43-1.55-3-3-4.25-4.65-3.33-4.34-6.42-8.86-9.91-13.06-.64-.78-3.61-1-4-.4-3.49,5.25-5.46,1.63-8.09-.87-1-1-4.18-1.63-4.6-1.08-3.11,4.08-4.87,1.58-6.46-1.09-1.48-2.48-2.27-5.41-3.94-7.72-4.3-6-8.92-11.71-13.41-17.54-1.46,1.13-3.51,2-4.25,3.45-1.33,2.66-1.87,5.72-2.74,8.61a86.89,86.89,0,0,1-5.05-7.39c-2.46-4.44-4.44-9.15-7-13.54a8.76,8.76,0,0,0-4.39-3.54c-.58-.2-2.69,2-3.06,3.44-1.22,4.69-3,3.24-5.81,1.29-2.42-1.7-6.19-1.87-8-3.92-3-3.38-4.7-7.91-7.44-11.6a24.51,24.51,0,0,0-6.52-5.67c-1.75-1.11-4.24-1-6-2.12-3.06-1.88-5.27-2.72-6.35,1.88-.23,1-1.69,2.52-2.3,2.4a5,5,0,0,1-2.79-2.41c-2.35-4.3-4.09-9-6.82-13a103.55,103.55,0,0,0-10.36-12.31c-.71-.76-2.65-.37-4-.5.51,1.42.63,3.68,1.59,4.12,6.18,2.85.58,6.81,1.19,10.1-.8.14-2,.68-2.35.34-7.21-6.35-13.29-13.29-14.68-23.47-.71-5.2-2.6-10.28-4.34-15.29-.35-1-2.37-1.47-3.62-2.18-.62,1.4-1.7,2.77-1.79,4.2q-1.45,22.28-2.62,44.56c-.59,11.26-.95,22.53-1.5,33.79-.2,4-.64,7.92-1,11.87a2.63,2.63,0,0,0-.38.24,4.54,4.54,0,0,0,.38.68q-1.28,4.83-2.53,9.67l-.15-164.74q0-58.76.15-117.52c0-2.76,1-5.53,1.45-8.3q99.17,61.31,198.36,122.55C401,394.88,411.24,399.93,421.22,405.4Z"/><path class="cls-15" d="M423.65,652.76q0-105.27.13-210.54c0-11.19.82-22.39,1.26-33.58l2.7-.15c0,.4,0,.81,0,1.21q0,189,.08,378l-.09,23-4-1.37q0-6.26,0-12.5Z"/><path class="cls-16" d="M409.93,592.9c.64,1.23,1.32,2,1.23,2.57s-1.27,1.4-1.58,1.26a2.8,2.8,0,0,1-1.47-1.8C408.05,594.48,409,593.87,409.93,592.9Z"/><path class="cls-2" d="M194,547.26a4.54,4.54,0,0,1-.38-.68,2.63,2.63,0,0,1,.38-.24C194.05,546.65,194.05,547,194,547.26Z"/><path class="cls-10" d="M802.33,376.17l-2.41,3.32c-.72-1.21-2-2.43-2-3.62s1.5-2.14,2.34-3.21Z"/><path class="cls-10" d="M434.44,413.84c-.43-1.35-.85-2.7-1.28-4.06l5.38-1.32Z"/><path class="cls-10" d="M523.58,388.21l2.71-1.36c-.29,1.61-.58,3.23-.88,4.85Z"/><path class="cls-10" d="M500.63,393.59h2.7c-.56,1.26-1.13,2.51-1.7,3.77l-2.36-2.43h0Z"/><path class="cls-10" d="M511.43,390.9l4.06-1.35c-.57,1.25-1.13,2.5-1.7,3.76C513,392.5,512.22,391.7,511.43,390.9Z"/><path class="cls-10" d="M464.17,403.05l1.34,0c.33.94.68,1.88.93,2.84,0,.09-.66.36-1,.55C465,405.3,464.59,404.17,464.17,403.05Z"/><path class="cls-10" d="M452,405.75l2.7,0c-.55,1.13-1.1,2.25-1.64,3.37C452.73,408,452.37,406.87,452,405.75Z"/><path class="cls-10" d="M801.74,363.62l-1.67.94c-.26-.55-.79-1.14-.71-1.63s.83-.73,1.28-1.09C801,362.35,801.28,362.86,801.74,363.62Z"/><path class="cls-10" d="M535.73,385.49l1.36-1.34.33,3.38Z"/><path class="cls-10" d="M488.47,397.63l2,1.26-.79.79-1.26-2.05Z"/><path class="cls-9" d="M427.79,787.71q0-189-.08-378c.45,2.11,1.29,4.23,1.29,6.34q.08,185.83,0,371.67l-.61,0Z"/><path class="cls-17" d="M341.32,351.74l.29-.55-.29.56Z"/><path class="cls-2" d="M427.74,408.49l-2.7.15c0-.61-.07-1.22-.1-1.82l4.14-3.78c-.42,1.38-.83,2.76-1.24,4.14A5.23,5.23,0,0,0,427.74,408.49Z"/><path class="cls-2" d="M432.67,405a4.87,4.87,0,0,1-.26-1.19,13,13,0,0,1,1.8-.58c.08.32.31.87.23.92A16.07,16.07,0,0,1,432.67,405Z"/><path class="cls-5" d="M500.63,393.59l-1.36,1.34Z"/><path class="cls-14" d="M415.46,397.76l-1.67-.69a3.81,3.81,0,0,1,.37-.46c.51.29,1,.61,1.49.93Z"/><path class="cls-14" d="M404.68,391l-1.71-.69c.14-.17.36-.48.39-.46.53.28,1,.62,1.53.94Z"/><path class="cls-14" d="M398.14,386.72l1.69.68c-.13.16-.34.48-.38.46-.51-.28-1-.6-1.5-.91Z"/><path class="cls-14" d="M389.93,380.1l-1.46,1-.34-.52,1.78-.52Z"/><path class="cls-14" d="M369.8,369.16l1.67.7c-.12.16-.34.48-.37.46-.52-.28-1-.6-1.51-.91Z"/><path class="cls-14" d="M404.89,390.8l.49.69-.7-.48Z"/></svg>